G04*
G04 #@! TF.GenerationSoftware,Altium Limited,Altium Designer,19.0.12 (326)*
G04*
G04 Layer_Color=65535*
%FSLAX43Y43*%
%MOMM*%
G71*
G01*
G75*
%ADD10C,0.200*%
%ADD11C,0.100*%
%ADD12C,0.150*%
G36*
X15270Y14467D02*
X15144D01*
Y14593D01*
X15270D01*
Y14467D01*
D02*
G37*
G36*
X15044D02*
X14918D01*
Y14593D01*
X15044D01*
Y14467D01*
D02*
G37*
G36*
X17597Y13631D02*
X17443D01*
Y13966D01*
X17139D01*
Y13631D01*
X16985D01*
Y14397D01*
X17139D01*
Y14095D01*
X17443D01*
Y14397D01*
X17597D01*
Y13631D01*
D02*
G37*
G36*
X24627Y14098D02*
X24932Y13631D01*
X24731D01*
X24520Y13990D01*
X24395Y13862D01*
Y13631D01*
X24241D01*
Y14397D01*
X24395D01*
Y14056D01*
X24708Y14397D01*
X24916D01*
X24627Y14098D01*
D02*
G37*
G36*
X20524Y14098D02*
X20829Y13631D01*
X20628D01*
X20417Y13990D01*
X20292Y13862D01*
Y13631D01*
X20138D01*
Y14397D01*
X20292D01*
Y14056D01*
X20605Y14397D01*
X20813D01*
X20524Y14098D01*
D02*
G37*
G36*
X23778Y13631D02*
X23623D01*
X23313Y14132D01*
Y13631D01*
X23170D01*
Y14397D01*
X23320D01*
X23634Y13884D01*
Y14397D01*
X23778D01*
Y13631D01*
D02*
G37*
G36*
X14519Y13631D02*
X14354D01*
X14202Y14203D01*
X14050Y13631D01*
X13882D01*
X13700Y14397D01*
X13858D01*
X13974Y13870D01*
X14113Y14397D01*
X14297D01*
X14431Y13861D01*
X14549Y14397D01*
X14705D01*
X14519Y13631D01*
D02*
G37*
G36*
X15394Y13994D02*
Y13993D01*
Y13992D01*
Y13991D01*
Y13988D01*
Y13984D01*
Y13981D01*
Y13976D01*
Y13972D01*
X15393Y13960D01*
Y13947D01*
X15393Y13933D01*
X15392Y13918D01*
X15392Y13902D01*
X15391Y13886D01*
X15390Y13869D01*
X15388Y13853D01*
X15387Y13838D01*
X15386Y13824D01*
X15383Y13811D01*
X15381Y13799D01*
Y13798D01*
X15381Y13796D01*
X15380Y13793D01*
X15378Y13790D01*
X15377Y13785D01*
X15376Y13779D01*
X15373Y13772D01*
X15371Y13766D01*
X15364Y13750D01*
X15356Y13734D01*
X15346Y13718D01*
X15335Y13703D01*
X15334Y13702D01*
X15333Y13701D01*
X15331Y13699D01*
X15328Y13696D01*
X15325Y13693D01*
X15321Y13689D01*
X15316Y13685D01*
X15311Y13680D01*
X15305Y13675D01*
X15298Y13670D01*
X15291Y13665D01*
X15283Y13660D01*
X15274Y13655D01*
X15265Y13650D01*
X15255Y13645D01*
X15245Y13641D01*
X15244D01*
X15242Y13639D01*
X15239Y13638D01*
X15235Y13637D01*
X15229Y13635D01*
X15222Y13633D01*
X15214Y13631D01*
X15206Y13629D01*
X15195Y13627D01*
X15184Y13625D01*
X15172Y13623D01*
X15159Y13621D01*
X15145Y13620D01*
X15130Y13618D01*
X15114Y13618D01*
X15098Y13617D01*
X15087D01*
X15079Y13618D01*
X15070D01*
X15060Y13618D01*
X15048Y13620D01*
X15036Y13621D01*
X15022Y13622D01*
X15008Y13623D01*
X14981Y13628D01*
X14967Y13631D01*
X14954Y13634D01*
X14942Y13638D01*
X14931Y13642D01*
X14930Y13643D01*
X14929Y13643D01*
X14925Y13645D01*
X14922Y13647D01*
X14917Y13649D01*
X14912Y13652D01*
X14905Y13656D01*
X14899Y13660D01*
X14884Y13669D01*
X14869Y13681D01*
X14854Y13694D01*
X14841Y13708D01*
X14841Y13709D01*
X14840Y13710D01*
X14838Y13712D01*
X14836Y13715D01*
X14833Y13719D01*
X14830Y13723D01*
X14827Y13729D01*
X14823Y13734D01*
X14816Y13747D01*
X14809Y13761D01*
X14803Y13777D01*
X14798Y13793D01*
Y13794D01*
X14797Y13797D01*
X14797Y13801D01*
X14796Y13806D01*
X14795Y13813D01*
X14793Y13821D01*
X14792Y13831D01*
X14791Y13843D01*
X14789Y13855D01*
X14788Y13870D01*
X14786Y13886D01*
X14785Y13903D01*
X14785Y13922D01*
X14784Y13942D01*
X14783Y13964D01*
Y13988D01*
Y14397D01*
X14938D01*
Y13982D01*
Y13981D01*
Y13977D01*
Y13972D01*
Y13966D01*
Y13958D01*
X14938Y13949D01*
Y13939D01*
Y13928D01*
X14939Y13907D01*
X14939Y13896D01*
X14940Y13886D01*
X14940Y13876D01*
X14941Y13867D01*
X14942Y13859D01*
X14943Y13853D01*
Y13853D01*
X14944Y13851D01*
X14944Y13849D01*
X14945Y13845D01*
X14946Y13842D01*
X14948Y13837D01*
X14953Y13826D01*
X14959Y13814D01*
X14967Y13802D01*
X14972Y13796D01*
X14977Y13790D01*
X14984Y13783D01*
X14990Y13778D01*
X14991Y13777D01*
X14992Y13777D01*
X14994Y13775D01*
X14997Y13773D01*
X15001Y13771D01*
X15006Y13769D01*
X15011Y13766D01*
X15017Y13764D01*
X15024Y13761D01*
X15032Y13759D01*
X15040Y13756D01*
X15049Y13754D01*
X15059Y13752D01*
X15069Y13751D01*
X15081Y13750D01*
X15093Y13750D01*
X15099D01*
X15104Y13750D01*
X15109D01*
X15115Y13751D01*
X15122Y13752D01*
X15130Y13753D01*
X15146Y13756D01*
X15162Y13761D01*
X15178Y13767D01*
X15185Y13772D01*
X15192Y13776D01*
X15192Y13777D01*
X15193Y13777D01*
X15195Y13779D01*
X15197Y13781D01*
X15203Y13787D01*
X15209Y13794D01*
X15217Y13804D01*
X15223Y13816D01*
X15228Y13828D01*
X15230Y13835D01*
X15232Y13842D01*
Y13843D01*
X15233Y13844D01*
Y13847D01*
X15233Y13850D01*
X15234Y13854D01*
X15234Y13859D01*
X15235Y13866D01*
X15236Y13873D01*
X15237Y13882D01*
X15237Y13891D01*
X15238Y13902D01*
X15238Y13914D01*
X15239Y13927D01*
Y13941D01*
X15239Y13956D01*
Y13973D01*
Y14397D01*
X15394D01*
Y13994D01*
D02*
G37*
G36*
X24091Y13631D02*
X23937D01*
Y14397D01*
X24091D01*
Y13631D01*
D02*
G37*
G36*
X21908Y14396D02*
X21919D01*
X21930Y14396D01*
X21943Y14395D01*
X21957Y14394D01*
X21971Y14393D01*
X21986Y14392D01*
X22016Y14388D01*
X22030Y14386D01*
X22043Y14383D01*
X22056Y14380D01*
X22067Y14376D01*
X22067D01*
X22069Y14375D01*
X22072Y14374D01*
X22076Y14372D01*
X22081Y14370D01*
X22086Y14366D01*
X22092Y14363D01*
X22099Y14359D01*
X22106Y14354D01*
X22113Y14349D01*
X22120Y14343D01*
X22128Y14336D01*
X22135Y14329D01*
X22143Y14321D01*
X22149Y14312D01*
X22156Y14302D01*
X22156Y14302D01*
X22158Y14300D01*
X22159Y14297D01*
X22161Y14293D01*
X22164Y14288D01*
X22166Y14282D01*
X22170Y14275D01*
X22173Y14267D01*
X22176Y14259D01*
X22179Y14250D01*
X22182Y14240D01*
X22185Y14229D01*
X22186Y14218D01*
X22188Y14206D01*
X22189Y14195D01*
X22190Y14182D01*
Y14181D01*
Y14178D01*
X22189Y14174D01*
Y14168D01*
X22188Y14160D01*
X22187Y14152D01*
X22185Y14142D01*
X22184Y14132D01*
X22181Y14121D01*
X22177Y14109D01*
X22173Y14097D01*
X22168Y14085D01*
X22163Y14074D01*
X22155Y14061D01*
X22148Y14050D01*
X22139Y14039D01*
X22138Y14039D01*
X22136Y14037D01*
X22133Y14034D01*
X22129Y14030D01*
X22124Y14026D01*
X22118Y14021D01*
X22110Y14015D01*
X22101Y14009D01*
X22091Y14003D01*
X22079Y13998D01*
X22067Y13992D01*
X22053Y13986D01*
X22038Y13981D01*
X22022Y13976D01*
X22005Y13972D01*
X21987Y13969D01*
X21988Y13968D01*
X21989Y13968D01*
X21992Y13966D01*
X21995Y13964D01*
X22000Y13961D01*
X22005Y13958D01*
X22010Y13954D01*
X22016Y13950D01*
X22030Y13940D01*
X22043Y13929D01*
X22057Y13917D01*
X22070Y13904D01*
X22071Y13904D01*
X22072Y13902D01*
X22073Y13900D01*
X22076Y13897D01*
X22079Y13894D01*
X22083Y13889D01*
X22088Y13883D01*
X22093Y13875D01*
X22099Y13868D01*
X22106Y13859D01*
X22113Y13848D01*
X22121Y13837D01*
X22129Y13824D01*
X22138Y13811D01*
X22148Y13796D01*
X22158Y13780D01*
X22252Y13631D01*
X22066D01*
X21955Y13797D01*
X21954Y13798D01*
X21952Y13801D01*
X21949Y13806D01*
X21945Y13812D01*
X21940Y13819D01*
X21935Y13827D01*
X21929Y13835D01*
X21922Y13845D01*
X21908Y13864D01*
X21902Y13873D01*
X21895Y13883D01*
X21889Y13891D01*
X21883Y13898D01*
X21877Y13905D01*
X21873Y13910D01*
X21872Y13911D01*
X21869Y13914D01*
X21865Y13917D01*
X21859Y13922D01*
X21852Y13928D01*
X21844Y13933D01*
X21836Y13938D01*
X21826Y13942D01*
X21825Y13942D01*
X21824Y13943D01*
X21822Y13943D01*
X21819Y13944D01*
X21816Y13945D01*
X21812Y13946D01*
X21808Y13946D01*
X21803Y13947D01*
X21797Y13948D01*
X21790Y13948D01*
X21783Y13950D01*
X21776Y13950D01*
X21768D01*
X21758Y13951D01*
X21718D01*
Y13631D01*
X21563D01*
Y14397D01*
X21900D01*
X21908Y14396D01*
D02*
G37*
G36*
X21464Y14267D02*
X21237D01*
Y13631D01*
X21082D01*
Y14267D01*
X20855Y14267D01*
Y14397D01*
X21464Y14397D01*
Y14267D01*
D02*
G37*
G36*
X19990Y14267D02*
X19577D01*
Y14097D01*
X19961D01*
Y13968D01*
X19577D01*
Y13760D01*
X20005D01*
Y13631D01*
X19422D01*
Y14397D01*
X19990D01*
Y14267D01*
D02*
G37*
G36*
X18927Y13760D02*
X19311D01*
Y13631D01*
X18772D01*
Y14390D01*
X18927D01*
Y13760D01*
D02*
G37*
G36*
X18623Y14267D02*
X18209D01*
Y14097D01*
X18594D01*
Y13968D01*
X18209D01*
Y13760D01*
X18637D01*
Y13631D01*
X18054D01*
Y14397D01*
X18623D01*
Y14267D01*
D02*
G37*
G36*
X16885D02*
X16658D01*
Y13631D01*
X16503D01*
Y14267D01*
X16276D01*
Y14397D01*
X16885D01*
Y14267D01*
D02*
G37*
G36*
X15903Y14396D02*
X15913D01*
X15925Y14396D01*
X15938Y14395D01*
X15951Y14394D01*
X15966Y14393D01*
X15980Y14392D01*
X16010Y14388D01*
X16024Y14386D01*
X16037Y14383D01*
X16050Y14380D01*
X16061Y14376D01*
X16062D01*
X16063Y14375D01*
X16067Y14374D01*
X16070Y14372D01*
X16075Y14370D01*
X16080Y14366D01*
X16087Y14363D01*
X16093Y14359D01*
X16100Y14354D01*
X16108Y14349D01*
X16115Y14343D01*
X16123Y14336D01*
X16130Y14329D01*
X16137Y14321D01*
X16144Y14312D01*
X16150Y14302D01*
X16151Y14302D01*
X16152Y14300D01*
X16154Y14297D01*
X16156Y14293D01*
X16158Y14288D01*
X16161Y14282D01*
X16164Y14275D01*
X16167Y14267D01*
X16170Y14259D01*
X16173Y14250D01*
X16176Y14240D01*
X16179Y14229D01*
X16181Y14218D01*
X16182Y14206D01*
X16183Y14195D01*
X16184Y14182D01*
Y14181D01*
Y14178D01*
X16183Y14174D01*
Y14168D01*
X16182Y14160D01*
X16181Y14152D01*
X16180Y14142D01*
X16178Y14132D01*
X16175Y14121D01*
X16172Y14109D01*
X16167Y14097D01*
X16162Y14085D01*
X16157Y14074D01*
X16150Y14061D01*
X16142Y14050D01*
X16133Y14039D01*
X16132Y14039D01*
X16131Y14037D01*
X16128Y14034D01*
X16124Y14030D01*
X16118Y14026D01*
X16112Y14021D01*
X16104Y14015D01*
X16095Y14009D01*
X16085Y14003D01*
X16074Y13998D01*
X16062Y13992D01*
X16048Y13986D01*
X16033Y13981D01*
X16017Y13976D01*
X16000Y13972D01*
X15981Y13969D01*
X15982Y13968D01*
X15984Y13968D01*
X15986Y13966D01*
X15990Y13964D01*
X15994Y13961D01*
X15999Y13958D01*
X16005Y13954D01*
X16011Y13950D01*
X16024Y13940D01*
X16038Y13929D01*
X16052Y13917D01*
X16064Y13904D01*
X16065Y13904D01*
X16066Y13902D01*
X16068Y13900D01*
X16070Y13897D01*
X16074Y13894D01*
X16078Y13889D01*
X16082Y13883D01*
X16088Y13875D01*
X16094Y13868D01*
X16100Y13859D01*
X16108Y13848D01*
X16115Y13837D01*
X16124Y13824D01*
X16132Y13811D01*
X16142Y13796D01*
X16152Y13780D01*
X16246Y13631D01*
X16061D01*
X15949Y13797D01*
X15949Y13798D01*
X15946Y13801D01*
X15944Y13806D01*
X15940Y13812D01*
X15935Y13819D01*
X15929Y13827D01*
X15923Y13835D01*
X15917Y13845D01*
X15903Y13864D01*
X15896Y13873D01*
X15889Y13883D01*
X15883Y13891D01*
X15877Y13898D01*
X15872Y13905D01*
X15867Y13910D01*
X15866Y13911D01*
X15863Y13914D01*
X15859Y13917D01*
X15853Y13922D01*
X15846Y13928D01*
X15838Y13933D01*
X15830Y13938D01*
X15821Y13942D01*
X15820Y13942D01*
X15818Y13943D01*
X15816Y13943D01*
X15814Y13944D01*
X15810Y13945D01*
X15806Y13946D01*
X15802Y13946D01*
X15797Y13947D01*
X15791Y13948D01*
X15785Y13948D01*
X15778Y13950D01*
X15770Y13950D01*
X15762D01*
X15753Y13951D01*
X15712D01*
Y13631D01*
X15558D01*
Y14397D01*
X15894D01*
X15903Y14396D01*
D02*
G37*
G36*
X22686Y14409D02*
X22691D01*
X22696Y14409D01*
X22703Y14408D01*
X22710Y14407D01*
X22717Y14406D01*
X22725Y14405D01*
X22734Y14404D01*
X22752Y14401D01*
X22772Y14396D01*
X22793Y14391D01*
X22815Y14384D01*
X22838Y14375D01*
X22861Y14365D01*
X22883Y14353D01*
X22905Y14339D01*
X22916Y14332D01*
X22926Y14323D01*
X22936Y14314D01*
X22946Y14304D01*
X22947Y14304D01*
X22947Y14303D01*
X22949Y14302D01*
X22950Y14299D01*
X22953Y14297D01*
X22955Y14293D01*
X22959Y14290D01*
X22962Y14285D01*
X22966Y14280D01*
X22970Y14275D01*
X22974Y14268D01*
X22978Y14261D01*
X22983Y14254D01*
X22988Y14246D01*
X22992Y14237D01*
X22997Y14229D01*
X23006Y14209D01*
X23016Y14187D01*
X23024Y14163D01*
X23032Y14137D01*
X23038Y14108D01*
X23043Y14079D01*
X23047Y14046D01*
X23048Y14029D01*
Y14012D01*
Y14012D01*
Y14010D01*
Y14008D01*
Y14004D01*
X23047Y13999D01*
Y13994D01*
X23047Y13988D01*
X23046Y13982D01*
X23046Y13974D01*
X23045Y13966D01*
X23044Y13957D01*
X23042Y13948D01*
X23040Y13928D01*
X23035Y13906D01*
X23030Y13884D01*
X23023Y13860D01*
X23015Y13835D01*
X23005Y13812D01*
X22994Y13788D01*
X22980Y13765D01*
X22973Y13754D01*
X22964Y13742D01*
X22956Y13732D01*
X22947Y13722D01*
X22946Y13721D01*
X22945Y13721D01*
X22944Y13719D01*
X22942Y13718D01*
X22939Y13715D01*
X22936Y13713D01*
X22933Y13709D01*
X22928Y13706D01*
X22918Y13698D01*
X22906Y13689D01*
X22891Y13679D01*
X22875Y13670D01*
X22857Y13660D01*
X22836Y13651D01*
X22814Y13642D01*
X22790Y13634D01*
X22764Y13627D01*
X22737Y13622D01*
X22708Y13618D01*
X22692Y13618D01*
X22677Y13617D01*
X22669D01*
X22665Y13618D01*
X22660D01*
X22655Y13618D01*
X22649Y13619D01*
X22641Y13620D01*
X22634Y13621D01*
X22626Y13622D01*
X22618Y13623D01*
X22599Y13626D01*
X22579Y13631D01*
X22557Y13636D01*
X22535Y13643D01*
X22513Y13651D01*
X22490Y13661D01*
X22468Y13673D01*
X22445Y13687D01*
X22435Y13695D01*
X22425Y13703D01*
X22414Y13712D01*
X22405Y13721D01*
Y13722D01*
X22404Y13723D01*
X22403Y13724D01*
X22401Y13726D01*
X22398Y13729D01*
X22396Y13732D01*
X22393Y13736D01*
X22390Y13741D01*
X22386Y13746D01*
X22382Y13751D01*
X22377Y13757D01*
X22373Y13764D01*
X22368Y13771D01*
X22364Y13779D01*
X22355Y13796D01*
X22345Y13816D01*
X22336Y13837D01*
X22328Y13861D01*
X22320Y13886D01*
X22314Y13914D01*
X22309Y13944D01*
X22305Y13976D01*
X22305Y13992D01*
X22304Y14009D01*
Y14009D01*
Y14010D01*
Y14012D01*
Y14014D01*
Y14017D01*
Y14020D01*
X22305Y14028D01*
X22305Y14038D01*
X22306Y14050D01*
X22307Y14063D01*
X22309Y14077D01*
X22310Y14092D01*
X22313Y14108D01*
X22316Y14125D01*
X22319Y14141D01*
X22323Y14157D01*
X22328Y14174D01*
X22333Y14189D01*
X22339Y14205D01*
X22340Y14205D01*
X22340Y14208D01*
X22342Y14210D01*
X22344Y14215D01*
X22346Y14220D01*
X22350Y14226D01*
X22354Y14232D01*
X22358Y14240D01*
X22368Y14256D01*
X22380Y14274D01*
X22394Y14292D01*
X22410Y14310D01*
X22411Y14311D01*
X22412Y14312D01*
X22414Y14314D01*
X22418Y14318D01*
X22422Y14322D01*
X22427Y14326D01*
X22433Y14331D01*
X22439Y14336D01*
X22447Y14342D01*
X22454Y14347D01*
X22471Y14359D01*
X22490Y14370D01*
X22500Y14375D01*
X22510Y14379D01*
X22511Y14380D01*
X22513Y14380D01*
X22517Y14382D01*
X22522Y14384D01*
X22529Y14386D01*
X22537Y14389D01*
X22547Y14391D01*
X22557Y14395D01*
X22569Y14397D01*
X22581Y14400D01*
X22595Y14402D01*
X22609Y14405D01*
X22625Y14407D01*
X22641Y14409D01*
X22658Y14409D01*
X22675Y14410D01*
X22682D01*
X22686Y14409D01*
D02*
G37*
%LPC*%
G36*
X21883Y14267D02*
X21718D01*
Y14073D01*
X21850D01*
X21859Y14074D01*
X21880D01*
X21891Y14074D01*
X21915Y14075D01*
X21927Y14076D01*
X21938Y14077D01*
X21948Y14078D01*
X21957Y14079D01*
X21965Y14080D01*
X21971Y14082D01*
X21971D01*
X21972Y14082D01*
X21975Y14084D01*
X21980Y14086D01*
X21987Y14090D01*
X21994Y14094D01*
X22001Y14100D01*
X22008Y14106D01*
X22014Y14115D01*
X22015Y14116D01*
X22017Y14119D01*
X22019Y14124D01*
X22022Y14131D01*
X22025Y14139D01*
X22028Y14149D01*
X22030Y14160D01*
X22030Y14172D01*
Y14173D01*
Y14174D01*
Y14176D01*
X22030Y14179D01*
Y14182D01*
X22029Y14185D01*
X22027Y14194D01*
X22025Y14204D01*
X22021Y14215D01*
X22016Y14225D01*
X22009Y14234D01*
Y14235D01*
X22008Y14235D01*
X22005Y14238D01*
X22001Y14242D01*
X21994Y14247D01*
X21986Y14252D01*
X21976Y14257D01*
X21964Y14261D01*
X21951Y14265D01*
X21949D01*
X21947Y14265D01*
X21944D01*
X21940Y14266D01*
X21935D01*
X21930Y14266D01*
X21915D01*
X21906Y14267D01*
X21896D01*
X21883Y14267D01*
D02*
G37*
G36*
X15878Y14267D02*
X15712D01*
Y14073D01*
X15844D01*
X15853Y14074D01*
X15874D01*
X15886Y14074D01*
X15909Y14075D01*
X15921Y14076D01*
X15932Y14077D01*
X15942Y14078D01*
X15951Y14079D01*
X15959Y14080D01*
X15965Y14082D01*
X15966D01*
X15966Y14082D01*
X15970Y14084D01*
X15975Y14086D01*
X15981Y14090D01*
X15988Y14094D01*
X15995Y14100D01*
X16002Y14106D01*
X16008Y14115D01*
X16009Y14116D01*
X16011Y14119D01*
X16013Y14124D01*
X16017Y14131D01*
X16020Y14139D01*
X16022Y14149D01*
X16024Y14160D01*
X16025Y14172D01*
Y14173D01*
Y14174D01*
Y14176D01*
X16024Y14179D01*
Y14182D01*
X16023Y14185D01*
X16022Y14194D01*
X16020Y14204D01*
X16016Y14215D01*
X16011Y14225D01*
X16003Y14234D01*
Y14235D01*
X16002Y14235D01*
X16000Y14238D01*
X15995Y14242D01*
X15989Y14247D01*
X15980Y14252D01*
X15970Y14257D01*
X15959Y14261D01*
X15945Y14265D01*
X15943D01*
X15941Y14265D01*
X15938D01*
X15934Y14266D01*
X15930D01*
X15924Y14266D01*
X15909D01*
X15900Y14267D01*
X15890D01*
X15878Y14267D01*
D02*
G37*
G36*
X22676Y14277D02*
X22672D01*
X22667Y14277D01*
X22660Y14276D01*
X22653Y14275D01*
X22643Y14274D01*
X22633Y14272D01*
X22621Y14269D01*
X22609Y14266D01*
X22597Y14261D01*
X22584Y14256D01*
X22571Y14250D01*
X22558Y14242D01*
X22545Y14233D01*
X22533Y14223D01*
X22522Y14211D01*
X22521Y14211D01*
X22520Y14208D01*
X22516Y14205D01*
X22513Y14199D01*
X22509Y14192D01*
X22504Y14184D01*
X22498Y14174D01*
X22493Y14162D01*
X22488Y14149D01*
X22482Y14134D01*
X22477Y14118D01*
X22473Y14101D01*
X22469Y14081D01*
X22466Y14060D01*
X22464Y14038D01*
X22464Y14014D01*
Y14013D01*
Y14012D01*
Y14010D01*
Y14008D01*
Y14005D01*
X22464Y14002D01*
X22465Y13992D01*
X22465Y13982D01*
X22467Y13969D01*
X22469Y13955D01*
X22471Y13940D01*
X22474Y13925D01*
X22478Y13909D01*
X22483Y13892D01*
X22489Y13876D01*
X22496Y13860D01*
X22504Y13844D01*
X22513Y13830D01*
X22524Y13817D01*
X22524Y13816D01*
X22526Y13814D01*
X22530Y13811D01*
X22535Y13806D01*
X22540Y13801D01*
X22547Y13796D01*
X22556Y13790D01*
X22565Y13783D01*
X22576Y13777D01*
X22587Y13771D01*
X22600Y13765D01*
X22613Y13760D01*
X22628Y13756D01*
X22643Y13752D01*
X22659Y13750D01*
X22676Y13750D01*
X22680D01*
X22685Y13750D01*
X22692Y13751D01*
X22700Y13752D01*
X22709Y13753D01*
X22719Y13755D01*
X22730Y13758D01*
X22742Y13761D01*
X22754Y13766D01*
X22767Y13771D01*
X22780Y13778D01*
X22793Y13785D01*
X22805Y13794D01*
X22817Y13804D01*
X22829Y13816D01*
X22829Y13817D01*
X22831Y13819D01*
X22834Y13823D01*
X22838Y13829D01*
X22842Y13835D01*
X22847Y13844D01*
X22853Y13854D01*
X22859Y13866D01*
X22864Y13879D01*
X22870Y13894D01*
X22875Y13911D01*
X22879Y13928D01*
X22883Y13948D01*
X22886Y13969D01*
X22888Y13992D01*
X22888Y14016D01*
Y14017D01*
Y14018D01*
Y14019D01*
Y14022D01*
Y14025D01*
X22888Y14029D01*
Y14033D01*
X22887Y14038D01*
X22887Y14049D01*
X22885Y14061D01*
X22883Y14075D01*
X22881Y14090D01*
X22878Y14106D01*
X22874Y14122D01*
X22870Y14138D01*
X22864Y14154D01*
X22857Y14170D01*
X22850Y14185D01*
X22841Y14200D01*
X22830Y14213D01*
X22830Y14213D01*
X22828Y14215D01*
X22824Y14219D01*
X22820Y14223D01*
X22814Y14227D01*
X22807Y14233D01*
X22799Y14239D01*
X22789Y14245D01*
X22779Y14251D01*
X22767Y14257D01*
X22754Y14262D01*
X22741Y14267D01*
X22726Y14271D01*
X22711Y14275D01*
X22694Y14277D01*
X22676Y14277D01*
D02*
G37*
%LPD*%
D10*
X19828Y16123D02*
G03*
X19828Y16123I-378J0D01*
G01*
X21178Y15188D02*
G03*
X21178Y15188I-378J0D01*
G01*
Y17067D02*
G03*
X21178Y17067I-378J0D01*
G01*
X19828Y17992D02*
G03*
X19828Y17992I-378J0D01*
G01*
X21178Y18867D02*
G03*
X21178Y18867I-378J0D01*
G01*
X21900Y2600D02*
X25100D01*
X21900Y4400D02*
X25100D01*
X4900Y2600D02*
X8100D01*
X4900Y4400D02*
X8100D01*
X13000Y1500D02*
Y5500D01*
Y1500D02*
X17000D01*
Y5500D01*
X13000D02*
X17000D01*
X3725Y13400D02*
X5525D01*
Y12000D02*
Y13400D01*
X3725Y12000D02*
X5525D01*
X3725D02*
Y13400D01*
Y6600D02*
Y8000D01*
Y6600D02*
X5525D01*
Y8000D01*
X3725D02*
X5525D01*
X3400Y10900D02*
X6600D01*
Y9100D02*
Y10900D01*
X3400Y9100D02*
X6600D01*
X3400D02*
Y10900D01*
X14227Y16143D02*
X14927Y16143D01*
X14277Y16318D02*
X14977Y16318D01*
X14352Y16493D02*
X15052Y16493D01*
X14427Y16674D02*
X15127Y16674D01*
X14977Y17443D02*
X15677Y17442D01*
X15002Y17543D02*
X15702Y17543D01*
X15077Y17693D02*
X15777Y17693D01*
X15177Y17868D02*
X15877Y17868D01*
X14087Y15993D02*
X16087Y15992D01*
X15970Y15593D02*
X16314Y16166D01*
X13962Y15743D02*
X15962Y15742D01*
X13987Y15843D02*
X15987Y15842D01*
X14562Y16843D02*
X16562Y16842D01*
X14662Y16943D02*
X16762Y16942D01*
X14737Y17118D02*
X16837Y17117D01*
X14812Y17293D02*
X16912Y17292D01*
X15212Y18018D02*
X17410Y18017D01*
X15287Y18143D02*
X17485Y18142D01*
X15387Y18318D02*
X17585Y18317D01*
X12440Y15768D02*
X13375Y15767D01*
X12440Y15915D02*
X13375Y15914D01*
X11265Y15743D02*
X12200Y15742D01*
X11240Y15915D02*
X12175Y15914D01*
X11215Y16070D02*
X13519Y16068D01*
X11115Y16245D02*
X13694Y16243D01*
X11115Y16420D02*
X13700Y16418D01*
X11115Y16595D02*
X13825Y16593D01*
X11090Y16770D02*
X14000Y16767D01*
X13185Y17117D02*
X14085Y17116D01*
X13375Y17242D02*
X14195Y17242D01*
X13525Y17417D02*
X14345Y17417D01*
X13625Y17592D02*
X14445Y17592D01*
X13750Y17767D02*
X14570Y17767D01*
X13800Y17954D02*
X14620Y17954D01*
X13912Y18142D02*
X14732Y18142D01*
X14027Y18317D02*
X14847Y18317D01*
X11990Y17118D02*
X13185Y17117D01*
X12140Y17293D02*
X13075Y17292D01*
X11140Y16943D02*
X14087Y16940D01*
X11065Y17093D02*
X11885Y17092D01*
X11065Y17268D02*
X11885Y17267D01*
X11040Y17443D02*
X11860Y17442D01*
X11040Y17618D02*
X11860Y17617D01*
X11015Y17793D02*
X11835Y17792D01*
X11015Y17968D02*
X11835Y17967D01*
X10990Y18143D02*
X11810Y18142D01*
X10990Y18318D02*
X11810Y18317D01*
X11810Y18492D02*
X11894Y16997D01*
X13801Y15592D02*
X15487Y18493D01*
X13801Y15592D02*
X15970Y15593D01*
X14899Y16166D02*
X16314D01*
X14899D02*
X15203Y16674D01*
X16605D01*
X17081Y17478D01*
X15676Y17478D02*
X17081Y17478D01*
X15676Y17478D02*
X15918Y17876D01*
X17320Y17870D01*
X17685Y18492D01*
X15487Y18493D02*
X17685Y18492D01*
X10965Y18493D02*
X11138Y15592D01*
X12082Y15592D01*
X12303Y15914D01*
X12355Y15591D01*
X13329Y15593D01*
X15021Y18492D01*
X14121Y18493D02*
X15021Y18492D01*
X13212Y16969D02*
X14121Y18493D01*
X13118Y17478D02*
X13212Y16969D01*
X12251Y17476D02*
X13118Y17478D01*
X11894Y16997D02*
X12251Y17476D01*
X10965Y18493D02*
X11810Y18492D01*
X16905Y16119D02*
X19068D01*
X17463Y17050D02*
X20418D01*
X18004Y17982D02*
X19065D01*
X21178Y18875D02*
X21770D01*
X19826Y17982D02*
X21770D01*
X21178Y17050D02*
X21770D01*
X19826Y16119D02*
X21770D01*
X21178Y15188D02*
X21770D01*
X9770D02*
X20417D01*
X9770Y16123D02*
X10725Y16119D01*
X9770Y17055D02*
X10650Y17050D01*
X9770Y17982D02*
X10625D01*
X9770Y18875D02*
X20417D01*
X22000Y1900D02*
X25000D01*
X22000Y5100D02*
X25000D01*
X17900Y1950D02*
X19100D01*
X29350Y11950D02*
X30450D01*
X29350Y8050D02*
X30450D01*
X17000Y1350D02*
Y5650D01*
X13000Y1350D02*
X17000D01*
X13000D02*
Y5350D01*
X13300Y5650D01*
X17000D01*
X5000Y1900D02*
X8000D01*
X5000Y5100D02*
X8000D01*
X10900Y1950D02*
X12100D01*
D11*
X27925Y8025D02*
G03*
X27925Y8025I-50J0D01*
G01*
X28975Y11975D02*
G03*
X28975Y11975I-50J0D01*
G01*
X30825Y8050D02*
G03*
X30825Y8050I-50J0D01*
G01*
X30100Y3675D02*
G03*
X30100Y3675I-50J0D01*
G01*
X27875Y7850D02*
X28925D01*
X27875Y6350D02*
X28925D01*
X27875Y13650D02*
X28925D01*
X27875Y12150D02*
X28925D01*
X29075Y2775D02*
X29250Y2950D01*
X29425Y2775D01*
X29075D02*
X29425D01*
D12*
X22250Y1600D02*
Y600D01*
X22916D01*
X23250D02*
X23583D01*
X23416D01*
Y1600D01*
X23250Y1433D01*
X24083Y600D02*
X24416D01*
X24249D01*
Y1600D01*
X24083Y1433D01*
X17500Y6250D02*
Y5250D01*
X18166D01*
X18500D02*
X18833D01*
X18666D01*
Y6250D01*
X18500Y6083D01*
X19333D02*
X19499Y6250D01*
X19833D01*
X19999Y6083D01*
Y5417D01*
X19833Y5250D01*
X19499D01*
X19333Y5417D01*
Y6083D01*
X4325Y1600D02*
Y600D01*
X4991D01*
X5325Y767D02*
X5491Y600D01*
X5825D01*
X5991Y767D01*
Y1433D01*
X5825Y1600D01*
X5491D01*
X5325Y1433D01*
Y1266D01*
X5491Y1100D01*
X5991D01*
X5925Y6425D02*
Y5425D01*
X6591D01*
X7591Y6425D02*
X7258Y6258D01*
X6925Y5925D01*
Y5592D01*
X7091Y5425D01*
X7425D01*
X7591Y5592D01*
Y5758D01*
X7425Y5925D01*
X6925D01*
X11416Y4383D02*
X11250Y4550D01*
X10917D01*
X10750Y4383D01*
Y3717D01*
X10917Y3550D01*
X11250D01*
X11416Y3717D01*
X11750Y3550D02*
X12083D01*
X11916D01*
Y4550D01*
X11750Y4383D01*
X25575Y9175D02*
Y8175D01*
X26075D01*
X26241Y8342D01*
Y9008D01*
X26075Y9175D01*
X25575D01*
X27241Y8175D02*
X26575D01*
X27241Y8841D01*
Y9008D01*
X27075Y9175D01*
X26741D01*
X26575Y9008D01*
X7075Y9100D02*
Y8100D01*
X7741D01*
X8075Y8933D02*
X8241Y9100D01*
X8575D01*
X8741Y8933D01*
Y8766D01*
X8575Y8600D01*
X8408D01*
X8575D01*
X8741Y8433D01*
Y8267D01*
X8575Y8100D01*
X8241D01*
X8075Y8267D01*
X22450Y6525D02*
Y5525D01*
X23116D01*
X23450Y6358D02*
X23616Y6525D01*
X23950D01*
X24116Y6358D01*
Y6191D01*
X23950Y6025D01*
X24116Y5858D01*
Y5692D01*
X23950Y5525D01*
X23616D01*
X23450Y5692D01*
Y5858D01*
X23616Y6025D01*
X23450Y6191D01*
Y6358D01*
X23616Y6025D02*
X23950D01*
X18316Y4383D02*
X18150Y4550D01*
X17817D01*
X17650Y4383D01*
Y3717D01*
X17817Y3550D01*
X18150D01*
X18316Y3717D01*
X19316Y3550D02*
X18650D01*
X19316Y4216D01*
Y4383D01*
X19150Y4550D01*
X18816D01*
X18650Y4383D01*
X28200Y15125D02*
Y14125D01*
X28700D01*
X28866Y14292D01*
Y14958D01*
X28700Y15125D01*
X28200D01*
X29200Y14125D02*
X29533D01*
X29366D01*
Y15125D01*
X29200Y14958D01*
X26200Y11800D02*
Y10800D01*
X26700D01*
X26866Y10967D01*
Y11633D01*
X26700Y11800D01*
X26200D01*
X27866D02*
X27200D01*
Y11300D01*
X27533Y11466D01*
X27700D01*
X27866Y11300D01*
Y10967D01*
X27700Y10800D01*
X27366D01*
X27200Y10967D01*
X28150Y5150D02*
Y4150D01*
X28650D01*
X28816Y4317D01*
Y4983D01*
X28650Y5150D01*
X28150D01*
X29816D02*
X29483Y4983D01*
X29150Y4650D01*
Y4317D01*
X29316Y4150D01*
X29650D01*
X29816Y4317D01*
Y4483D01*
X29650Y4650D01*
X29150D01*
X4275Y14800D02*
Y13800D01*
X4941D01*
X5941D02*
X5275D01*
X5941Y14466D01*
Y14633D01*
X5775Y14800D01*
X5441D01*
X5275Y14633D01*
X7075Y11850D02*
Y10850D01*
X7741D01*
X8075D02*
X8408D01*
X8241D01*
Y11850D01*
X8075Y11683D01*
X1175Y16550D02*
X1841Y15550D01*
Y16550D02*
X1175Y15550D01*
X2175D02*
X2508D01*
X2341D01*
Y16550D01*
X2175Y16383D01*
X34500Y16600D02*
X35166Y15600D01*
Y16600D02*
X34500Y15600D01*
X36166D02*
X35500D01*
X36166Y16266D01*
Y16433D01*
X36000Y16600D01*
X35666D01*
X35500Y16433D01*
X11425Y6225D02*
Y5225D01*
X12091D01*
X12425Y6225D02*
X13091D01*
Y6058D01*
X12425Y5392D01*
Y5225D01*
M02*
