G04*
G04 #@! TF.GenerationSoftware,Altium Limited,Altium Designer,19.0.12 (326)*
G04*
G04 Layer_Color=128*
%FSLAX43Y43*%
%MOMM*%
G71*
G01*
G75*
%ADD66C,0.051*%
D66*
X34165Y9200D02*
X34565D01*
X34365Y9000D02*
Y9400D01*
X34165Y10800D02*
X34565D01*
X34365Y10600D02*
Y11000D01*
X34165Y8400D02*
X34565D01*
X34365Y8200D02*
Y8600D01*
X34165Y11600D02*
X34565D01*
X34365Y11400D02*
Y11800D01*
X34165Y7600D02*
X34565D01*
X34365Y7400D02*
Y7800D01*
X34165Y12400D02*
X34565D01*
X34365Y12200D02*
Y12600D01*
X33465Y9600D02*
X33865D01*
X33665Y9400D02*
Y9800D01*
X33465Y10400D02*
X33865D01*
X33665Y10200D02*
Y10600D01*
X33465Y8800D02*
X33865D01*
X33665Y8600D02*
Y9000D01*
X33465Y11200D02*
X33865D01*
X33665Y11000D02*
Y11400D01*
X33465Y6950D02*
X33865D01*
X33665Y6750D02*
Y7150D01*
X33465Y13050D02*
X33865D01*
X33665Y12850D02*
Y13250D01*
X38115Y16075D02*
X38615D01*
X38365Y15825D02*
Y16325D01*
X38115Y3925D02*
X38615D01*
X38365Y3675D02*
Y4175D01*
X32615Y14500D02*
X33115D01*
X32865Y14250D02*
Y14750D01*
X32615Y5500D02*
X33115D01*
X32865Y5250D02*
Y5750D01*
X34040Y13725D02*
X34690D01*
X34365Y13400D02*
Y14050D01*
X34040Y6275D02*
X34690D01*
X34365Y5950D02*
Y6600D01*
X27300Y1750D02*
X27450D01*
X27375Y1675D02*
Y1825D01*
X33725Y15400D02*
X33875D01*
X33800Y15325D02*
Y15475D01*
X10300Y1750D02*
X10450D01*
X10375Y1675D02*
Y1825D01*
X8800Y1750D02*
X8950D01*
X8875Y1675D02*
Y1825D01*
X8050Y1750D02*
X8200D01*
X8125Y1675D02*
Y1825D01*
X9550Y1750D02*
X9700D01*
X9625Y1675D02*
Y1825D01*
X9475Y550D02*
X9625D01*
X9550Y475D02*
Y625D01*
X9550Y5250D02*
X9700D01*
X9625Y5175D02*
Y5325D01*
X8800Y5250D02*
X8950D01*
X8875Y5175D02*
Y5325D01*
X475Y550D02*
X625D01*
X550Y475D02*
Y625D01*
X38975Y19450D02*
X39125D01*
X39050Y19375D02*
Y19525D01*
X31425Y10300D02*
X31575D01*
X31500Y10225D02*
Y10375D01*
X2700Y8750D02*
X2850D01*
X2775Y8675D02*
Y8825D01*
X2050Y11250D02*
X2200D01*
X2125Y11175D02*
Y11325D01*
X2700Y11250D02*
X2850D01*
X2775Y11175D02*
Y11325D01*
X31125Y6875D02*
X31275D01*
X31200Y6800D02*
Y6950D01*
X1850Y7150D02*
X2000D01*
X1925Y7075D02*
Y7225D01*
X2050Y8750D02*
X2200D01*
X2125Y8675D02*
Y8825D01*
X30325Y8100D02*
X30475D01*
X30400Y8025D02*
Y8175D01*
X30325Y11900D02*
X30475D01*
X30400Y11825D02*
Y11975D01*
X31125Y13125D02*
X31275D01*
X31200Y13050D02*
Y13200D01*
X27800Y6425D02*
X28100D01*
X27950Y6275D02*
Y6575D01*
X28700Y6425D02*
X29000D01*
X28850Y6275D02*
Y6575D01*
X28325Y8500D02*
X28475D01*
X28400Y8425D02*
Y8575D01*
X28700Y10000D02*
X28850D01*
X28775Y9925D02*
Y10075D01*
X27800Y13575D02*
X28100D01*
X27950Y13425D02*
Y13725D01*
X28700Y13575D02*
X29000D01*
X28850Y13425D02*
Y13725D01*
X10975Y1650D02*
X11275D01*
X11125Y1500D02*
Y1800D01*
X17975Y1650D02*
X18275D01*
X18125Y1500D02*
Y1800D01*
X18725Y1650D02*
X19025D01*
X18875Y1500D02*
Y1800D01*
X29475Y1750D02*
X29775D01*
X29625Y1600D02*
Y1900D01*
X1100Y14450D02*
X1400D01*
X1250Y14300D02*
Y14600D01*
X1100Y5550D02*
X1400D01*
X1250Y5400D02*
Y5700D01*
X30300Y3100D02*
X30450D01*
X30375Y3025D02*
Y3175D01*
X30300Y3750D02*
X30450D01*
X30375Y3675D02*
Y3825D01*
X30300Y4400D02*
X30450D01*
X30375Y4325D02*
Y4475D01*
X30950Y4400D02*
X31100D01*
X31025Y4325D02*
Y4475D01*
X30950Y5050D02*
X31100D01*
X31025Y4975D02*
Y5125D01*
X30950Y3750D02*
X31100D01*
X31025Y3675D02*
Y3825D01*
X28725Y1750D02*
X29025D01*
X28875Y1600D02*
Y1900D01*
X25425Y5250D02*
X25575D01*
X25500Y5175D02*
Y5325D01*
X26050Y5250D02*
X26200D01*
X26125Y5175D02*
Y5325D01*
X26675Y5250D02*
X26825D01*
X26750Y5175D02*
Y5325D01*
X27300Y5250D02*
X27450D01*
X27375Y5175D02*
Y5325D01*
X25425Y1750D02*
X25575D01*
X25500Y1675D02*
Y1825D01*
X26050Y1750D02*
X26200D01*
X26125Y1675D02*
Y1825D01*
X26675Y1750D02*
X26825D01*
X26750Y1675D02*
Y1825D01*
X21800Y5250D02*
X21950D01*
X21875Y5175D02*
Y5325D01*
X21050Y5250D02*
X21200D01*
X21125Y5175D02*
Y5325D01*
X20300Y5250D02*
X20450D01*
X20375Y5175D02*
Y5325D01*
X19550Y5250D02*
X19700D01*
X19625Y5175D02*
Y5325D01*
X21800Y1750D02*
X21950D01*
X21875Y1675D02*
Y1825D01*
X21050Y1750D02*
X21200D01*
X21125Y1675D02*
Y1825D01*
X20300Y1750D02*
X20450D01*
X20375Y1675D02*
Y1825D01*
X19550Y1750D02*
X19700D01*
X19625Y1675D02*
Y1825D01*
X17050Y4750D02*
X17200D01*
X17125Y4675D02*
Y4825D01*
X17050Y2250D02*
X17200D01*
X17125Y2175D02*
Y2325D01*
X17050Y4000D02*
X17200D01*
X17125Y3925D02*
Y4075D01*
X17050Y3000D02*
X17200D01*
X17125Y2925D02*
Y3075D01*
X12800Y3000D02*
X12950D01*
X12875Y2925D02*
Y3075D01*
X12800Y4000D02*
X12950D01*
X12875Y3925D02*
Y4075D01*
X12800Y2250D02*
X12950D01*
X12875Y2175D02*
Y2325D01*
X12800Y4750D02*
X12950D01*
X12875Y4675D02*
Y4825D01*
X8050Y5250D02*
X8200D01*
X8125Y5175D02*
Y5325D01*
X10300Y5250D02*
X10450D01*
X10375Y5175D02*
Y5325D01*
X4675Y5250D02*
X4825D01*
X4750Y5175D02*
Y5325D01*
X4050Y5250D02*
X4200D01*
X4125Y5175D02*
Y5325D01*
X3425Y5250D02*
X3575D01*
X3500Y5175D02*
Y5325D01*
X2800Y5250D02*
X2950D01*
X2875Y5175D02*
Y5325D01*
X2050Y4750D02*
X2200D01*
X2125Y4675D02*
Y4825D01*
X1675Y3875D02*
X1825D01*
X1750Y3800D02*
Y3950D01*
X1675Y3125D02*
X1825D01*
X1750Y3050D02*
Y3200D01*
X1675Y2375D02*
X1825D01*
X1750Y2300D02*
Y2450D01*
X475Y3550D02*
X625D01*
X550Y3475D02*
Y3625D01*
X475Y19450D02*
X625D01*
X550Y19375D02*
Y19525D01*
X475Y16450D02*
X625D01*
X550Y16375D02*
Y16525D01*
X28325Y11500D02*
X28475D01*
X28400Y11425D02*
Y11575D01*
X38975Y550D02*
X39125D01*
X39050Y475D02*
Y625D01*
X11725Y1650D02*
X12025D01*
X11875Y1500D02*
Y1800D01*
X1850Y12850D02*
X2000D01*
X1925Y12775D02*
Y12925D01*
X3475Y550D02*
X3625D01*
X3550Y475D02*
Y625D01*
X6475Y550D02*
X6625D01*
X6550Y475D02*
Y625D01*
X12475Y550D02*
X12625D01*
X12550Y475D02*
Y625D01*
X15475Y550D02*
X15625D01*
X15550Y475D02*
Y625D01*
X18475Y550D02*
X18625D01*
X18550Y475D02*
Y625D01*
X21475Y550D02*
X21625D01*
X21550Y475D02*
Y625D01*
X24475Y550D02*
X24625D01*
X24550Y475D02*
Y625D01*
X27475Y550D02*
X27625D01*
X27550Y475D02*
Y625D01*
X30475Y550D02*
X30625D01*
X30550Y475D02*
Y625D01*
X33475Y550D02*
X33625D01*
X33550Y475D02*
Y625D01*
X36475Y550D02*
X36625D01*
X36550Y475D02*
Y625D01*
X3475Y19450D02*
X3625D01*
X3550Y19375D02*
Y19525D01*
X6475Y19450D02*
X6625D01*
X6550Y19375D02*
Y19525D01*
X9475Y19450D02*
X9625D01*
X9550Y19375D02*
Y19525D01*
X12475Y19450D02*
X12625D01*
X12550Y19375D02*
Y19525D01*
X15475Y19450D02*
X15625D01*
X15550Y19375D02*
Y19525D01*
X18475Y19450D02*
X18625D01*
X18550Y19375D02*
Y19525D01*
X21475Y19450D02*
X21625D01*
X21550Y19375D02*
Y19525D01*
X24475Y19450D02*
X24625D01*
X24550Y19375D02*
Y19525D01*
X27475Y19450D02*
X27625D01*
X27550Y19375D02*
Y19525D01*
X30475Y19450D02*
X30625D01*
X30550Y19375D02*
Y19525D01*
X33475Y19450D02*
X33625D01*
X33550Y19375D02*
Y19525D01*
X36475Y19450D02*
X36625D01*
X36550Y19375D02*
Y19525D01*
X3475Y14750D02*
X3625D01*
X3550Y14675D02*
Y14825D01*
X6475Y14750D02*
X6625D01*
X6550Y14675D02*
Y14825D01*
X9475Y14750D02*
X9625D01*
X9550Y14675D02*
Y14825D01*
X12475Y14750D02*
X12625D01*
X12550Y14675D02*
Y14825D01*
X15475Y14750D02*
X15625D01*
X15550Y14675D02*
Y14825D01*
X18475Y14750D02*
X18625D01*
X18550Y14675D02*
Y14825D01*
X21475Y14750D02*
X21625D01*
X21550Y14675D02*
Y14825D01*
X27375Y14750D02*
X27525D01*
X27450Y14675D02*
Y14825D01*
X30375Y16000D02*
X30525D01*
X30450Y15925D02*
Y16075D01*
M02*
