M48
;Layer_Color=9474304
;FILE_FORMAT=4:3
METRIC,TZ
;TYPE=PLATED
T1F00S00C0.150
T2F00S00C0.300
T3F00S00C0.400
%
T01
X33550Y550
X36550
X39050
Y19450
X36550
X33550
X33800Y15400
X30450Y16000
X30550Y19450
X27550
X24550
X21550
X18550
X15550
X12550
X9550
X6550
X3550
X550
Y16450
X3550Y14750
X6550
X9550
X12550
X15550
X18550
X21550
X27450
X28400Y11500
X28775Y10000
X28400Y8500
X30400Y8100
X31200Y6875
X31025Y5050
Y4400
Y3750
X30375
Y4400
Y3100
X30550Y550
X27550
X27375Y1750
X26750
X26125
X25500
X24550Y550
X21550
X21875Y1750
X21125
X20375
X19625
X18550Y550
X15550
X12550
X12875Y2250
Y3000
Y4000
Y4750
X10375Y5250
X9625
X8875
X8125
X4750
X4125
X3500
X2875
X2125Y4750
X1750Y3875
Y3125
Y2375
X550Y3550
Y550
X3550
X6550
X8125Y1750
X8875
X9625
X10375
X9550Y550
X17125Y2250
Y3000
Y4000
Y4750
X19625Y5250
X20375
X21125
X21875
X25500
X26125
X26750
X27375
X31500Y10300
X30400Y11900
X31200Y13125
X1925Y12850
X2125Y11250
X2775
Y8750
X2125
X1925Y7150
T02
X1250Y5550
Y14450
X11125Y1650
X11875
X18125
X18875
X28875Y1750
X29625
X28850Y6425
X27950
Y13575
X28850
T03
X34365Y7600
Y8400
Y9200
X33665Y8800
Y9600
Y10400
Y11200
X34365Y10800
Y11600
Y12400
M30
