G04*
G04 #@! TF.GenerationSoftware,Altium Limited,Altium Designer,19.0.12 (326)*
G04*
G04 Layer_Color=16711935*
%FSLAX43Y43*%
%MOMM*%
G71*
G01*
G75*
%ADD26R,1.700X0.550*%
%ADD31R,0.650X0.600*%
%ADD33R,0.875X0.400*%
%ADD39C,0.850*%
%ADD40O,0.850X1.350*%
%ADD41O,2.200X1.200*%
%ADD42O,1.800X1.200*%
%ADD43O,0.850X1.150*%
%ADD44C,0.700*%
%ADD45C,0.800*%
%ADD63R,1.200X1.100*%
D26*
X950Y12750D02*
D03*
Y12250D02*
D03*
Y11750D02*
D03*
Y11250D02*
D03*
Y10750D02*
D03*
Y9250D02*
D03*
Y8750D02*
D03*
Y8250D02*
D03*
Y7750D02*
D03*
Y7250D02*
D03*
D31*
X5075Y13050D02*
D03*
Y12350D02*
D03*
X4175Y13050D02*
D03*
Y12350D02*
D03*
Y6950D02*
D03*
Y7650D02*
D03*
X5075Y6950D02*
D03*
Y7650D02*
D03*
D33*
X28837Y12500D02*
D03*
Y13300D02*
D03*
X27962D02*
D03*
X28837Y12900D02*
D03*
X27962D02*
D03*
Y12500D02*
D03*
Y7500D02*
D03*
Y7100D02*
D03*
Y6700D02*
D03*
X28837D02*
D03*
Y7500D02*
D03*
Y7100D02*
D03*
D39*
X34365Y9200D02*
D03*
Y10800D02*
D03*
Y8400D02*
D03*
Y11600D02*
D03*
Y7600D02*
D03*
Y12400D02*
D03*
X33665Y9600D02*
D03*
Y10400D02*
D03*
Y8800D02*
D03*
Y11200D02*
D03*
X34365Y6275D02*
D03*
D40*
X33665Y6950D02*
D03*
Y13050D02*
D03*
D41*
X38365Y16075D02*
D03*
Y3925D02*
D03*
D42*
X32865Y14500D02*
D03*
Y5500D02*
D03*
D43*
X34365Y13725D02*
D03*
D44*
X27375Y1750D02*
D03*
X33800Y15400D02*
D03*
X10375Y1750D02*
D03*
X8875D02*
D03*
X8125D02*
D03*
X9625D02*
D03*
X9550Y550D02*
D03*
X9625Y5250D02*
D03*
X8875D02*
D03*
X550Y550D02*
D03*
X39050Y19450D02*
D03*
X31500Y10300D02*
D03*
X2775Y8750D02*
D03*
X2125Y11250D02*
D03*
X2775D02*
D03*
X31200Y6875D02*
D03*
X1925Y7150D02*
D03*
X2125Y8750D02*
D03*
X30400Y8100D02*
D03*
Y11900D02*
D03*
X31200Y13125D02*
D03*
X28400Y8500D02*
D03*
X28775Y10000D02*
D03*
X30375Y3100D02*
D03*
Y3750D02*
D03*
Y4400D02*
D03*
X31025D02*
D03*
Y5050D02*
D03*
Y3750D02*
D03*
X25500Y5250D02*
D03*
X26125D02*
D03*
X26750D02*
D03*
X27375D02*
D03*
X25500Y1750D02*
D03*
X26125D02*
D03*
X26750D02*
D03*
X21875Y5250D02*
D03*
X21125D02*
D03*
X20375D02*
D03*
X19625D02*
D03*
X21875Y1750D02*
D03*
X21125D02*
D03*
X20375D02*
D03*
X19625D02*
D03*
X17125Y4750D02*
D03*
Y2250D02*
D03*
Y4000D02*
D03*
Y3000D02*
D03*
X12875D02*
D03*
Y4000D02*
D03*
Y2250D02*
D03*
Y4750D02*
D03*
X8125Y5250D02*
D03*
X10375D02*
D03*
X4750D02*
D03*
X4125D02*
D03*
X3500D02*
D03*
X2875D02*
D03*
X2125Y4750D02*
D03*
X1750Y3875D02*
D03*
Y3125D02*
D03*
Y2375D02*
D03*
X550Y3550D02*
D03*
Y19450D02*
D03*
Y16450D02*
D03*
X28400Y11500D02*
D03*
X39050Y550D02*
D03*
X1925Y12850D02*
D03*
X3550Y550D02*
D03*
X6550D02*
D03*
X12550D02*
D03*
X15550D02*
D03*
X18550D02*
D03*
X21550D02*
D03*
X24550D02*
D03*
X27550D02*
D03*
X30550D02*
D03*
X33550D02*
D03*
X36550D02*
D03*
X3550Y19450D02*
D03*
X6550D02*
D03*
X9550D02*
D03*
X12550D02*
D03*
X15550D02*
D03*
X18550D02*
D03*
X21550D02*
D03*
X24550D02*
D03*
X27550D02*
D03*
X30550D02*
D03*
X33550D02*
D03*
X36550D02*
D03*
X3550Y14750D02*
D03*
X6550D02*
D03*
X9550D02*
D03*
X12550D02*
D03*
X15550D02*
D03*
X18550D02*
D03*
X21550D02*
D03*
X27450D02*
D03*
X30450Y16000D02*
D03*
D45*
X27950Y6425D02*
D03*
X28850D02*
D03*
X27950Y13575D02*
D03*
X28850D02*
D03*
X11125Y1650D02*
D03*
X18125D02*
D03*
X18875D02*
D03*
X29625Y1750D02*
D03*
X1250Y14450D02*
D03*
Y5550D02*
D03*
X28875Y1750D02*
D03*
X11875Y1650D02*
D03*
D63*
X1200Y13825D02*
D03*
Y6175D02*
D03*
M02*
