G04*
G04 #@! TF.GenerationSoftware,Altium Limited,Altium Designer,19.0.12 (326)*
G04*
G04 Layer_Color=24703*
%FSLAX43Y43*%
%MOMM*%
G71*
G01*
G75*
%ADD10C,0.200*%
%ADD11C,0.100*%
%ADD12C,0.150*%
D10*
X3725Y12000D02*
Y13400D01*
X5525D01*
Y12000D02*
Y13400D01*
X3725Y12000D02*
X5525D01*
X3725Y6600D02*
X5525D01*
Y8000D01*
X3725D02*
X5525D01*
X3725Y6600D02*
Y8000D01*
D11*
X27925Y11975D02*
G03*
X27925Y11975I-50J0D01*
G01*
X28975Y8025D02*
G03*
X28975Y8025I-50J0D01*
G01*
X27875Y12150D02*
X28925D01*
X27875Y13650D02*
X28925D01*
X27875Y7850D02*
X28925D01*
X27875Y6350D02*
X28925D01*
D12*
X26800Y15000D02*
Y14000D01*
X26300D01*
X26134Y14167D01*
Y14833D01*
X26300Y15000D01*
X26800D01*
X25300Y14000D02*
Y15000D01*
X25800Y14500D01*
X25134D01*
X27000Y6550D02*
Y5550D01*
X26500D01*
X26334Y5717D01*
Y6383D01*
X26500Y6550D01*
X27000D01*
X26000Y6383D02*
X25834Y6550D01*
X25500D01*
X25334Y6383D01*
Y6216D01*
X25500Y6050D01*
X25667D01*
X25500D01*
X25334Y5883D01*
Y5717D01*
X25500Y5550D01*
X25834D01*
X26000Y5717D01*
X7123Y6200D02*
Y5200D01*
X6457D01*
X5624D02*
Y6200D01*
X6124Y5700D01*
X5457D01*
X5900Y14800D02*
Y13800D01*
X5234D01*
X4234Y14800D02*
X4900D01*
Y14300D01*
X4567Y14466D01*
X4400D01*
X4234Y14300D01*
Y13967D01*
X4400Y13800D01*
X4734D01*
X4900Y13967D01*
M02*
