G04*
G04 #@! TF.GenerationSoftware,Altium Limited,Altium Designer,19.0.12 (326)*
G04*
G04 Layer_Color=65535*
%FSLAX43Y43*%
%MOMM*%
G71*
G01*
G75*
%ADD64C,0.254*%
%ADD65C,0.152*%
D64*
X0Y-10000D02*
X1524Y-9492D01*
X0Y-10000D02*
X1524Y-10508D01*
X38076D02*
X39600Y-10000D01*
X38076Y-9492D02*
X39600Y-10000D01*
X0D02*
X16194D01*
X22593D02*
X39600D01*
X0Y-10254D02*
Y0D01*
X39600Y-10254D02*
Y0D01*
X49092Y1524D02*
X49600Y0D01*
X50108Y1524D01*
X49600Y20000D02*
X50108Y18476D01*
X49092D02*
X49600Y20000D01*
Y0D02*
Y6394D01*
Y12793D02*
Y20000D01*
X39600Y0D02*
X49854D01*
X39600Y20000D02*
X49854D01*
D65*
X16601Y-9898D02*
X16854Y-9645D01*
X17362D01*
X17616Y-9898D01*
Y-10152D01*
X17362Y-10406D01*
X17108D01*
X17362D01*
X17616Y-10660D01*
Y-10914D01*
X17362Y-11168D01*
X16854D01*
X16601Y-10914D01*
X18124D02*
X18378Y-11168D01*
X18886D01*
X19140Y-10914D01*
Y-9898D01*
X18886Y-9645D01*
X18378D01*
X18124Y-9898D01*
Y-10152D01*
X18378Y-10406D01*
X19140D01*
X19901Y-11422D02*
X20155Y-11168D01*
Y-10914D01*
X19901D01*
Y-11168D01*
X20155D01*
X19901Y-11422D01*
X19648Y-11676D01*
X22187Y-9645D02*
X21679Y-9898D01*
X21171Y-10406D01*
Y-10914D01*
X21425Y-11168D01*
X21933D01*
X22187Y-10914D01*
Y-10660D01*
X21933Y-10406D01*
X21171D01*
X50768Y7816D02*
Y6800D01*
X49752Y7816D01*
X49498D01*
X49245Y7562D01*
Y7054D01*
X49498Y6800D01*
Y8324D02*
X49245Y8578D01*
Y9086D01*
X49498Y9340D01*
X50514D01*
X50768Y9086D01*
Y8578D01*
X50514Y8324D01*
X49498D01*
X51022Y10101D02*
X50768Y10355D01*
X50514D01*
Y10101D01*
X50768D01*
Y10355D01*
X51022Y10101D01*
X51276Y9848D01*
X49498Y11371D02*
X49245Y11625D01*
Y12133D01*
X49498Y12387D01*
X50514D01*
X50768Y12133D01*
Y11625D01*
X50514Y11371D01*
X49498D01*
M02*
