G04*
G04 #@! TF.GenerationSoftware,Altium Limited,Altium Designer,19.0.12 (326)*
G04*
G04 Layer_Color=2752767*
%FSLAX43Y43*%
%MOMM*%
G71*
G01*
G75*
%ADD66C,0.051*%
%ADD67C,0.068*%
D66*
X34162Y8997D02*
Y9403D01*
X34568D01*
Y8997D01*
X34162D01*
Y10597D02*
Y11003D01*
X34568D01*
Y10597D01*
X34162D01*
Y8197D02*
Y8603D01*
X34568D01*
Y8197D01*
X34162D01*
Y11397D02*
Y11803D01*
X34568D01*
Y11397D01*
X34162D01*
Y7397D02*
Y7803D01*
X34568D01*
Y7397D01*
X34162D01*
Y12197D02*
Y12603D01*
X34568D01*
Y12197D01*
X34162D01*
X33462Y9397D02*
Y9803D01*
X33868D01*
Y9397D01*
X33462D01*
Y10197D02*
Y10603D01*
X33868D01*
Y10197D01*
X33462D01*
Y8597D02*
Y9003D01*
X33868D01*
Y8597D01*
X33462D01*
Y10997D02*
Y11403D01*
X33868D01*
Y10997D01*
X33462D01*
X38365Y15872D02*
X38162Y16278D01*
X38568D01*
X38365Y15872D01*
Y3722D02*
X38162Y4128D01*
X38568D01*
X38365Y3722D01*
X32865Y14297D02*
X32967Y14398D01*
X33068D01*
X32967Y14500D01*
X33068Y14602D01*
X32967D01*
X32865Y14703D01*
X32763Y14602D01*
X32662D01*
X32763Y14500D01*
X32662Y14398D01*
X32763D01*
X32865Y14297D01*
Y5297D02*
X32967Y5398D01*
X33068D01*
X32967Y5500D01*
X33068Y5602D01*
X32967D01*
X32865Y5703D01*
X32763Y5602D01*
X32662D01*
X32763Y5500D01*
X32662Y5398D01*
X32763D01*
X32865Y5297D01*
X34162Y13522D02*
X34263Y13725D01*
X34162Y13928D01*
X34365Y13827D01*
X34568Y13928D01*
X34467Y13725D01*
X34568Y13522D01*
X34365Y13623D01*
X34162Y13522D01*
X34263Y6173D02*
Y6072D01*
X34467D01*
Y6173D01*
X34568D01*
Y6377D01*
X34467D01*
Y6478D01*
X34263D01*
Y6377D01*
X34162D01*
Y6173D01*
X34263D01*
X27172Y1547D02*
X27273D01*
X27375Y1648D01*
X27477Y1547D01*
X27578D01*
Y1648D01*
X27477Y1750D01*
X27578Y1852D01*
Y1953D01*
X27477D01*
X27375Y1852D01*
X27273Y1953D01*
X27172D01*
Y1852D01*
X27273Y1750D01*
X27172Y1648D01*
Y1547D01*
X33597Y15197D02*
X33698D01*
X33800Y15298D01*
X33902Y15197D01*
X34003D01*
Y15298D01*
X33902Y15400D01*
X34003Y15502D01*
Y15603D01*
X33902D01*
X33800Y15502D01*
X33698Y15603D01*
X33597D01*
Y15502D01*
X33698Y15400D01*
X33597Y15298D01*
Y15197D01*
X10172Y1547D02*
X10273D01*
X10375Y1648D01*
X10477Y1547D01*
X10578D01*
Y1648D01*
X10477Y1750D01*
X10578Y1852D01*
Y1953D01*
X10477D01*
X10375Y1852D01*
X10273Y1953D01*
X10172D01*
Y1852D01*
X10273Y1750D01*
X10172Y1648D01*
Y1547D01*
X8672D02*
X8773D01*
X8875Y1648D01*
X8977Y1547D01*
X9078D01*
Y1648D01*
X8977Y1750D01*
X9078Y1852D01*
Y1953D01*
X8977D01*
X8875Y1852D01*
X8773Y1953D01*
X8672D01*
Y1852D01*
X8773Y1750D01*
X8672Y1648D01*
Y1547D01*
X7922D02*
X8023D01*
X8125Y1648D01*
X8227Y1547D01*
X8328D01*
Y1648D01*
X8227Y1750D01*
X8328Y1852D01*
Y1953D01*
X8227D01*
X8125Y1852D01*
X8023Y1953D01*
X7922D01*
Y1852D01*
X8023Y1750D01*
X7922Y1648D01*
Y1547D01*
X9422D02*
X9523D01*
X9625Y1648D01*
X9727Y1547D01*
X9828D01*
Y1648D01*
X9727Y1750D01*
X9828Y1852D01*
Y1953D01*
X9727D01*
X9625Y1852D01*
X9523Y1953D01*
X9422D01*
Y1852D01*
X9523Y1750D01*
X9422Y1648D01*
Y1547D01*
X9347Y347D02*
X9448D01*
X9550Y448D01*
X9652Y347D01*
X9753D01*
Y448D01*
X9652Y550D01*
X9753Y652D01*
Y753D01*
X9652D01*
X9550Y652D01*
X9448Y753D01*
X9347D01*
Y652D01*
X9448Y550D01*
X9347Y448D01*
Y347D01*
X9422Y5047D02*
X9523D01*
X9625Y5148D01*
X9727Y5047D01*
X9828D01*
Y5148D01*
X9727Y5250D01*
X9828Y5352D01*
Y5453D01*
X9727D01*
X9625Y5352D01*
X9523Y5453D01*
X9422D01*
Y5352D01*
X9523Y5250D01*
X9422Y5148D01*
Y5047D01*
X8672D02*
X8773D01*
X8875Y5148D01*
X8977Y5047D01*
X9078D01*
Y5148D01*
X8977Y5250D01*
X9078Y5352D01*
Y5453D01*
X8977D01*
X8875Y5352D01*
X8773Y5453D01*
X8672D01*
Y5352D01*
X8773Y5250D01*
X8672Y5148D01*
Y5047D01*
X347Y347D02*
X448D01*
X550Y448D01*
X652Y347D01*
X753D01*
Y448D01*
X652Y550D01*
X753Y652D01*
Y753D01*
X652D01*
X550Y652D01*
X448Y753D01*
X347D01*
Y652D01*
X448Y550D01*
X347Y448D01*
Y347D01*
X38847Y19247D02*
X38948D01*
X39050Y19348D01*
X39152Y19247D01*
X39253D01*
Y19348D01*
X39152Y19450D01*
X39253Y19552D01*
Y19653D01*
X39152D01*
X39050Y19552D01*
X38948Y19653D01*
X38847D01*
Y19552D01*
X38948Y19450D01*
X38847Y19348D01*
Y19247D01*
X31297Y10097D02*
X31398D01*
X31500Y10198D01*
X31602Y10097D01*
X31703D01*
Y10198D01*
X31602Y10300D01*
X31703Y10402D01*
Y10503D01*
X31602D01*
X31500Y10402D01*
X31398Y10503D01*
X31297D01*
Y10402D01*
X31398Y10300D01*
X31297Y10198D01*
Y10097D01*
X2572Y8547D02*
X2673D01*
X2775Y8648D01*
X2877Y8547D01*
X2978D01*
Y8648D01*
X2877Y8750D01*
X2978Y8852D01*
Y8953D01*
X2877D01*
X2775Y8852D01*
X2673Y8953D01*
X2572D01*
Y8852D01*
X2673Y8750D01*
X2572Y8648D01*
Y8547D01*
X1922Y11047D02*
X2023D01*
X2125Y11148D01*
X2227Y11047D01*
X2328D01*
Y11148D01*
X2227Y11250D01*
X2328Y11352D01*
Y11453D01*
X2227D01*
X2125Y11352D01*
X2023Y11453D01*
X1922D01*
Y11352D01*
X2023Y11250D01*
X1922Y11148D01*
Y11047D01*
X2572D02*
X2673D01*
X2775Y11148D01*
X2877Y11047D01*
X2978D01*
Y11148D01*
X2877Y11250D01*
X2978Y11352D01*
Y11453D01*
X2877D01*
X2775Y11352D01*
X2673Y11453D01*
X2572D01*
Y11352D01*
X2673Y11250D01*
X2572Y11148D01*
Y11047D01*
X30997Y6672D02*
X31098D01*
X31200Y6773D01*
X31302Y6672D01*
X31403D01*
Y6773D01*
X31302Y6875D01*
X31403Y6977D01*
Y7078D01*
X31302D01*
X31200Y6977D01*
X31098Y7078D01*
X30997D01*
Y6977D01*
X31098Y6875D01*
X30997Y6773D01*
Y6672D01*
X1722Y6947D02*
X1823D01*
X1925Y7048D01*
X2027Y6947D01*
X2128D01*
Y7048D01*
X2027Y7150D01*
X2128Y7252D01*
Y7353D01*
X2027D01*
X1925Y7252D01*
X1823Y7353D01*
X1722D01*
Y7252D01*
X1823Y7150D01*
X1722Y7048D01*
Y6947D01*
X1922Y8547D02*
X2023D01*
X2125Y8648D01*
X2227Y8547D01*
X2328D01*
Y8648D01*
X2227Y8750D01*
X2328Y8852D01*
Y8953D01*
X2227D01*
X2125Y8852D01*
X2023Y8953D01*
X1922D01*
Y8852D01*
X2023Y8750D01*
X1922Y8648D01*
Y8547D01*
X30197Y7897D02*
X30298D01*
X30400Y7998D01*
X30502Y7897D01*
X30603D01*
Y7998D01*
X30502Y8100D01*
X30603Y8202D01*
Y8303D01*
X30502D01*
X30400Y8202D01*
X30298Y8303D01*
X30197D01*
Y8202D01*
X30298Y8100D01*
X30197Y7998D01*
Y7897D01*
Y11697D02*
X30298D01*
X30400Y11798D01*
X30502Y11697D01*
X30603D01*
Y11798D01*
X30502Y11900D01*
X30603Y12002D01*
Y12103D01*
X30502D01*
X30400Y12002D01*
X30298Y12103D01*
X30197D01*
Y12002D01*
X30298Y11900D01*
X30197Y11798D01*
Y11697D01*
X30997Y12922D02*
X31098D01*
X31200Y13023D01*
X31302Y12922D01*
X31403D01*
Y13023D01*
X31302Y13125D01*
X31403Y13227D01*
Y13328D01*
X31302D01*
X31200Y13227D01*
X31098Y13328D01*
X30997D01*
Y13227D01*
X31098Y13125D01*
X30997Y13023D01*
Y12922D01*
X27747Y6425D02*
X27950Y6628D01*
X28153Y6425D01*
X27950Y6222D01*
X27747Y6425D01*
X28647D02*
X28850Y6628D01*
X29053Y6425D01*
X28850Y6222D01*
X28647Y6425D01*
X28197Y8297D02*
X28298D01*
X28400Y8398D01*
X28502Y8297D01*
X28603D01*
Y8398D01*
X28502Y8500D01*
X28603Y8602D01*
Y8703D01*
X28502D01*
X28400Y8602D01*
X28298Y8703D01*
X28197D01*
Y8602D01*
X28298Y8500D01*
X28197Y8398D01*
Y8297D01*
X28572Y9797D02*
X28673D01*
X28775Y9898D01*
X28877Y9797D01*
X28978D01*
Y9898D01*
X28877Y10000D01*
X28978Y10102D01*
Y10203D01*
X28877D01*
X28775Y10102D01*
X28673Y10203D01*
X28572D01*
Y10102D01*
X28673Y10000D01*
X28572Y9898D01*
Y9797D01*
X27747Y13575D02*
X27950Y13778D01*
X28153Y13575D01*
X27950Y13372D01*
X27747Y13575D01*
X28647D02*
X28850Y13778D01*
X29053Y13575D01*
X28850Y13372D01*
X28647Y13575D01*
X10922Y1650D02*
X11125Y1853D01*
X11328Y1650D01*
X11125Y1447D01*
X10922Y1650D01*
X17922D02*
X18125Y1853D01*
X18328Y1650D01*
X18125Y1447D01*
X17922Y1650D01*
X18672D02*
X18875Y1853D01*
X19078Y1650D01*
X18875Y1447D01*
X18672Y1650D01*
X29422Y1750D02*
X29625Y1953D01*
X29828Y1750D01*
X29625Y1547D01*
X29422Y1750D01*
X1047Y14450D02*
X1250Y14653D01*
X1453Y14450D01*
X1250Y14247D01*
X1047Y14450D01*
Y5550D02*
X1250Y5753D01*
X1453Y5550D01*
X1250Y5347D01*
X1047Y5550D01*
X30172Y2897D02*
X30273D01*
X30375Y2998D01*
X30477Y2897D01*
X30578D01*
Y2998D01*
X30477Y3100D01*
X30578Y3202D01*
Y3303D01*
X30477D01*
X30375Y3202D01*
X30273Y3303D01*
X30172D01*
Y3202D01*
X30273Y3100D01*
X30172Y2998D01*
Y2897D01*
Y3547D02*
X30273D01*
X30375Y3648D01*
X30477Y3547D01*
X30578D01*
Y3648D01*
X30477Y3750D01*
X30578Y3852D01*
Y3953D01*
X30477D01*
X30375Y3852D01*
X30273Y3953D01*
X30172D01*
Y3852D01*
X30273Y3750D01*
X30172Y3648D01*
Y3547D01*
Y4197D02*
X30273D01*
X30375Y4298D01*
X30477Y4197D01*
X30578D01*
Y4298D01*
X30477Y4400D01*
X30578Y4502D01*
Y4603D01*
X30477D01*
X30375Y4502D01*
X30273Y4603D01*
X30172D01*
Y4502D01*
X30273Y4400D01*
X30172Y4298D01*
Y4197D01*
X30822D02*
X30923D01*
X31025Y4298D01*
X31127Y4197D01*
X31228D01*
Y4298D01*
X31127Y4400D01*
X31228Y4502D01*
Y4603D01*
X31127D01*
X31025Y4502D01*
X30923Y4603D01*
X30822D01*
Y4502D01*
X30923Y4400D01*
X30822Y4298D01*
Y4197D01*
Y4847D02*
X30923D01*
X31025Y4948D01*
X31127Y4847D01*
X31228D01*
Y4948D01*
X31127Y5050D01*
X31228Y5152D01*
Y5253D01*
X31127D01*
X31025Y5152D01*
X30923Y5253D01*
X30822D01*
Y5152D01*
X30923Y5050D01*
X30822Y4948D01*
Y4847D01*
Y3547D02*
X30923D01*
X31025Y3648D01*
X31127Y3547D01*
X31228D01*
Y3648D01*
X31127Y3750D01*
X31228Y3852D01*
Y3953D01*
X31127D01*
X31025Y3852D01*
X30923Y3953D01*
X30822D01*
Y3852D01*
X30923Y3750D01*
X30822Y3648D01*
Y3547D01*
X28672Y1750D02*
X28875Y1953D01*
X29078Y1750D01*
X28875Y1547D01*
X28672Y1750D01*
X25297Y5047D02*
X25398D01*
X25500Y5148D01*
X25602Y5047D01*
X25703D01*
Y5148D01*
X25602Y5250D01*
X25703Y5352D01*
Y5453D01*
X25602D01*
X25500Y5352D01*
X25398Y5453D01*
X25297D01*
Y5352D01*
X25398Y5250D01*
X25297Y5148D01*
Y5047D01*
X25922D02*
X26023D01*
X26125Y5148D01*
X26227Y5047D01*
X26328D01*
Y5148D01*
X26227Y5250D01*
X26328Y5352D01*
Y5453D01*
X26227D01*
X26125Y5352D01*
X26023Y5453D01*
X25922D01*
Y5352D01*
X26023Y5250D01*
X25922Y5148D01*
Y5047D01*
X26547D02*
X26648D01*
X26750Y5148D01*
X26852Y5047D01*
X26953D01*
Y5148D01*
X26852Y5250D01*
X26953Y5352D01*
Y5453D01*
X26852D01*
X26750Y5352D01*
X26648Y5453D01*
X26547D01*
Y5352D01*
X26648Y5250D01*
X26547Y5148D01*
Y5047D01*
X27172D02*
X27273D01*
X27375Y5148D01*
X27477Y5047D01*
X27578D01*
Y5148D01*
X27477Y5250D01*
X27578Y5352D01*
Y5453D01*
X27477D01*
X27375Y5352D01*
X27273Y5453D01*
X27172D01*
Y5352D01*
X27273Y5250D01*
X27172Y5148D01*
Y5047D01*
X25297Y1547D02*
X25398D01*
X25500Y1648D01*
X25602Y1547D01*
X25703D01*
Y1648D01*
X25602Y1750D01*
X25703Y1852D01*
Y1953D01*
X25602D01*
X25500Y1852D01*
X25398Y1953D01*
X25297D01*
Y1852D01*
X25398Y1750D01*
X25297Y1648D01*
Y1547D01*
X25922D02*
X26023D01*
X26125Y1648D01*
X26227Y1547D01*
X26328D01*
Y1648D01*
X26227Y1750D01*
X26328Y1852D01*
Y1953D01*
X26227D01*
X26125Y1852D01*
X26023Y1953D01*
X25922D01*
Y1852D01*
X26023Y1750D01*
X25922Y1648D01*
Y1547D01*
X26547D02*
X26648D01*
X26750Y1648D01*
X26852Y1547D01*
X26953D01*
Y1648D01*
X26852Y1750D01*
X26953Y1852D01*
Y1953D01*
X26852D01*
X26750Y1852D01*
X26648Y1953D01*
X26547D01*
Y1852D01*
X26648Y1750D01*
X26547Y1648D01*
Y1547D01*
X21672Y5047D02*
X21773D01*
X21875Y5148D01*
X21977Y5047D01*
X22078D01*
Y5148D01*
X21977Y5250D01*
X22078Y5352D01*
Y5453D01*
X21977D01*
X21875Y5352D01*
X21773Y5453D01*
X21672D01*
Y5352D01*
X21773Y5250D01*
X21672Y5148D01*
Y5047D01*
X20922D02*
X21023D01*
X21125Y5148D01*
X21227Y5047D01*
X21328D01*
Y5148D01*
X21227Y5250D01*
X21328Y5352D01*
Y5453D01*
X21227D01*
X21125Y5352D01*
X21023Y5453D01*
X20922D01*
Y5352D01*
X21023Y5250D01*
X20922Y5148D01*
Y5047D01*
X20172D02*
X20273D01*
X20375Y5148D01*
X20477Y5047D01*
X20578D01*
Y5148D01*
X20477Y5250D01*
X20578Y5352D01*
Y5453D01*
X20477D01*
X20375Y5352D01*
X20273Y5453D01*
X20172D01*
Y5352D01*
X20273Y5250D01*
X20172Y5148D01*
Y5047D01*
X19422D02*
X19523D01*
X19625Y5148D01*
X19727Y5047D01*
X19828D01*
Y5148D01*
X19727Y5250D01*
X19828Y5352D01*
Y5453D01*
X19727D01*
X19625Y5352D01*
X19523Y5453D01*
X19422D01*
Y5352D01*
X19523Y5250D01*
X19422Y5148D01*
Y5047D01*
X21672Y1547D02*
X21773D01*
X21875Y1648D01*
X21977Y1547D01*
X22078D01*
Y1648D01*
X21977Y1750D01*
X22078Y1852D01*
Y1953D01*
X21977D01*
X21875Y1852D01*
X21773Y1953D01*
X21672D01*
Y1852D01*
X21773Y1750D01*
X21672Y1648D01*
Y1547D01*
X20922D02*
X21023D01*
X21125Y1648D01*
X21227Y1547D01*
X21328D01*
Y1648D01*
X21227Y1750D01*
X21328Y1852D01*
Y1953D01*
X21227D01*
X21125Y1852D01*
X21023Y1953D01*
X20922D01*
Y1852D01*
X21023Y1750D01*
X20922Y1648D01*
Y1547D01*
X20172D02*
X20273D01*
X20375Y1648D01*
X20477Y1547D01*
X20578D01*
Y1648D01*
X20477Y1750D01*
X20578Y1852D01*
Y1953D01*
X20477D01*
X20375Y1852D01*
X20273Y1953D01*
X20172D01*
Y1852D01*
X20273Y1750D01*
X20172Y1648D01*
Y1547D01*
X19422D02*
X19523D01*
X19625Y1648D01*
X19727Y1547D01*
X19828D01*
Y1648D01*
X19727Y1750D01*
X19828Y1852D01*
Y1953D01*
X19727D01*
X19625Y1852D01*
X19523Y1953D01*
X19422D01*
Y1852D01*
X19523Y1750D01*
X19422Y1648D01*
Y1547D01*
X16922Y4547D02*
X17023D01*
X17125Y4648D01*
X17227Y4547D01*
X17328D01*
Y4648D01*
X17227Y4750D01*
X17328Y4852D01*
Y4953D01*
X17227D01*
X17125Y4852D01*
X17023Y4953D01*
X16922D01*
Y4852D01*
X17023Y4750D01*
X16922Y4648D01*
Y4547D01*
Y2047D02*
X17023D01*
X17125Y2148D01*
X17227Y2047D01*
X17328D01*
Y2148D01*
X17227Y2250D01*
X17328Y2352D01*
Y2453D01*
X17227D01*
X17125Y2352D01*
X17023Y2453D01*
X16922D01*
Y2352D01*
X17023Y2250D01*
X16922Y2148D01*
Y2047D01*
Y3797D02*
X17023D01*
X17125Y3898D01*
X17227Y3797D01*
X17328D01*
Y3898D01*
X17227Y4000D01*
X17328Y4102D01*
Y4203D01*
X17227D01*
X17125Y4102D01*
X17023Y4203D01*
X16922D01*
Y4102D01*
X17023Y4000D01*
X16922Y3898D01*
Y3797D01*
Y2797D02*
X17023D01*
X17125Y2898D01*
X17227Y2797D01*
X17328D01*
Y2898D01*
X17227Y3000D01*
X17328Y3102D01*
Y3203D01*
X17227D01*
X17125Y3102D01*
X17023Y3203D01*
X16922D01*
Y3102D01*
X17023Y3000D01*
X16922Y2898D01*
Y2797D01*
X12672D02*
X12773D01*
X12875Y2898D01*
X12977Y2797D01*
X13078D01*
Y2898D01*
X12977Y3000D01*
X13078Y3102D01*
Y3203D01*
X12977D01*
X12875Y3102D01*
X12773Y3203D01*
X12672D01*
Y3102D01*
X12773Y3000D01*
X12672Y2898D01*
Y2797D01*
Y3797D02*
X12773D01*
X12875Y3898D01*
X12977Y3797D01*
X13078D01*
Y3898D01*
X12977Y4000D01*
X13078Y4102D01*
Y4203D01*
X12977D01*
X12875Y4102D01*
X12773Y4203D01*
X12672D01*
Y4102D01*
X12773Y4000D01*
X12672Y3898D01*
Y3797D01*
Y2047D02*
X12773D01*
X12875Y2148D01*
X12977Y2047D01*
X13078D01*
Y2148D01*
X12977Y2250D01*
X13078Y2352D01*
Y2453D01*
X12977D01*
X12875Y2352D01*
X12773Y2453D01*
X12672D01*
Y2352D01*
X12773Y2250D01*
X12672Y2148D01*
Y2047D01*
Y4547D02*
X12773D01*
X12875Y4648D01*
X12977Y4547D01*
X13078D01*
Y4648D01*
X12977Y4750D01*
X13078Y4852D01*
Y4953D01*
X12977D01*
X12875Y4852D01*
X12773Y4953D01*
X12672D01*
Y4852D01*
X12773Y4750D01*
X12672Y4648D01*
Y4547D01*
X7922Y5047D02*
X8023D01*
X8125Y5148D01*
X8227Y5047D01*
X8328D01*
Y5148D01*
X8227Y5250D01*
X8328Y5352D01*
Y5453D01*
X8227D01*
X8125Y5352D01*
X8023Y5453D01*
X7922D01*
Y5352D01*
X8023Y5250D01*
X7922Y5148D01*
Y5047D01*
X10172D02*
X10273D01*
X10375Y5148D01*
X10477Y5047D01*
X10578D01*
Y5148D01*
X10477Y5250D01*
X10578Y5352D01*
Y5453D01*
X10477D01*
X10375Y5352D01*
X10273Y5453D01*
X10172D01*
Y5352D01*
X10273Y5250D01*
X10172Y5148D01*
Y5047D01*
X4547D02*
X4648D01*
X4750Y5148D01*
X4852Y5047D01*
X4953D01*
Y5148D01*
X4852Y5250D01*
X4953Y5352D01*
Y5453D01*
X4852D01*
X4750Y5352D01*
X4648Y5453D01*
X4547D01*
Y5352D01*
X4648Y5250D01*
X4547Y5148D01*
Y5047D01*
X3922D02*
X4023D01*
X4125Y5148D01*
X4227Y5047D01*
X4328D01*
Y5148D01*
X4227Y5250D01*
X4328Y5352D01*
Y5453D01*
X4227D01*
X4125Y5352D01*
X4023Y5453D01*
X3922D01*
Y5352D01*
X4023Y5250D01*
X3922Y5148D01*
Y5047D01*
X3297D02*
X3398D01*
X3500Y5148D01*
X3602Y5047D01*
X3703D01*
Y5148D01*
X3602Y5250D01*
X3703Y5352D01*
Y5453D01*
X3602D01*
X3500Y5352D01*
X3398Y5453D01*
X3297D01*
Y5352D01*
X3398Y5250D01*
X3297Y5148D01*
Y5047D01*
X2672D02*
X2773D01*
X2875Y5148D01*
X2977Y5047D01*
X3078D01*
Y5148D01*
X2977Y5250D01*
X3078Y5352D01*
Y5453D01*
X2977D01*
X2875Y5352D01*
X2773Y5453D01*
X2672D01*
Y5352D01*
X2773Y5250D01*
X2672Y5148D01*
Y5047D01*
X1922Y4547D02*
X2023D01*
X2125Y4648D01*
X2227Y4547D01*
X2328D01*
Y4648D01*
X2227Y4750D01*
X2328Y4852D01*
Y4953D01*
X2227D01*
X2125Y4852D01*
X2023Y4953D01*
X1922D01*
Y4852D01*
X2023Y4750D01*
X1922Y4648D01*
Y4547D01*
X1547Y3672D02*
X1648D01*
X1750Y3773D01*
X1852Y3672D01*
X1953D01*
Y3773D01*
X1852Y3875D01*
X1953Y3977D01*
Y4078D01*
X1852D01*
X1750Y3977D01*
X1648Y4078D01*
X1547D01*
Y3977D01*
X1648Y3875D01*
X1547Y3773D01*
Y3672D01*
Y2922D02*
X1648D01*
X1750Y3023D01*
X1852Y2922D01*
X1953D01*
Y3023D01*
X1852Y3125D01*
X1953Y3227D01*
Y3328D01*
X1852D01*
X1750Y3227D01*
X1648Y3328D01*
X1547D01*
Y3227D01*
X1648Y3125D01*
X1547Y3023D01*
Y2922D01*
Y2172D02*
X1648D01*
X1750Y2273D01*
X1852Y2172D01*
X1953D01*
Y2273D01*
X1852Y2375D01*
X1953Y2477D01*
Y2578D01*
X1852D01*
X1750Y2477D01*
X1648Y2578D01*
X1547D01*
Y2477D01*
X1648Y2375D01*
X1547Y2273D01*
Y2172D01*
X347Y3347D02*
X448D01*
X550Y3448D01*
X652Y3347D01*
X753D01*
Y3448D01*
X652Y3550D01*
X753Y3652D01*
Y3753D01*
X652D01*
X550Y3652D01*
X448Y3753D01*
X347D01*
Y3652D01*
X448Y3550D01*
X347Y3448D01*
Y3347D01*
Y19247D02*
X448D01*
X550Y19348D01*
X652Y19247D01*
X753D01*
Y19348D01*
X652Y19450D01*
X753Y19552D01*
Y19653D01*
X652D01*
X550Y19552D01*
X448Y19653D01*
X347D01*
Y19552D01*
X448Y19450D01*
X347Y19348D01*
Y19247D01*
Y16247D02*
X448D01*
X550Y16348D01*
X652Y16247D01*
X753D01*
Y16348D01*
X652Y16450D01*
X753Y16552D01*
Y16653D01*
X652D01*
X550Y16552D01*
X448Y16653D01*
X347D01*
Y16552D01*
X448Y16450D01*
X347Y16348D01*
Y16247D01*
X28197Y11297D02*
X28298D01*
X28400Y11398D01*
X28502Y11297D01*
X28603D01*
Y11398D01*
X28502Y11500D01*
X28603Y11602D01*
Y11703D01*
X28502D01*
X28400Y11602D01*
X28298Y11703D01*
X28197D01*
Y11602D01*
X28298Y11500D01*
X28197Y11398D01*
Y11297D01*
X38847Y347D02*
X38948D01*
X39050Y448D01*
X39152Y347D01*
X39253D01*
Y448D01*
X39152Y550D01*
X39253Y652D01*
Y753D01*
X39152D01*
X39050Y652D01*
X38948Y753D01*
X38847D01*
Y652D01*
X38948Y550D01*
X38847Y448D01*
Y347D01*
X11672Y1650D02*
X11875Y1853D01*
X12078Y1650D01*
X11875Y1447D01*
X11672Y1650D01*
X1722Y12647D02*
X1823D01*
X1925Y12748D01*
X2027Y12647D01*
X2128D01*
Y12748D01*
X2027Y12850D01*
X2128Y12952D01*
Y13053D01*
X2027D01*
X1925Y12952D01*
X1823Y13053D01*
X1722D01*
Y12952D01*
X1823Y12850D01*
X1722Y12748D01*
Y12647D01*
X3347Y347D02*
X3448D01*
X3550Y448D01*
X3652Y347D01*
X3753D01*
Y448D01*
X3652Y550D01*
X3753Y652D01*
Y753D01*
X3652D01*
X3550Y652D01*
X3448Y753D01*
X3347D01*
Y652D01*
X3448Y550D01*
X3347Y448D01*
Y347D01*
X6347D02*
X6448D01*
X6550Y448D01*
X6652Y347D01*
X6753D01*
Y448D01*
X6652Y550D01*
X6753Y652D01*
Y753D01*
X6652D01*
X6550Y652D01*
X6448Y753D01*
X6347D01*
Y652D01*
X6448Y550D01*
X6347Y448D01*
Y347D01*
X12347D02*
X12448D01*
X12550Y448D01*
X12652Y347D01*
X12753D01*
Y448D01*
X12652Y550D01*
X12753Y652D01*
Y753D01*
X12652D01*
X12550Y652D01*
X12448Y753D01*
X12347D01*
Y652D01*
X12448Y550D01*
X12347Y448D01*
Y347D01*
X15347D02*
X15448D01*
X15550Y448D01*
X15652Y347D01*
X15753D01*
Y448D01*
X15652Y550D01*
X15753Y652D01*
Y753D01*
X15652D01*
X15550Y652D01*
X15448Y753D01*
X15347D01*
Y652D01*
X15448Y550D01*
X15347Y448D01*
Y347D01*
X18347D02*
X18448D01*
X18550Y448D01*
X18652Y347D01*
X18753D01*
Y448D01*
X18652Y550D01*
X18753Y652D01*
Y753D01*
X18652D01*
X18550Y652D01*
X18448Y753D01*
X18347D01*
Y652D01*
X18448Y550D01*
X18347Y448D01*
Y347D01*
X21347D02*
X21448D01*
X21550Y448D01*
X21652Y347D01*
X21753D01*
Y448D01*
X21652Y550D01*
X21753Y652D01*
Y753D01*
X21652D01*
X21550Y652D01*
X21448Y753D01*
X21347D01*
Y652D01*
X21448Y550D01*
X21347Y448D01*
Y347D01*
X24347D02*
X24448D01*
X24550Y448D01*
X24652Y347D01*
X24753D01*
Y448D01*
X24652Y550D01*
X24753Y652D01*
Y753D01*
X24652D01*
X24550Y652D01*
X24448Y753D01*
X24347D01*
Y652D01*
X24448Y550D01*
X24347Y448D01*
Y347D01*
X27347D02*
X27448D01*
X27550Y448D01*
X27652Y347D01*
X27753D01*
Y448D01*
X27652Y550D01*
X27753Y652D01*
Y753D01*
X27652D01*
X27550Y652D01*
X27448Y753D01*
X27347D01*
Y652D01*
X27448Y550D01*
X27347Y448D01*
Y347D01*
X30347D02*
X30448D01*
X30550Y448D01*
X30652Y347D01*
X30753D01*
Y448D01*
X30652Y550D01*
X30753Y652D01*
Y753D01*
X30652D01*
X30550Y652D01*
X30448Y753D01*
X30347D01*
Y652D01*
X30448Y550D01*
X30347Y448D01*
Y347D01*
X33347D02*
X33448D01*
X33550Y448D01*
X33652Y347D01*
X33753D01*
Y448D01*
X33652Y550D01*
X33753Y652D01*
Y753D01*
X33652D01*
X33550Y652D01*
X33448Y753D01*
X33347D01*
Y652D01*
X33448Y550D01*
X33347Y448D01*
Y347D01*
X36347D02*
X36448D01*
X36550Y448D01*
X36652Y347D01*
X36753D01*
Y448D01*
X36652Y550D01*
X36753Y652D01*
Y753D01*
X36652D01*
X36550Y652D01*
X36448Y753D01*
X36347D01*
Y652D01*
X36448Y550D01*
X36347Y448D01*
Y347D01*
X3347Y19247D02*
X3448D01*
X3550Y19348D01*
X3652Y19247D01*
X3753D01*
Y19348D01*
X3652Y19450D01*
X3753Y19552D01*
Y19653D01*
X3652D01*
X3550Y19552D01*
X3448Y19653D01*
X3347D01*
Y19552D01*
X3448Y19450D01*
X3347Y19348D01*
Y19247D01*
X6347D02*
X6448D01*
X6550Y19348D01*
X6652Y19247D01*
X6753D01*
Y19348D01*
X6652Y19450D01*
X6753Y19552D01*
Y19653D01*
X6652D01*
X6550Y19552D01*
X6448Y19653D01*
X6347D01*
Y19552D01*
X6448Y19450D01*
X6347Y19348D01*
Y19247D01*
X9347D02*
X9448D01*
X9550Y19348D01*
X9652Y19247D01*
X9753D01*
Y19348D01*
X9652Y19450D01*
X9753Y19552D01*
Y19653D01*
X9652D01*
X9550Y19552D01*
X9448Y19653D01*
X9347D01*
Y19552D01*
X9448Y19450D01*
X9347Y19348D01*
Y19247D01*
X12347D02*
X12448D01*
X12550Y19348D01*
X12652Y19247D01*
X12753D01*
Y19348D01*
X12652Y19450D01*
X12753Y19552D01*
Y19653D01*
X12652D01*
X12550Y19552D01*
X12448Y19653D01*
X12347D01*
Y19552D01*
X12448Y19450D01*
X12347Y19348D01*
Y19247D01*
X15347D02*
X15448D01*
X15550Y19348D01*
X15652Y19247D01*
X15753D01*
Y19348D01*
X15652Y19450D01*
X15753Y19552D01*
Y19653D01*
X15652D01*
X15550Y19552D01*
X15448Y19653D01*
X15347D01*
Y19552D01*
X15448Y19450D01*
X15347Y19348D01*
Y19247D01*
X18347D02*
X18448D01*
X18550Y19348D01*
X18652Y19247D01*
X18753D01*
Y19348D01*
X18652Y19450D01*
X18753Y19552D01*
Y19653D01*
X18652D01*
X18550Y19552D01*
X18448Y19653D01*
X18347D01*
Y19552D01*
X18448Y19450D01*
X18347Y19348D01*
Y19247D01*
X21347D02*
X21448D01*
X21550Y19348D01*
X21652Y19247D01*
X21753D01*
Y19348D01*
X21652Y19450D01*
X21753Y19552D01*
Y19653D01*
X21652D01*
X21550Y19552D01*
X21448Y19653D01*
X21347D01*
Y19552D01*
X21448Y19450D01*
X21347Y19348D01*
Y19247D01*
X24347D02*
X24448D01*
X24550Y19348D01*
X24652Y19247D01*
X24753D01*
Y19348D01*
X24652Y19450D01*
X24753Y19552D01*
Y19653D01*
X24652D01*
X24550Y19552D01*
X24448Y19653D01*
X24347D01*
Y19552D01*
X24448Y19450D01*
X24347Y19348D01*
Y19247D01*
X27347D02*
X27448D01*
X27550Y19348D01*
X27652Y19247D01*
X27753D01*
Y19348D01*
X27652Y19450D01*
X27753Y19552D01*
Y19653D01*
X27652D01*
X27550Y19552D01*
X27448Y19653D01*
X27347D01*
Y19552D01*
X27448Y19450D01*
X27347Y19348D01*
Y19247D01*
X30347D02*
X30448D01*
X30550Y19348D01*
X30652Y19247D01*
X30753D01*
Y19348D01*
X30652Y19450D01*
X30753Y19552D01*
Y19653D01*
X30652D01*
X30550Y19552D01*
X30448Y19653D01*
X30347D01*
Y19552D01*
X30448Y19450D01*
X30347Y19348D01*
Y19247D01*
X33347D02*
X33448D01*
X33550Y19348D01*
X33652Y19247D01*
X33753D01*
Y19348D01*
X33652Y19450D01*
X33753Y19552D01*
Y19653D01*
X33652D01*
X33550Y19552D01*
X33448Y19653D01*
X33347D01*
Y19552D01*
X33448Y19450D01*
X33347Y19348D01*
Y19247D01*
X36347D02*
X36448D01*
X36550Y19348D01*
X36652Y19247D01*
X36753D01*
Y19348D01*
X36652Y19450D01*
X36753Y19552D01*
Y19653D01*
X36652D01*
X36550Y19552D01*
X36448Y19653D01*
X36347D01*
Y19552D01*
X36448Y19450D01*
X36347Y19348D01*
Y19247D01*
X3347Y14547D02*
X3448D01*
X3550Y14648D01*
X3652Y14547D01*
X3753D01*
Y14648D01*
X3652Y14750D01*
X3753Y14852D01*
Y14953D01*
X3652D01*
X3550Y14852D01*
X3448Y14953D01*
X3347D01*
Y14852D01*
X3448Y14750D01*
X3347Y14648D01*
Y14547D01*
X6347D02*
X6448D01*
X6550Y14648D01*
X6652Y14547D01*
X6753D01*
Y14648D01*
X6652Y14750D01*
X6753Y14852D01*
Y14953D01*
X6652D01*
X6550Y14852D01*
X6448Y14953D01*
X6347D01*
Y14852D01*
X6448Y14750D01*
X6347Y14648D01*
Y14547D01*
X9347D02*
X9448D01*
X9550Y14648D01*
X9652Y14547D01*
X9753D01*
Y14648D01*
X9652Y14750D01*
X9753Y14852D01*
Y14953D01*
X9652D01*
X9550Y14852D01*
X9448Y14953D01*
X9347D01*
Y14852D01*
X9448Y14750D01*
X9347Y14648D01*
Y14547D01*
X12347D02*
X12448D01*
X12550Y14648D01*
X12652Y14547D01*
X12753D01*
Y14648D01*
X12652Y14750D01*
X12753Y14852D01*
Y14953D01*
X12652D01*
X12550Y14852D01*
X12448Y14953D01*
X12347D01*
Y14852D01*
X12448Y14750D01*
X12347Y14648D01*
Y14547D01*
X15347D02*
X15448D01*
X15550Y14648D01*
X15652Y14547D01*
X15753D01*
Y14648D01*
X15652Y14750D01*
X15753Y14852D01*
Y14953D01*
X15652D01*
X15550Y14852D01*
X15448Y14953D01*
X15347D01*
Y14852D01*
X15448Y14750D01*
X15347Y14648D01*
Y14547D01*
X18347D02*
X18448D01*
X18550Y14648D01*
X18652Y14547D01*
X18753D01*
Y14648D01*
X18652Y14750D01*
X18753Y14852D01*
Y14953D01*
X18652D01*
X18550Y14852D01*
X18448Y14953D01*
X18347D01*
Y14852D01*
X18448Y14750D01*
X18347Y14648D01*
Y14547D01*
X21347D02*
X21448D01*
X21550Y14648D01*
X21652Y14547D01*
X21753D01*
Y14648D01*
X21652Y14750D01*
X21753Y14852D01*
Y14953D01*
X21652D01*
X21550Y14852D01*
X21448Y14953D01*
X21347D01*
Y14852D01*
X21448Y14750D01*
X21347Y14648D01*
Y14547D01*
X27247D02*
X27348D01*
X27450Y14648D01*
X27552Y14547D01*
X27653D01*
Y14648D01*
X27552Y14750D01*
X27653Y14852D01*
Y14953D01*
X27552D01*
X27450Y14852D01*
X27348Y14953D01*
X27247D01*
Y14852D01*
X27348Y14750D01*
X27247Y14648D01*
Y14547D01*
X30247Y15797D02*
X30348D01*
X30450Y15898D01*
X30552Y15797D01*
X30653D01*
Y15898D01*
X30552Y16000D01*
X30653Y16102D01*
Y16203D01*
X30552D01*
X30450Y16102D01*
X30348Y16203D01*
X30247D01*
Y16102D01*
X30348Y16000D01*
X30247Y15898D01*
Y15797D01*
D67*
X33868Y6950D02*
G03*
X33868Y6950I-203J0D01*
G01*
Y13050D02*
G03*
X33868Y13050I-203J0D01*
G01*
M02*
