G04 EAGLE Gerber RS-274X export*
G75*
%MOMM*%
%FSLAX34Y34*%
%LPD*%
%INSilkscreen Top*%
%IPPOS*%
%AMOC8*
5,1,8,0,0,1.08239X$1,22.5*%
G01*
%ADD10C,0.246000*%
%ADD11C,0.152400*%
%ADD12C,0.076200*%
%ADD13C,0.406400*%
%ADD14C,0.200000*%
%ADD15C,0.400000*%
%ADD16C,0.101600*%
%ADD17C,0.100000*%
%ADD18C,0.050800*%
%ADD19C,0.300000*%
%ADD20C,0.127000*%
%ADD21C,0.025400*%


D10*
X152300Y111100D03*
D11*
X150662Y178274D02*
X150662Y191832D01*
X150662Y178274D02*
X153374Y175562D01*
X158797Y175562D01*
X161509Y178274D01*
X161509Y191832D01*
X175169Y191832D02*
X177880Y189120D01*
X175169Y191832D02*
X169745Y191832D01*
X167034Y189120D01*
X167034Y186409D01*
X169745Y183697D01*
X175169Y183697D01*
X177880Y180985D01*
X177880Y178274D01*
X175169Y175562D01*
X169745Y175562D01*
X167034Y178274D01*
X183405Y175562D02*
X183405Y191832D01*
X191540Y191832D01*
X194252Y189120D01*
X194252Y186409D01*
X191540Y183697D01*
X194252Y180985D01*
X194252Y178274D01*
X191540Y175562D01*
X183405Y175562D01*
X183405Y183697D02*
X191540Y183697D01*
X216148Y175562D02*
X226995Y175562D01*
X216148Y175562D02*
X226995Y186409D01*
X226995Y189120D01*
X224283Y191832D01*
X218860Y191832D01*
X216148Y189120D01*
X232520Y178274D02*
X232520Y175562D01*
X232520Y178274D02*
X235231Y178274D01*
X235231Y175562D01*
X232520Y175562D01*
X240706Y178274D02*
X240706Y189120D01*
X243417Y191832D01*
X248841Y191832D01*
X251552Y189120D01*
X251552Y178274D01*
X248841Y175562D01*
X243417Y175562D01*
X240706Y178274D01*
X251552Y189120D01*
D12*
X255213Y5381D02*
X264619Y5381D01*
X261484Y5381D02*
X255213Y11652D01*
X259916Y6949D02*
X264619Y11652D01*
X264619Y14736D02*
X264619Y21007D01*
X264619Y14736D02*
X258348Y21007D01*
X256781Y21007D01*
X255213Y19439D01*
X255213Y16304D01*
X256781Y14736D01*
D13*
X336550Y9525D02*
X336550Y22225D01*
X330200Y15875D02*
X342900Y15875D01*
X336550Y177800D02*
X336550Y190500D01*
X330200Y184150D02*
X342900Y184150D01*
X19050Y25400D02*
X19050Y12700D01*
X12700Y19050D02*
X25400Y19050D01*
D14*
X270630Y35560D02*
X270630Y55060D01*
X270630Y35560D02*
X288630Y35560D01*
X328630Y35560D02*
X412630Y35560D01*
X412630Y162560D01*
X328630Y162560D01*
X270630Y162560D02*
X270630Y143060D01*
X270630Y162560D02*
X288630Y162560D01*
D15*
X257830Y51060D02*
X257832Y51149D01*
X257838Y51238D01*
X257848Y51327D01*
X257862Y51415D01*
X257879Y51502D01*
X257901Y51588D01*
X257927Y51674D01*
X257956Y51758D01*
X257989Y51841D01*
X258025Y51922D01*
X258066Y52002D01*
X258109Y52079D01*
X258156Y52155D01*
X258207Y52228D01*
X258260Y52299D01*
X258317Y52368D01*
X258377Y52434D01*
X258440Y52498D01*
X258505Y52558D01*
X258573Y52616D01*
X258644Y52670D01*
X258717Y52721D01*
X258792Y52769D01*
X258869Y52814D01*
X258948Y52855D01*
X259029Y52892D01*
X259111Y52926D01*
X259195Y52957D01*
X259280Y52983D01*
X259366Y53006D01*
X259453Y53024D01*
X259541Y53039D01*
X259630Y53050D01*
X259719Y53057D01*
X259808Y53060D01*
X259897Y53059D01*
X259986Y53054D01*
X260074Y53045D01*
X260163Y53032D01*
X260250Y53015D01*
X260337Y52995D01*
X260423Y52970D01*
X260507Y52942D01*
X260590Y52910D01*
X260672Y52874D01*
X260752Y52835D01*
X260830Y52792D01*
X260906Y52746D01*
X260980Y52696D01*
X261052Y52643D01*
X261121Y52587D01*
X261188Y52528D01*
X261252Y52466D01*
X261313Y52402D01*
X261372Y52334D01*
X261427Y52264D01*
X261479Y52192D01*
X261528Y52117D01*
X261573Y52041D01*
X261615Y51962D01*
X261653Y51882D01*
X261688Y51800D01*
X261719Y51716D01*
X261747Y51631D01*
X261770Y51545D01*
X261790Y51458D01*
X261806Y51371D01*
X261818Y51282D01*
X261826Y51194D01*
X261830Y51105D01*
X261830Y51015D01*
X261826Y50926D01*
X261818Y50838D01*
X261806Y50749D01*
X261790Y50662D01*
X261770Y50575D01*
X261747Y50489D01*
X261719Y50404D01*
X261688Y50320D01*
X261653Y50238D01*
X261615Y50158D01*
X261573Y50079D01*
X261528Y50003D01*
X261479Y49928D01*
X261427Y49856D01*
X261372Y49786D01*
X261313Y49718D01*
X261252Y49654D01*
X261188Y49592D01*
X261121Y49533D01*
X261052Y49477D01*
X260980Y49424D01*
X260906Y49374D01*
X260830Y49328D01*
X260752Y49285D01*
X260672Y49246D01*
X260590Y49210D01*
X260507Y49178D01*
X260423Y49150D01*
X260337Y49125D01*
X260250Y49105D01*
X260163Y49088D01*
X260074Y49075D01*
X259986Y49066D01*
X259897Y49061D01*
X259808Y49060D01*
X259719Y49063D01*
X259630Y49070D01*
X259541Y49081D01*
X259453Y49096D01*
X259366Y49114D01*
X259280Y49137D01*
X259195Y49163D01*
X259111Y49194D01*
X259029Y49228D01*
X258948Y49265D01*
X258869Y49306D01*
X258792Y49351D01*
X258717Y49399D01*
X258644Y49450D01*
X258573Y49504D01*
X258505Y49562D01*
X258440Y49622D01*
X258377Y49686D01*
X258317Y49752D01*
X258260Y49821D01*
X258207Y49892D01*
X258156Y49965D01*
X258109Y50041D01*
X258066Y50118D01*
X258025Y50198D01*
X257989Y50279D01*
X257956Y50362D01*
X257927Y50446D01*
X257901Y50532D01*
X257879Y50618D01*
X257862Y50705D01*
X257848Y50793D01*
X257838Y50882D01*
X257832Y50971D01*
X257830Y51060D01*
D16*
X276864Y171548D02*
X278813Y173497D01*
X278813Y175446D01*
X276864Y177395D01*
X267119Y177395D01*
X267119Y175446D02*
X267119Y179344D01*
X278813Y183242D02*
X278813Y191038D01*
X278813Y183242D02*
X271017Y191038D01*
X269068Y191038D01*
X267119Y189089D01*
X267119Y185191D01*
X269068Y183242D01*
D14*
X125650Y108060D02*
X115650Y108060D01*
X115650Y90060D02*
X125650Y90060D01*
D17*
X98350Y109060D02*
X98352Y109104D01*
X98358Y109148D01*
X98368Y109191D01*
X98381Y109233D01*
X98398Y109274D01*
X98419Y109313D01*
X98443Y109350D01*
X98470Y109385D01*
X98500Y109417D01*
X98533Y109447D01*
X98569Y109473D01*
X98606Y109497D01*
X98646Y109516D01*
X98687Y109533D01*
X98730Y109545D01*
X98773Y109554D01*
X98817Y109559D01*
X98861Y109560D01*
X98905Y109557D01*
X98949Y109550D01*
X98992Y109539D01*
X99034Y109525D01*
X99074Y109507D01*
X99113Y109485D01*
X99149Y109461D01*
X99183Y109433D01*
X99215Y109402D01*
X99244Y109368D01*
X99270Y109332D01*
X99292Y109294D01*
X99311Y109254D01*
X99326Y109212D01*
X99338Y109170D01*
X99346Y109126D01*
X99350Y109082D01*
X99350Y109038D01*
X99346Y108994D01*
X99338Y108950D01*
X99326Y108908D01*
X99311Y108866D01*
X99292Y108826D01*
X99270Y108788D01*
X99244Y108752D01*
X99215Y108718D01*
X99183Y108687D01*
X99149Y108659D01*
X99113Y108635D01*
X99074Y108613D01*
X99034Y108595D01*
X98992Y108581D01*
X98949Y108570D01*
X98905Y108563D01*
X98861Y108560D01*
X98817Y108561D01*
X98773Y108566D01*
X98730Y108575D01*
X98687Y108587D01*
X98646Y108604D01*
X98606Y108623D01*
X98569Y108647D01*
X98533Y108673D01*
X98500Y108703D01*
X98470Y108735D01*
X98443Y108770D01*
X98419Y108807D01*
X98398Y108846D01*
X98381Y108887D01*
X98368Y108929D01*
X98358Y108972D01*
X98352Y109016D01*
X98350Y109060D01*
D18*
X115116Y112264D02*
X115116Y117857D01*
X115116Y112264D02*
X118844Y112264D01*
X120729Y115993D02*
X122593Y117857D01*
X122593Y112264D01*
X120729Y112264D02*
X124458Y112264D01*
D14*
X181500Y114560D02*
X199500Y114560D01*
X199500Y83560D02*
X181500Y83560D01*
D19*
X175500Y117060D02*
X175502Y117123D01*
X175508Y117185D01*
X175518Y117247D01*
X175531Y117309D01*
X175549Y117369D01*
X175570Y117428D01*
X175595Y117486D01*
X175624Y117542D01*
X175656Y117596D01*
X175691Y117648D01*
X175729Y117697D01*
X175771Y117745D01*
X175815Y117789D01*
X175863Y117831D01*
X175912Y117869D01*
X175964Y117904D01*
X176018Y117936D01*
X176074Y117965D01*
X176132Y117990D01*
X176191Y118011D01*
X176251Y118029D01*
X176313Y118042D01*
X176375Y118052D01*
X176437Y118058D01*
X176500Y118060D01*
X176563Y118058D01*
X176625Y118052D01*
X176687Y118042D01*
X176749Y118029D01*
X176809Y118011D01*
X176868Y117990D01*
X176926Y117965D01*
X176982Y117936D01*
X177036Y117904D01*
X177088Y117869D01*
X177137Y117831D01*
X177185Y117789D01*
X177229Y117745D01*
X177271Y117697D01*
X177309Y117648D01*
X177344Y117596D01*
X177376Y117542D01*
X177405Y117486D01*
X177430Y117428D01*
X177451Y117369D01*
X177469Y117309D01*
X177482Y117247D01*
X177492Y117185D01*
X177498Y117123D01*
X177500Y117060D01*
X177498Y116997D01*
X177492Y116935D01*
X177482Y116873D01*
X177469Y116811D01*
X177451Y116751D01*
X177430Y116692D01*
X177405Y116634D01*
X177376Y116578D01*
X177344Y116524D01*
X177309Y116472D01*
X177271Y116423D01*
X177229Y116375D01*
X177185Y116331D01*
X177137Y116289D01*
X177088Y116251D01*
X177036Y116216D01*
X176982Y116184D01*
X176926Y116155D01*
X176868Y116130D01*
X176809Y116109D01*
X176749Y116091D01*
X176687Y116078D01*
X176625Y116068D01*
X176563Y116062D01*
X176500Y116060D01*
X176437Y116062D01*
X176375Y116068D01*
X176313Y116078D01*
X176251Y116091D01*
X176191Y116109D01*
X176132Y116130D01*
X176074Y116155D01*
X176018Y116184D01*
X175964Y116216D01*
X175912Y116251D01*
X175863Y116289D01*
X175815Y116331D01*
X175771Y116375D01*
X175729Y116423D01*
X175691Y116472D01*
X175656Y116524D01*
X175624Y116578D01*
X175595Y116634D01*
X175570Y116692D01*
X175549Y116751D01*
X175531Y116811D01*
X175518Y116873D01*
X175508Y116935D01*
X175502Y116997D01*
X175500Y117060D01*
D12*
X183397Y121441D02*
X183397Y128813D01*
X183397Y121441D02*
X187083Y121441D01*
X188312Y122670D01*
X188312Y127585D01*
X187083Y128813D01*
X183397Y128813D01*
X190881Y127585D02*
X192110Y128813D01*
X194567Y128813D01*
X195796Y127585D01*
X195796Y126356D01*
X194567Y125127D01*
X193338Y125127D01*
X194567Y125127D02*
X195796Y123898D01*
X195796Y122670D01*
X194567Y121441D01*
X192110Y121441D01*
X190881Y122670D01*
D14*
X34040Y145330D02*
X34040Y161330D01*
X-5960Y161330D01*
X-5960Y39330D01*
X34040Y39330D01*
X34040Y55330D01*
D15*
X45540Y51330D02*
X45542Y51419D01*
X45548Y51508D01*
X45558Y51597D01*
X45572Y51685D01*
X45589Y51772D01*
X45611Y51858D01*
X45637Y51944D01*
X45666Y52028D01*
X45699Y52111D01*
X45735Y52192D01*
X45776Y52272D01*
X45819Y52349D01*
X45866Y52425D01*
X45917Y52498D01*
X45970Y52569D01*
X46027Y52638D01*
X46087Y52704D01*
X46150Y52768D01*
X46215Y52828D01*
X46283Y52886D01*
X46354Y52940D01*
X46427Y52991D01*
X46502Y53039D01*
X46579Y53084D01*
X46658Y53125D01*
X46739Y53162D01*
X46821Y53196D01*
X46905Y53227D01*
X46990Y53253D01*
X47076Y53276D01*
X47163Y53294D01*
X47251Y53309D01*
X47340Y53320D01*
X47429Y53327D01*
X47518Y53330D01*
X47607Y53329D01*
X47696Y53324D01*
X47784Y53315D01*
X47873Y53302D01*
X47960Y53285D01*
X48047Y53265D01*
X48133Y53240D01*
X48217Y53212D01*
X48300Y53180D01*
X48382Y53144D01*
X48462Y53105D01*
X48540Y53062D01*
X48616Y53016D01*
X48690Y52966D01*
X48762Y52913D01*
X48831Y52857D01*
X48898Y52798D01*
X48962Y52736D01*
X49023Y52672D01*
X49082Y52604D01*
X49137Y52534D01*
X49189Y52462D01*
X49238Y52387D01*
X49283Y52311D01*
X49325Y52232D01*
X49363Y52152D01*
X49398Y52070D01*
X49429Y51986D01*
X49457Y51901D01*
X49480Y51815D01*
X49500Y51728D01*
X49516Y51641D01*
X49528Y51552D01*
X49536Y51464D01*
X49540Y51375D01*
X49540Y51285D01*
X49536Y51196D01*
X49528Y51108D01*
X49516Y51019D01*
X49500Y50932D01*
X49480Y50845D01*
X49457Y50759D01*
X49429Y50674D01*
X49398Y50590D01*
X49363Y50508D01*
X49325Y50428D01*
X49283Y50349D01*
X49238Y50273D01*
X49189Y50198D01*
X49137Y50126D01*
X49082Y50056D01*
X49023Y49988D01*
X48962Y49924D01*
X48898Y49862D01*
X48831Y49803D01*
X48762Y49747D01*
X48690Y49694D01*
X48616Y49644D01*
X48540Y49598D01*
X48462Y49555D01*
X48382Y49516D01*
X48300Y49480D01*
X48217Y49448D01*
X48133Y49420D01*
X48047Y49395D01*
X47960Y49375D01*
X47873Y49358D01*
X47784Y49345D01*
X47696Y49336D01*
X47607Y49331D01*
X47518Y49330D01*
X47429Y49333D01*
X47340Y49340D01*
X47251Y49351D01*
X47163Y49366D01*
X47076Y49384D01*
X46990Y49407D01*
X46905Y49433D01*
X46821Y49464D01*
X46739Y49498D01*
X46658Y49535D01*
X46579Y49576D01*
X46502Y49621D01*
X46427Y49669D01*
X46354Y49720D01*
X46283Y49774D01*
X46215Y49832D01*
X46150Y49892D01*
X46087Y49956D01*
X46027Y50022D01*
X45970Y50091D01*
X45917Y50162D01*
X45866Y50235D01*
X45819Y50311D01*
X45776Y50388D01*
X45735Y50468D01*
X45699Y50549D01*
X45666Y50632D01*
X45637Y50716D01*
X45611Y50802D01*
X45589Y50888D01*
X45572Y50975D01*
X45558Y51063D01*
X45548Y51152D01*
X45542Y51241D01*
X45540Y51330D01*
D12*
X36078Y13263D02*
X34510Y11696D01*
X36078Y13263D02*
X36078Y14831D01*
X34510Y16399D01*
X26672Y16399D01*
X26672Y17966D02*
X26672Y14831D01*
X29807Y21051D02*
X26672Y24186D01*
X36078Y24186D01*
X36078Y21051D02*
X36078Y27322D01*
D20*
X130910Y43400D02*
X130910Y70900D01*
X143410Y70900D01*
X143410Y43400D01*
X130910Y43400D01*
D21*
X125220Y54942D02*
X125855Y55577D01*
X125220Y54942D02*
X125220Y53670D01*
X125855Y53035D01*
X128397Y53035D01*
X129033Y53670D01*
X129033Y54942D01*
X128397Y55577D01*
X129033Y56777D02*
X129033Y59319D01*
X129033Y56777D02*
X126491Y59319D01*
X125855Y59319D01*
X125220Y58684D01*
X125220Y57413D01*
X125855Y56777D01*
D12*
X171767Y74851D02*
X171767Y82223D01*
X171767Y74851D02*
X176682Y74851D01*
X179251Y74851D02*
X184166Y74851D01*
X179251Y74851D02*
X184166Y79766D01*
X184166Y80995D01*
X182937Y82223D01*
X180480Y82223D01*
X179251Y80995D01*
X91757Y82223D02*
X91757Y74851D01*
X96672Y74851D01*
X99241Y80995D02*
X100470Y82223D01*
X102927Y82223D01*
X104156Y80995D01*
X104156Y79766D01*
X102927Y78537D01*
X101698Y78537D01*
X102927Y78537D02*
X104156Y77308D01*
X104156Y76080D01*
X102927Y74851D01*
X100470Y74851D01*
X99241Y76080D01*
M02*
