M48
;GenerationSoftware,Autodesk,EAGLE,9.6.1*%
;CreationDate,2022-07-07T20:12:12Z*%
FMAT,2
ICI,OFF
METRIC,TZ,000.000
T4C0.300
T3C0.350
T2C1.900
T1C2.300
%
G90
M71
T1
X30883Y3336
X30883Y16476
T2
X1754Y7783
X1754Y12283
T3
X21717Y6477
X21717Y9906
X16637Y9906
X16129Y8258
T4
X15080Y4800
X12380Y4800
X8890Y15240
X24130Y5080
X20320Y5080
X8890Y5080
X6350Y15240
X6350Y5080
X6350Y12700
X8890Y8255
X12700Y8255
X6350Y8255
X12700Y15240
X16510Y15240
X20320Y15240
X24130Y15240
X10240Y12690
X16510Y12690
X20320Y12690
X24130Y12690
M30