G04 EAGLE Gerber RS-274X export*
G75*
%MOMM*%
%FSLAX34Y34*%
%LPD*%
%INBottom Copper*%
%IPPOS*%
%AMOC8*
5,1,8,0,0,1.08239X$1,22.5*%
G01*
%ADD10C,3.316000*%
%ADD11C,2.850000*%
%ADD12C,0.807200*%
%ADD13C,0.406400*%
%ADD14C,0.757200*%

G36*
X295471Y10232D02*
X295471Y10232D01*
X295584Y10240D01*
X295697Y10239D01*
X295868Y10260D01*
X296039Y10273D01*
X296150Y10296D01*
X296262Y10311D01*
X296428Y10356D01*
X296596Y10392D01*
X296703Y10431D01*
X296812Y10461D01*
X296970Y10529D01*
X297131Y10589D01*
X297231Y10642D01*
X297335Y10687D01*
X297482Y10777D01*
X297633Y10858D01*
X297725Y10925D01*
X297821Y10984D01*
X297954Y11093D01*
X298093Y11195D01*
X298174Y11274D01*
X298261Y11346D01*
X298377Y11472D01*
X298501Y11593D01*
X298570Y11682D01*
X298646Y11766D01*
X298744Y11907D01*
X298849Y12044D01*
X298905Y12142D01*
X298969Y12235D01*
X299046Y12389D01*
X299131Y12539D01*
X299173Y12644D01*
X299223Y12745D01*
X299277Y12909D01*
X299340Y13069D01*
X299367Y13179D01*
X299403Y13286D01*
X299434Y13455D01*
X299474Y13623D01*
X299485Y13735D01*
X299505Y13847D01*
X299512Y14019D01*
X299529Y14190D01*
X299524Y14303D01*
X299528Y14416D01*
X299511Y14587D01*
X299503Y14759D01*
X299483Y14870D01*
X299471Y14983D01*
X299430Y15150D01*
X299399Y15319D01*
X299363Y15426D01*
X299336Y15536D01*
X299272Y15696D01*
X299217Y15859D01*
X299166Y15960D01*
X299124Y16065D01*
X299038Y16215D01*
X298961Y16368D01*
X298897Y16461D01*
X298841Y16560D01*
X298767Y16649D01*
X298637Y16837D01*
X298415Y17077D01*
X298340Y17169D01*
X292836Y22673D01*
X289963Y29607D01*
X289963Y37113D01*
X292836Y44047D01*
X298143Y49354D01*
X301455Y50726D01*
X301457Y50728D01*
X301460Y50728D01*
X301721Y50859D01*
X301965Y50981D01*
X301967Y50982D01*
X301969Y50984D01*
X302209Y51149D01*
X302434Y51304D01*
X302436Y51306D01*
X302438Y51307D01*
X302650Y51502D01*
X302853Y51690D01*
X302855Y51692D01*
X302857Y51694D01*
X303040Y51917D01*
X303215Y52130D01*
X303216Y52133D01*
X303218Y52135D01*
X303367Y52381D01*
X303511Y52617D01*
X303512Y52620D01*
X303513Y52622D01*
X303623Y52877D01*
X303736Y53140D01*
X303737Y53143D01*
X303738Y53146D01*
X303811Y53415D01*
X303886Y53690D01*
X303886Y53693D01*
X303887Y53696D01*
X303888Y53709D01*
X303957Y54256D01*
X303955Y54395D01*
X303963Y54480D01*
X303963Y143640D01*
X303963Y143642D01*
X303963Y143645D01*
X303943Y143923D01*
X303923Y144208D01*
X303923Y144211D01*
X303923Y144213D01*
X303863Y144491D01*
X303804Y144765D01*
X303803Y144768D01*
X303803Y144771D01*
X303706Y145035D01*
X303608Y145300D01*
X303607Y145303D01*
X303606Y145305D01*
X303475Y145549D01*
X303340Y145803D01*
X303338Y145805D01*
X303337Y145807D01*
X303171Y146034D01*
X303003Y146263D01*
X303001Y146265D01*
X303000Y146267D01*
X302813Y146458D01*
X302606Y146671D01*
X302604Y146673D01*
X302602Y146675D01*
X302380Y146845D01*
X302155Y147020D01*
X302153Y147021D01*
X302151Y147023D01*
X302139Y147029D01*
X301660Y147302D01*
X301530Y147354D01*
X301455Y147394D01*
X298143Y148766D01*
X292836Y154073D01*
X289963Y161007D01*
X289963Y168513D01*
X292836Y175447D01*
X298143Y180754D01*
X301455Y182126D01*
X301457Y182128D01*
X301460Y182128D01*
X301721Y182259D01*
X301965Y182381D01*
X301967Y182382D01*
X301969Y182384D01*
X302209Y182549D01*
X302434Y182704D01*
X302436Y182706D01*
X302438Y182707D01*
X302650Y182902D01*
X302853Y183090D01*
X302855Y183092D01*
X302857Y183094D01*
X303040Y183317D01*
X303215Y183530D01*
X303216Y183533D01*
X303218Y183535D01*
X303367Y183781D01*
X303511Y184017D01*
X303512Y184020D01*
X303513Y184022D01*
X303623Y184277D01*
X303736Y184540D01*
X303737Y184543D01*
X303738Y184546D01*
X303811Y184815D01*
X303886Y185090D01*
X303886Y185093D01*
X303887Y185096D01*
X303888Y185109D01*
X303957Y185656D01*
X303955Y185795D01*
X303963Y185880D01*
X303963Y192200D01*
X303947Y192432D01*
X303937Y192664D01*
X303927Y192716D01*
X303923Y192768D01*
X303875Y192996D01*
X303832Y193224D01*
X303815Y193274D01*
X303804Y193326D01*
X303724Y193544D01*
X303650Y193764D01*
X303627Y193811D01*
X303608Y193861D01*
X303499Y194066D01*
X303395Y194273D01*
X303365Y194317D01*
X303340Y194363D01*
X303203Y194550D01*
X303070Y194742D01*
X303034Y194780D01*
X303003Y194823D01*
X302841Y194989D01*
X302684Y195160D01*
X302643Y195193D01*
X302606Y195231D01*
X302422Y195374D01*
X302242Y195520D01*
X302197Y195548D01*
X302155Y195580D01*
X301953Y195695D01*
X301755Y195815D01*
X301706Y195836D01*
X301660Y195862D01*
X301444Y195948D01*
X301231Y196039D01*
X301180Y196053D01*
X301131Y196072D01*
X300905Y196127D01*
X300681Y196188D01*
X300638Y196192D01*
X300577Y196207D01*
X300010Y196262D01*
X299942Y196259D01*
X299896Y196263D01*
X14296Y195963D01*
X14069Y195947D01*
X13840Y195937D01*
X13784Y195927D01*
X13727Y195923D01*
X13504Y195875D01*
X13280Y195833D01*
X13226Y195815D01*
X13170Y195803D01*
X12956Y195724D01*
X12740Y195652D01*
X12689Y195626D01*
X12635Y195607D01*
X12435Y195499D01*
X12231Y195397D01*
X12184Y195364D01*
X12133Y195337D01*
X11949Y195203D01*
X11762Y195073D01*
X11720Y195034D01*
X11674Y195000D01*
X11510Y194841D01*
X11343Y194687D01*
X11307Y194643D01*
X11266Y194603D01*
X11126Y194422D01*
X10982Y194246D01*
X10953Y194197D01*
X10918Y194152D01*
X10805Y193953D01*
X10687Y193758D01*
X10664Y193706D01*
X10636Y193656D01*
X10552Y193444D01*
X10462Y193235D01*
X10447Y193180D01*
X10426Y193127D01*
X10373Y192905D01*
X10313Y192685D01*
X10309Y192639D01*
X10293Y192573D01*
X10238Y192005D01*
X10241Y191943D01*
X10237Y191900D01*
X10237Y184112D01*
X10182Y184046D01*
X10154Y183998D01*
X10120Y183955D01*
X10006Y183755D01*
X9887Y183558D01*
X9865Y183508D01*
X9838Y183460D01*
X9753Y183246D01*
X9662Y183035D01*
X9648Y182982D01*
X9628Y182931D01*
X9573Y182706D01*
X9513Y182485D01*
X9509Y182441D01*
X9494Y182377D01*
X9438Y181810D01*
X9441Y181744D01*
X9437Y181700D01*
X9437Y143430D01*
X9453Y143201D01*
X9463Y142970D01*
X9473Y142916D01*
X9477Y142862D01*
X9525Y142636D01*
X9567Y142410D01*
X9584Y142358D01*
X9596Y142304D01*
X9675Y142088D01*
X9748Y141870D01*
X9773Y141821D01*
X9792Y141769D01*
X9900Y141566D01*
X10003Y141361D01*
X10034Y141315D01*
X10060Y141267D01*
X10196Y141081D01*
X10327Y140892D01*
X10364Y140851D01*
X10397Y140807D01*
X10557Y140642D01*
X10713Y140473D01*
X10756Y140438D01*
X10794Y140399D01*
X10976Y140258D01*
X11154Y140112D01*
X11202Y140084D01*
X11245Y140050D01*
X11445Y139936D01*
X11642Y139817D01*
X11692Y139795D01*
X11740Y139768D01*
X11954Y139683D01*
X12165Y139592D01*
X12218Y139578D01*
X12269Y139558D01*
X12494Y139503D01*
X12715Y139443D01*
X12759Y139439D01*
X12823Y139423D01*
X13390Y139368D01*
X13456Y139371D01*
X13500Y139367D01*
X20829Y139367D01*
X26907Y136849D01*
X31559Y132197D01*
X34077Y126119D01*
X34077Y119541D01*
X31559Y113463D01*
X26907Y108811D01*
X20829Y106293D01*
X13500Y106293D01*
X13271Y106277D01*
X13040Y106267D01*
X12986Y106257D01*
X12932Y106253D01*
X12706Y106205D01*
X12480Y106163D01*
X12428Y106146D01*
X12374Y106134D01*
X12158Y106055D01*
X11940Y105982D01*
X11891Y105957D01*
X11839Y105938D01*
X11636Y105830D01*
X11431Y105727D01*
X11385Y105696D01*
X11337Y105670D01*
X11151Y105534D01*
X10962Y105403D01*
X10921Y105366D01*
X10877Y105333D01*
X10712Y105173D01*
X10543Y105017D01*
X10508Y104974D01*
X10469Y104936D01*
X10328Y104754D01*
X10182Y104576D01*
X10154Y104528D01*
X10120Y104485D01*
X10006Y104285D01*
X9887Y104088D01*
X9865Y104038D01*
X9838Y103990D01*
X9753Y103776D01*
X9662Y103565D01*
X9648Y103512D01*
X9628Y103461D01*
X9573Y103236D01*
X9513Y103015D01*
X9509Y102971D01*
X9494Y102907D01*
X9438Y102340D01*
X9441Y102274D01*
X9437Y102230D01*
X9437Y98430D01*
X9453Y98201D01*
X9463Y97970D01*
X9473Y97916D01*
X9477Y97862D01*
X9525Y97636D01*
X9567Y97410D01*
X9584Y97358D01*
X9596Y97304D01*
X9675Y97088D01*
X9748Y96870D01*
X9773Y96821D01*
X9792Y96769D01*
X9900Y96566D01*
X10003Y96361D01*
X10034Y96315D01*
X10060Y96267D01*
X10196Y96081D01*
X10327Y95892D01*
X10364Y95851D01*
X10397Y95807D01*
X10557Y95642D01*
X10713Y95473D01*
X10756Y95438D01*
X10794Y95399D01*
X10976Y95258D01*
X11154Y95112D01*
X11202Y95084D01*
X11245Y95050D01*
X11445Y94936D01*
X11642Y94817D01*
X11692Y94795D01*
X11740Y94768D01*
X11954Y94683D01*
X12165Y94592D01*
X12218Y94578D01*
X12269Y94558D01*
X12494Y94503D01*
X12715Y94443D01*
X12759Y94439D01*
X12823Y94423D01*
X13390Y94368D01*
X13456Y94371D01*
X13500Y94367D01*
X20829Y94367D01*
X26907Y91849D01*
X31559Y87197D01*
X34077Y81119D01*
X34077Y74541D01*
X31559Y68463D01*
X26907Y63811D01*
X20829Y61293D01*
X13500Y61293D01*
X13271Y61277D01*
X13040Y61267D01*
X12986Y61257D01*
X12932Y61253D01*
X12706Y61205D01*
X12480Y61163D01*
X12428Y61146D01*
X12374Y61134D01*
X12158Y61055D01*
X11940Y60982D01*
X11891Y60957D01*
X11839Y60938D01*
X11636Y60830D01*
X11431Y60727D01*
X11385Y60696D01*
X11337Y60670D01*
X11151Y60534D01*
X10962Y60403D01*
X10921Y60366D01*
X10877Y60333D01*
X10712Y60173D01*
X10543Y60017D01*
X10508Y59974D01*
X10469Y59936D01*
X10328Y59754D01*
X10182Y59576D01*
X10154Y59528D01*
X10120Y59485D01*
X10006Y59285D01*
X9887Y59088D01*
X9865Y59038D01*
X9838Y58990D01*
X9753Y58776D01*
X9662Y58565D01*
X9648Y58512D01*
X9628Y58461D01*
X9573Y58236D01*
X9513Y58015D01*
X9509Y57971D01*
X9494Y57907D01*
X9438Y57340D01*
X9441Y57274D01*
X9437Y57230D01*
X9437Y31704D01*
X9445Y31589D01*
X9443Y31474D01*
X9465Y31305D01*
X9477Y31136D01*
X9501Y31023D01*
X9515Y30908D01*
X9560Y30744D01*
X9596Y30578D01*
X9635Y30470D01*
X9666Y30359D01*
X9733Y30203D01*
X9792Y30043D01*
X9846Y29941D01*
X9892Y29836D01*
X9980Y29691D01*
X10060Y29541D01*
X10128Y29448D01*
X10188Y29349D01*
X10296Y29218D01*
X10397Y29081D01*
X10477Y28998D01*
X10550Y28909D01*
X10676Y28794D01*
X10794Y28673D01*
X10885Y28602D01*
X10970Y28524D01*
X11110Y28428D01*
X11245Y28324D01*
X11345Y28267D01*
X11440Y28202D01*
X11592Y28126D01*
X11740Y28042D01*
X11847Y27999D01*
X11950Y27948D01*
X12111Y27894D01*
X12269Y27831D01*
X12382Y27804D01*
X12491Y27768D01*
X12658Y27737D01*
X12823Y27697D01*
X12938Y27686D01*
X13051Y27665D01*
X13221Y27659D01*
X13390Y27642D01*
X13506Y27647D01*
X13621Y27642D01*
X13790Y27659D01*
X13960Y27667D01*
X14073Y27688D01*
X14188Y27699D01*
X14353Y27740D01*
X14520Y27771D01*
X14629Y27807D01*
X14741Y27835D01*
X14899Y27898D01*
X15060Y27952D01*
X15163Y28004D01*
X15270Y28046D01*
X15418Y28131D01*
X15569Y28207D01*
X15664Y28273D01*
X15764Y28330D01*
X15853Y28403D01*
X16038Y28531D01*
X16282Y28756D01*
X16373Y28831D01*
X16604Y29061D01*
X18191Y29719D01*
X19909Y29719D01*
X21496Y29061D01*
X22711Y27846D01*
X23571Y25770D01*
X23598Y25716D01*
X23619Y25660D01*
X23725Y25462D01*
X23826Y25260D01*
X23860Y25211D01*
X23888Y25158D01*
X24021Y24977D01*
X24149Y24791D01*
X24190Y24747D01*
X24225Y24698D01*
X24382Y24537D01*
X24535Y24372D01*
X24581Y24334D01*
X24623Y24290D01*
X24801Y24153D01*
X24975Y24010D01*
X25027Y23979D01*
X25075Y23942D01*
X25178Y23887D01*
X25462Y23714D01*
X25669Y23625D01*
X25770Y23571D01*
X27846Y22711D01*
X29061Y21496D01*
X29719Y19909D01*
X29719Y18191D01*
X29027Y16520D01*
X28977Y16463D01*
X28913Y16364D01*
X28841Y16271D01*
X28758Y16125D01*
X28667Y15985D01*
X28618Y15878D01*
X28559Y15776D01*
X28498Y15620D01*
X28427Y15468D01*
X28393Y15356D01*
X28350Y15246D01*
X28310Y15083D01*
X28262Y14922D01*
X28244Y14806D01*
X28216Y14692D01*
X28200Y14525D01*
X28174Y14359D01*
X28173Y14242D01*
X28162Y14125D01*
X28169Y13958D01*
X28167Y13790D01*
X28182Y13673D01*
X28187Y13556D01*
X28218Y13391D01*
X28239Y13224D01*
X28270Y13111D01*
X28291Y12996D01*
X28345Y12837D01*
X28389Y12675D01*
X28436Y12567D01*
X28473Y12456D01*
X28549Y12306D01*
X28615Y12152D01*
X28676Y12052D01*
X28729Y11947D01*
X28824Y11809D01*
X28912Y11665D01*
X28986Y11575D01*
X29053Y11478D01*
X29167Y11355D01*
X29274Y11225D01*
X29360Y11146D01*
X29440Y11060D01*
X29570Y10954D01*
X29694Y10840D01*
X29790Y10774D01*
X29881Y10699D01*
X30025Y10612D01*
X30163Y10517D01*
X30268Y10465D01*
X30369Y10404D01*
X30523Y10338D01*
X30673Y10264D01*
X30785Y10227D01*
X30893Y10180D01*
X31055Y10137D01*
X31214Y10084D01*
X31330Y10063D01*
X31443Y10032D01*
X31557Y10021D01*
X31774Y9981D01*
X32112Y9968D01*
X32228Y9956D01*
X295471Y10232D01*
G37*
%LPC*%
G36*
X215912Y58447D02*
X215912Y58447D01*
X213588Y59410D01*
X211810Y61188D01*
X210847Y63512D01*
X210847Y66028D01*
X211824Y68386D01*
X211887Y68463D01*
X212035Y68633D01*
X212068Y68684D01*
X212106Y68730D01*
X212223Y68923D01*
X212345Y69111D01*
X212370Y69166D01*
X212401Y69218D01*
X212490Y69424D01*
X212585Y69628D01*
X212602Y69686D01*
X212626Y69741D01*
X212684Y69958D01*
X212750Y70173D01*
X212759Y70233D01*
X212775Y70291D01*
X212786Y70408D01*
X212837Y70736D01*
X212840Y70961D01*
X212851Y71076D01*
X212851Y92754D01*
X212847Y92814D01*
X212849Y92875D01*
X212827Y93098D01*
X212811Y93322D01*
X212799Y93382D01*
X212793Y93441D01*
X212739Y93660D01*
X212692Y93880D01*
X212672Y93936D01*
X212657Y93995D01*
X212574Y94204D01*
X212496Y94415D01*
X212468Y94468D01*
X212446Y94524D01*
X212334Y94719D01*
X212228Y94917D01*
X212192Y94966D01*
X212162Y95018D01*
X212087Y95109D01*
X211891Y95377D01*
X211823Y95447D01*
X210847Y97802D01*
X210847Y100318D01*
X211810Y102642D01*
X213588Y104420D01*
X215912Y105383D01*
X218428Y105383D01*
X220752Y104420D01*
X222530Y102642D01*
X223493Y100318D01*
X223493Y97802D01*
X222516Y95444D01*
X222453Y95367D01*
X222305Y95197D01*
X222272Y95146D01*
X222234Y95100D01*
X222117Y94907D01*
X221995Y94719D01*
X221970Y94664D01*
X221939Y94612D01*
X221850Y94406D01*
X221755Y94202D01*
X221738Y94144D01*
X221714Y94089D01*
X221656Y93872D01*
X221590Y93657D01*
X221581Y93597D01*
X221565Y93539D01*
X221554Y93422D01*
X221503Y93094D01*
X221500Y92869D01*
X221489Y92754D01*
X221489Y71076D01*
X221493Y71016D01*
X221491Y70955D01*
X221513Y70732D01*
X221529Y70508D01*
X221541Y70448D01*
X221547Y70389D01*
X221601Y70170D01*
X221648Y69950D01*
X221668Y69894D01*
X221683Y69835D01*
X221766Y69626D01*
X221844Y69415D01*
X221872Y69362D01*
X221894Y69306D01*
X222006Y69111D01*
X222112Y68913D01*
X222148Y68864D01*
X222178Y68812D01*
X222253Y68721D01*
X222449Y68453D01*
X222517Y68383D01*
X223493Y66028D01*
X223493Y63512D01*
X222530Y61188D01*
X220752Y59410D01*
X218428Y58447D01*
X215912Y58447D01*
G37*
%LPD*%
D10*
X308830Y33360D03*
X308830Y164760D03*
D11*
X17540Y77830D03*
X17540Y122830D03*
D12*
X217170Y64770D03*
X217170Y99060D03*
D13*
X217170Y64770D01*
D14*
X150800Y48000D03*
X123800Y48000D03*
X88900Y152400D03*
X241300Y50800D03*
X203200Y50800D03*
X88900Y50800D03*
X63500Y152400D03*
X63500Y50800D03*
X63500Y127000D03*
X88900Y82550D03*
X127000Y82550D03*
X63500Y82550D03*
D12*
X166370Y99060D03*
X161290Y82578D03*
D14*
X127000Y152400D03*
X165100Y152400D03*
X203200Y152400D03*
X241300Y152400D03*
X102400Y126900D03*
X165100Y126900D03*
X203200Y126900D03*
X241300Y126900D03*
D13*
X330200Y15875D02*
X342900Y15875D01*
X336550Y9525D02*
X336550Y22225D01*
X330200Y184150D02*
X342900Y184150D01*
X336550Y177800D02*
X336550Y190500D01*
X25400Y19050D02*
X12700Y19050D01*
X19050Y12700D02*
X19050Y25400D01*
M02*
