M48
;Layer_Color=9474304
;FILE_FORMAT=4:3
METRIC,TZ
;TYPE=PLATED
T1F00S00C0.150
T2F00S00C0.300
T3F00S00C0.400
%
T01
X33550Y550
X36550
X39050
Y3550
Y6550
Y10000
Y13450
Y16450
Y19450
X36550
X33550
X30550
X27550
X24550
X21550
X18550
X15550
X12550
X9550
X6550
X3550
X550
Y16450
Y13450
X1925Y12850
X2125Y11250
X2775
Y8750
X2125
X1925Y7150
X550Y6550
Y3550
X1750Y3875
Y3125
Y2375
X2125Y4750
X2875Y5250
X3500
X4125
X4750
X8125
X8875
X9625
X10375
X12875Y4750
Y4000
Y3000
Y2250
X12550Y550
X9550
X9625Y1750
X10375
X8875
X8125
X6550Y550
X3550
X550
X15550
X18550
X19625Y1750
X20375
X21125
X21875
X21550Y550
X24550
X25500Y1750
X26125
X26750
X27375
X27550Y550
X30550
X30375Y3100
Y3750
Y4400
X31025
Y3750
Y3100
X27375Y5250
X26750
X26125
X25500
Y8500
X25875Y10000
X25500Y11500
X27500Y11900
X28300Y13125
X28600Y10300
X27500Y8100
X28300Y6875
X21875Y5250
X21125
X20375
X19625
X17125Y4750
Y4000
Y3000
Y2250
X18550Y14750
X21550
X24550
X27550Y16000
X30550Y14750
X15550
X12550
X9550
X6550
X3550
T02
X34750Y10000
X36500
X37750
X33375
X25950Y6425
X25050
Y13575
X25950
X28875Y1750
X29625
X18875Y1650
X18125
X11875
X11125
X1250Y5550
Y14450
T03
X30760Y7200
X31460Y7600
Y8400
Y9200
X30760Y8800
Y9600
Y10400
Y11200
X31460Y11600
Y10800
Y12400
X30760Y12800
M30
