G04*
G04 #@! TF.GenerationSoftware,Altium Limited,Altium Designer,18.1.7 (191)*
G04*
G04 Layer_Color=8388736*
%FSLAX43Y43*%
%MOMM*%
G71*
G01*
G75*
%ADD32R,1.800X1.400*%
%ADD33R,1.500X3.600*%
%ADD34R,0.650X0.600*%
%ADD35R,1.100X0.600*%
%ADD36R,1.700X0.550*%
%ADD37R,0.875X0.400*%
%ADD38R,2.100X3.200*%
%ADD39R,1.600X1.050*%
%ADD40R,0.800X0.400*%
%ADD41R,1.200X0.825*%
%ADD42R,1.200X1.100*%
%ADD43R,1.200X0.400*%
%ADD44R,1.400X0.500*%
%ADD45R,1.180X3.900*%
%ADD46R,1.200X1.900*%
%ADD47R,1.400X1.300*%
%ADD48C,0.850*%
%ADD49C,0.200*%
%ADD50O,1.800X1.200*%
%ADD51C,0.700*%
%ADD52C,0.800*%
D32*
X21700Y3500D02*
D03*
X25300D02*
D03*
X4700D02*
D03*
X8300D02*
D03*
D33*
X16050D02*
D03*
X13950D02*
D03*
D34*
X4175Y13050D02*
D03*
Y12350D02*
D03*
X5075Y13050D02*
D03*
Y12350D02*
D03*
Y6950D02*
D03*
Y7650D02*
D03*
X4175Y6950D02*
D03*
Y7650D02*
D03*
D35*
X4150Y10400D02*
D03*
Y9600D02*
D03*
X5850Y10400D02*
D03*
Y9600D02*
D03*
D36*
X1000Y9750D02*
D03*
Y10250D02*
D03*
X1000Y12750D02*
D03*
Y12250D02*
D03*
X1000Y11750D02*
D03*
Y11250D02*
D03*
Y10750D02*
D03*
Y9250D02*
D03*
Y8750D02*
D03*
Y8250D02*
D03*
Y7750D02*
D03*
X1000Y7250D02*
D03*
D37*
X25938Y7500D02*
D03*
Y6700D02*
D03*
X25062D02*
D03*
X25938Y7100D02*
D03*
X25062Y7500D02*
D03*
Y7100D02*
D03*
X25938Y12900D02*
D03*
Y12500D02*
D03*
Y13300D02*
D03*
X25062D02*
D03*
Y12900D02*
D03*
Y12500D02*
D03*
D38*
X26200Y3500D02*
D03*
X20800D02*
D03*
X9200D02*
D03*
X3800D02*
D03*
D39*
X18500Y1075D02*
D03*
Y2825D02*
D03*
X11500Y1075D02*
D03*
Y2825D02*
D03*
D40*
X26525Y8700D02*
D03*
Y9600D02*
D03*
Y10400D02*
D03*
Y11300D02*
D03*
X27475Y11700D02*
D03*
Y10800D02*
D03*
Y10000D02*
D03*
Y8300D02*
D03*
Y9200D02*
D03*
D41*
X29250Y2238D02*
D03*
Y3462D02*
D03*
D42*
X1250Y13825D02*
D03*
Y6175D02*
D03*
D43*
X34080Y10000D02*
D03*
X37180D02*
D03*
D44*
X29500Y7250D02*
D03*
Y12750D02*
D03*
Y7750D02*
D03*
Y8250D02*
D03*
Y8750D02*
D03*
Y9250D02*
D03*
Y12250D02*
D03*
Y11250D02*
D03*
Y10750D02*
D03*
Y10250D02*
D03*
Y11750D02*
D03*
Y9750D02*
D03*
D45*
X16185Y3500D02*
D03*
X13815D02*
D03*
D46*
X32475Y1750D02*
D03*
X35275D02*
D03*
X32475Y3750D02*
D03*
X35275D02*
D03*
D47*
X37125Y1750D02*
D03*
Y3850D02*
D03*
D48*
X31460Y12400D02*
D03*
Y11600D02*
D03*
Y10800D02*
D03*
Y9200D02*
D03*
X30760Y7200D02*
D03*
Y12800D02*
D03*
Y8800D02*
D03*
Y11200D02*
D03*
Y10400D02*
D03*
Y9600D02*
D03*
X31460Y8400D02*
D03*
Y7600D02*
D03*
D49*
X30760Y12000D02*
D03*
Y8000D02*
D03*
D50*
X31900Y14270D02*
D03*
Y5730D02*
D03*
X36630Y14270D02*
D03*
Y5730D02*
D03*
D51*
X10375Y1750D02*
D03*
X8875D02*
D03*
X8125D02*
D03*
X9625D02*
D03*
X9550Y550D02*
D03*
X9625Y5250D02*
D03*
X8875D02*
D03*
X550Y13450D02*
D03*
Y550D02*
D03*
X39050Y19450D02*
D03*
X28600Y10300D02*
D03*
X2775Y8750D02*
D03*
X2125Y11250D02*
D03*
X2775D02*
D03*
X28300Y6875D02*
D03*
X1925Y7150D02*
D03*
X2125Y8750D02*
D03*
X27500Y8100D02*
D03*
Y11900D02*
D03*
X28300Y13125D02*
D03*
X25500Y8500D02*
D03*
X25875Y10000D02*
D03*
X30375Y3100D02*
D03*
Y3750D02*
D03*
Y4400D02*
D03*
X31025D02*
D03*
Y3100D02*
D03*
Y3750D02*
D03*
X25500Y5250D02*
D03*
X26125D02*
D03*
X26750D02*
D03*
X27375D02*
D03*
X25500Y1750D02*
D03*
X26125D02*
D03*
X26750D02*
D03*
X27375D02*
D03*
X21875Y5250D02*
D03*
X21125D02*
D03*
X20375D02*
D03*
X19625D02*
D03*
X21875Y1750D02*
D03*
X21125D02*
D03*
X20375D02*
D03*
X19625D02*
D03*
X17125Y4750D02*
D03*
Y2250D02*
D03*
Y4000D02*
D03*
Y3000D02*
D03*
X12875D02*
D03*
Y4000D02*
D03*
Y2250D02*
D03*
Y4750D02*
D03*
X8125Y5250D02*
D03*
X10375D02*
D03*
X4750D02*
D03*
X4125D02*
D03*
X3500D02*
D03*
X2875D02*
D03*
X2125Y4750D02*
D03*
X1750Y3875D02*
D03*
Y3125D02*
D03*
Y2375D02*
D03*
X550Y3550D02*
D03*
Y19450D02*
D03*
Y16450D02*
D03*
Y6550D02*
D03*
X25500Y11500D02*
D03*
X39050Y3550D02*
D03*
Y16450D02*
D03*
Y550D02*
D03*
Y6550D02*
D03*
Y13450D02*
D03*
Y10000D02*
D03*
X1925Y12850D02*
D03*
X3550Y550D02*
D03*
X6550D02*
D03*
X12550D02*
D03*
X15550D02*
D03*
X18550D02*
D03*
X21550D02*
D03*
X24550D02*
D03*
X27550D02*
D03*
X30550D02*
D03*
X33550D02*
D03*
X36550D02*
D03*
X3550Y19450D02*
D03*
X6550D02*
D03*
X9550D02*
D03*
X12550D02*
D03*
X15550D02*
D03*
X18550D02*
D03*
X21550D02*
D03*
X24550D02*
D03*
X27550D02*
D03*
X30550D02*
D03*
X33550D02*
D03*
X36550D02*
D03*
X3550Y14750D02*
D03*
X6550D02*
D03*
X9550D02*
D03*
X12550D02*
D03*
X15550D02*
D03*
X18550D02*
D03*
X21550D02*
D03*
X24550D02*
D03*
X30550D02*
D03*
X27550Y16000D02*
D03*
D52*
X37750Y10000D02*
D03*
X36500D02*
D03*
X34750D02*
D03*
X33375D02*
D03*
X25050Y6425D02*
D03*
X25950D02*
D03*
X25050Y13575D02*
D03*
X25950D02*
D03*
X11125Y1650D02*
D03*
X18125D02*
D03*
X18875D02*
D03*
X29625Y1750D02*
D03*
X1250Y14450D02*
D03*
Y5550D02*
D03*
X28875Y1750D02*
D03*
X11875Y1650D02*
D03*
M02*
