G04*
G04 #@! TF.GenerationSoftware,Altium Limited,Altium Designer,18.1.7 (191)*
G04*
G04 Layer_Color=32896*
%FSLAX43Y43*%
%MOMM*%
G71*
G01*
G75*
%ADD10C,0.200*%
%ADD11C,0.100*%
%ADD12C,0.400*%
%ADD15C,0.150*%
D10*
X3725Y12000D02*
Y13400D01*
X5525D01*
Y12000D02*
Y13400D01*
X3725Y12000D02*
X5525D01*
X3725Y6600D02*
X5525D01*
Y8000D01*
X3725D02*
X5525D01*
X3725Y6600D02*
Y8000D01*
D11*
X25025Y11975D02*
G03*
X25025Y11975I-50J0D01*
G01*
X26075Y8025D02*
G03*
X26075Y8025I-50J0D01*
G01*
X24975Y12150D02*
X26025D01*
X24975Y13650D02*
X26025D01*
X24975Y7850D02*
X26025D01*
X24975Y6350D02*
X26025D01*
D12*
X300Y6500D02*
G03*
X300Y6500I-200J0D01*
G01*
D15*
X23900Y15000D02*
Y14000D01*
X23400D01*
X23234Y14167D01*
Y14833D01*
X23400Y15000D01*
X23900D01*
X22400Y14000D02*
Y15000D01*
X22900Y14500D01*
X22234D01*
X24100Y6550D02*
Y5550D01*
X23600D01*
X23434Y5717D01*
Y6383D01*
X23600Y6550D01*
X24100D01*
X23100Y6383D02*
X22934Y6550D01*
X22600D01*
X22434Y6383D01*
Y6216D01*
X22600Y6050D01*
X22767D01*
X22600D01*
X22434Y5883D01*
Y5717D01*
X22600Y5550D01*
X22934D01*
X23100Y5717D01*
X7123Y6200D02*
Y5200D01*
X6457D01*
X5624D02*
Y6200D01*
X6124Y5700D01*
X5457D01*
X5900Y14800D02*
Y13800D01*
X5234D01*
X4234Y14800D02*
X4900D01*
Y14300D01*
X4567Y14466D01*
X4400D01*
X4234Y14300D01*
Y13967D01*
X4400Y13800D01*
X4734D01*
X4900Y13967D01*
M02*
