G04*
G04 #@! TF.GenerationSoftware,Altium Limited,Altium Designer,18.1.7 (191)*
G04*
G04 Layer_Color=65535*
%FSLAX43Y43*%
%MOMM*%
G71*
G01*
G75*
%ADD10C,0.200*%
%ADD11C,0.100*%
%ADD12C,0.400*%
%ADD13C,0.127*%
%ADD14C,0.050*%
%ADD15C,0.150*%
G36*
X12370Y14467D02*
X12244D01*
Y14593D01*
X12370D01*
Y14467D01*
D02*
G37*
G36*
X12144D02*
X12018D01*
Y14593D01*
X12144D01*
Y14467D01*
D02*
G37*
G36*
X14697Y13631D02*
X14543D01*
Y13966D01*
X14239D01*
Y13631D01*
X14085D01*
Y14397D01*
X14239D01*
Y14095D01*
X14543D01*
Y14397D01*
X14697D01*
Y13631D01*
D02*
G37*
G36*
X21727Y14098D02*
X22032Y13631D01*
X21831D01*
X21620Y13990D01*
X21495Y13862D01*
Y13631D01*
X21341D01*
Y14397D01*
X21495D01*
Y14056D01*
X21808Y14397D01*
X22016D01*
X21727Y14098D01*
D02*
G37*
G36*
X17624Y14098D02*
X17929Y13631D01*
X17728D01*
X17517Y13990D01*
X17392Y13862D01*
Y13631D01*
X17238D01*
Y14397D01*
X17392D01*
Y14056D01*
X17705Y14397D01*
X17913D01*
X17624Y14098D01*
D02*
G37*
G36*
X20878Y13631D02*
X20723D01*
X20413Y14132D01*
Y13631D01*
X20270D01*
Y14397D01*
X20420D01*
X20734Y13884D01*
Y14397D01*
X20878D01*
Y13631D01*
D02*
G37*
G36*
X11619Y13631D02*
X11455D01*
X11302Y14203D01*
X11151Y13631D01*
X10982D01*
X10800Y14397D01*
X10958D01*
X11074Y13870D01*
X11213Y14397D01*
X11397D01*
X11531Y13861D01*
X11649Y14397D01*
X11805D01*
X11619Y13631D01*
D02*
G37*
G36*
X12494Y13994D02*
Y13993D01*
Y13992D01*
Y13991D01*
Y13988D01*
Y13984D01*
Y13981D01*
Y13976D01*
Y13972D01*
X12493Y13960D01*
Y13947D01*
X12493Y13933D01*
X12492Y13918D01*
X12492Y13902D01*
X12491Y13886D01*
X12490Y13869D01*
X12488Y13853D01*
X12487Y13838D01*
X12486Y13824D01*
X12483Y13811D01*
X12481Y13799D01*
Y13798D01*
X12481Y13796D01*
X12480Y13793D01*
X12478Y13790D01*
X12477Y13785D01*
X12476Y13779D01*
X12473Y13772D01*
X12471Y13766D01*
X12464Y13750D01*
X12456Y13734D01*
X12446Y13718D01*
X12435Y13703D01*
X12434Y13702D01*
X12433Y13701D01*
X12431Y13699D01*
X12428Y13696D01*
X12425Y13693D01*
X12421Y13689D01*
X12416Y13685D01*
X12411Y13680D01*
X12405Y13675D01*
X12398Y13670D01*
X12391Y13665D01*
X12383Y13660D01*
X12374Y13655D01*
X12365Y13650D01*
X12355Y13645D01*
X12345Y13641D01*
X12344D01*
X12342Y13639D01*
X12339Y13638D01*
X12335Y13637D01*
X12329Y13635D01*
X12322Y13633D01*
X12314Y13631D01*
X12306Y13629D01*
X12295Y13627D01*
X12284Y13625D01*
X12272Y13623D01*
X12259Y13621D01*
X12245Y13620D01*
X12230Y13618D01*
X12214Y13618D01*
X12198Y13617D01*
X12187D01*
X12179Y13618D01*
X12170D01*
X12160Y13618D01*
X12148Y13620D01*
X12136Y13621D01*
X12122Y13622D01*
X12108Y13623D01*
X12081Y13628D01*
X12067Y13631D01*
X12054Y13634D01*
X12042Y13638D01*
X12031Y13642D01*
X12030Y13643D01*
X12029Y13643D01*
X12025Y13645D01*
X12022Y13647D01*
X12017Y13649D01*
X12012Y13652D01*
X12005Y13656D01*
X11999Y13660D01*
X11984Y13669D01*
X11969Y13681D01*
X11955Y13694D01*
X11941Y13708D01*
X11941Y13709D01*
X11940Y13710D01*
X11938Y13712D01*
X11936Y13715D01*
X11933Y13719D01*
X11930Y13723D01*
X11927Y13729D01*
X11924Y13734D01*
X11916Y13747D01*
X11909Y13761D01*
X11903Y13777D01*
X11898Y13793D01*
Y13794D01*
X11897Y13797D01*
X11897Y13801D01*
X11896Y13806D01*
X11895Y13813D01*
X11893Y13821D01*
X11892Y13831D01*
X11891Y13843D01*
X11889Y13855D01*
X11888Y13870D01*
X11886Y13886D01*
X11885Y13903D01*
X11885Y13922D01*
X11884Y13942D01*
X11883Y13964D01*
Y13988D01*
Y14397D01*
X12038D01*
Y13982D01*
Y13981D01*
Y13977D01*
Y13972D01*
Y13966D01*
Y13958D01*
X12038Y13949D01*
Y13939D01*
Y13928D01*
X12039Y13907D01*
X12039Y13896D01*
X12040Y13886D01*
X12040Y13876D01*
X12041Y13867D01*
X12042Y13859D01*
X12043Y13853D01*
Y13853D01*
X12044Y13851D01*
X12044Y13849D01*
X12045Y13845D01*
X12046Y13842D01*
X12048Y13837D01*
X12053Y13826D01*
X12059Y13814D01*
X12067Y13802D01*
X12072Y13796D01*
X12077Y13790D01*
X12084Y13783D01*
X12090Y13778D01*
X12091Y13777D01*
X12092Y13777D01*
X12094Y13775D01*
X12097Y13773D01*
X12101Y13771D01*
X12106Y13769D01*
X12111Y13766D01*
X12117Y13764D01*
X12124Y13761D01*
X12132Y13759D01*
X12140Y13756D01*
X12149Y13754D01*
X12159Y13752D01*
X12169Y13751D01*
X12181Y13750D01*
X12193Y13750D01*
X12199D01*
X12204Y13750D01*
X12209D01*
X12215Y13751D01*
X12222Y13752D01*
X12230Y13753D01*
X12246Y13756D01*
X12262Y13761D01*
X12278Y13767D01*
X12285Y13772D01*
X12292Y13776D01*
X12292Y13777D01*
X12293Y13777D01*
X12295Y13779D01*
X12297Y13781D01*
X12303Y13787D01*
X12309Y13794D01*
X12317Y13804D01*
X12323Y13816D01*
X12328Y13828D01*
X12330Y13835D01*
X12332Y13842D01*
Y13843D01*
X12333Y13844D01*
Y13847D01*
X12333Y13850D01*
X12334Y13854D01*
X12334Y13859D01*
X12335Y13866D01*
X12336Y13873D01*
X12337Y13882D01*
X12337Y13891D01*
X12338Y13902D01*
X12338Y13914D01*
X12339Y13927D01*
Y13941D01*
X12339Y13956D01*
Y13973D01*
Y14397D01*
X12494D01*
Y13994D01*
D02*
G37*
G36*
X21191Y13631D02*
X21037D01*
Y14397D01*
X21191D01*
Y13631D01*
D02*
G37*
G36*
X19008Y14396D02*
X19019D01*
X19030Y14396D01*
X19043Y14395D01*
X19057Y14394D01*
X19071Y14393D01*
X19086Y14392D01*
X19116Y14388D01*
X19130Y14386D01*
X19143Y14383D01*
X19156Y14380D01*
X19167Y14376D01*
X19167D01*
X19169Y14375D01*
X19172Y14374D01*
X19176Y14372D01*
X19181Y14370D01*
X19186Y14366D01*
X19192Y14363D01*
X19199Y14359D01*
X19206Y14354D01*
X19213Y14349D01*
X19220Y14343D01*
X19228Y14336D01*
X19235Y14329D01*
X19243Y14321D01*
X19249Y14312D01*
X19256Y14302D01*
X19256Y14302D01*
X19258Y14300D01*
X19259Y14297D01*
X19261Y14293D01*
X19264Y14288D01*
X19266Y14282D01*
X19270Y14275D01*
X19273Y14267D01*
X19276Y14259D01*
X19279Y14250D01*
X19282Y14240D01*
X19285Y14229D01*
X19286Y14218D01*
X19288Y14206D01*
X19289Y14195D01*
X19290Y14182D01*
Y14181D01*
Y14178D01*
X19289Y14174D01*
Y14168D01*
X19288Y14160D01*
X19287Y14152D01*
X19285Y14142D01*
X19284Y14132D01*
X19281Y14121D01*
X19277Y14109D01*
X19273Y14097D01*
X19268Y14085D01*
X19263Y14074D01*
X19255Y14061D01*
X19248Y14050D01*
X19239Y14039D01*
X19238Y14039D01*
X19236Y14037D01*
X19233Y14034D01*
X19229Y14030D01*
X19224Y14026D01*
X19218Y14021D01*
X19210Y14015D01*
X19201Y14009D01*
X19191Y14003D01*
X19179Y13998D01*
X19167Y13992D01*
X19153Y13986D01*
X19138Y13981D01*
X19122Y13976D01*
X19105Y13972D01*
X19087Y13969D01*
X19088Y13968D01*
X19089Y13968D01*
X19092Y13966D01*
X19095Y13964D01*
X19100Y13961D01*
X19105Y13958D01*
X19110Y13954D01*
X19116Y13950D01*
X19130Y13940D01*
X19143Y13929D01*
X19157Y13917D01*
X19170Y13904D01*
X19171Y13904D01*
X19172Y13902D01*
X19173Y13900D01*
X19176Y13897D01*
X19179Y13894D01*
X19183Y13889D01*
X19188Y13883D01*
X19193Y13875D01*
X19199Y13868D01*
X19206Y13859D01*
X19213Y13848D01*
X19221Y13837D01*
X19229Y13824D01*
X19238Y13811D01*
X19248Y13796D01*
X19258Y13780D01*
X19352Y13631D01*
X19166D01*
X19055Y13797D01*
X19054Y13798D01*
X19052Y13801D01*
X19049Y13806D01*
X19045Y13812D01*
X19040Y13819D01*
X19035Y13827D01*
X19029Y13835D01*
X19022Y13845D01*
X19008Y13864D01*
X19002Y13873D01*
X18995Y13883D01*
X18989Y13891D01*
X18983Y13898D01*
X18977Y13905D01*
X18973Y13910D01*
X18972Y13911D01*
X18969Y13914D01*
X18965Y13917D01*
X18959Y13922D01*
X18952Y13928D01*
X18944Y13933D01*
X18936Y13938D01*
X18926Y13942D01*
X18925Y13942D01*
X18924Y13943D01*
X18922Y13943D01*
X18919Y13944D01*
X18916Y13945D01*
X18912Y13946D01*
X18908Y13946D01*
X18903Y13947D01*
X18897Y13948D01*
X18890Y13948D01*
X18883Y13950D01*
X18876Y13950D01*
X18868D01*
X18858Y13951D01*
X18818D01*
Y13631D01*
X18663D01*
Y14397D01*
X19000D01*
X19008Y14396D01*
D02*
G37*
G36*
X18564Y14267D02*
X18337D01*
Y13631D01*
X18182D01*
Y14267D01*
X17955Y14267D01*
Y14397D01*
X18564Y14397D01*
Y14267D01*
D02*
G37*
G36*
X17090Y14267D02*
X16677D01*
Y14097D01*
X17061D01*
Y13968D01*
X16677D01*
Y13760D01*
X17105D01*
Y13631D01*
X16522D01*
Y14397D01*
X17090D01*
Y14267D01*
D02*
G37*
G36*
X16027Y13760D02*
X16411D01*
Y13631D01*
X15872D01*
Y14390D01*
X16027D01*
Y13760D01*
D02*
G37*
G36*
X15723Y14267D02*
X15309D01*
Y14097D01*
X15694D01*
Y13968D01*
X15309D01*
Y13760D01*
X15737D01*
Y13631D01*
X15154D01*
Y14397D01*
X15723D01*
Y14267D01*
D02*
G37*
G36*
X13985D02*
X13758D01*
Y13631D01*
X13603D01*
Y14267D01*
X13376D01*
Y14397D01*
X13985D01*
Y14267D01*
D02*
G37*
G36*
X13003Y14396D02*
X13013D01*
X13025Y14396D01*
X13038Y14395D01*
X13051Y14394D01*
X13066Y14393D01*
X13080Y14392D01*
X13110Y14388D01*
X13124Y14386D01*
X13137Y14383D01*
X13150Y14380D01*
X13161Y14376D01*
X13162D01*
X13163Y14375D01*
X13167Y14374D01*
X13170Y14372D01*
X13175Y14370D01*
X13180Y14366D01*
X13187Y14363D01*
X13193Y14359D01*
X13200Y14354D01*
X13208Y14349D01*
X13215Y14343D01*
X13223Y14336D01*
X13230Y14329D01*
X13237Y14321D01*
X13244Y14312D01*
X13250Y14302D01*
X13251Y14302D01*
X13252Y14300D01*
X13254Y14297D01*
X13256Y14293D01*
X13258Y14288D01*
X13261Y14282D01*
X13264Y14275D01*
X13267Y14267D01*
X13270Y14259D01*
X13273Y14250D01*
X13276Y14240D01*
X13279Y14229D01*
X13281Y14218D01*
X13282Y14206D01*
X13283Y14195D01*
X13284Y14182D01*
Y14181D01*
Y14178D01*
X13283Y14174D01*
Y14168D01*
X13282Y14160D01*
X13281Y14152D01*
X13280Y14142D01*
X13278Y14132D01*
X13275Y14121D01*
X13272Y14109D01*
X13267Y14097D01*
X13262Y14085D01*
X13257Y14074D01*
X13250Y14061D01*
X13242Y14050D01*
X13233Y14039D01*
X13232Y14039D01*
X13231Y14037D01*
X13228Y14034D01*
X13224Y14030D01*
X13218Y14026D01*
X13212Y14021D01*
X13204Y14015D01*
X13195Y14009D01*
X13185Y14003D01*
X13174Y13998D01*
X13162Y13992D01*
X13148Y13986D01*
X13133Y13981D01*
X13117Y13976D01*
X13100Y13972D01*
X13081Y13969D01*
X13082Y13968D01*
X13084Y13968D01*
X13086Y13966D01*
X13090Y13964D01*
X13094Y13961D01*
X13099Y13958D01*
X13105Y13954D01*
X13111Y13950D01*
X13124Y13940D01*
X13138Y13929D01*
X13152Y13917D01*
X13164Y13904D01*
X13165Y13904D01*
X13166Y13902D01*
X13168Y13900D01*
X13170Y13897D01*
X13174Y13894D01*
X13178Y13889D01*
X13182Y13883D01*
X13188Y13875D01*
X13194Y13868D01*
X13200Y13859D01*
X13208Y13848D01*
X13215Y13837D01*
X13224Y13824D01*
X13232Y13811D01*
X13242Y13796D01*
X13252Y13780D01*
X13346Y13631D01*
X13161D01*
X13049Y13797D01*
X13049Y13798D01*
X13046Y13801D01*
X13044Y13806D01*
X13040Y13812D01*
X13035Y13819D01*
X13029Y13827D01*
X13023Y13835D01*
X13017Y13845D01*
X13003Y13864D01*
X12996Y13873D01*
X12989Y13883D01*
X12983Y13891D01*
X12977Y13898D01*
X12972Y13905D01*
X12967Y13910D01*
X12966Y13911D01*
X12963Y13914D01*
X12959Y13917D01*
X12953Y13922D01*
X12946Y13928D01*
X12938Y13933D01*
X12930Y13938D01*
X12921Y13942D01*
X12920Y13942D01*
X12918Y13943D01*
X12916Y13943D01*
X12914Y13944D01*
X12910Y13945D01*
X12906Y13946D01*
X12902Y13946D01*
X12897Y13947D01*
X12891Y13948D01*
X12885Y13948D01*
X12878Y13950D01*
X12870Y13950D01*
X12862D01*
X12853Y13951D01*
X12812D01*
Y13631D01*
X12658D01*
Y14397D01*
X12994D01*
X13003Y14396D01*
D02*
G37*
G36*
X19786Y14409D02*
X19791D01*
X19796Y14409D01*
X19803Y14408D01*
X19810Y14407D01*
X19817Y14406D01*
X19825Y14405D01*
X19834Y14404D01*
X19852Y14401D01*
X19872Y14396D01*
X19893Y14391D01*
X19915Y14384D01*
X19938Y14375D01*
X19961Y14365D01*
X19983Y14353D01*
X20005Y14339D01*
X20016Y14332D01*
X20026Y14323D01*
X20036Y14314D01*
X20046Y14304D01*
X20047Y14304D01*
X20047Y14303D01*
X20049Y14302D01*
X20050Y14299D01*
X20053Y14297D01*
X20055Y14293D01*
X20059Y14290D01*
X20062Y14285D01*
X20066Y14280D01*
X20070Y14275D01*
X20074Y14268D01*
X20078Y14261D01*
X20083Y14254D01*
X20088Y14246D01*
X20092Y14237D01*
X20097Y14229D01*
X20106Y14209D01*
X20116Y14187D01*
X20124Y14163D01*
X20132Y14137D01*
X20138Y14108D01*
X20143Y14079D01*
X20147Y14046D01*
X20148Y14029D01*
Y14012D01*
Y14012D01*
Y14010D01*
Y14008D01*
Y14004D01*
X20147Y13999D01*
Y13994D01*
X20147Y13988D01*
X20146Y13982D01*
X20146Y13974D01*
X20145Y13966D01*
X20144Y13957D01*
X20142Y13948D01*
X20140Y13928D01*
X20135Y13906D01*
X20130Y13884D01*
X20123Y13860D01*
X20115Y13835D01*
X20105Y13812D01*
X20094Y13788D01*
X20080Y13765D01*
X20073Y13754D01*
X20064Y13742D01*
X20056Y13732D01*
X20047Y13722D01*
X20046Y13721D01*
X20045Y13721D01*
X20044Y13719D01*
X20042Y13718D01*
X20039Y13715D01*
X20036Y13713D01*
X20033Y13709D01*
X20028Y13706D01*
X20018Y13698D01*
X20006Y13689D01*
X19991Y13679D01*
X19975Y13670D01*
X19957Y13660D01*
X19936Y13651D01*
X19914Y13642D01*
X19890Y13634D01*
X19864Y13627D01*
X19837Y13622D01*
X19808Y13618D01*
X19792Y13618D01*
X19777Y13617D01*
X19769D01*
X19765Y13618D01*
X19760D01*
X19755Y13618D01*
X19749Y13619D01*
X19741Y13620D01*
X19734Y13621D01*
X19726Y13622D01*
X19718Y13623D01*
X19699Y13626D01*
X19679Y13631D01*
X19657Y13636D01*
X19635Y13643D01*
X19613Y13651D01*
X19590Y13661D01*
X19568Y13673D01*
X19545Y13687D01*
X19535Y13695D01*
X19525Y13703D01*
X19514Y13712D01*
X19505Y13721D01*
Y13722D01*
X19504Y13723D01*
X19503Y13724D01*
X19501Y13726D01*
X19498Y13729D01*
X19496Y13732D01*
X19493Y13736D01*
X19490Y13741D01*
X19486Y13746D01*
X19482Y13751D01*
X19477Y13757D01*
X19473Y13764D01*
X19468Y13771D01*
X19464Y13779D01*
X19455Y13796D01*
X19445Y13816D01*
X19436Y13837D01*
X19428Y13861D01*
X19420Y13886D01*
X19414Y13914D01*
X19409Y13944D01*
X19405Y13976D01*
X19405Y13992D01*
X19404Y14009D01*
Y14009D01*
Y14010D01*
Y14012D01*
Y14014D01*
Y14017D01*
Y14020D01*
X19405Y14028D01*
X19405Y14038D01*
X19406Y14050D01*
X19407Y14063D01*
X19409Y14077D01*
X19410Y14092D01*
X19413Y14108D01*
X19416Y14125D01*
X19419Y14141D01*
X19423Y14157D01*
X19428Y14174D01*
X19433Y14189D01*
X19439Y14205D01*
X19440Y14205D01*
X19440Y14208D01*
X19442Y14210D01*
X19444Y14215D01*
X19446Y14220D01*
X19450Y14226D01*
X19454Y14232D01*
X19458Y14240D01*
X19468Y14256D01*
X19480Y14274D01*
X19494Y14292D01*
X19510Y14310D01*
X19511Y14311D01*
X19512Y14312D01*
X19514Y14314D01*
X19518Y14318D01*
X19522Y14322D01*
X19527Y14326D01*
X19533Y14331D01*
X19539Y14336D01*
X19547Y14342D01*
X19554Y14347D01*
X19571Y14359D01*
X19590Y14370D01*
X19600Y14375D01*
X19610Y14379D01*
X19611Y14380D01*
X19613Y14380D01*
X19617Y14382D01*
X19622Y14384D01*
X19629Y14386D01*
X19637Y14389D01*
X19647Y14391D01*
X19657Y14395D01*
X19669Y14397D01*
X19681Y14400D01*
X19695Y14402D01*
X19709Y14405D01*
X19725Y14407D01*
X19741Y14409D01*
X19758Y14409D01*
X19775Y14410D01*
X19782D01*
X19786Y14409D01*
D02*
G37*
%LPC*%
G36*
X18983Y14267D02*
X18818D01*
Y14073D01*
X18950D01*
X18959Y14074D01*
X18980D01*
X18991Y14074D01*
X19015Y14075D01*
X19027Y14076D01*
X19038Y14077D01*
X19048Y14078D01*
X19057Y14079D01*
X19065Y14080D01*
X19071Y14082D01*
X19071D01*
X19072Y14082D01*
X19075Y14084D01*
X19080Y14086D01*
X19087Y14090D01*
X19094Y14094D01*
X19101Y14100D01*
X19108Y14106D01*
X19114Y14115D01*
X19115Y14116D01*
X19117Y14119D01*
X19119Y14124D01*
X19122Y14131D01*
X19125Y14139D01*
X19128Y14149D01*
X19130Y14160D01*
X19130Y14172D01*
Y14173D01*
Y14174D01*
Y14176D01*
X19130Y14179D01*
Y14182D01*
X19129Y14185D01*
X19127Y14194D01*
X19125Y14204D01*
X19121Y14215D01*
X19116Y14225D01*
X19109Y14234D01*
Y14235D01*
X19108Y14235D01*
X19105Y14238D01*
X19101Y14242D01*
X19094Y14247D01*
X19086Y14252D01*
X19076Y14257D01*
X19064Y14261D01*
X19051Y14265D01*
X19049D01*
X19047Y14265D01*
X19044D01*
X19040Y14266D01*
X19035D01*
X19030Y14266D01*
X19015D01*
X19006Y14267D01*
X18996D01*
X18983Y14267D01*
D02*
G37*
G36*
X12978Y14267D02*
X12812D01*
Y14073D01*
X12944D01*
X12953Y14074D01*
X12974D01*
X12986Y14074D01*
X13009Y14075D01*
X13021Y14076D01*
X13032Y14077D01*
X13042Y14078D01*
X13051Y14079D01*
X13059Y14080D01*
X13065Y14082D01*
X13066D01*
X13066Y14082D01*
X13070Y14084D01*
X13075Y14086D01*
X13081Y14090D01*
X13088Y14094D01*
X13095Y14100D01*
X13102Y14106D01*
X13108Y14115D01*
X13109Y14116D01*
X13111Y14119D01*
X13113Y14124D01*
X13117Y14131D01*
X13120Y14139D01*
X13122Y14149D01*
X13124Y14160D01*
X13125Y14172D01*
Y14173D01*
Y14174D01*
Y14176D01*
X13124Y14179D01*
Y14182D01*
X13123Y14185D01*
X13122Y14194D01*
X13120Y14204D01*
X13116Y14215D01*
X13111Y14225D01*
X13103Y14234D01*
Y14235D01*
X13102Y14235D01*
X13100Y14238D01*
X13095Y14242D01*
X13089Y14247D01*
X13080Y14252D01*
X13070Y14257D01*
X13059Y14261D01*
X13045Y14265D01*
X13043D01*
X13041Y14265D01*
X13038D01*
X13034Y14266D01*
X13030D01*
X13024Y14266D01*
X13009D01*
X13000Y14267D01*
X12990D01*
X12978Y14267D01*
D02*
G37*
G36*
X19776Y14277D02*
X19772D01*
X19767Y14277D01*
X19760Y14276D01*
X19753Y14275D01*
X19743Y14274D01*
X19733Y14272D01*
X19721Y14269D01*
X19709Y14266D01*
X19697Y14261D01*
X19684Y14256D01*
X19671Y14250D01*
X19658Y14242D01*
X19645Y14233D01*
X19633Y14223D01*
X19622Y14211D01*
X19621Y14211D01*
X19620Y14208D01*
X19616Y14205D01*
X19613Y14199D01*
X19609Y14192D01*
X19604Y14184D01*
X19598Y14174D01*
X19593Y14162D01*
X19588Y14149D01*
X19582Y14134D01*
X19577Y14118D01*
X19573Y14101D01*
X19569Y14081D01*
X19566Y14060D01*
X19564Y14038D01*
X19564Y14014D01*
Y14013D01*
Y14012D01*
Y14010D01*
Y14008D01*
Y14005D01*
X19564Y14002D01*
X19565Y13992D01*
X19565Y13982D01*
X19567Y13969D01*
X19569Y13955D01*
X19571Y13940D01*
X19574Y13925D01*
X19578Y13909D01*
X19583Y13892D01*
X19589Y13876D01*
X19596Y13860D01*
X19604Y13844D01*
X19613Y13830D01*
X19624Y13817D01*
X19624Y13816D01*
X19626Y13814D01*
X19630Y13811D01*
X19635Y13806D01*
X19640Y13801D01*
X19647Y13796D01*
X19656Y13790D01*
X19665Y13783D01*
X19676Y13777D01*
X19687Y13771D01*
X19700Y13765D01*
X19713Y13760D01*
X19728Y13756D01*
X19743Y13752D01*
X19759Y13750D01*
X19776Y13750D01*
X19780D01*
X19785Y13750D01*
X19792Y13751D01*
X19800Y13752D01*
X19809Y13753D01*
X19819Y13755D01*
X19830Y13758D01*
X19842Y13761D01*
X19854Y13766D01*
X19867Y13771D01*
X19880Y13778D01*
X19893Y13785D01*
X19905Y13794D01*
X19917Y13804D01*
X19929Y13816D01*
X19929Y13817D01*
X19931Y13819D01*
X19934Y13823D01*
X19938Y13829D01*
X19942Y13835D01*
X19947Y13844D01*
X19953Y13854D01*
X19959Y13866D01*
X19964Y13879D01*
X19970Y13894D01*
X19975Y13911D01*
X19979Y13928D01*
X19983Y13948D01*
X19986Y13969D01*
X19988Y13992D01*
X19988Y14016D01*
Y14017D01*
Y14018D01*
Y14019D01*
Y14022D01*
Y14025D01*
X19988Y14029D01*
Y14033D01*
X19987Y14038D01*
X19987Y14049D01*
X19985Y14061D01*
X19983Y14075D01*
X19981Y14090D01*
X19978Y14106D01*
X19974Y14122D01*
X19970Y14138D01*
X19964Y14154D01*
X19957Y14170D01*
X19950Y14185D01*
X19941Y14200D01*
X19930Y14213D01*
X19930Y14213D01*
X19928Y14215D01*
X19924Y14219D01*
X19920Y14223D01*
X19914Y14227D01*
X19907Y14233D01*
X19899Y14239D01*
X19889Y14245D01*
X19879Y14251D01*
X19867Y14257D01*
X19854Y14262D01*
X19841Y14267D01*
X19826Y14271D01*
X19811Y14275D01*
X19794Y14277D01*
X19776Y14277D01*
D02*
G37*
%LPD*%
D10*
X19828Y16123D02*
G03*
X19828Y16123I-378J0D01*
G01*
X21178Y15188D02*
G03*
X21178Y15188I-378J0D01*
G01*
Y17067D02*
G03*
X21178Y17067I-378J0D01*
G01*
X19828Y17992D02*
G03*
X19828Y17992I-378J0D01*
G01*
X21178Y18867D02*
G03*
X21178Y18867I-378J0D01*
G01*
X21900Y2600D02*
X25100D01*
X21900Y4400D02*
X25100D01*
X4900Y2600D02*
X8100D01*
X4900Y4400D02*
X8100D01*
X13000Y1500D02*
Y5500D01*
Y1500D02*
X17000D01*
Y5500D01*
X13000D02*
X17000D01*
X3725Y13400D02*
X5525D01*
Y12000D02*
Y13400D01*
X3725Y12000D02*
X5525D01*
X3725D02*
Y13400D01*
Y6600D02*
Y8000D01*
Y6600D02*
X5525D01*
Y8000D01*
X3725D02*
X5525D01*
X3400Y10900D02*
X6600D01*
Y9100D02*
Y10900D01*
X3400Y9100D02*
X6600D01*
X3400D02*
Y10900D01*
X14227Y16143D02*
X14927Y16143D01*
X14277Y16318D02*
X14977Y16318D01*
X14352Y16493D02*
X15052Y16493D01*
X14427Y16674D02*
X15127Y16674D01*
X14977Y17443D02*
X15677Y17442D01*
X15002Y17543D02*
X15702Y17543D01*
X15077Y17693D02*
X15777Y17693D01*
X15177Y17868D02*
X15877Y17868D01*
X14087Y15993D02*
X16087Y15992D01*
X15970Y15593D02*
X16314Y16166D01*
X13962Y15743D02*
X15962Y15742D01*
X13987Y15843D02*
X15987Y15842D01*
X14562Y16843D02*
X16562Y16842D01*
X14662Y16943D02*
X16762Y16942D01*
X14737Y17118D02*
X16837Y17117D01*
X14812Y17293D02*
X16912Y17292D01*
X15212Y18018D02*
X17410Y18017D01*
X15287Y18143D02*
X17485Y18142D01*
X15387Y18318D02*
X17585Y18317D01*
X12440Y15768D02*
X13375Y15767D01*
X12440Y15915D02*
X13375Y15914D01*
X11265Y15743D02*
X12200Y15742D01*
X11240Y15915D02*
X12175Y15914D01*
X11215Y16070D02*
X13519Y16068D01*
X11115Y16245D02*
X13694Y16243D01*
X11115Y16420D02*
X13700Y16418D01*
X11115Y16595D02*
X13825Y16593D01*
X11090Y16770D02*
X14000Y16767D01*
X13185Y17117D02*
X14085Y17116D01*
X13375Y17242D02*
X14195Y17242D01*
X13525Y17417D02*
X14345Y17417D01*
X13625Y17592D02*
X14445Y17592D01*
X13750Y17767D02*
X14570Y17767D01*
X13800Y17954D02*
X14620Y17954D01*
X13912Y18142D02*
X14732Y18142D01*
X14027Y18317D02*
X14847Y18317D01*
X11990Y17118D02*
X13185Y17117D01*
X12140Y17293D02*
X13075Y17292D01*
X11140Y16943D02*
X14087Y16940D01*
X11065Y17093D02*
X11885Y17092D01*
X11065Y17268D02*
X11885Y17267D01*
X11040Y17443D02*
X11860Y17442D01*
X11040Y17618D02*
X11860Y17617D01*
X11015Y17793D02*
X11835Y17792D01*
X11015Y17968D02*
X11835Y17967D01*
X10990Y18143D02*
X11810Y18142D01*
X10990Y18318D02*
X11810Y18317D01*
X11810Y18492D02*
X11894Y16997D01*
X13801Y15592D02*
X15487Y18493D01*
X13801Y15592D02*
X15970Y15593D01*
X14899Y16166D02*
X16314D01*
X14899D02*
X15203Y16674D01*
X16605D01*
X17081Y17478D01*
X15676Y17478D02*
X17081Y17478D01*
X15676Y17478D02*
X15918Y17876D01*
X17320Y17870D01*
X17685Y18492D01*
X15487Y18493D02*
X17685Y18492D01*
X10965Y18493D02*
X11138Y15592D01*
X12082Y15592D01*
X12303Y15914D01*
X12355Y15591D01*
X13329Y15593D01*
X15021Y18492D01*
X14121Y18493D02*
X15021Y18492D01*
X13212Y16969D02*
X14121Y18493D01*
X13118Y17478D02*
X13212Y16969D01*
X12251Y17476D02*
X13118Y17478D01*
X11894Y16997D02*
X12251Y17476D01*
X10965Y18493D02*
X11810Y18492D01*
X16905Y16119D02*
X19068D01*
X17463Y17050D02*
X20418D01*
X18004Y17982D02*
X19065D01*
X21178Y18875D02*
X21770D01*
X19826Y17982D02*
X21770D01*
X21178Y17050D02*
X21770D01*
X19826Y16119D02*
X21770D01*
X21178Y15188D02*
X21770D01*
X9770D02*
X20417D01*
X9770Y16123D02*
X10725Y16119D01*
X9770Y17055D02*
X10650Y17050D01*
X9770Y17982D02*
X10625D01*
X9770Y18875D02*
X20417D01*
X22000Y1900D02*
X25000D01*
X22000Y5100D02*
X25000D01*
X17900Y1950D02*
X19100D01*
X26450Y11950D02*
X27550D01*
X26450Y8050D02*
X27550D01*
X17000Y1350D02*
Y5650D01*
X13000Y1350D02*
X17000D01*
X13000D02*
Y5350D01*
X13300Y5650D01*
X17000D01*
X5000Y1900D02*
X8000D01*
X5000Y5100D02*
X8000D01*
X10900Y1950D02*
X12100D01*
X33375Y2500D02*
X34375D01*
X33375Y1000D02*
X34375D01*
X33375Y4500D02*
X34375D01*
X33375Y3000D02*
X34375D01*
X36625Y4700D02*
X37625D01*
X36425Y2725D02*
Y2875D01*
X37825Y2725D02*
Y2875D01*
D11*
X25025Y8025D02*
G03*
X25025Y8025I-50J0D01*
G01*
X26075Y11975D02*
G03*
X26075Y11975I-50J0D01*
G01*
X27925Y8050D02*
G03*
X27925Y8050I-50J0D01*
G01*
X30100Y3675D02*
G03*
X30100Y3675I-50J0D01*
G01*
X24975Y7850D02*
X26025D01*
X24975Y6350D02*
X26025D01*
X24975Y13650D02*
X26025D01*
X24975Y12150D02*
X26025D01*
X29075Y2775D02*
X29250Y2950D01*
X29425Y2775D01*
X29075D02*
X29425D01*
D12*
X300Y6500D02*
G03*
X300Y6500I-200J0D01*
G01*
D13*
X29206Y13030D02*
Y14340D01*
X37700Y14400D02*
X41000D01*
X32900D02*
X35600D01*
X29230Y14370D02*
X30870D01*
X37700Y5600D02*
X41000D01*
X32900D02*
X35600D01*
X29230Y5630D02*
X30870D01*
X41030D02*
Y14370D01*
X29230Y5630D02*
Y6940D01*
D14*
X29080Y6600D02*
X28913D01*
X28830Y6683D01*
X28913Y6767D01*
X29080D01*
X28955D01*
Y6600D01*
X29080Y6850D02*
Y6933D01*
Y6892D01*
X28830D01*
X28872Y6850D01*
X29080Y13100D02*
X28913D01*
X28830Y13183D01*
X28913Y13267D01*
X29080D01*
X28955D01*
Y13100D01*
X29080Y13350D02*
Y13433D01*
Y13392D01*
X28830D01*
X28872Y13350D01*
X29080Y13725D02*
Y13558D01*
X28913Y13725D01*
X28872D01*
X28830Y13683D01*
Y13600D01*
X28872Y13558D01*
X30630Y6100D02*
X30880D01*
Y6225D01*
X30838Y6267D01*
X30797D01*
X30755Y6225D01*
Y6100D01*
Y6225D01*
X30713Y6267D01*
X30672D01*
X30630Y6225D01*
Y6100D01*
X30880Y6350D02*
Y6433D01*
Y6392D01*
X30630D01*
X30672Y6350D01*
X30880Y6725D02*
Y6558D01*
X30713Y6725D01*
X30672D01*
X30630Y6683D01*
Y6600D01*
X30672Y6558D01*
X30630Y13300D02*
X30880D01*
Y13425D01*
X30838Y13467D01*
X30797D01*
X30755Y13425D01*
Y13300D01*
Y13425D01*
X30713Y13467D01*
X30672D01*
X30630Y13425D01*
Y13300D01*
X30880Y13550D02*
Y13633D01*
Y13592D01*
X30630D01*
X30672Y13550D01*
X31330Y12900D02*
X31580D01*
Y13025D01*
X31538Y13067D01*
X31497D01*
X31455Y13025D01*
Y12900D01*
Y13025D01*
X31413Y13067D01*
X31372D01*
X31330Y13025D01*
Y12900D01*
X31580Y13317D02*
Y13150D01*
X31413Y13317D01*
X31372D01*
X31330Y13275D01*
Y13192D01*
X31372Y13150D01*
X31330Y6600D02*
X31580D01*
Y6725D01*
X31538Y6767D01*
X31497D01*
X31455Y6725D01*
Y6600D01*
Y6725D01*
X31413Y6767D01*
X31372D01*
X31330Y6725D01*
Y6600D01*
X31580Y6850D02*
Y6933D01*
Y6892D01*
X31330D01*
X31372Y6850D01*
X31580Y7058D02*
Y7141D01*
Y7100D01*
X31330D01*
X31372Y7058D01*
D15*
X22250Y1600D02*
Y600D01*
X22916D01*
X23250D02*
X23583D01*
X23416D01*
Y1600D01*
X23250Y1433D01*
X24083Y600D02*
X24416D01*
X24249D01*
Y1600D01*
X24083Y1433D01*
X17500Y6250D02*
Y5250D01*
X18166D01*
X18500D02*
X18833D01*
X18666D01*
Y6250D01*
X18500Y6083D01*
X19333D02*
X19499Y6250D01*
X19833D01*
X19999Y6083D01*
Y5417D01*
X19833Y5250D01*
X19499D01*
X19333Y5417D01*
Y6083D01*
X4325Y1600D02*
Y600D01*
X4991D01*
X5325Y767D02*
X5491Y600D01*
X5825D01*
X5991Y767D01*
Y1433D01*
X5825Y1600D01*
X5491D01*
X5325Y1433D01*
Y1266D01*
X5491Y1100D01*
X5991D01*
X7075Y9100D02*
Y8100D01*
X7741D01*
X8741Y9100D02*
X8408Y8933D01*
X8075Y8600D01*
Y8267D01*
X8241Y8100D01*
X8575D01*
X8741Y8267D01*
Y8433D01*
X8575Y8600D01*
X8075D01*
X11416Y4383D02*
X11250Y4550D01*
X10917D01*
X10750Y4383D01*
Y3717D01*
X10917Y3550D01*
X11250D01*
X11416Y3717D01*
X11750Y3550D02*
X12083D01*
X11916D01*
Y4550D01*
X11750Y4383D01*
X22675Y9175D02*
Y8175D01*
X23175D01*
X23341Y8342D01*
Y9008D01*
X23175Y9175D01*
X22675D01*
X24341Y8175D02*
X23675D01*
X24341Y8841D01*
Y9008D01*
X24175Y9175D01*
X23841D01*
X23675Y9008D01*
X6050Y6450D02*
Y5450D01*
X6716D01*
X7050Y6283D02*
X7216Y6450D01*
X7550D01*
X7716Y6283D01*
Y6116D01*
X7550Y5950D01*
X7383D01*
X7550D01*
X7716Y5783D01*
Y5617D01*
X7550Y5450D01*
X7216D01*
X7050Y5617D01*
X22450Y6525D02*
Y5525D01*
X23116D01*
X23450Y6358D02*
X23616Y6525D01*
X23950D01*
X24116Y6358D01*
Y6191D01*
X23950Y6025D01*
X24116Y5858D01*
Y5692D01*
X23950Y5525D01*
X23616D01*
X23450Y5692D01*
Y5858D01*
X23616Y6025D01*
X23450Y6191D01*
Y6358D01*
X23616Y6025D02*
X23950D01*
X18316Y4383D02*
X18150Y4550D01*
X17817D01*
X17650Y4383D01*
Y3717D01*
X17817Y3550D01*
X18150D01*
X18316Y3717D01*
X19316Y3550D02*
X18650D01*
X19316Y4216D01*
Y4383D01*
X19150Y4550D01*
X18816D01*
X18650Y4383D01*
X25300Y15125D02*
Y14125D01*
X25800D01*
X25966Y14292D01*
Y14958D01*
X25800Y15125D01*
X25300D01*
X26300Y14125D02*
X26633D01*
X26466D01*
Y15125D01*
X26300Y14958D01*
X23300Y11800D02*
Y10800D01*
X23800D01*
X23966Y10967D01*
Y11633D01*
X23800Y11800D01*
X23300D01*
X24966D02*
X24300D01*
Y11300D01*
X24633Y11466D01*
X24800D01*
X24966Y11300D01*
Y10967D01*
X24800Y10800D01*
X24466D01*
X24300Y10967D01*
X28150Y5150D02*
Y4150D01*
X28650D01*
X28816Y4317D01*
Y4983D01*
X28650Y5150D01*
X28150D01*
X29816D02*
X29483Y4983D01*
X29150Y4650D01*
Y4317D01*
X29316Y4150D01*
X29650D01*
X29816Y4317D01*
Y4483D01*
X29650Y4650D01*
X29150D01*
X7075Y11850D02*
Y10850D01*
X7741D01*
X8741D02*
X8075D01*
X8741Y11516D01*
Y11683D01*
X8575Y11850D01*
X8241D01*
X8075Y11683D01*
X4200Y14800D02*
Y13800D01*
X4866D01*
X5200D02*
X5533D01*
X5366D01*
Y14800D01*
X5200Y14633D01*
X825Y15975D02*
X1491Y14975D01*
Y15975D02*
X825Y14975D01*
X1825D02*
X2158D01*
X1991D01*
Y15975D01*
X1825Y15808D01*
X29200Y16300D02*
X29866Y15300D01*
Y16300D02*
X29200Y15300D01*
X30866D02*
X30200D01*
X30866Y15966D01*
Y16133D01*
X30700Y16300D01*
X30366D01*
X30200Y16133D01*
X11425Y6225D02*
Y5225D01*
X12091D01*
X12425Y6225D02*
X13091D01*
Y6058D01*
X12425Y5392D01*
Y5225D01*
X38150Y1450D02*
X39150D01*
Y1950D01*
X38983Y2116D01*
X38317D01*
X38150Y1950D01*
Y1450D01*
Y2450D02*
Y3116D01*
X38317D01*
X38983Y2450D01*
X39150D01*
X33350Y6050D02*
Y7050D01*
X33850D01*
X34016Y6883D01*
Y6550D01*
X33850Y6383D01*
X33350D01*
X33683D02*
X34016Y6050D01*
X34350D02*
X34683D01*
X34516D01*
Y7050D01*
X34350Y6883D01*
X30050Y1150D02*
Y2150D01*
X30550D01*
X30716Y1983D01*
Y1650D01*
X30550Y1483D01*
X30050D01*
X30383D02*
X30716Y1150D01*
X31716D02*
X31050D01*
X31716Y1816D01*
Y1983D01*
X31550Y2150D01*
X31216D01*
X31050Y1983D01*
M02*
