G04*
G04 #@! TF.GenerationSoftware,Altium Limited,Altium Designer,18.1.7 (191)*
G04*
G04 Layer_Physical_Order=2*
G04 Layer_Color=32768*
%FSLAX43Y43*%
%MOMM*%
G71*
G01*
G75*
%ADD10C,0.200*%
%ADD48C,0.850*%
%ADD61C,0.600*%
%ADD62C,0.950*%
%ADD63C,0.700*%
D10*
X2900Y8369D02*
X3125Y8594D01*
X2900Y8369D02*
Y8375D01*
X0Y11625D02*
X2875D01*
X3125Y11375D01*
Y11000D02*
Y11375D01*
X2750Y10625D02*
X3125Y11000D01*
X1825Y10625D02*
X2750D01*
X1825Y9375D02*
Y10625D01*
Y9375D02*
X2750D01*
X3125Y9000D01*
Y8594D02*
Y9000D01*
X1775Y8375D02*
X2900D01*
X1775Y7100D02*
Y8375D01*
Y7100D02*
X3125Y5750D01*
X5225D01*
Y1625D02*
Y5750D01*
X0Y1625D02*
X5225D01*
X30750Y11625D02*
X30900D01*
X31175Y11350D01*
X30231Y11625D02*
X30750D01*
X28525Y9919D02*
X30231Y11625D01*
X31175Y8425D02*
Y11350D01*
X28525Y5250D02*
Y9919D01*
Y5250D02*
X29675Y4100D01*
Y2950D02*
Y4100D01*
Y2950D02*
X30000Y2625D01*
X31250D01*
X31625Y3000D01*
Y4850D01*
X30325Y6150D02*
X31625Y4850D01*
X30325Y6150D02*
Y7575D01*
X31175Y8425D01*
X32650Y18250D02*
X32917D01*
X32783D01*
Y17450D01*
X32650D01*
X32917D01*
X33316D02*
X33583D01*
X33450D01*
Y18250D01*
X33316Y18116D01*
D48*
X37750Y10000D02*
D03*
X36500D02*
D03*
X34750D02*
D03*
X33375D02*
D03*
X1250Y5550D02*
D03*
D61*
X0Y0D02*
X39600D01*
Y20000D01*
X0D02*
X39600D01*
X0Y0D02*
Y20000D01*
D62*
X31460Y12400D02*
D03*
Y11600D02*
D03*
Y10800D02*
D03*
Y9200D02*
D03*
X30760Y10400D02*
D03*
Y9600D02*
D03*
X31460Y8400D02*
D03*
Y7600D02*
D03*
D63*
X10375Y1750D02*
D03*
X8875D02*
D03*
X8125D02*
D03*
X9625D02*
D03*
Y5250D02*
D03*
X8875D02*
D03*
X28600Y10300D02*
D03*
X28300Y6875D02*
D03*
X1925Y7150D02*
D03*
X27500Y8100D02*
D03*
Y11900D02*
D03*
X28300Y13125D02*
D03*
X25500Y8500D02*
D03*
Y5250D02*
D03*
X26125D02*
D03*
X26750D02*
D03*
X27375D02*
D03*
X25500Y1750D02*
D03*
X26125D02*
D03*
X26750D02*
D03*
X27375D02*
D03*
X21875Y5250D02*
D03*
X21125D02*
D03*
X20375D02*
D03*
X19625D02*
D03*
X21875Y1750D02*
D03*
X21125D02*
D03*
X20375D02*
D03*
X19625D02*
D03*
X17125Y4750D02*
D03*
Y2250D02*
D03*
Y4000D02*
D03*
Y3000D02*
D03*
X12875D02*
D03*
Y4000D02*
D03*
Y2250D02*
D03*
Y4750D02*
D03*
X8125Y5250D02*
D03*
X10375D02*
D03*
X550Y3550D02*
D03*
Y6550D02*
D03*
X25500Y11500D02*
D03*
M02*
