G04*
G04 #@! TF.GenerationSoftware,Altium Limited,Altium Designer,18.1.7 (191)*
G04*
G04 Layer_Color=8421504*
%FSLAX43Y43*%
%MOMM*%
G71*
G01*
G75*
%ADD16R,1.600X1.200*%
%ADD17R,1.300X3.400*%
%ADD18R,0.450X0.400*%
%ADD19R,0.900X0.400*%
%ADD20R,1.500X0.350*%
%ADD21R,0.675X0.200*%
%ADD22R,1.900X3.000*%
%ADD23R,1.400X0.850*%
%ADD24R,0.600X0.200*%
%ADD25R,1.000X0.625*%
%ADD26R,1.000X0.900*%
%ADD27R,1.000X0.200*%
%ADD28R,1.200X0.300*%
%ADD29R,0.980X3.700*%
%ADD30R,1.000X1.700*%
%ADD31R,1.200X1.100*%
D16*
X21700Y3500D02*
D03*
X25300D02*
D03*
X4700D02*
D03*
X8300D02*
D03*
D17*
X16050D02*
D03*
X13950D02*
D03*
D18*
X4175Y13050D02*
D03*
Y12350D02*
D03*
X5075Y13050D02*
D03*
Y12350D02*
D03*
Y6950D02*
D03*
Y7650D02*
D03*
X4175Y6950D02*
D03*
Y7650D02*
D03*
D19*
X4150Y10400D02*
D03*
Y9600D02*
D03*
X5850Y10400D02*
D03*
Y9600D02*
D03*
D20*
X1000Y9750D02*
D03*
Y10250D02*
D03*
X1000Y12750D02*
D03*
Y12250D02*
D03*
X1000Y11750D02*
D03*
Y11250D02*
D03*
Y10750D02*
D03*
Y9250D02*
D03*
Y8750D02*
D03*
Y8250D02*
D03*
Y7750D02*
D03*
X1000Y7250D02*
D03*
D21*
X25938Y7500D02*
D03*
Y6700D02*
D03*
X25062D02*
D03*
X25938Y7100D02*
D03*
X25062Y7500D02*
D03*
Y7100D02*
D03*
X25938Y12900D02*
D03*
Y12500D02*
D03*
Y13300D02*
D03*
X25062D02*
D03*
Y12900D02*
D03*
Y12500D02*
D03*
D22*
X26200Y3500D02*
D03*
X20800D02*
D03*
X9200D02*
D03*
X3800D02*
D03*
D23*
X18500Y1075D02*
D03*
Y2825D02*
D03*
X11500Y1075D02*
D03*
Y2825D02*
D03*
D24*
X26525Y8700D02*
D03*
Y9600D02*
D03*
Y10400D02*
D03*
Y11300D02*
D03*
X27475Y11700D02*
D03*
Y10800D02*
D03*
Y10000D02*
D03*
Y8300D02*
D03*
Y9200D02*
D03*
D25*
X29250Y2238D02*
D03*
Y3462D02*
D03*
D26*
X1250Y13825D02*
D03*
Y6175D02*
D03*
D27*
X34080Y10000D02*
D03*
X37180D02*
D03*
D28*
X29500Y7250D02*
D03*
Y12750D02*
D03*
Y7750D02*
D03*
Y8250D02*
D03*
Y8750D02*
D03*
Y9250D02*
D03*
Y12250D02*
D03*
Y11250D02*
D03*
Y10750D02*
D03*
Y10250D02*
D03*
Y11750D02*
D03*
Y9750D02*
D03*
D29*
X16185Y3500D02*
D03*
X13815D02*
D03*
D30*
X32475Y1750D02*
D03*
X35275D02*
D03*
X32475Y3750D02*
D03*
X35275D02*
D03*
D31*
X37125Y1750D02*
D03*
Y3850D02*
D03*
M02*
