M48
;GenerationSoftware,Autodesk,EAGLE,9.6.1*%
;CreationDate,2022-07-07T19:46:21Z*%
FMAT,2
ICI,OFF
METRIC,TZ,000.000
T6C0.250
T5C0.350
T4C0.600
T3C0.700
T2C1.000
T1C1.100
%
G90
M71
T1
X3066Y7783
X3066Y12283
T2
X3066Y15883
X3066Y4183
T3
X29018Y6533
X29018Y9033
X29018Y11033
X29018Y13533
X27518Y14033
X27518Y12033
X27518Y10033
X27518Y8033
X27518Y6033
T4
X29948Y2183
X29948Y17883
X36748Y2183
X36748Y17883
T5
X3175Y5715
X16447Y7302
X4064Y13017
T6
X19080Y6886
X19010Y9080
X14700Y9530
X19810Y6400
X19150Y10120
X14700Y10510
X7170Y4430
X4030Y10000
X20420Y8887
M30