G04 EAGLE Gerber RS-274X export*
G75*
%MOMM*%
%FSLAX34Y34*%
%LPD*%
%INSilkscreen Top*%
%IPPOS*%
%AMOC8*
5,1,8,0,0,1.08239X$1,22.5*%
G01*
%ADD10C,0.246000*%
%ADD11C,0.152400*%
%ADD12C,0.076200*%
%ADD13C,0.406400*%
%ADD14C,0.200000*%
%ADD15C,0.100000*%
%ADD16C,0.050800*%
%ADD17C,0.300000*%
%ADD18C,0.025400*%
%ADD19C,0.400000*%
%ADD20C,0.101600*%


D10*
X185700Y64000D03*
D11*
X123662Y176674D02*
X123662Y190232D01*
X123662Y176674D02*
X126374Y173962D01*
X131797Y173962D01*
X134509Y176674D01*
X134509Y190232D01*
X148169Y190232D02*
X150880Y187520D01*
X148169Y190232D02*
X142745Y190232D01*
X140034Y187520D01*
X140034Y184809D01*
X142745Y182097D01*
X148169Y182097D01*
X150880Y179385D01*
X150880Y176674D01*
X148169Y173962D01*
X142745Y173962D01*
X140034Y176674D01*
X156405Y173962D02*
X156405Y190232D01*
X164540Y190232D01*
X167252Y187520D01*
X167252Y184809D01*
X164540Y182097D01*
X167252Y179385D01*
X167252Y176674D01*
X164540Y173962D01*
X156405Y173962D01*
X156405Y182097D02*
X164540Y182097D01*
X189148Y187520D02*
X191860Y190232D01*
X197283Y190232D01*
X199995Y187520D01*
X199995Y184809D01*
X197283Y182097D01*
X194572Y182097D01*
X197283Y182097D02*
X199995Y179385D01*
X199995Y176674D01*
X197283Y173962D01*
X191860Y173962D01*
X189148Y176674D01*
X205520Y176674D02*
X205520Y173962D01*
X205520Y176674D02*
X208231Y176674D01*
X208231Y173962D01*
X205520Y173962D01*
X213706Y176674D02*
X213706Y187520D01*
X216417Y190232D01*
X221841Y190232D01*
X224552Y187520D01*
X224552Y176674D01*
X221841Y173962D01*
X216417Y173962D01*
X213706Y176674D01*
X224552Y187520D01*
D12*
X160784Y35842D02*
X162351Y34274D01*
X160784Y35842D02*
X157648Y35842D01*
X156081Y34274D01*
X156081Y28004D01*
X157648Y26436D01*
X160784Y26436D01*
X162351Y28004D01*
X165436Y32707D02*
X168571Y35842D01*
X168571Y26436D01*
X165436Y26436D02*
X171707Y26436D01*
D10*
X156300Y116100D03*
D13*
X255550Y177525D02*
X255550Y190225D01*
X249200Y183875D02*
X261900Y183875D01*
X255550Y22225D02*
X255550Y9525D01*
X249200Y15875D02*
X261900Y15875D01*
X26550Y22225D02*
X26550Y9525D01*
X20200Y15875D02*
X32900Y15875D01*
D14*
X111530Y76850D02*
X114530Y76850D01*
X114530Y62850D02*
X111530Y62850D01*
D15*
X96530Y77350D02*
X96532Y77394D01*
X96538Y77438D01*
X96548Y77481D01*
X96561Y77523D01*
X96578Y77564D01*
X96599Y77603D01*
X96623Y77640D01*
X96650Y77675D01*
X96680Y77707D01*
X96713Y77737D01*
X96749Y77763D01*
X96786Y77787D01*
X96826Y77806D01*
X96867Y77823D01*
X96910Y77835D01*
X96953Y77844D01*
X96997Y77849D01*
X97041Y77850D01*
X97085Y77847D01*
X97129Y77840D01*
X97172Y77829D01*
X97214Y77815D01*
X97254Y77797D01*
X97293Y77775D01*
X97329Y77751D01*
X97363Y77723D01*
X97395Y77692D01*
X97424Y77658D01*
X97450Y77622D01*
X97472Y77584D01*
X97491Y77544D01*
X97506Y77502D01*
X97518Y77460D01*
X97526Y77416D01*
X97530Y77372D01*
X97530Y77328D01*
X97526Y77284D01*
X97518Y77240D01*
X97506Y77198D01*
X97491Y77156D01*
X97472Y77116D01*
X97450Y77078D01*
X97424Y77042D01*
X97395Y77008D01*
X97363Y76977D01*
X97329Y76949D01*
X97293Y76925D01*
X97254Y76903D01*
X97214Y76885D01*
X97172Y76871D01*
X97129Y76860D01*
X97085Y76853D01*
X97041Y76850D01*
X96997Y76851D01*
X96953Y76856D01*
X96910Y76865D01*
X96867Y76877D01*
X96826Y76894D01*
X96786Y76913D01*
X96749Y76937D01*
X96713Y76963D01*
X96680Y76993D01*
X96650Y77025D01*
X96623Y77060D01*
X96599Y77097D01*
X96578Y77136D01*
X96561Y77177D01*
X96548Y77219D01*
X96538Y77262D01*
X96532Y77306D01*
X96530Y77350D01*
D16*
X108083Y81816D02*
X108083Y87409D01*
X108083Y81816D02*
X111811Y81816D01*
X113696Y81816D02*
X117425Y81816D01*
X113696Y81816D02*
X117425Y85545D01*
X117425Y86477D01*
X116492Y87409D01*
X114628Y87409D01*
X113696Y86477D01*
D14*
X111990Y137175D02*
X108990Y137175D01*
X108990Y123175D02*
X111990Y123175D01*
D15*
X93990Y137675D02*
X93992Y137719D01*
X93998Y137763D01*
X94008Y137806D01*
X94021Y137848D01*
X94038Y137889D01*
X94059Y137928D01*
X94083Y137965D01*
X94110Y138000D01*
X94140Y138032D01*
X94173Y138062D01*
X94209Y138088D01*
X94246Y138112D01*
X94286Y138131D01*
X94327Y138148D01*
X94370Y138160D01*
X94413Y138169D01*
X94457Y138174D01*
X94501Y138175D01*
X94545Y138172D01*
X94589Y138165D01*
X94632Y138154D01*
X94674Y138140D01*
X94714Y138122D01*
X94753Y138100D01*
X94789Y138076D01*
X94823Y138048D01*
X94855Y138017D01*
X94884Y137983D01*
X94910Y137947D01*
X94932Y137909D01*
X94951Y137869D01*
X94966Y137827D01*
X94978Y137785D01*
X94986Y137741D01*
X94990Y137697D01*
X94990Y137653D01*
X94986Y137609D01*
X94978Y137565D01*
X94966Y137523D01*
X94951Y137481D01*
X94932Y137441D01*
X94910Y137403D01*
X94884Y137367D01*
X94855Y137333D01*
X94823Y137302D01*
X94789Y137274D01*
X94753Y137250D01*
X94714Y137228D01*
X94674Y137210D01*
X94632Y137196D01*
X94589Y137185D01*
X94545Y137178D01*
X94501Y137175D01*
X94457Y137176D01*
X94413Y137181D01*
X94370Y137190D01*
X94327Y137202D01*
X94286Y137219D01*
X94246Y137238D01*
X94209Y137262D01*
X94173Y137288D01*
X94140Y137318D01*
X94110Y137350D01*
X94083Y137385D01*
X94059Y137422D01*
X94038Y137461D01*
X94021Y137502D01*
X94008Y137544D01*
X93998Y137587D01*
X93992Y137631D01*
X93990Y137675D01*
D16*
X105543Y142141D02*
X105543Y147734D01*
X105543Y142141D02*
X109271Y142141D01*
X111156Y145870D02*
X113020Y147734D01*
X113020Y142141D01*
X111156Y142141D02*
X114885Y142141D01*
D14*
X113585Y109330D02*
X103585Y109330D01*
X103585Y91330D02*
X113585Y91330D01*
D15*
X86285Y110330D02*
X86287Y110374D01*
X86293Y110418D01*
X86303Y110461D01*
X86316Y110503D01*
X86333Y110544D01*
X86354Y110583D01*
X86378Y110620D01*
X86405Y110655D01*
X86435Y110687D01*
X86468Y110717D01*
X86504Y110743D01*
X86541Y110767D01*
X86581Y110786D01*
X86622Y110803D01*
X86665Y110815D01*
X86708Y110824D01*
X86752Y110829D01*
X86796Y110830D01*
X86840Y110827D01*
X86884Y110820D01*
X86927Y110809D01*
X86969Y110795D01*
X87009Y110777D01*
X87048Y110755D01*
X87084Y110731D01*
X87118Y110703D01*
X87150Y110672D01*
X87179Y110638D01*
X87205Y110602D01*
X87227Y110564D01*
X87246Y110524D01*
X87261Y110482D01*
X87273Y110440D01*
X87281Y110396D01*
X87285Y110352D01*
X87285Y110308D01*
X87281Y110264D01*
X87273Y110220D01*
X87261Y110178D01*
X87246Y110136D01*
X87227Y110096D01*
X87205Y110058D01*
X87179Y110022D01*
X87150Y109988D01*
X87118Y109957D01*
X87084Y109929D01*
X87048Y109905D01*
X87009Y109883D01*
X86969Y109865D01*
X86927Y109851D01*
X86884Y109840D01*
X86840Y109833D01*
X86796Y109830D01*
X86752Y109831D01*
X86708Y109836D01*
X86665Y109845D01*
X86622Y109857D01*
X86581Y109874D01*
X86541Y109893D01*
X86504Y109917D01*
X86468Y109943D01*
X86435Y109973D01*
X86405Y110005D01*
X86378Y110040D01*
X86354Y110077D01*
X86333Y110116D01*
X86316Y110157D01*
X86303Y110199D01*
X86293Y110242D01*
X86287Y110286D01*
X86285Y110330D01*
D16*
X103051Y113534D02*
X103051Y119127D01*
X103051Y113534D02*
X106779Y113534D01*
X108664Y118195D02*
X109596Y119127D01*
X111460Y119127D01*
X112393Y118195D01*
X112393Y117263D01*
X111460Y116330D01*
X110528Y116330D01*
X111460Y116330D02*
X112393Y115398D01*
X112393Y114466D01*
X111460Y113534D01*
X109596Y113534D01*
X108664Y114466D01*
D14*
X204010Y50815D02*
X210010Y50815D01*
X210010Y36815D02*
X204010Y36815D01*
D12*
X201477Y34558D02*
X201477Y27186D01*
X206392Y27186D01*
X208961Y34558D02*
X213876Y34558D01*
X208961Y34558D02*
X208961Y30872D01*
X211418Y32101D01*
X212647Y32101D01*
X213876Y30872D01*
X213876Y28415D01*
X212647Y27186D01*
X210190Y27186D01*
X208961Y28415D01*
D14*
X214660Y117600D02*
X216660Y117600D01*
X216660Y85600D01*
X214660Y85600D01*
X186660Y117600D02*
X184660Y117600D01*
X184660Y85600D01*
X186660Y85600D01*
D17*
X216660Y126600D02*
X216662Y126663D01*
X216668Y126725D01*
X216678Y126787D01*
X216691Y126849D01*
X216709Y126909D01*
X216730Y126968D01*
X216755Y127026D01*
X216784Y127082D01*
X216816Y127136D01*
X216851Y127188D01*
X216889Y127237D01*
X216931Y127285D01*
X216975Y127329D01*
X217023Y127371D01*
X217072Y127409D01*
X217124Y127444D01*
X217178Y127476D01*
X217234Y127505D01*
X217292Y127530D01*
X217351Y127551D01*
X217411Y127569D01*
X217473Y127582D01*
X217535Y127592D01*
X217597Y127598D01*
X217660Y127600D01*
X217723Y127598D01*
X217785Y127592D01*
X217847Y127582D01*
X217909Y127569D01*
X217969Y127551D01*
X218028Y127530D01*
X218086Y127505D01*
X218142Y127476D01*
X218196Y127444D01*
X218248Y127409D01*
X218297Y127371D01*
X218345Y127329D01*
X218389Y127285D01*
X218431Y127237D01*
X218469Y127188D01*
X218504Y127136D01*
X218536Y127082D01*
X218565Y127026D01*
X218590Y126968D01*
X218611Y126909D01*
X218629Y126849D01*
X218642Y126787D01*
X218652Y126725D01*
X218658Y126663D01*
X218660Y126600D01*
X218658Y126537D01*
X218652Y126475D01*
X218642Y126413D01*
X218629Y126351D01*
X218611Y126291D01*
X218590Y126232D01*
X218565Y126174D01*
X218536Y126118D01*
X218504Y126064D01*
X218469Y126012D01*
X218431Y125963D01*
X218389Y125915D01*
X218345Y125871D01*
X218297Y125829D01*
X218248Y125791D01*
X218196Y125756D01*
X218142Y125724D01*
X218086Y125695D01*
X218028Y125670D01*
X217969Y125649D01*
X217909Y125631D01*
X217847Y125618D01*
X217785Y125608D01*
X217723Y125602D01*
X217660Y125600D01*
X217597Y125602D01*
X217535Y125608D01*
X217473Y125618D01*
X217411Y125631D01*
X217351Y125649D01*
X217292Y125670D01*
X217234Y125695D01*
X217178Y125724D01*
X217124Y125756D01*
X217072Y125791D01*
X217023Y125829D01*
X216975Y125871D01*
X216931Y125915D01*
X216889Y125963D01*
X216851Y126012D01*
X216816Y126064D01*
X216784Y126118D01*
X216755Y126174D01*
X216730Y126232D01*
X216709Y126291D01*
X216691Y126351D01*
X216678Y126413D01*
X216668Y126475D01*
X216662Y126537D01*
X216660Y126600D01*
D12*
X193557Y68225D02*
X193557Y60853D01*
X197243Y60853D01*
X198472Y62082D01*
X198472Y66997D01*
X197243Y68225D01*
X193557Y68225D01*
X201041Y60853D02*
X205956Y60853D01*
X201041Y60853D02*
X205956Y65768D01*
X205956Y66997D01*
X204727Y68225D01*
X202270Y68225D01*
X201041Y66997D01*
D14*
X170100Y54705D02*
X170100Y50705D01*
X160100Y50705D02*
X160100Y54705D01*
D18*
X174225Y50924D02*
X174691Y51390D01*
X174225Y50924D02*
X174225Y49992D01*
X174691Y49525D01*
X176555Y49525D01*
X177021Y49992D01*
X177021Y50924D01*
X176555Y51390D01*
X177021Y52332D02*
X177021Y54196D01*
X177021Y52332D02*
X175157Y54196D01*
X174691Y54196D01*
X174225Y53730D01*
X174225Y52798D01*
X174691Y52332D01*
D14*
X41660Y53330D02*
X41660Y147330D01*
X11660Y161330D02*
X3160Y161330D01*
X3160Y39330D01*
X11660Y39330D01*
D19*
X69660Y70330D02*
X69662Y70419D01*
X69668Y70508D01*
X69678Y70597D01*
X69692Y70685D01*
X69709Y70772D01*
X69731Y70858D01*
X69757Y70944D01*
X69786Y71028D01*
X69819Y71111D01*
X69855Y71192D01*
X69896Y71272D01*
X69939Y71349D01*
X69986Y71425D01*
X70037Y71498D01*
X70090Y71569D01*
X70147Y71638D01*
X70207Y71704D01*
X70270Y71768D01*
X70335Y71828D01*
X70403Y71886D01*
X70474Y71940D01*
X70547Y71991D01*
X70622Y72039D01*
X70699Y72084D01*
X70778Y72125D01*
X70859Y72162D01*
X70941Y72196D01*
X71025Y72227D01*
X71110Y72253D01*
X71196Y72276D01*
X71283Y72294D01*
X71371Y72309D01*
X71460Y72320D01*
X71549Y72327D01*
X71638Y72330D01*
X71727Y72329D01*
X71816Y72324D01*
X71904Y72315D01*
X71993Y72302D01*
X72080Y72285D01*
X72167Y72265D01*
X72253Y72240D01*
X72337Y72212D01*
X72420Y72180D01*
X72502Y72144D01*
X72582Y72105D01*
X72660Y72062D01*
X72736Y72016D01*
X72810Y71966D01*
X72882Y71913D01*
X72951Y71857D01*
X73018Y71798D01*
X73082Y71736D01*
X73143Y71672D01*
X73202Y71604D01*
X73257Y71534D01*
X73309Y71462D01*
X73358Y71387D01*
X73403Y71311D01*
X73445Y71232D01*
X73483Y71152D01*
X73518Y71070D01*
X73549Y70986D01*
X73577Y70901D01*
X73600Y70815D01*
X73620Y70728D01*
X73636Y70641D01*
X73648Y70552D01*
X73656Y70464D01*
X73660Y70375D01*
X73660Y70285D01*
X73656Y70196D01*
X73648Y70108D01*
X73636Y70019D01*
X73620Y69932D01*
X73600Y69845D01*
X73577Y69759D01*
X73549Y69674D01*
X73518Y69590D01*
X73483Y69508D01*
X73445Y69428D01*
X73403Y69349D01*
X73358Y69273D01*
X73309Y69198D01*
X73257Y69126D01*
X73202Y69056D01*
X73143Y68988D01*
X73082Y68924D01*
X73018Y68862D01*
X72951Y68803D01*
X72882Y68747D01*
X72810Y68694D01*
X72736Y68644D01*
X72660Y68598D01*
X72582Y68555D01*
X72502Y68516D01*
X72420Y68480D01*
X72337Y68448D01*
X72253Y68420D01*
X72167Y68395D01*
X72080Y68375D01*
X71993Y68358D01*
X71904Y68345D01*
X71816Y68336D01*
X71727Y68331D01*
X71638Y68330D01*
X71549Y68333D01*
X71460Y68340D01*
X71371Y68351D01*
X71283Y68366D01*
X71196Y68384D01*
X71110Y68407D01*
X71025Y68433D01*
X70941Y68464D01*
X70859Y68498D01*
X70778Y68535D01*
X70699Y68576D01*
X70622Y68621D01*
X70547Y68669D01*
X70474Y68720D01*
X70403Y68774D01*
X70335Y68832D01*
X70270Y68892D01*
X70207Y68956D01*
X70147Y69022D01*
X70090Y69091D01*
X70037Y69162D01*
X69986Y69235D01*
X69939Y69311D01*
X69896Y69388D01*
X69855Y69468D01*
X69819Y69549D01*
X69786Y69632D01*
X69757Y69716D01*
X69731Y69802D01*
X69709Y69888D01*
X69692Y69975D01*
X69678Y70063D01*
X69668Y70152D01*
X69662Y70241D01*
X69660Y70330D01*
D20*
X65847Y31009D02*
X63898Y29060D01*
X65847Y31009D02*
X65847Y32958D01*
X63898Y34907D01*
X54153Y34907D01*
X54153Y32958D02*
X54153Y36856D01*
X58051Y40754D02*
X54153Y44652D01*
X65847Y44652D01*
X65847Y40754D02*
X65847Y48550D01*
D14*
X261280Y33830D02*
X261280Y166830D01*
X261280Y33830D02*
X295630Y33830D01*
X295630Y166830D02*
X261280Y166830D01*
D20*
X256732Y148847D02*
X254783Y146898D01*
X256732Y148847D02*
X256732Y150796D01*
X254783Y152745D01*
X245038Y152745D01*
X245038Y150796D02*
X245038Y154694D01*
X256732Y158592D02*
X256732Y166388D01*
X256732Y158592D02*
X248936Y166388D01*
X246987Y166388D01*
X245038Y164439D01*
X245038Y160541D01*
X246987Y158592D01*
D14*
X116665Y50815D02*
X110665Y50815D01*
X110665Y36815D02*
X116665Y36815D01*
D12*
X106862Y33923D02*
X106862Y26551D01*
X111777Y26551D01*
X118032Y26551D02*
X118032Y33923D01*
X114346Y30237D01*
X119261Y30237D01*
M02*
