G04 EAGLE Gerber RS-274X export*
G75*
%MOMM*%
%FSLAX34Y34*%
%LPD*%
%INBottom Copper*%
%IPPOS*%
%AMOC8*
5,1,8,0,0,1.08239X$1,22.5*%
G01*
%ADD10C,1.500000*%
%ADD11C,1.157200*%
%ADD12C,1.540000*%
%ADD13C,1.270000*%
%ADD14C,0.254000*%
%ADD15C,0.707200*%
%ADD16C,0.152400*%
%ADD17C,0.807200*%
%ADD18C,0.406400*%

G36*
X21889Y6248D02*
X21889Y6248D01*
X22027Y6261D01*
X22046Y6268D01*
X22066Y6271D01*
X22195Y6322D01*
X22326Y6369D01*
X22343Y6380D01*
X22361Y6388D01*
X22474Y6469D01*
X22589Y6548D01*
X22603Y6563D01*
X22619Y6574D01*
X22708Y6682D01*
X22800Y6786D01*
X22809Y6804D01*
X22821Y6819D01*
X22881Y6945D01*
X22944Y7070D01*
X22948Y7089D01*
X22957Y7107D01*
X22983Y7244D01*
X23014Y7380D01*
X23013Y7400D01*
X23017Y7420D01*
X23008Y7559D01*
X23004Y7698D01*
X22998Y7717D01*
X22997Y7737D01*
X22993Y7748D01*
X22993Y11049D01*
X22978Y11167D01*
X22971Y11286D01*
X22958Y11324D01*
X22953Y11365D01*
X22910Y11475D01*
X22873Y11588D01*
X22851Y11623D01*
X22836Y11660D01*
X22767Y11756D01*
X22703Y11857D01*
X22673Y11885D01*
X22650Y11918D01*
X22558Y11994D01*
X22471Y12075D01*
X22436Y12095D01*
X22405Y12120D01*
X22297Y12171D01*
X22193Y12229D01*
X22153Y12239D01*
X22117Y12256D01*
X22000Y12278D01*
X21885Y12308D01*
X21825Y12312D01*
X21805Y12316D01*
X21784Y12314D01*
X21724Y12318D01*
X18727Y12318D01*
X16643Y14402D01*
X16643Y17348D01*
X18727Y19432D01*
X21724Y19432D01*
X21842Y19447D01*
X21961Y19454D01*
X21999Y19467D01*
X22040Y19472D01*
X22150Y19515D01*
X22263Y19552D01*
X22298Y19574D01*
X22335Y19589D01*
X22431Y19658D01*
X22532Y19722D01*
X22560Y19752D01*
X22593Y19775D01*
X22669Y19867D01*
X22750Y19954D01*
X22770Y19989D01*
X22795Y20020D01*
X22846Y20128D01*
X22904Y20232D01*
X22914Y20272D01*
X22931Y20308D01*
X22953Y20425D01*
X22983Y20540D01*
X22987Y20600D01*
X22991Y20620D01*
X22989Y20641D01*
X22993Y20701D01*
X22993Y23698D01*
X25077Y25782D01*
X28023Y25782D01*
X30107Y23698D01*
X30107Y20701D01*
X30122Y20583D01*
X30129Y20464D01*
X30142Y20426D01*
X30147Y20385D01*
X30190Y20275D01*
X30227Y20162D01*
X30249Y20127D01*
X30264Y20090D01*
X30333Y19994D01*
X30397Y19893D01*
X30427Y19865D01*
X30450Y19832D01*
X30542Y19756D01*
X30629Y19675D01*
X30664Y19655D01*
X30695Y19630D01*
X30803Y19579D01*
X30907Y19521D01*
X30947Y19511D01*
X30983Y19494D01*
X31100Y19472D01*
X31215Y19442D01*
X31275Y19438D01*
X31295Y19434D01*
X31316Y19436D01*
X31376Y19432D01*
X34373Y19432D01*
X36457Y17348D01*
X36457Y14402D01*
X34373Y12318D01*
X31376Y12318D01*
X31258Y12303D01*
X31139Y12296D01*
X31101Y12283D01*
X31060Y12278D01*
X30950Y12235D01*
X30837Y12198D01*
X30802Y12176D01*
X30765Y12161D01*
X30669Y12092D01*
X30568Y12028D01*
X30540Y11998D01*
X30507Y11975D01*
X30431Y11883D01*
X30350Y11796D01*
X30330Y11761D01*
X30305Y11730D01*
X30254Y11622D01*
X30196Y11518D01*
X30186Y11478D01*
X30169Y11442D01*
X30147Y11325D01*
X30117Y11210D01*
X30113Y11150D01*
X30109Y11130D01*
X30111Y11109D01*
X30107Y11049D01*
X30107Y7703D01*
X30083Y7581D01*
X30084Y7561D01*
X30081Y7541D01*
X30094Y7402D01*
X30103Y7263D01*
X30109Y7244D01*
X30111Y7224D01*
X30158Y7093D01*
X30201Y6961D01*
X30212Y6944D01*
X30218Y6925D01*
X30297Y6810D01*
X30371Y6692D01*
X30386Y6678D01*
X30397Y6662D01*
X30501Y6569D01*
X30603Y6474D01*
X30620Y6464D01*
X30635Y6451D01*
X30759Y6388D01*
X30881Y6320D01*
X30901Y6315D01*
X30918Y6306D01*
X31055Y6276D01*
X31189Y6241D01*
X31217Y6239D01*
X31229Y6237D01*
X31249Y6237D01*
X31350Y6231D01*
X250750Y6231D01*
X250889Y6248D01*
X251027Y6261D01*
X251046Y6268D01*
X251066Y6271D01*
X251195Y6322D01*
X251326Y6369D01*
X251343Y6380D01*
X251361Y6388D01*
X251474Y6469D01*
X251589Y6548D01*
X251603Y6563D01*
X251619Y6574D01*
X251708Y6682D01*
X251800Y6786D01*
X251809Y6804D01*
X251821Y6819D01*
X251881Y6945D01*
X251944Y7070D01*
X251948Y7089D01*
X251957Y7107D01*
X251983Y7244D01*
X252014Y7380D01*
X252013Y7400D01*
X252017Y7420D01*
X252008Y7559D01*
X252004Y7698D01*
X251998Y7717D01*
X251997Y7737D01*
X251993Y7748D01*
X251993Y11049D01*
X251978Y11167D01*
X251971Y11286D01*
X251958Y11324D01*
X251953Y11365D01*
X251910Y11475D01*
X251873Y11588D01*
X251851Y11623D01*
X251836Y11660D01*
X251767Y11756D01*
X251703Y11857D01*
X251673Y11885D01*
X251650Y11918D01*
X251558Y11994D01*
X251471Y12075D01*
X251436Y12095D01*
X251405Y12120D01*
X251297Y12171D01*
X251193Y12229D01*
X251153Y12239D01*
X251117Y12256D01*
X251000Y12278D01*
X250885Y12308D01*
X250825Y12312D01*
X250805Y12316D01*
X250784Y12314D01*
X250724Y12318D01*
X247727Y12318D01*
X245643Y14402D01*
X245643Y17348D01*
X247727Y19432D01*
X250724Y19432D01*
X250842Y19447D01*
X250961Y19454D01*
X250999Y19467D01*
X251040Y19472D01*
X251150Y19515D01*
X251263Y19552D01*
X251298Y19574D01*
X251335Y19589D01*
X251431Y19658D01*
X251532Y19722D01*
X251560Y19752D01*
X251593Y19775D01*
X251669Y19867D01*
X251750Y19954D01*
X251770Y19989D01*
X251795Y20020D01*
X251846Y20128D01*
X251904Y20232D01*
X251914Y20272D01*
X251931Y20308D01*
X251953Y20425D01*
X251983Y20540D01*
X251987Y20600D01*
X251991Y20620D01*
X251989Y20641D01*
X251993Y20701D01*
X251993Y23698D01*
X254077Y25782D01*
X257023Y25782D01*
X259107Y23698D01*
X259107Y20701D01*
X259122Y20583D01*
X259129Y20464D01*
X259142Y20426D01*
X259147Y20385D01*
X259190Y20275D01*
X259227Y20162D01*
X259249Y20127D01*
X259264Y20090D01*
X259333Y19994D01*
X259397Y19893D01*
X259427Y19865D01*
X259450Y19832D01*
X259542Y19756D01*
X259629Y19675D01*
X259664Y19655D01*
X259695Y19630D01*
X259803Y19579D01*
X259907Y19521D01*
X259947Y19511D01*
X259983Y19494D01*
X260100Y19472D01*
X260215Y19442D01*
X260275Y19438D01*
X260295Y19434D01*
X260316Y19436D01*
X260376Y19432D01*
X263373Y19432D01*
X265457Y17348D01*
X265457Y14402D01*
X263373Y12318D01*
X260376Y12318D01*
X260258Y12303D01*
X260139Y12296D01*
X260101Y12283D01*
X260060Y12278D01*
X259950Y12235D01*
X259837Y12198D01*
X259802Y12176D01*
X259765Y12161D01*
X259669Y12092D01*
X259568Y12028D01*
X259540Y11998D01*
X259507Y11975D01*
X259431Y11883D01*
X259350Y11796D01*
X259330Y11761D01*
X259305Y11730D01*
X259254Y11622D01*
X259196Y11518D01*
X259186Y11478D01*
X259169Y11442D01*
X259147Y11325D01*
X259117Y11210D01*
X259113Y11150D01*
X259109Y11130D01*
X259111Y11109D01*
X259107Y11049D01*
X259107Y7703D01*
X259083Y7581D01*
X259084Y7561D01*
X259081Y7541D01*
X259094Y7402D01*
X259103Y7263D01*
X259109Y7244D01*
X259111Y7224D01*
X259158Y7093D01*
X259201Y6961D01*
X259212Y6944D01*
X259218Y6925D01*
X259297Y6810D01*
X259371Y6692D01*
X259386Y6678D01*
X259397Y6662D01*
X259501Y6569D01*
X259603Y6474D01*
X259620Y6464D01*
X259635Y6451D01*
X259759Y6388D01*
X259881Y6320D01*
X259901Y6315D01*
X259918Y6306D01*
X260055Y6276D01*
X260189Y6241D01*
X260217Y6239D01*
X260229Y6237D01*
X260249Y6237D01*
X260350Y6231D01*
X386500Y6231D01*
X386618Y6246D01*
X386737Y6253D01*
X386775Y6266D01*
X386816Y6271D01*
X386926Y6314D01*
X387039Y6351D01*
X387074Y6373D01*
X387111Y6388D01*
X387207Y6458D01*
X387308Y6521D01*
X387336Y6551D01*
X387369Y6574D01*
X387445Y6666D01*
X387526Y6753D01*
X387546Y6788D01*
X387571Y6819D01*
X387622Y6927D01*
X387680Y7031D01*
X387690Y7071D01*
X387707Y7107D01*
X387729Y7224D01*
X387759Y7339D01*
X387763Y7400D01*
X387767Y7420D01*
X387765Y7440D01*
X387769Y7500D01*
X387769Y26682D01*
X387754Y26800D01*
X387747Y26919D01*
X387734Y26957D01*
X387729Y26998D01*
X387686Y27108D01*
X387649Y27221D01*
X387627Y27256D01*
X387612Y27293D01*
X387543Y27389D01*
X387479Y27490D01*
X387449Y27518D01*
X387426Y27551D01*
X387334Y27627D01*
X387247Y27708D01*
X387212Y27728D01*
X387181Y27753D01*
X387073Y27804D01*
X386969Y27862D01*
X386929Y27872D01*
X386893Y27889D01*
X386776Y27911D01*
X386661Y27941D01*
X386601Y27945D01*
X386581Y27949D01*
X386560Y27947D01*
X386500Y27951D01*
X381718Y27951D01*
X381668Y27945D01*
X381619Y27947D01*
X381511Y27925D01*
X381402Y27911D01*
X381356Y27893D01*
X381307Y27883D01*
X381209Y27835D01*
X381106Y27794D01*
X381066Y27765D01*
X381022Y27743D01*
X380938Y27672D01*
X380849Y27608D01*
X380817Y27569D01*
X380780Y27537D01*
X380716Y27447D01*
X380646Y27363D01*
X380625Y27318D01*
X380596Y27277D01*
X380557Y27174D01*
X380511Y27075D01*
X380501Y27026D01*
X380484Y26980D01*
X380472Y26870D01*
X380451Y26763D01*
X380454Y26713D01*
X380448Y26664D01*
X380464Y26555D01*
X380471Y26445D01*
X380486Y26398D01*
X380493Y26349D01*
X380545Y26196D01*
X381705Y23396D01*
X381705Y20264D01*
X380506Y17369D01*
X378291Y15154D01*
X375396Y13955D01*
X359564Y13955D01*
X356669Y15154D01*
X354454Y17369D01*
X353255Y20264D01*
X353255Y23396D01*
X354415Y26196D01*
X354428Y26244D01*
X354449Y26289D01*
X354470Y26397D01*
X354499Y26503D01*
X354500Y26553D01*
X354509Y26602D01*
X354502Y26711D01*
X354504Y26821D01*
X354492Y26869D01*
X354489Y26919D01*
X354456Y27023D01*
X354430Y27130D01*
X354407Y27174D01*
X354391Y27221D01*
X354333Y27314D01*
X354281Y27411D01*
X354248Y27448D01*
X354221Y27490D01*
X354141Y27565D01*
X354067Y27647D01*
X354026Y27674D01*
X353990Y27708D01*
X353893Y27761D01*
X353802Y27821D01*
X353755Y27838D01*
X353711Y27862D01*
X353605Y27889D01*
X353501Y27925D01*
X353451Y27929D01*
X353403Y27941D01*
X353242Y27951D01*
X316529Y27951D01*
X316479Y27945D01*
X316430Y27947D01*
X316322Y27925D01*
X316213Y27911D01*
X316167Y27893D01*
X316118Y27883D01*
X316020Y27835D01*
X315918Y27794D01*
X315877Y27765D01*
X315833Y27743D01*
X315749Y27672D01*
X315660Y27608D01*
X315629Y27569D01*
X315591Y27537D01*
X315528Y27447D01*
X315457Y27363D01*
X315436Y27318D01*
X315408Y27277D01*
X315369Y27174D01*
X315322Y27075D01*
X315313Y27026D01*
X315295Y26980D01*
X315283Y26870D01*
X315262Y26763D01*
X315265Y26713D01*
X315260Y26664D01*
X315275Y26555D01*
X315282Y26445D01*
X315297Y26398D01*
X315304Y26349D01*
X315356Y26196D01*
X316405Y23665D01*
X316405Y19995D01*
X315000Y16605D01*
X312405Y14010D01*
X309015Y12605D01*
X289945Y12605D01*
X286555Y14010D01*
X283960Y16605D01*
X282555Y19995D01*
X282555Y23665D01*
X283960Y27055D01*
X286555Y29650D01*
X289945Y31055D01*
X294682Y31055D01*
X294800Y31070D01*
X294919Y31077D01*
X294957Y31090D01*
X294998Y31095D01*
X295108Y31138D01*
X295221Y31175D01*
X295256Y31197D01*
X295293Y31212D01*
X295389Y31281D01*
X295490Y31345D01*
X295518Y31375D01*
X295551Y31398D01*
X295627Y31490D01*
X295708Y31577D01*
X295728Y31612D01*
X295753Y31643D01*
X295804Y31751D01*
X295862Y31855D01*
X295872Y31895D01*
X295889Y31931D01*
X295911Y32048D01*
X295941Y32163D01*
X295945Y32223D01*
X295949Y32243D01*
X295947Y32264D01*
X295951Y32324D01*
X295951Y57908D01*
X295945Y57957D01*
X295947Y58007D01*
X295925Y58114D01*
X295911Y58223D01*
X295893Y58270D01*
X295883Y58318D01*
X295835Y58417D01*
X295794Y58519D01*
X295765Y58559D01*
X295743Y58604D01*
X295672Y58687D01*
X295608Y58776D01*
X295569Y58808D01*
X295537Y58846D01*
X295447Y58909D01*
X295363Y58979D01*
X295318Y59000D01*
X295277Y59029D01*
X295174Y59068D01*
X295075Y59115D01*
X295026Y59124D01*
X294980Y59142D01*
X294870Y59154D01*
X294763Y59175D01*
X294713Y59172D01*
X294664Y59177D01*
X294555Y59162D01*
X294445Y59155D01*
X294398Y59140D01*
X294349Y59133D01*
X294196Y59081D01*
X291634Y58019D01*
X288726Y58019D01*
X286039Y59132D01*
X284657Y60514D01*
X284548Y60599D01*
X284441Y60687D01*
X284422Y60696D01*
X284406Y60709D01*
X284278Y60764D01*
X284153Y60823D01*
X284133Y60827D01*
X284114Y60835D01*
X283976Y60857D01*
X283840Y60883D01*
X283820Y60882D01*
X283800Y60885D01*
X283661Y60872D01*
X283523Y60863D01*
X283504Y60857D01*
X283484Y60855D01*
X283352Y60808D01*
X283221Y60765D01*
X283203Y60754D01*
X283184Y60747D01*
X283069Y60669D01*
X282952Y60595D01*
X282938Y60580D01*
X282921Y60569D01*
X282829Y60464D01*
X282734Y60363D01*
X282724Y60346D01*
X282711Y60330D01*
X282647Y60206D01*
X282580Y60085D01*
X282575Y60065D01*
X282566Y60047D01*
X282536Y59911D01*
X282501Y59777D01*
X282499Y59749D01*
X282496Y59737D01*
X282497Y59716D01*
X282491Y59616D01*
X282491Y58876D01*
X281378Y56189D01*
X279321Y54132D01*
X276634Y53019D01*
X273726Y53019D01*
X271039Y54132D01*
X268982Y56189D01*
X267869Y58876D01*
X267869Y61784D01*
X268982Y64471D01*
X271039Y66528D01*
X273726Y67641D01*
X276634Y67641D01*
X279321Y66528D01*
X280703Y65146D01*
X280812Y65061D01*
X280919Y64973D01*
X280938Y64964D01*
X280954Y64951D01*
X281082Y64896D01*
X281207Y64837D01*
X281227Y64833D01*
X281246Y64825D01*
X281384Y64803D01*
X281520Y64777D01*
X281540Y64778D01*
X281560Y64775D01*
X281699Y64788D01*
X281837Y64797D01*
X281856Y64803D01*
X281876Y64805D01*
X282008Y64852D01*
X282139Y64895D01*
X282157Y64906D01*
X282176Y64913D01*
X282291Y64991D01*
X282408Y65065D01*
X282422Y65080D01*
X282439Y65091D01*
X282531Y65196D01*
X282626Y65297D01*
X282636Y65314D01*
X282649Y65330D01*
X282713Y65454D01*
X282780Y65575D01*
X282785Y65595D01*
X282794Y65613D01*
X282824Y65749D01*
X282859Y65883D01*
X282861Y65911D01*
X282864Y65923D01*
X282863Y65944D01*
X282869Y66044D01*
X282869Y66784D01*
X283982Y69471D01*
X286039Y71528D01*
X288726Y72641D01*
X291634Y72641D01*
X294196Y71579D01*
X294244Y71566D01*
X294289Y71545D01*
X294397Y71525D01*
X294503Y71496D01*
X294553Y71495D01*
X294602Y71485D01*
X294711Y71492D01*
X294821Y71490D01*
X294869Y71502D01*
X294919Y71505D01*
X295023Y71539D01*
X295130Y71565D01*
X295174Y71588D01*
X295221Y71603D01*
X295314Y71662D01*
X295411Y71713D01*
X295448Y71747D01*
X295490Y71773D01*
X295565Y71853D01*
X295647Y71927D01*
X295674Y71969D01*
X295708Y72005D01*
X295761Y72101D01*
X295821Y72193D01*
X295838Y72240D01*
X295862Y72283D01*
X295889Y72390D01*
X295925Y72494D01*
X295929Y72543D01*
X295941Y72591D01*
X295951Y72752D01*
X295951Y82908D01*
X295945Y82957D01*
X295947Y83007D01*
X295925Y83114D01*
X295911Y83223D01*
X295893Y83270D01*
X295883Y83318D01*
X295835Y83417D01*
X295794Y83519D01*
X295765Y83559D01*
X295743Y83604D01*
X295672Y83688D01*
X295608Y83776D01*
X295569Y83808D01*
X295537Y83846D01*
X295447Y83909D01*
X295363Y83979D01*
X295318Y84000D01*
X295277Y84029D01*
X295174Y84068D01*
X295075Y84115D01*
X295026Y84124D01*
X294980Y84142D01*
X294870Y84154D01*
X294763Y84175D01*
X294713Y84171D01*
X294664Y84177D01*
X294555Y84162D01*
X294445Y84155D01*
X294398Y84140D01*
X294349Y84133D01*
X294196Y84081D01*
X291634Y83019D01*
X288726Y83019D01*
X286039Y84132D01*
X283982Y86189D01*
X283886Y86422D01*
X283871Y86447D01*
X283862Y86475D01*
X283793Y86585D01*
X283728Y86698D01*
X283708Y86719D01*
X283692Y86744D01*
X283597Y86833D01*
X283507Y86926D01*
X283482Y86942D01*
X283460Y86962D01*
X283346Y87025D01*
X283236Y87093D01*
X283208Y87101D01*
X283182Y87116D01*
X283056Y87148D01*
X282932Y87186D01*
X282902Y87188D01*
X282874Y87195D01*
X282713Y87205D01*
X281708Y87205D01*
X281570Y87188D01*
X281432Y87175D01*
X281413Y87168D01*
X281392Y87165D01*
X281263Y87114D01*
X281132Y87067D01*
X281115Y87056D01*
X281097Y87048D01*
X280984Y86967D01*
X280869Y86889D01*
X280856Y86873D01*
X280839Y86862D01*
X280751Y86754D01*
X280659Y86650D01*
X280649Y86632D01*
X280637Y86617D01*
X280577Y86491D01*
X280514Y86367D01*
X280510Y86347D01*
X280501Y86329D01*
X280475Y86192D01*
X280444Y86057D01*
X280445Y86036D01*
X280441Y86017D01*
X280450Y85878D01*
X280454Y85739D01*
X280460Y85719D01*
X280461Y85699D01*
X280504Y85567D01*
X280542Y85433D01*
X280553Y85416D01*
X280559Y85397D01*
X280633Y85279D01*
X280704Y85159D01*
X280723Y85138D01*
X280729Y85128D01*
X280744Y85114D01*
X280810Y85039D01*
X281378Y84471D01*
X282491Y81784D01*
X282491Y78876D01*
X281378Y76189D01*
X279321Y74132D01*
X276634Y73019D01*
X273726Y73019D01*
X271039Y74132D01*
X268982Y76189D01*
X267869Y78876D01*
X267869Y81784D01*
X268982Y84471D01*
X269550Y85039D01*
X269635Y85148D01*
X269723Y85255D01*
X269732Y85274D01*
X269745Y85290D01*
X269800Y85418D01*
X269859Y85543D01*
X269863Y85563D01*
X269871Y85582D01*
X269893Y85720D01*
X269919Y85856D01*
X269918Y85876D01*
X269921Y85896D01*
X269908Y86035D01*
X269899Y86173D01*
X269893Y86192D01*
X269891Y86212D01*
X269844Y86343D01*
X269801Y86475D01*
X269790Y86493D01*
X269783Y86512D01*
X269705Y86626D01*
X269631Y86744D01*
X269616Y86758D01*
X269605Y86775D01*
X269501Y86867D01*
X269399Y86962D01*
X269381Y86972D01*
X269366Y86985D01*
X269243Y87048D01*
X269121Y87116D01*
X269101Y87121D01*
X269083Y87130D01*
X268947Y87160D01*
X268813Y87195D01*
X268785Y87197D01*
X268773Y87200D01*
X268752Y87199D01*
X268652Y87205D01*
X266542Y87205D01*
X259514Y94234D01*
X259436Y94294D01*
X259364Y94362D01*
X259311Y94391D01*
X259263Y94428D01*
X259172Y94468D01*
X259085Y94516D01*
X259027Y94531D01*
X258971Y94555D01*
X258873Y94570D01*
X258777Y94595D01*
X258677Y94601D01*
X258657Y94605D01*
X258645Y94603D01*
X258617Y94605D01*
X245919Y94605D01*
X245821Y94593D01*
X245722Y94590D01*
X245663Y94573D01*
X245603Y94565D01*
X245511Y94529D01*
X245416Y94501D01*
X245364Y94471D01*
X245308Y94448D01*
X245228Y94390D01*
X245142Y94340D01*
X245067Y94274D01*
X245050Y94262D01*
X245043Y94252D01*
X245021Y94234D01*
X241866Y91079D01*
X241806Y91000D01*
X241738Y90928D01*
X241709Y90875D01*
X241672Y90827D01*
X241632Y90736D01*
X241584Y90650D01*
X241569Y90591D01*
X241545Y90535D01*
X241530Y90437D01*
X241505Y90342D01*
X241499Y90242D01*
X241495Y90221D01*
X241497Y90209D01*
X241495Y90181D01*
X241495Y70607D01*
X224593Y53705D01*
X192942Y53705D01*
X188005Y58642D01*
X188005Y63977D01*
X187993Y64075D01*
X187990Y64174D01*
X187973Y64232D01*
X187965Y64293D01*
X187929Y64385D01*
X187901Y64480D01*
X187871Y64532D01*
X187848Y64588D01*
X187790Y64668D01*
X187740Y64754D01*
X187674Y64829D01*
X187662Y64846D01*
X187652Y64853D01*
X187634Y64875D01*
X186510Y65998D01*
X185739Y67858D01*
X185739Y69872D01*
X186510Y71732D01*
X187933Y73155D01*
X189793Y73926D01*
X191807Y73926D01*
X193667Y73155D01*
X195090Y71732D01*
X195872Y69844D01*
X195887Y69819D01*
X195896Y69791D01*
X195965Y69681D01*
X196030Y69568D01*
X196050Y69547D01*
X196066Y69522D01*
X196160Y69433D01*
X196251Y69340D01*
X196276Y69324D01*
X196298Y69304D01*
X196411Y69241D01*
X196522Y69173D01*
X196550Y69165D01*
X196576Y69150D01*
X196702Y69118D01*
X196826Y69080D01*
X196855Y69078D01*
X196884Y69071D01*
X197045Y69061D01*
X199107Y69061D01*
X200967Y68290D01*
X202390Y66867D01*
X203131Y65078D01*
X203146Y65053D01*
X203155Y65025D01*
X203224Y64915D01*
X203289Y64802D01*
X203309Y64781D01*
X203325Y64756D01*
X203420Y64667D01*
X203510Y64574D01*
X203535Y64558D01*
X203557Y64538D01*
X203670Y64475D01*
X203781Y64407D01*
X203809Y64399D01*
X203835Y64384D01*
X203961Y64352D01*
X204085Y64314D01*
X204114Y64312D01*
X204143Y64305D01*
X204304Y64295D01*
X219681Y64295D01*
X219779Y64307D01*
X219878Y64310D01*
X219937Y64327D01*
X219997Y64335D01*
X220089Y64371D01*
X220184Y64399D01*
X220236Y64429D01*
X220292Y64452D01*
X220372Y64510D01*
X220458Y64560D01*
X220533Y64626D01*
X220550Y64638D01*
X220557Y64648D01*
X220579Y64666D01*
X230534Y74621D01*
X230594Y74700D01*
X230662Y74772D01*
X230691Y74825D01*
X230728Y74873D01*
X230768Y74964D01*
X230816Y75050D01*
X230831Y75109D01*
X230855Y75165D01*
X230870Y75263D01*
X230895Y75358D01*
X230901Y75458D01*
X230905Y75479D01*
X230903Y75491D01*
X230905Y75519D01*
X230905Y95093D01*
X242277Y106465D01*
X258617Y106465D01*
X258715Y106477D01*
X258814Y106480D01*
X258872Y106497D01*
X258932Y106505D01*
X259024Y106541D01*
X259119Y106569D01*
X259172Y106599D01*
X259228Y106622D01*
X259308Y106680D01*
X259393Y106730D01*
X259469Y106796D01*
X259485Y106808D01*
X259493Y106818D01*
X259514Y106836D01*
X265962Y113285D01*
X268822Y113285D01*
X268960Y113302D01*
X269098Y113315D01*
X269117Y113322D01*
X269138Y113325D01*
X269267Y113376D01*
X269398Y113423D01*
X269415Y113434D01*
X269433Y113442D01*
X269546Y113523D01*
X269661Y113601D01*
X269674Y113617D01*
X269691Y113628D01*
X269779Y113736D01*
X269871Y113840D01*
X269881Y113858D01*
X269893Y113873D01*
X269953Y113999D01*
X270016Y114123D01*
X270020Y114143D01*
X270029Y114161D01*
X270055Y114298D01*
X270086Y114433D01*
X270085Y114454D01*
X270089Y114473D01*
X270080Y114612D01*
X270076Y114751D01*
X270070Y114771D01*
X270069Y114791D01*
X270026Y114923D01*
X269988Y115057D01*
X269977Y115074D01*
X269971Y115093D01*
X269897Y115211D01*
X269826Y115331D01*
X269807Y115352D01*
X269801Y115362D01*
X269786Y115376D01*
X269720Y115451D01*
X268982Y116189D01*
X267869Y118876D01*
X267869Y121784D01*
X268982Y124471D01*
X271039Y126528D01*
X273726Y127641D01*
X276634Y127641D01*
X279321Y126528D01*
X281378Y124471D01*
X282491Y121784D01*
X282491Y118876D01*
X281378Y116189D01*
X280640Y115451D01*
X280555Y115342D01*
X280467Y115235D01*
X280458Y115216D01*
X280445Y115200D01*
X280390Y115072D01*
X280331Y114947D01*
X280327Y114927D01*
X280319Y114908D01*
X280297Y114770D01*
X280271Y114634D01*
X280272Y114614D01*
X280269Y114594D01*
X280282Y114455D01*
X280291Y114317D01*
X280297Y114298D01*
X280299Y114278D01*
X280346Y114146D01*
X280389Y114015D01*
X280400Y113997D01*
X280407Y113978D01*
X280485Y113863D01*
X280559Y113746D01*
X280574Y113732D01*
X280585Y113715D01*
X280689Y113623D01*
X280791Y113528D01*
X280809Y113518D01*
X280824Y113505D01*
X280947Y113442D01*
X281069Y113374D01*
X281089Y113369D01*
X281107Y113360D01*
X281243Y113330D01*
X281377Y113295D01*
X281405Y113293D01*
X281417Y113290D01*
X281438Y113291D01*
X281538Y113285D01*
X282643Y113285D01*
X282672Y113288D01*
X282701Y113286D01*
X282829Y113308D01*
X282958Y113325D01*
X282986Y113335D01*
X283015Y113340D01*
X283134Y113394D01*
X283254Y113442D01*
X283278Y113459D01*
X283305Y113471D01*
X283406Y113552D01*
X283511Y113628D01*
X283530Y113651D01*
X283553Y113670D01*
X283631Y113773D01*
X283714Y113873D01*
X283727Y113900D01*
X283744Y113924D01*
X283815Y114068D01*
X283982Y114471D01*
X286039Y116528D01*
X288726Y117641D01*
X291634Y117641D01*
X294196Y116579D01*
X294244Y116566D01*
X294289Y116545D01*
X294397Y116525D01*
X294503Y116496D01*
X294553Y116495D01*
X294602Y116485D01*
X294711Y116492D01*
X294821Y116490D01*
X294869Y116502D01*
X294919Y116505D01*
X295023Y116539D01*
X295130Y116565D01*
X295174Y116588D01*
X295221Y116603D01*
X295314Y116662D01*
X295411Y116713D01*
X295448Y116747D01*
X295490Y116773D01*
X295565Y116853D01*
X295647Y116927D01*
X295674Y116969D01*
X295708Y117005D01*
X295761Y117101D01*
X295821Y117193D01*
X295838Y117240D01*
X295862Y117283D01*
X295889Y117390D01*
X295925Y117494D01*
X295929Y117543D01*
X295941Y117591D01*
X295951Y117752D01*
X295951Y126258D01*
X295945Y126308D01*
X295947Y126357D01*
X295925Y126465D01*
X295911Y126574D01*
X295893Y126620D01*
X295883Y126669D01*
X295835Y126767D01*
X295794Y126870D01*
X295765Y126910D01*
X295743Y126954D01*
X295672Y127038D01*
X295608Y127127D01*
X295569Y127159D01*
X295537Y127196D01*
X295447Y127260D01*
X295363Y127330D01*
X295318Y127351D01*
X295277Y127379D01*
X295174Y127418D01*
X295075Y127465D01*
X295026Y127475D01*
X294980Y127492D01*
X294870Y127504D01*
X294763Y127525D01*
X294713Y127522D01*
X294664Y127527D01*
X294555Y127512D01*
X294445Y127505D01*
X294398Y127490D01*
X294349Y127483D01*
X294196Y127431D01*
X292757Y126835D01*
X291929Y126670D01*
X291929Y134850D01*
X291914Y134968D01*
X291907Y135087D01*
X291894Y135125D01*
X291889Y135165D01*
X291846Y135276D01*
X291830Y135324D01*
X291840Y135342D01*
X291850Y135381D01*
X291867Y135417D01*
X291889Y135534D01*
X291919Y135650D01*
X291923Y135710D01*
X291927Y135730D01*
X291925Y135750D01*
X291929Y135810D01*
X291929Y143990D01*
X292757Y143825D01*
X294196Y143229D01*
X294244Y143216D01*
X294289Y143195D01*
X294397Y143174D01*
X294503Y143145D01*
X294553Y143144D01*
X294602Y143135D01*
X294711Y143142D01*
X294821Y143140D01*
X294869Y143152D01*
X294919Y143155D01*
X295023Y143189D01*
X295130Y143214D01*
X295174Y143237D01*
X295221Y143253D01*
X295314Y143312D01*
X295411Y143363D01*
X295448Y143396D01*
X295490Y143423D01*
X295565Y143503D01*
X295647Y143577D01*
X295674Y143618D01*
X295708Y143655D01*
X295761Y143751D01*
X295821Y143843D01*
X295838Y143890D01*
X295862Y143933D01*
X295889Y144039D01*
X295925Y144143D01*
X295929Y144193D01*
X295941Y144241D01*
X295951Y144402D01*
X295951Y168336D01*
X295936Y168454D01*
X295929Y168573D01*
X295916Y168611D01*
X295911Y168652D01*
X295868Y168762D01*
X295831Y168875D01*
X295809Y168910D01*
X295794Y168947D01*
X295725Y169043D01*
X295661Y169144D01*
X295631Y169172D01*
X295608Y169205D01*
X295516Y169281D01*
X295429Y169362D01*
X295394Y169382D01*
X295363Y169407D01*
X295255Y169458D01*
X295151Y169516D01*
X295111Y169526D01*
X295075Y169543D01*
X294958Y169565D01*
X294843Y169595D01*
X294783Y169599D01*
X294763Y169603D01*
X294742Y169601D01*
X294682Y169605D01*
X289945Y169605D01*
X286555Y171010D01*
X283960Y173605D01*
X282555Y176995D01*
X282555Y180665D01*
X283960Y184055D01*
X286555Y186650D01*
X289945Y188055D01*
X309015Y188055D01*
X312405Y186650D01*
X315000Y184055D01*
X316405Y180665D01*
X316405Y176995D01*
X315083Y173804D01*
X315070Y173756D01*
X315049Y173711D01*
X315028Y173603D01*
X314999Y173497D01*
X314998Y173447D01*
X314989Y173398D01*
X314996Y173289D01*
X314994Y173179D01*
X315005Y173131D01*
X315008Y173081D01*
X315042Y172977D01*
X315068Y172870D01*
X315091Y172826D01*
X315107Y172779D01*
X315165Y172686D01*
X315217Y172589D01*
X315250Y172552D01*
X315277Y172510D01*
X315357Y172435D01*
X315431Y172353D01*
X315472Y172326D01*
X315508Y172292D01*
X315604Y172239D01*
X315696Y172179D01*
X315743Y172162D01*
X315787Y172138D01*
X315893Y172111D01*
X315997Y172075D01*
X316047Y172071D01*
X316095Y172059D01*
X316255Y172049D01*
X353710Y172049D01*
X353848Y172066D01*
X353987Y172079D01*
X354006Y172086D01*
X354026Y172089D01*
X354155Y172140D01*
X354286Y172187D01*
X354303Y172198D01*
X354322Y172206D01*
X354434Y172287D01*
X354549Y172365D01*
X354563Y172381D01*
X354579Y172392D01*
X354668Y172500D01*
X354760Y172604D01*
X354769Y172622D01*
X354782Y172637D01*
X354841Y172763D01*
X354904Y172887D01*
X354909Y172907D01*
X354917Y172925D01*
X354943Y173061D01*
X354974Y173197D01*
X354973Y173218D01*
X354977Y173237D01*
X354969Y173376D01*
X354964Y173515D01*
X354959Y173535D01*
X354957Y173555D01*
X354915Y173687D01*
X354876Y173821D01*
X354866Y173838D01*
X354859Y173857D01*
X354785Y173975D01*
X354714Y174095D01*
X354696Y174116D01*
X354689Y174126D01*
X354674Y174140D01*
X354608Y174216D01*
X354454Y174369D01*
X353255Y177264D01*
X353255Y180396D01*
X354454Y183291D01*
X356669Y185506D01*
X359564Y186705D01*
X375396Y186705D01*
X378291Y185506D01*
X380506Y183291D01*
X381705Y180396D01*
X381705Y177264D01*
X380506Y174369D01*
X380352Y174216D01*
X380267Y174106D01*
X380178Y173999D01*
X380170Y173980D01*
X380157Y173964D01*
X380102Y173836D01*
X380043Y173711D01*
X380039Y173691D01*
X380031Y173672D01*
X380009Y173535D01*
X379983Y173398D01*
X379984Y173378D01*
X379981Y173358D01*
X379994Y173220D01*
X380003Y173081D01*
X380009Y173062D01*
X380011Y173042D01*
X380058Y172911D01*
X380101Y172779D01*
X380111Y172761D01*
X380118Y172742D01*
X380196Y172627D01*
X380271Y172510D01*
X380286Y172496D01*
X380297Y172479D01*
X380401Y172387D01*
X380502Y172292D01*
X380520Y172282D01*
X380535Y172269D01*
X380659Y172205D01*
X380781Y172138D01*
X380800Y172133D01*
X380819Y172124D01*
X380955Y172094D01*
X381089Y172059D01*
X381117Y172057D01*
X381129Y172054D01*
X381149Y172055D01*
X381250Y172049D01*
X386500Y172049D01*
X386618Y172064D01*
X386737Y172071D01*
X386775Y172084D01*
X386816Y172089D01*
X386926Y172132D01*
X387039Y172169D01*
X387074Y172191D01*
X387111Y172206D01*
X387207Y172275D01*
X387308Y172339D01*
X387336Y172369D01*
X387369Y172392D01*
X387445Y172484D01*
X387526Y172571D01*
X387546Y172606D01*
X387571Y172637D01*
X387622Y172745D01*
X387680Y172849D01*
X387690Y172889D01*
X387707Y172925D01*
X387729Y173042D01*
X387759Y173157D01*
X387763Y173217D01*
X387767Y173237D01*
X387765Y173258D01*
X387769Y173318D01*
X387769Y194600D01*
X387754Y194718D01*
X387747Y194837D01*
X387734Y194875D01*
X387729Y194916D01*
X387686Y195026D01*
X387649Y195139D01*
X387627Y195174D01*
X387612Y195211D01*
X387543Y195307D01*
X387479Y195408D01*
X387449Y195436D01*
X387426Y195469D01*
X387334Y195545D01*
X387247Y195626D01*
X387212Y195646D01*
X387181Y195671D01*
X387073Y195722D01*
X386969Y195780D01*
X386929Y195790D01*
X386893Y195807D01*
X386776Y195829D01*
X386661Y195859D01*
X386601Y195863D01*
X386581Y195867D01*
X386560Y195865D01*
X386500Y195869D01*
X258000Y195869D01*
X257862Y195852D01*
X257724Y195839D01*
X257704Y195832D01*
X257684Y195829D01*
X257555Y195778D01*
X257424Y195731D01*
X257408Y195720D01*
X257389Y195712D01*
X257276Y195631D01*
X257161Y195553D01*
X257148Y195537D01*
X257131Y195526D01*
X257043Y195418D01*
X256951Y195314D01*
X256942Y195296D01*
X256929Y195281D01*
X256869Y195155D01*
X256806Y195031D01*
X256802Y195011D01*
X256793Y194993D01*
X256767Y194857D01*
X256736Y194721D01*
X256737Y194700D01*
X256733Y194681D01*
X256742Y194542D01*
X256746Y194403D01*
X256752Y194383D01*
X256753Y194363D01*
X256796Y194231D01*
X256835Y194097D01*
X256845Y194080D01*
X256851Y194061D01*
X256925Y193943D01*
X256996Y193823D01*
X257015Y193802D01*
X257021Y193792D01*
X257036Y193778D01*
X257102Y193703D01*
X259107Y191698D01*
X259107Y188701D01*
X259122Y188583D01*
X259129Y188464D01*
X259142Y188426D01*
X259147Y188385D01*
X259190Y188275D01*
X259227Y188162D01*
X259249Y188127D01*
X259264Y188090D01*
X259333Y187994D01*
X259397Y187893D01*
X259427Y187865D01*
X259450Y187832D01*
X259542Y187756D01*
X259629Y187675D01*
X259664Y187655D01*
X259695Y187630D01*
X259803Y187579D01*
X259907Y187521D01*
X259947Y187511D01*
X259983Y187494D01*
X260100Y187472D01*
X260215Y187442D01*
X260275Y187438D01*
X260295Y187434D01*
X260316Y187436D01*
X260376Y187432D01*
X263373Y187432D01*
X265457Y185348D01*
X265457Y182402D01*
X263373Y180318D01*
X260376Y180318D01*
X260258Y180303D01*
X260139Y180296D01*
X260101Y180283D01*
X260060Y180278D01*
X259950Y180235D01*
X259837Y180198D01*
X259802Y180176D01*
X259765Y180161D01*
X259669Y180092D01*
X259568Y180028D01*
X259540Y179998D01*
X259507Y179975D01*
X259431Y179883D01*
X259350Y179796D01*
X259330Y179761D01*
X259305Y179730D01*
X259254Y179622D01*
X259196Y179518D01*
X259186Y179478D01*
X259169Y179442D01*
X259147Y179325D01*
X259117Y179210D01*
X259113Y179150D01*
X259109Y179130D01*
X259111Y179109D01*
X259107Y179049D01*
X259107Y176052D01*
X257023Y173968D01*
X254077Y173968D01*
X251993Y176052D01*
X251993Y179049D01*
X251978Y179167D01*
X251971Y179286D01*
X251958Y179324D01*
X251953Y179365D01*
X251910Y179475D01*
X251873Y179588D01*
X251851Y179623D01*
X251836Y179660D01*
X251767Y179756D01*
X251703Y179857D01*
X251673Y179885D01*
X251650Y179918D01*
X251558Y179994D01*
X251471Y180075D01*
X251436Y180095D01*
X251405Y180120D01*
X251297Y180171D01*
X251193Y180229D01*
X251153Y180239D01*
X251117Y180256D01*
X251000Y180278D01*
X250885Y180308D01*
X250825Y180312D01*
X250805Y180316D01*
X250784Y180314D01*
X250724Y180318D01*
X247727Y180318D01*
X245643Y182402D01*
X245643Y185348D01*
X247727Y187432D01*
X250724Y187432D01*
X250842Y187447D01*
X250961Y187454D01*
X250999Y187467D01*
X251040Y187472D01*
X251150Y187515D01*
X251263Y187552D01*
X251298Y187574D01*
X251335Y187589D01*
X251431Y187658D01*
X251532Y187722D01*
X251560Y187752D01*
X251593Y187775D01*
X251669Y187867D01*
X251750Y187954D01*
X251770Y187989D01*
X251795Y188020D01*
X251846Y188128D01*
X251904Y188232D01*
X251914Y188272D01*
X251931Y188308D01*
X251953Y188425D01*
X251983Y188540D01*
X251987Y188600D01*
X251991Y188620D01*
X251989Y188641D01*
X251993Y188701D01*
X251993Y191698D01*
X253998Y193703D01*
X254083Y193812D01*
X254171Y193919D01*
X254180Y193938D01*
X254192Y193954D01*
X254248Y194082D01*
X254307Y194207D01*
X254311Y194227D01*
X254319Y194246D01*
X254341Y194384D01*
X254367Y194520D01*
X254365Y194540D01*
X254369Y194560D01*
X254356Y194699D01*
X254347Y194837D01*
X254341Y194856D01*
X254339Y194876D01*
X254292Y195008D01*
X254249Y195139D01*
X254238Y195157D01*
X254231Y195176D01*
X254153Y195291D01*
X254079Y195408D01*
X254064Y195422D01*
X254053Y195439D01*
X253949Y195531D01*
X253847Y195626D01*
X253829Y195636D01*
X253814Y195649D01*
X253691Y195712D01*
X253569Y195780D01*
X253549Y195785D01*
X253531Y195794D01*
X253395Y195824D01*
X253261Y195859D01*
X253233Y195861D01*
X253221Y195864D01*
X253200Y195863D01*
X253100Y195869D01*
X12600Y195869D01*
X12482Y195854D01*
X12363Y195847D01*
X12325Y195834D01*
X12284Y195829D01*
X12174Y195786D01*
X12061Y195749D01*
X12026Y195727D01*
X11989Y195712D01*
X11893Y195643D01*
X11792Y195579D01*
X11764Y195549D01*
X11731Y195526D01*
X11656Y195434D01*
X11574Y195347D01*
X11554Y195312D01*
X11529Y195281D01*
X11478Y195173D01*
X11420Y195069D01*
X11410Y195029D01*
X11393Y194993D01*
X11371Y194876D01*
X11341Y194761D01*
X11337Y194701D01*
X11333Y194681D01*
X11335Y194660D01*
X11331Y194600D01*
X11331Y187769D01*
X11309Y187729D01*
X11240Y187614D01*
X11232Y187590D01*
X11220Y187569D01*
X11187Y187438D01*
X11148Y187309D01*
X11147Y187285D01*
X11141Y187261D01*
X11131Y187100D01*
X11131Y167841D01*
X11144Y167739D01*
X11147Y167636D01*
X11164Y167582D01*
X11171Y167526D01*
X11209Y167430D01*
X11238Y167331D01*
X11267Y167282D01*
X11288Y167230D01*
X11348Y167147D01*
X11401Y167058D01*
X11441Y167018D01*
X11474Y166973D01*
X11554Y166907D01*
X11627Y166834D01*
X11676Y166806D01*
X11719Y166770D01*
X11813Y166726D01*
X11902Y166674D01*
X11956Y166658D01*
X12007Y166634D01*
X12108Y166615D01*
X12208Y166587D01*
X12264Y166585D01*
X12320Y166574D01*
X12422Y166581D01*
X12525Y166578D01*
X12581Y166591D01*
X12637Y166594D01*
X12735Y166626D01*
X12836Y166649D01*
X12919Y166686D01*
X12939Y166692D01*
X12952Y166700D01*
X12983Y166714D01*
X13163Y166807D01*
X13201Y166833D01*
X13242Y166851D01*
X13374Y166944D01*
X13712Y167215D01*
X13723Y167218D01*
X13749Y167219D01*
X13875Y167260D01*
X14004Y167295D01*
X14027Y167308D01*
X14052Y167316D01*
X14164Y167386D01*
X14280Y167452D01*
X14299Y167471D01*
X14321Y167485D01*
X14412Y167580D01*
X14844Y167704D01*
X14886Y167722D01*
X14931Y167732D01*
X15078Y167797D01*
X15462Y167995D01*
X15474Y167996D01*
X15500Y167993D01*
X15632Y168007D01*
X15765Y168016D01*
X15790Y168025D01*
X15816Y168027D01*
X15940Y168074D01*
X16067Y168116D01*
X16089Y168130D01*
X16113Y168140D01*
X16221Y168216D01*
X16669Y168251D01*
X16714Y168261D01*
X16759Y168262D01*
X16917Y168296D01*
X17377Y168428D01*
X17426Y168415D01*
X17575Y168405D01*
X17581Y168405D01*
X17583Y168405D01*
X17587Y168405D01*
X18547Y168405D01*
X18569Y168407D01*
X18648Y168409D01*
X19352Y168465D01*
X19451Y168431D01*
X19500Y168427D01*
X19547Y168415D01*
X19708Y168405D01*
X41612Y168405D01*
X41661Y168411D01*
X41709Y168408D01*
X41818Y168431D01*
X41928Y168445D01*
X41973Y168463D01*
X41980Y168464D01*
X42672Y168409D01*
X42694Y168410D01*
X42773Y168405D01*
X43733Y168405D01*
X43815Y168415D01*
X43897Y168415D01*
X43943Y168427D01*
X44403Y168296D01*
X44449Y168289D01*
X44492Y168274D01*
X44651Y168251D01*
X45083Y168217D01*
X45093Y168212D01*
X45113Y168195D01*
X45233Y168137D01*
X45350Y168075D01*
X45376Y168069D01*
X45400Y168057D01*
X45530Y168031D01*
X45659Y168000D01*
X45686Y168001D01*
X45712Y167995D01*
X45843Y168003D01*
X46242Y167797D01*
X46285Y167781D01*
X46325Y167758D01*
X46476Y167704D01*
X46892Y167585D01*
X46901Y167578D01*
X46918Y167557D01*
X47024Y167477D01*
X47127Y167393D01*
X47150Y167382D01*
X47172Y167366D01*
X47294Y167315D01*
X47415Y167259D01*
X47441Y167254D01*
X47465Y167244D01*
X47596Y167225D01*
X47946Y166944D01*
X47985Y166920D01*
X48019Y166890D01*
X48157Y166807D01*
X48542Y166608D01*
X48549Y166599D01*
X48561Y166576D01*
X48649Y166476D01*
X48733Y166373D01*
X48754Y166358D01*
X48772Y166338D01*
X48882Y166264D01*
X48989Y166185D01*
X49014Y166175D01*
X49036Y166160D01*
X49160Y166116D01*
X49448Y165772D01*
X49481Y165740D01*
X49509Y165704D01*
X49628Y165595D01*
X49965Y165325D01*
X49971Y165315D01*
X49978Y165289D01*
X50045Y165174D01*
X50107Y165057D01*
X50125Y165037D01*
X50138Y165014D01*
X50231Y164920D01*
X50321Y164821D01*
X50343Y164807D01*
X50361Y164788D01*
X50474Y164720D01*
X50688Y164326D01*
X50715Y164288D01*
X50735Y164247D01*
X50830Y164117D01*
X51107Y163785D01*
X51111Y163774D01*
X51113Y163748D01*
X51155Y163622D01*
X51193Y163494D01*
X51207Y163472D01*
X51215Y163447D01*
X51288Y163336D01*
X51356Y163221D01*
X51375Y163203D01*
X51390Y163181D01*
X51487Y163092D01*
X51619Y162663D01*
X51638Y162621D01*
X51649Y162577D01*
X51717Y162431D01*
X51923Y162050D01*
X51924Y162039D01*
X51921Y162013D01*
X51938Y161881D01*
X51950Y161748D01*
X51958Y161724D01*
X51962Y161698D01*
X52011Y161574D01*
X52056Y161449D01*
X52070Y161427D01*
X52080Y161402D01*
X52158Y161296D01*
X52203Y160849D01*
X52213Y160805D01*
X52215Y160759D01*
X52252Y160602D01*
X52380Y160189D01*
X52378Y160177D01*
X52370Y160152D01*
X52361Y160019D01*
X52346Y159888D01*
X52350Y159861D01*
X52348Y159835D01*
X52372Y159704D01*
X52391Y159573D01*
X52401Y159548D01*
X52406Y159522D01*
X52461Y159402D01*
X52417Y158956D01*
X52418Y158910D01*
X52411Y158865D01*
X52417Y158704D01*
X52460Y158274D01*
X52456Y158263D01*
X52443Y158240D01*
X52408Y158111D01*
X52367Y157985D01*
X52366Y157958D01*
X52359Y157933D01*
X52357Y157800D01*
X52349Y157667D01*
X52354Y157641D01*
X52354Y157615D01*
X52384Y157487D01*
X52252Y157058D01*
X52245Y157013D01*
X52229Y156970D01*
X52203Y156811D01*
X52160Y156380D01*
X52154Y156370D01*
X52137Y156350D01*
X52077Y156232D01*
X52012Y156115D01*
X52006Y156090D01*
X51994Y156066D01*
X51965Y155937D01*
X51932Y155808D01*
X51931Y155781D01*
X51926Y155756D01*
X51931Y155624D01*
X51717Y155229D01*
X51700Y155187D01*
X51676Y155148D01*
X51619Y154997D01*
X51492Y154583D01*
X51484Y154575D01*
X51463Y154559D01*
X51381Y154454D01*
X51295Y154353D01*
X51283Y154329D01*
X51267Y154309D01*
X51214Y154187D01*
X51155Y154068D01*
X51150Y154042D01*
X51139Y154017D01*
X51118Y153887D01*
X50830Y153543D01*
X50805Y153504D01*
X50774Y153471D01*
X50688Y153334D01*
X50482Y152954D01*
X50473Y152947D01*
X50449Y152935D01*
X50348Y152849D01*
X50244Y152767D01*
X50228Y152746D01*
X50207Y152729D01*
X50131Y152620D01*
X50050Y152515D01*
X50040Y152491D01*
X50024Y152469D01*
X49978Y152345D01*
X49628Y152065D01*
X49596Y152032D01*
X49558Y152005D01*
X49448Y151888D01*
X49170Y151556D01*
X49160Y151551D01*
X49134Y151544D01*
X49018Y151480D01*
X48900Y151420D01*
X48880Y151403D01*
X48857Y151390D01*
X48760Y151299D01*
X48660Y151211D01*
X48645Y151189D01*
X48626Y151171D01*
X48556Y151059D01*
X48157Y150853D01*
X48119Y150827D01*
X48078Y150809D01*
X47946Y150716D01*
X47608Y150445D01*
X47597Y150442D01*
X47571Y150441D01*
X47445Y150400D01*
X47316Y150365D01*
X47293Y150352D01*
X47268Y150344D01*
X47156Y150274D01*
X47040Y150208D01*
X47021Y150189D01*
X46999Y150175D01*
X46908Y150080D01*
X46476Y149956D01*
X46434Y149938D01*
X46389Y149928D01*
X46242Y149863D01*
X45858Y149665D01*
X45846Y149664D01*
X45820Y149668D01*
X45688Y149653D01*
X45555Y149644D01*
X45530Y149636D01*
X45504Y149633D01*
X45380Y149586D01*
X45253Y149544D01*
X45231Y149530D01*
X45206Y149520D01*
X45099Y149444D01*
X44651Y149409D01*
X44606Y149399D01*
X44561Y149398D01*
X44403Y149364D01*
X43943Y149232D01*
X43894Y149245D01*
X43745Y149255D01*
X43739Y149255D01*
X43737Y149255D01*
X43733Y149255D01*
X42773Y149255D01*
X42751Y149253D01*
X42672Y149251D01*
X41968Y149195D01*
X41869Y149229D01*
X41820Y149233D01*
X41773Y149245D01*
X41612Y149255D01*
X19708Y149255D01*
X19659Y149249D01*
X19611Y149252D01*
X19502Y149229D01*
X19392Y149215D01*
X19347Y149197D01*
X19340Y149196D01*
X18648Y149251D01*
X18626Y149250D01*
X18547Y149255D01*
X17587Y149255D01*
X17505Y149245D01*
X17423Y149245D01*
X17377Y149233D01*
X16917Y149364D01*
X16871Y149371D01*
X16828Y149386D01*
X16669Y149409D01*
X16237Y149443D01*
X16227Y149448D01*
X16207Y149465D01*
X16087Y149523D01*
X15970Y149585D01*
X15944Y149591D01*
X15920Y149603D01*
X15790Y149629D01*
X15661Y149660D01*
X15634Y149659D01*
X15608Y149665D01*
X15477Y149657D01*
X15078Y149863D01*
X15035Y149879D01*
X14995Y149902D01*
X14844Y149956D01*
X14428Y150075D01*
X14419Y150082D01*
X14402Y150103D01*
X14296Y150183D01*
X14193Y150267D01*
X14170Y150278D01*
X14148Y150294D01*
X14026Y150345D01*
X13905Y150401D01*
X13879Y150406D01*
X13855Y150416D01*
X13724Y150435D01*
X13374Y150716D01*
X13335Y150740D01*
X13301Y150771D01*
X13163Y150853D01*
X12983Y150946D01*
X12886Y150982D01*
X12793Y151026D01*
X12737Y151036D01*
X12684Y151056D01*
X12582Y151066D01*
X12481Y151086D01*
X12424Y151082D01*
X12368Y151088D01*
X12266Y151072D01*
X12163Y151066D01*
X12109Y151048D01*
X12053Y151040D01*
X11958Y150999D01*
X11861Y150968D01*
X11813Y150938D01*
X11761Y150915D01*
X11679Y150853D01*
X11592Y150798D01*
X11553Y150756D01*
X11508Y150722D01*
X11445Y150641D01*
X11374Y150566D01*
X11347Y150516D01*
X11312Y150472D01*
X11270Y150378D01*
X11220Y150287D01*
X11206Y150233D01*
X11184Y150181D01*
X11167Y150079D01*
X11141Y149980D01*
X11135Y149888D01*
X11132Y149867D01*
X11133Y149853D01*
X11131Y149819D01*
X11131Y50841D01*
X11144Y50739D01*
X11147Y50636D01*
X11164Y50582D01*
X11171Y50526D01*
X11208Y50430D01*
X11238Y50331D01*
X11267Y50282D01*
X11288Y50230D01*
X11348Y50147D01*
X11401Y50058D01*
X11441Y50018D01*
X11474Y49973D01*
X11554Y49907D01*
X11627Y49834D01*
X11676Y49806D01*
X11719Y49770D01*
X11813Y49726D01*
X11902Y49674D01*
X11956Y49658D01*
X12007Y49634D01*
X12108Y49615D01*
X12207Y49587D01*
X12264Y49585D01*
X12320Y49574D01*
X12422Y49581D01*
X12525Y49578D01*
X12581Y49591D01*
X12637Y49594D01*
X12735Y49626D01*
X12835Y49649D01*
X12919Y49686D01*
X12939Y49692D01*
X12951Y49700D01*
X12983Y49714D01*
X13163Y49807D01*
X13201Y49833D01*
X13242Y49851D01*
X13374Y49944D01*
X13712Y50215D01*
X13723Y50218D01*
X13749Y50219D01*
X13875Y50260D01*
X14004Y50295D01*
X14027Y50308D01*
X14052Y50316D01*
X14164Y50386D01*
X14280Y50452D01*
X14299Y50471D01*
X14321Y50485D01*
X14412Y50580D01*
X14844Y50704D01*
X14886Y50722D01*
X14931Y50732D01*
X15078Y50797D01*
X15462Y50995D01*
X15474Y50996D01*
X15500Y50992D01*
X15632Y51007D01*
X15765Y51016D01*
X15790Y51024D01*
X15816Y51027D01*
X15940Y51074D01*
X16067Y51116D01*
X16089Y51130D01*
X16114Y51140D01*
X16221Y51216D01*
X16669Y51251D01*
X16714Y51261D01*
X16759Y51262D01*
X16917Y51296D01*
X17377Y51428D01*
X17426Y51415D01*
X17575Y51405D01*
X17581Y51405D01*
X17583Y51405D01*
X17587Y51405D01*
X18547Y51405D01*
X18569Y51407D01*
X18648Y51409D01*
X19352Y51465D01*
X19451Y51431D01*
X19500Y51427D01*
X19547Y51415D01*
X19708Y51405D01*
X26567Y51405D01*
X26705Y51422D01*
X26843Y51435D01*
X26862Y51442D01*
X26883Y51445D01*
X27012Y51496D01*
X27143Y51543D01*
X27159Y51554D01*
X27178Y51562D01*
X27291Y51643D01*
X27406Y51721D01*
X27419Y51737D01*
X27436Y51748D01*
X27524Y51856D01*
X27616Y51960D01*
X27625Y51978D01*
X27638Y51993D01*
X27697Y52119D01*
X27761Y52243D01*
X27765Y52263D01*
X27774Y52281D01*
X27800Y52417D01*
X27830Y52553D01*
X27830Y52574D01*
X27834Y52593D01*
X27825Y52732D01*
X27821Y52871D01*
X27815Y52891D01*
X27814Y52911D01*
X27771Y53043D01*
X27732Y53177D01*
X27722Y53194D01*
X27716Y53213D01*
X27642Y53331D01*
X27571Y53451D01*
X27552Y53472D01*
X27546Y53482D01*
X27531Y53496D01*
X27464Y53572D01*
X27036Y54000D01*
X26189Y56044D01*
X26189Y58256D01*
X27036Y60300D01*
X28600Y61864D01*
X30644Y62711D01*
X32856Y62711D01*
X34900Y61864D01*
X36464Y60300D01*
X37311Y58256D01*
X37311Y56044D01*
X36464Y54000D01*
X36036Y53572D01*
X35950Y53462D01*
X35862Y53355D01*
X35853Y53336D01*
X35841Y53320D01*
X35785Y53192D01*
X35726Y53067D01*
X35722Y53047D01*
X35714Y53028D01*
X35692Y52890D01*
X35666Y52754D01*
X35668Y52734D01*
X35664Y52714D01*
X35677Y52575D01*
X35686Y52437D01*
X35692Y52418D01*
X35694Y52398D01*
X35741Y52267D01*
X35784Y52135D01*
X35795Y52117D01*
X35802Y52098D01*
X35880Y51984D01*
X35954Y51866D01*
X35969Y51852D01*
X35980Y51835D01*
X36084Y51743D01*
X36186Y51648D01*
X36204Y51638D01*
X36219Y51625D01*
X36343Y51562D01*
X36464Y51494D01*
X36484Y51489D01*
X36502Y51480D01*
X36638Y51450D01*
X36772Y51415D01*
X36800Y51413D01*
X36812Y51410D01*
X36833Y51411D01*
X36933Y51405D01*
X41612Y51405D01*
X41661Y51411D01*
X41709Y51408D01*
X41818Y51431D01*
X41928Y51445D01*
X41973Y51463D01*
X41980Y51464D01*
X42672Y51409D01*
X42694Y51410D01*
X42773Y51405D01*
X43733Y51405D01*
X43815Y51415D01*
X43897Y51415D01*
X43943Y51427D01*
X44403Y51296D01*
X44449Y51289D01*
X44492Y51274D01*
X44651Y51251D01*
X45083Y51217D01*
X45093Y51212D01*
X45113Y51195D01*
X45233Y51137D01*
X45350Y51075D01*
X45376Y51069D01*
X45400Y51057D01*
X45530Y51031D01*
X45659Y51000D01*
X45686Y51001D01*
X45712Y50995D01*
X45843Y51003D01*
X46242Y50797D01*
X46285Y50781D01*
X46325Y50758D01*
X46349Y50749D01*
X46358Y50744D01*
X46375Y50740D01*
X46476Y50704D01*
X46892Y50585D01*
X46901Y50578D01*
X46918Y50557D01*
X47024Y50477D01*
X47127Y50393D01*
X47150Y50382D01*
X47172Y50366D01*
X47294Y50315D01*
X47415Y50259D01*
X47441Y50254D01*
X47465Y50244D01*
X47596Y50225D01*
X47946Y49944D01*
X47985Y49920D01*
X48019Y49889D01*
X48157Y49807D01*
X48542Y49608D01*
X48549Y49599D01*
X48561Y49576D01*
X48649Y49477D01*
X48733Y49373D01*
X48754Y49358D01*
X48772Y49338D01*
X48882Y49264D01*
X48989Y49185D01*
X49014Y49175D01*
X49036Y49160D01*
X49160Y49116D01*
X49448Y48772D01*
X49481Y48740D01*
X49509Y48704D01*
X49628Y48595D01*
X49965Y48324D01*
X49971Y48315D01*
X49978Y48289D01*
X50045Y48174D01*
X50107Y48057D01*
X50125Y48037D01*
X50138Y48014D01*
X50231Y47920D01*
X50321Y47821D01*
X50343Y47807D01*
X50361Y47788D01*
X50474Y47720D01*
X50688Y47326D01*
X50715Y47288D01*
X50735Y47247D01*
X50830Y47117D01*
X51107Y46785D01*
X51111Y46774D01*
X51113Y46748D01*
X51156Y46622D01*
X51193Y46494D01*
X51207Y46472D01*
X51215Y46447D01*
X51288Y46336D01*
X51356Y46221D01*
X51375Y46203D01*
X51390Y46181D01*
X51487Y46092D01*
X51619Y45663D01*
X51638Y45621D01*
X51649Y45577D01*
X51717Y45431D01*
X51923Y45050D01*
X51924Y45039D01*
X51921Y45013D01*
X51938Y44881D01*
X51950Y44749D01*
X51958Y44724D01*
X51962Y44697D01*
X52011Y44574D01*
X52056Y44449D01*
X52070Y44427D01*
X52080Y44402D01*
X52158Y44296D01*
X52203Y43849D01*
X52213Y43805D01*
X52215Y43759D01*
X52252Y43602D01*
X52380Y43189D01*
X52378Y43177D01*
X52370Y43152D01*
X52361Y43020D01*
X52346Y42887D01*
X52350Y42861D01*
X52348Y42835D01*
X52372Y42704D01*
X52391Y42573D01*
X52401Y42548D01*
X52406Y42522D01*
X52461Y42402D01*
X52417Y41956D01*
X52418Y41910D01*
X52411Y41865D01*
X52417Y41704D01*
X52460Y41273D01*
X52456Y41263D01*
X52443Y41240D01*
X52408Y41111D01*
X52367Y40985D01*
X52366Y40958D01*
X52359Y40933D01*
X52357Y40800D01*
X52349Y40667D01*
X52354Y40641D01*
X52354Y40615D01*
X52384Y40487D01*
X52252Y40058D01*
X52245Y40013D01*
X52229Y39970D01*
X52203Y39811D01*
X52160Y39380D01*
X52154Y39370D01*
X52137Y39350D01*
X52077Y39231D01*
X52012Y39115D01*
X52006Y39090D01*
X51994Y39066D01*
X51965Y38936D01*
X51932Y38808D01*
X51931Y38782D01*
X51926Y38756D01*
X51931Y38624D01*
X51717Y38229D01*
X51700Y38187D01*
X51676Y38148D01*
X51619Y37997D01*
X51492Y37583D01*
X51484Y37575D01*
X51463Y37559D01*
X51381Y37454D01*
X51295Y37353D01*
X51283Y37329D01*
X51267Y37309D01*
X51214Y37187D01*
X51155Y37068D01*
X51150Y37042D01*
X51139Y37017D01*
X51118Y36887D01*
X50830Y36543D01*
X50805Y36504D01*
X50774Y36471D01*
X50688Y36334D01*
X50482Y35954D01*
X50473Y35947D01*
X50449Y35935D01*
X50348Y35849D01*
X50244Y35767D01*
X50228Y35746D01*
X50207Y35729D01*
X50131Y35620D01*
X50050Y35515D01*
X50040Y35491D01*
X50024Y35469D01*
X49978Y35345D01*
X49628Y35065D01*
X49596Y35032D01*
X49559Y35005D01*
X49448Y34888D01*
X49170Y34556D01*
X49160Y34551D01*
X49135Y34545D01*
X49019Y34480D01*
X48900Y34420D01*
X48880Y34403D01*
X48857Y34390D01*
X48760Y34298D01*
X48660Y34211D01*
X48645Y34189D01*
X48626Y34171D01*
X48556Y34059D01*
X48157Y33853D01*
X48119Y33827D01*
X48078Y33809D01*
X47946Y33716D01*
X47608Y33445D01*
X47597Y33442D01*
X47571Y33441D01*
X47445Y33400D01*
X47316Y33365D01*
X47293Y33352D01*
X47268Y33344D01*
X47156Y33274D01*
X47040Y33208D01*
X47021Y33189D01*
X46999Y33175D01*
X46908Y33080D01*
X46476Y32956D01*
X46434Y32938D01*
X46389Y32928D01*
X46242Y32863D01*
X45858Y32665D01*
X45846Y32664D01*
X45820Y32667D01*
X45688Y32653D01*
X45555Y32644D01*
X45530Y32635D01*
X45504Y32633D01*
X45380Y32586D01*
X45253Y32544D01*
X45231Y32530D01*
X45207Y32520D01*
X45099Y32444D01*
X44651Y32409D01*
X44606Y32399D01*
X44561Y32398D01*
X44403Y32364D01*
X43943Y32232D01*
X43894Y32245D01*
X43745Y32255D01*
X43739Y32255D01*
X43737Y32255D01*
X43733Y32255D01*
X42773Y32255D01*
X42751Y32253D01*
X42672Y32251D01*
X41968Y32195D01*
X41869Y32229D01*
X41820Y32233D01*
X41773Y32245D01*
X41612Y32255D01*
X19708Y32255D01*
X19659Y32249D01*
X19611Y32252D01*
X19502Y32229D01*
X19392Y32215D01*
X19347Y32197D01*
X19340Y32196D01*
X18648Y32251D01*
X18626Y32250D01*
X18547Y32255D01*
X17587Y32255D01*
X17505Y32245D01*
X17423Y32245D01*
X17377Y32233D01*
X16917Y32364D01*
X16871Y32371D01*
X16828Y32386D01*
X16669Y32409D01*
X16237Y32443D01*
X16227Y32448D01*
X16207Y32465D01*
X16087Y32523D01*
X15970Y32585D01*
X15944Y32591D01*
X15920Y32603D01*
X15790Y32629D01*
X15661Y32660D01*
X15634Y32659D01*
X15608Y32665D01*
X15477Y32657D01*
X15078Y32863D01*
X15035Y32879D01*
X14995Y32902D01*
X14844Y32956D01*
X14428Y33075D01*
X14419Y33082D01*
X14402Y33103D01*
X14296Y33183D01*
X14193Y33267D01*
X14170Y33278D01*
X14148Y33294D01*
X14026Y33345D01*
X13905Y33401D01*
X13879Y33406D01*
X13855Y33416D01*
X13724Y33435D01*
X13374Y33716D01*
X13335Y33740D01*
X13301Y33770D01*
X13163Y33853D01*
X12983Y33946D01*
X12886Y33982D01*
X12793Y34026D01*
X12738Y34036D01*
X12684Y34056D01*
X12582Y34066D01*
X12481Y34086D01*
X12424Y34082D01*
X12368Y34088D01*
X12266Y34072D01*
X12163Y34066D01*
X12109Y34048D01*
X12054Y34040D01*
X11959Y34000D01*
X11861Y33968D01*
X11813Y33938D01*
X11761Y33915D01*
X11679Y33853D01*
X11592Y33798D01*
X11553Y33756D01*
X11508Y33722D01*
X11445Y33641D01*
X11374Y33566D01*
X11347Y33516D01*
X11312Y33472D01*
X11270Y33378D01*
X11220Y33287D01*
X11206Y33233D01*
X11184Y33181D01*
X11167Y33079D01*
X11141Y32980D01*
X11135Y32888D01*
X11132Y32867D01*
X11133Y32853D01*
X11131Y32819D01*
X11131Y7500D01*
X11146Y7382D01*
X11153Y7263D01*
X11166Y7225D01*
X11171Y7184D01*
X11214Y7074D01*
X11251Y6961D01*
X11273Y6926D01*
X11288Y6889D01*
X11358Y6793D01*
X11421Y6692D01*
X11451Y6664D01*
X11474Y6631D01*
X11566Y6556D01*
X11653Y6474D01*
X11688Y6454D01*
X11719Y6429D01*
X11827Y6378D01*
X11931Y6320D01*
X11971Y6310D01*
X12007Y6293D01*
X12124Y6271D01*
X12239Y6241D01*
X12300Y6237D01*
X12320Y6233D01*
X12340Y6235D01*
X12400Y6231D01*
X21750Y6231D01*
X21889Y6248D01*
G37*
%LPC*%
G36*
X189093Y85739D02*
X189093Y85739D01*
X187233Y86510D01*
X185810Y87933D01*
X185039Y89793D01*
X185039Y91807D01*
X185078Y91901D01*
X185086Y91930D01*
X185100Y91956D01*
X185128Y92083D01*
X185162Y92208D01*
X185163Y92237D01*
X185169Y92266D01*
X185165Y92396D01*
X185167Y92526D01*
X185161Y92555D01*
X185160Y92584D01*
X185124Y92709D01*
X185093Y92835D01*
X185079Y92861D01*
X185071Y92890D01*
X185005Y93002D01*
X184945Y93116D01*
X184925Y93138D01*
X184910Y93164D01*
X184803Y93284D01*
X183554Y94534D01*
X183476Y94594D01*
X183404Y94662D01*
X183351Y94691D01*
X183303Y94728D01*
X183212Y94768D01*
X183125Y94816D01*
X183067Y94831D01*
X183011Y94855D01*
X182913Y94870D01*
X182817Y94895D01*
X182717Y94901D01*
X182697Y94905D01*
X182685Y94903D01*
X182657Y94905D01*
X153161Y94905D01*
X153132Y94902D01*
X153102Y94904D01*
X152974Y94882D01*
X152845Y94865D01*
X152818Y94855D01*
X152789Y94850D01*
X152670Y94796D01*
X152550Y94748D01*
X152526Y94731D01*
X152499Y94719D01*
X152398Y94638D01*
X152292Y94562D01*
X152274Y94539D01*
X152251Y94520D01*
X152172Y94417D01*
X152090Y94317D01*
X152077Y94290D01*
X152059Y94266D01*
X151988Y94122D01*
X151290Y92436D01*
X149867Y91013D01*
X148007Y90242D01*
X145993Y90242D01*
X144133Y91013D01*
X142710Y92436D01*
X141939Y94296D01*
X141939Y96310D01*
X142710Y98170D01*
X143843Y99302D01*
X143916Y99397D01*
X143994Y99486D01*
X144013Y99522D01*
X144037Y99554D01*
X144085Y99663D01*
X144139Y99769D01*
X144148Y99808D01*
X144164Y99846D01*
X144183Y99963D01*
X144209Y100079D01*
X144207Y100120D01*
X144214Y100160D01*
X144203Y100278D01*
X144199Y100397D01*
X144188Y100436D01*
X144184Y100476D01*
X144144Y100589D01*
X144111Y100703D01*
X144090Y100737D01*
X144076Y100776D01*
X144009Y100874D01*
X143949Y100977D01*
X143909Y101022D01*
X143898Y101039D01*
X143882Y101052D01*
X143843Y101097D01*
X142710Y102230D01*
X141939Y104090D01*
X141939Y106104D01*
X142710Y107964D01*
X144133Y109387D01*
X145993Y110158D01*
X148007Y110158D01*
X149867Y109387D01*
X151290Y107964D01*
X151988Y106278D01*
X152003Y106253D01*
X152012Y106225D01*
X152082Y106115D01*
X152146Y106002D01*
X152166Y105981D01*
X152182Y105956D01*
X152277Y105867D01*
X152367Y105774D01*
X152392Y105758D01*
X152414Y105738D01*
X152528Y105675D01*
X152638Y105607D01*
X152667Y105599D01*
X152692Y105584D01*
X152818Y105552D01*
X152942Y105514D01*
X152972Y105512D01*
X153000Y105505D01*
X153161Y105495D01*
X188392Y105495D01*
X188401Y105496D01*
X188410Y105495D01*
X188559Y105516D01*
X188707Y105535D01*
X188716Y105538D01*
X188725Y105539D01*
X188877Y105591D01*
X190493Y106261D01*
X192507Y106261D01*
X194367Y105490D01*
X195790Y104067D01*
X196561Y102207D01*
X196561Y100193D01*
X195790Y98333D01*
X194367Y96910D01*
X193845Y96694D01*
X193802Y96669D01*
X193755Y96652D01*
X193664Y96591D01*
X193569Y96536D01*
X193533Y96502D01*
X193492Y96474D01*
X193419Y96391D01*
X193340Y96315D01*
X193315Y96273D01*
X193282Y96235D01*
X193232Y96137D01*
X193174Y96044D01*
X193160Y95996D01*
X193137Y95952D01*
X193113Y95845D01*
X193081Y95740D01*
X193078Y95690D01*
X193067Y95642D01*
X193071Y95532D01*
X193065Y95422D01*
X193076Y95373D01*
X193077Y95324D01*
X193108Y95218D01*
X193130Y95111D01*
X193152Y95066D01*
X193165Y95018D01*
X193221Y94924D01*
X193269Y94825D01*
X193302Y94787D01*
X193327Y94744D01*
X193433Y94624D01*
X194390Y93667D01*
X195161Y91807D01*
X195161Y89793D01*
X194390Y87933D01*
X192967Y86510D01*
X191107Y85739D01*
X189093Y85739D01*
G37*
%LPD*%
G36*
X42662Y150783D02*
X42662Y150783D01*
X42664Y150781D01*
X44247Y150907D01*
X44253Y150912D01*
X44257Y150909D01*
X45784Y151345D01*
X45789Y151351D01*
X45794Y151349D01*
X47205Y152078D01*
X47208Y152085D01*
X47213Y152083D01*
X48452Y153077D01*
X48454Y153084D01*
X48459Y153084D01*
X49477Y154303D01*
X49478Y154311D01*
X49483Y154311D01*
X50240Y155708D01*
X50239Y155715D01*
X50244Y155717D01*
X50252Y155742D01*
X50418Y156283D01*
X50615Y156924D01*
X50711Y157235D01*
X50708Y157242D01*
X50713Y157244D01*
X50871Y158825D01*
X50867Y158831D01*
X50871Y158835D01*
X50713Y160416D01*
X50708Y160421D01*
X50711Y160425D01*
X50244Y161943D01*
X50238Y161948D01*
X50240Y161953D01*
X49483Y163349D01*
X49476Y163352D01*
X49477Y163357D01*
X48459Y164576D01*
X48452Y164578D01*
X48452Y164583D01*
X47213Y165577D01*
X47205Y165577D01*
X47205Y165582D01*
X45794Y166311D01*
X45786Y166310D01*
X45784Y166315D01*
X44257Y166751D01*
X44250Y166749D01*
X44247Y166753D01*
X42664Y166879D01*
X42661Y166877D01*
X42660Y166879D01*
X18660Y166879D01*
X18658Y166877D01*
X18656Y166879D01*
X17073Y166753D01*
X17067Y166748D01*
X17063Y166751D01*
X15536Y166315D01*
X15531Y166309D01*
X15527Y166311D01*
X14115Y165582D01*
X14112Y165575D01*
X14107Y165577D01*
X12868Y164583D01*
X12866Y164576D01*
X12861Y164576D01*
X11843Y163357D01*
X11842Y163350D01*
X11837Y163349D01*
X11080Y161953D01*
X11081Y161945D01*
X11076Y161943D01*
X10919Y161432D01*
X10888Y161334D01*
X10722Y160792D01*
X10692Y160693D01*
X10691Y160693D01*
X10609Y160425D01*
X10612Y160418D01*
X10607Y160416D01*
X10449Y158835D01*
X10453Y158829D01*
X10449Y158825D01*
X10607Y157244D01*
X10612Y157239D01*
X10609Y157235D01*
X11076Y155717D01*
X11082Y155712D01*
X11080Y155708D01*
X11837Y154311D01*
X11844Y154308D01*
X11843Y154303D01*
X12861Y153084D01*
X12868Y153083D01*
X12868Y153077D01*
X14107Y152083D01*
X14115Y152083D01*
X14115Y152078D01*
X15527Y151349D01*
X15534Y151350D01*
X15536Y151345D01*
X17063Y150909D01*
X17070Y150911D01*
X17073Y150907D01*
X18656Y150781D01*
X18659Y150783D01*
X18660Y150781D01*
X42660Y150781D01*
X42662Y150783D01*
G37*
G36*
X42662Y33783D02*
X42662Y33783D01*
X42664Y33781D01*
X44247Y33907D01*
X44253Y33912D01*
X44257Y33909D01*
X45784Y34345D01*
X45789Y34351D01*
X45794Y34349D01*
X47205Y35078D01*
X47208Y35085D01*
X47213Y35083D01*
X48452Y36077D01*
X48454Y36084D01*
X48459Y36084D01*
X49477Y37303D01*
X49478Y37311D01*
X49483Y37311D01*
X50240Y38708D01*
X50239Y38715D01*
X50244Y38717D01*
X50711Y40235D01*
X50708Y40242D01*
X50713Y40244D01*
X50871Y41825D01*
X50867Y41831D01*
X50871Y41835D01*
X50713Y43416D01*
X50708Y43421D01*
X50711Y43425D01*
X50244Y44943D01*
X50238Y44948D01*
X50240Y44953D01*
X49483Y46349D01*
X49476Y46352D01*
X49477Y46357D01*
X48459Y47576D01*
X48452Y47578D01*
X48452Y47583D01*
X47213Y48577D01*
X47205Y48577D01*
X47205Y48582D01*
X45794Y49311D01*
X45786Y49310D01*
X45784Y49315D01*
X44257Y49751D01*
X44250Y49749D01*
X44247Y49753D01*
X42664Y49879D01*
X42661Y49877D01*
X42660Y49879D01*
X18660Y49879D01*
X18658Y49877D01*
X18656Y49879D01*
X17073Y49753D01*
X17067Y49748D01*
X17063Y49751D01*
X15536Y49315D01*
X15531Y49309D01*
X15527Y49311D01*
X14115Y48582D01*
X14112Y48575D01*
X14107Y48577D01*
X12868Y47583D01*
X12866Y47576D01*
X12861Y47576D01*
X11843Y46357D01*
X11842Y46350D01*
X11837Y46349D01*
X11080Y44953D01*
X11081Y44945D01*
X11076Y44943D01*
X10609Y43425D01*
X10612Y43418D01*
X10607Y43416D01*
X10449Y41835D01*
X10453Y41829D01*
X10449Y41825D01*
X10607Y40244D01*
X10612Y40239D01*
X10609Y40235D01*
X11076Y38717D01*
X11082Y38712D01*
X11080Y38708D01*
X11837Y37311D01*
X11844Y37308D01*
X11843Y37303D01*
X12861Y36084D01*
X12868Y36083D01*
X12868Y36077D01*
X14107Y35083D01*
X14115Y35083D01*
X14115Y35078D01*
X15527Y34349D01*
X15534Y34350D01*
X15536Y34345D01*
X17063Y33909D01*
X17070Y33911D01*
X17073Y33907D01*
X18656Y33781D01*
X18659Y33783D01*
X18660Y33781D01*
X42660Y33781D01*
X42662Y33783D01*
G37*
%LPC*%
G36*
X287603Y126835D02*
X287603Y126835D01*
X285995Y127501D01*
X284548Y128468D01*
X283318Y129698D01*
X282351Y131145D01*
X281685Y132753D01*
X281527Y133546D01*
X281522Y133560D01*
X281521Y133575D01*
X281472Y133710D01*
X281426Y133848D01*
X281418Y133860D01*
X281413Y133874D01*
X281332Y133993D01*
X281254Y134115D01*
X281243Y134125D01*
X281235Y134137D01*
X281127Y134232D01*
X281021Y134331D01*
X281007Y134338D01*
X280996Y134348D01*
X280868Y134413D01*
X280741Y134482D01*
X280726Y134485D01*
X280713Y134492D01*
X280573Y134524D01*
X280432Y134559D01*
X280417Y134559D01*
X280403Y134562D01*
X280259Y134557D01*
X280114Y134556D01*
X280100Y134553D01*
X280085Y134552D01*
X279947Y134512D01*
X279807Y134475D01*
X279794Y134468D01*
X279779Y134464D01*
X279655Y134390D01*
X279529Y134320D01*
X279518Y134310D01*
X279505Y134302D01*
X279385Y134196D01*
X279321Y134132D01*
X276634Y133019D01*
X273726Y133019D01*
X271039Y134132D01*
X268982Y136189D01*
X267869Y138876D01*
X267869Y141784D01*
X268982Y144471D01*
X271039Y146528D01*
X273726Y147641D01*
X276634Y147641D01*
X279321Y146528D01*
X281378Y144471D01*
X282247Y142373D01*
X282271Y142330D01*
X282288Y142283D01*
X282350Y142192D01*
X282404Y142097D01*
X282439Y142061D01*
X282467Y142020D01*
X282549Y141947D01*
X282626Y141868D01*
X282668Y141842D01*
X282705Y141809D01*
X282803Y141759D01*
X282897Y141702D01*
X282944Y141687D01*
X282989Y141665D01*
X283096Y141641D01*
X283201Y141608D01*
X283250Y141606D01*
X283299Y141595D01*
X283408Y141598D01*
X283518Y141593D01*
X283567Y141603D01*
X283617Y141605D01*
X283722Y141635D01*
X283830Y141658D01*
X283875Y141679D01*
X283922Y141693D01*
X284017Y141749D01*
X284116Y141797D01*
X284153Y141830D01*
X284196Y141855D01*
X284317Y141961D01*
X284548Y142192D01*
X285995Y143159D01*
X287603Y143825D01*
X288431Y143990D01*
X288431Y135810D01*
X288446Y135692D01*
X288453Y135573D01*
X288465Y135535D01*
X288471Y135495D01*
X288514Y135384D01*
X288530Y135336D01*
X288520Y135318D01*
X288510Y135279D01*
X288493Y135243D01*
X288471Y135126D01*
X288441Y135010D01*
X288437Y134950D01*
X288433Y134930D01*
X288435Y134910D01*
X288431Y134850D01*
X288431Y126670D01*
X287603Y126835D01*
G37*
%LPD*%
%LPC*%
G36*
X28960Y114281D02*
X28960Y114281D01*
X25818Y115583D01*
X23413Y117988D01*
X22111Y121130D01*
X22111Y124530D01*
X23413Y127672D01*
X25818Y130077D01*
X28960Y131379D01*
X32360Y131379D01*
X35502Y130077D01*
X37907Y127672D01*
X39209Y124530D01*
X39209Y121130D01*
X37907Y117988D01*
X35502Y115583D01*
X32360Y114281D01*
X28960Y114281D01*
G37*
%LPD*%
%LPC*%
G36*
X28960Y69281D02*
X28960Y69281D01*
X25818Y70583D01*
X23413Y72988D01*
X22111Y76130D01*
X22111Y79530D01*
X23413Y82672D01*
X25818Y85077D01*
X28960Y86379D01*
X32360Y86379D01*
X35502Y85077D01*
X37907Y82672D01*
X39209Y79530D01*
X39209Y76130D01*
X37907Y72988D01*
X35502Y70583D01*
X32360Y69281D01*
X28960Y69281D01*
G37*
%LPD*%
%LPC*%
G36*
X39293Y94939D02*
X39293Y94939D01*
X37433Y95710D01*
X36010Y97133D01*
X35239Y98993D01*
X35239Y101007D01*
X36010Y102867D01*
X37433Y104290D01*
X39293Y105061D01*
X41307Y105061D01*
X43167Y104290D01*
X44590Y102867D01*
X45361Y101007D01*
X45361Y98993D01*
X44590Y97133D01*
X43167Y95710D01*
X41307Y94939D01*
X39293Y94939D01*
G37*
%LPD*%
%LPC*%
G36*
X70693Y39239D02*
X70693Y39239D01*
X68833Y40010D01*
X67410Y41433D01*
X66639Y43293D01*
X66639Y45307D01*
X67410Y47167D01*
X68833Y48590D01*
X70693Y49361D01*
X72707Y49361D01*
X74567Y48590D01*
X75990Y47167D01*
X76761Y45307D01*
X76761Y43293D01*
X75990Y41433D01*
X74567Y40010D01*
X72707Y39239D01*
X70693Y39239D01*
G37*
%LPD*%
D10*
X38160Y158830D02*
X23160Y158830D01*
X23160Y41830D02*
X38160Y41830D01*
D11*
X290180Y65330D03*
X290180Y90330D03*
X290180Y110330D03*
X290180Y135330D03*
X275180Y140330D03*
X275180Y120330D03*
X275180Y100330D03*
X275180Y80330D03*
X275180Y60330D03*
D12*
X291780Y21830D02*
X307180Y21830D01*
X307180Y178830D02*
X291780Y178830D01*
D13*
X361130Y21830D02*
X373830Y21830D01*
X373830Y178830D02*
X361130Y178830D01*
D14*
X267700Y90000D02*
X260300Y97400D01*
X244236Y97400D01*
X238700Y91864D01*
X238700Y71764D01*
X223436Y56500D01*
X194100Y56500D01*
X190800Y59800D01*
X190800Y68865D01*
D15*
X190800Y68865D03*
D14*
X267700Y90000D02*
X289850Y90000D01*
D16*
X290180Y90330D01*
D15*
X190100Y90800D03*
D14*
X190100Y91940D01*
X184340Y97700D01*
X147000Y97700D01*
X147000Y95303D01*
D15*
X147000Y95303D03*
D16*
X290020Y110490D02*
X290180Y110330D01*
D14*
X290020Y110490D02*
X267120Y110490D01*
X260300Y103670D01*
X243434Y103670D01*
X233700Y93936D01*
X233700Y73836D01*
X221364Y61500D01*
X200600Y61500D01*
X198100Y64000D01*
D15*
X198100Y64000D03*
X191500Y101200D03*
D14*
X191400Y101200D01*
X189900Y102700D01*
X148270Y102700D01*
X148270Y105097D02*
X147000Y105097D01*
X148270Y105097D02*
X148270Y102700D01*
D15*
X147000Y105097D03*
X71700Y44300D03*
D17*
X31750Y57150D03*
D15*
X40300Y100000D03*
D17*
X164465Y73025D03*
D14*
X290180Y135330D02*
X290180Y151320D01*
D16*
X290000Y151500D01*
D14*
X281700Y159800D01*
X218600Y159800D01*
X204200Y145400D01*
X204200Y88865D01*
D15*
X204200Y88865D03*
D17*
X40640Y130175D03*
D18*
X249200Y183875D02*
X261900Y183875D01*
X255550Y177525D02*
X255550Y190225D01*
X249200Y15875D02*
X261900Y15875D01*
X255550Y9525D02*
X255550Y22225D01*
X32900Y15875D02*
X20200Y15875D01*
X26550Y9525D02*
X26550Y22225D01*
M02*
