G04 EAGLE Gerber RS-274X export*
G75*
%MOMM*%
%FSLAX34Y34*%
%LPD*%
%INInner Copper Layer 4*%
%IPPOS*%
%AMOC8*
5,1,8,0,0,1.08239X$1,22.5*%
G01*
%ADD10C,1.500000*%
%ADD11C,1.157200*%
%ADD12C,1.540000*%
%ADD13C,1.270000*%
%ADD14C,0.707200*%
%ADD15C,0.807200*%

G36*
X42662Y150783D02*
X42662Y150783D01*
X42664Y150781D01*
X44247Y150907D01*
X44253Y150912D01*
X44257Y150909D01*
X45784Y151345D01*
X45789Y151351D01*
X45794Y151349D01*
X47205Y152078D01*
X47208Y152085D01*
X47213Y152083D01*
X48452Y153077D01*
X48454Y153084D01*
X48459Y153084D01*
X49477Y154303D01*
X49478Y154311D01*
X49483Y154311D01*
X50240Y155708D01*
X50239Y155715D01*
X50244Y155717D01*
X50252Y155742D01*
X50418Y156283D01*
X50615Y156924D01*
X50711Y157235D01*
X50708Y157242D01*
X50713Y157244D01*
X50871Y158825D01*
X50867Y158831D01*
X50871Y158835D01*
X50713Y160416D01*
X50708Y160421D01*
X50711Y160425D01*
X50244Y161943D01*
X50238Y161948D01*
X50240Y161953D01*
X49483Y163349D01*
X49476Y163352D01*
X49477Y163357D01*
X48459Y164576D01*
X48452Y164578D01*
X48452Y164583D01*
X47213Y165577D01*
X47205Y165577D01*
X47205Y165582D01*
X45794Y166311D01*
X45786Y166310D01*
X45784Y166315D01*
X44257Y166751D01*
X44250Y166749D01*
X44247Y166753D01*
X42664Y166879D01*
X42661Y166877D01*
X42660Y166879D01*
X18660Y166879D01*
X18658Y166877D01*
X18656Y166879D01*
X17073Y166753D01*
X17067Y166748D01*
X17063Y166751D01*
X15536Y166315D01*
X15531Y166309D01*
X15527Y166311D01*
X14115Y165582D01*
X14112Y165575D01*
X14107Y165577D01*
X12868Y164583D01*
X12866Y164576D01*
X12861Y164576D01*
X11843Y163357D01*
X11842Y163350D01*
X11837Y163349D01*
X11080Y161953D01*
X11081Y161945D01*
X11076Y161943D01*
X10919Y161432D01*
X10888Y161334D01*
X10722Y160792D01*
X10692Y160693D01*
X10691Y160693D01*
X10609Y160425D01*
X10612Y160418D01*
X10607Y160416D01*
X10449Y158835D01*
X10453Y158829D01*
X10449Y158825D01*
X10607Y157244D01*
X10612Y157239D01*
X10609Y157235D01*
X11076Y155717D01*
X11082Y155712D01*
X11080Y155708D01*
X11837Y154311D01*
X11844Y154308D01*
X11843Y154303D01*
X12861Y153084D01*
X12868Y153083D01*
X12868Y153077D01*
X14107Y152083D01*
X14115Y152083D01*
X14115Y152078D01*
X15527Y151349D01*
X15534Y151350D01*
X15536Y151345D01*
X17063Y150909D01*
X17070Y150911D01*
X17073Y150907D01*
X18656Y150781D01*
X18659Y150783D01*
X18660Y150781D01*
X42660Y150781D01*
X42662Y150783D01*
G37*
G36*
X42662Y33783D02*
X42662Y33783D01*
X42664Y33781D01*
X44247Y33907D01*
X44253Y33912D01*
X44257Y33909D01*
X45784Y34345D01*
X45789Y34351D01*
X45794Y34349D01*
X47205Y35078D01*
X47208Y35085D01*
X47213Y35083D01*
X48452Y36077D01*
X48454Y36084D01*
X48459Y36084D01*
X49477Y37303D01*
X49478Y37311D01*
X49483Y37311D01*
X50240Y38708D01*
X50239Y38715D01*
X50244Y38717D01*
X50711Y40235D01*
X50708Y40242D01*
X50713Y40244D01*
X50871Y41825D01*
X50867Y41831D01*
X50871Y41835D01*
X50713Y43416D01*
X50708Y43421D01*
X50711Y43425D01*
X50244Y44943D01*
X50238Y44948D01*
X50240Y44953D01*
X49483Y46349D01*
X49476Y46352D01*
X49477Y46357D01*
X48459Y47576D01*
X48452Y47578D01*
X48452Y47583D01*
X47213Y48577D01*
X47205Y48577D01*
X47205Y48582D01*
X45794Y49311D01*
X45786Y49310D01*
X45784Y49315D01*
X44257Y49751D01*
X44250Y49749D01*
X44247Y49753D01*
X42664Y49879D01*
X42661Y49877D01*
X42660Y49879D01*
X18660Y49879D01*
X18658Y49877D01*
X18656Y49879D01*
X17073Y49753D01*
X17067Y49748D01*
X17063Y49751D01*
X15536Y49315D01*
X15531Y49309D01*
X15527Y49311D01*
X14115Y48582D01*
X14112Y48575D01*
X14107Y48577D01*
X12868Y47583D01*
X12866Y47576D01*
X12861Y47576D01*
X11843Y46357D01*
X11842Y46350D01*
X11837Y46349D01*
X11080Y44953D01*
X11081Y44945D01*
X11076Y44943D01*
X10609Y43425D01*
X10612Y43418D01*
X10607Y43416D01*
X10449Y41835D01*
X10453Y41829D01*
X10449Y41825D01*
X10607Y40244D01*
X10612Y40239D01*
X10609Y40235D01*
X11076Y38717D01*
X11082Y38712D01*
X11080Y38708D01*
X11837Y37311D01*
X11844Y37308D01*
X11843Y37303D01*
X12861Y36084D01*
X12868Y36083D01*
X12868Y36077D01*
X14107Y35083D01*
X14115Y35083D01*
X14115Y35078D01*
X15527Y34349D01*
X15534Y34350D01*
X15536Y34345D01*
X17063Y33909D01*
X17070Y33911D01*
X17073Y33907D01*
X18656Y33781D01*
X18659Y33783D01*
X18660Y33781D01*
X42660Y33781D01*
X42662Y33783D01*
G37*
D10*
X30660Y158830D03*
X30660Y41830D03*
D11*
X290180Y65330D03*
X290180Y90330D03*
X290180Y110330D03*
X290180Y135330D03*
X275180Y140330D03*
X275180Y120330D03*
X275180Y100330D03*
X275180Y80330D03*
X275180Y60330D03*
D12*
X299480Y21830D03*
X299480Y178830D03*
D13*
X367480Y21830D03*
X367480Y178830D03*
D14*
X190800Y68865D03*
X190100Y90800D03*
X147000Y95303D03*
X198100Y64000D03*
X191500Y101200D03*
X147000Y105097D03*
X71700Y44300D03*
D15*
X31750Y57150D03*
D14*
X40300Y100000D03*
D15*
X164465Y73025D03*
D14*
X204200Y88865D03*
D15*
X40640Y130175D03*
M02*
