G04 EAGLE Gerber RS-274X export*
G75*
%MOMM*%
%FSLAX34Y34*%
%LPD*%
%INInner Copper Layer 1*%
%IPPOS*%
%AMOC8*
5,1,8,0,0,1.08239X$1,22.5*%
G01*
%ADD10C,1.500000*%
%ADD11C,1.157200*%
%ADD12C,1.540000*%
%ADD13C,1.270000*%
%ADD14C,0.707200*%
%ADD15C,0.807200*%
%ADD16C,0.304800*%
%ADD17C,0.152400*%

G36*
X389600Y5131D02*
X389600Y5131D01*
X389718Y5146D01*
X389837Y5153D01*
X389875Y5166D01*
X389916Y5171D01*
X390026Y5214D01*
X390139Y5251D01*
X390174Y5273D01*
X390211Y5288D01*
X390307Y5358D01*
X390408Y5421D01*
X390436Y5451D01*
X390469Y5474D01*
X390545Y5566D01*
X390626Y5653D01*
X390646Y5688D01*
X390671Y5719D01*
X390722Y5827D01*
X390780Y5931D01*
X390790Y5971D01*
X390807Y6007D01*
X390829Y6124D01*
X390859Y6239D01*
X390863Y6300D01*
X390867Y6320D01*
X390865Y6340D01*
X390869Y6400D01*
X390869Y26682D01*
X390854Y26800D01*
X390847Y26919D01*
X390834Y26957D01*
X390829Y26998D01*
X390786Y27108D01*
X390749Y27221D01*
X390727Y27256D01*
X390712Y27293D01*
X390643Y27389D01*
X390579Y27490D01*
X390549Y27518D01*
X390526Y27551D01*
X390434Y27627D01*
X390347Y27708D01*
X390312Y27728D01*
X390281Y27753D01*
X390173Y27804D01*
X390069Y27862D01*
X390029Y27872D01*
X389993Y27889D01*
X389876Y27911D01*
X389761Y27941D01*
X389701Y27945D01*
X389681Y27949D01*
X389660Y27947D01*
X389600Y27951D01*
X375368Y27951D01*
X375318Y27945D01*
X375269Y27947D01*
X375161Y27925D01*
X375052Y27911D01*
X375006Y27893D01*
X374957Y27883D01*
X374859Y27835D01*
X374756Y27794D01*
X374716Y27765D01*
X374672Y27743D01*
X374588Y27672D01*
X374499Y27608D01*
X374467Y27569D01*
X374430Y27537D01*
X374366Y27447D01*
X374296Y27363D01*
X374275Y27318D01*
X374246Y27277D01*
X374207Y27174D01*
X374161Y27075D01*
X374151Y27026D01*
X374134Y26980D01*
X374122Y26870D01*
X374101Y26763D01*
X374104Y26713D01*
X374098Y26664D01*
X374114Y26555D01*
X374121Y26445D01*
X374136Y26398D01*
X374143Y26349D01*
X374195Y26196D01*
X375355Y23396D01*
X375355Y20264D01*
X374156Y17369D01*
X371941Y15154D01*
X369046Y13955D01*
X365914Y13955D01*
X363019Y15154D01*
X360804Y17369D01*
X359605Y20264D01*
X359605Y23396D01*
X360765Y26196D01*
X360778Y26244D01*
X360799Y26289D01*
X360820Y26397D01*
X360849Y26503D01*
X360850Y26553D01*
X360859Y26602D01*
X360852Y26711D01*
X360854Y26821D01*
X360842Y26869D01*
X360839Y26919D01*
X360806Y27023D01*
X360780Y27130D01*
X360757Y27174D01*
X360741Y27221D01*
X360683Y27314D01*
X360631Y27411D01*
X360598Y27448D01*
X360571Y27490D01*
X360491Y27565D01*
X360417Y27647D01*
X360376Y27674D01*
X360340Y27708D01*
X360243Y27761D01*
X360152Y27821D01*
X360105Y27838D01*
X360061Y27862D01*
X359955Y27889D01*
X359851Y27925D01*
X359801Y27929D01*
X359753Y27941D01*
X359592Y27951D01*
X308829Y27951D01*
X308779Y27945D01*
X308730Y27947D01*
X308622Y27925D01*
X308513Y27911D01*
X308467Y27893D01*
X308418Y27883D01*
X308320Y27835D01*
X308218Y27794D01*
X308177Y27765D01*
X308133Y27743D01*
X308049Y27672D01*
X307960Y27608D01*
X307929Y27569D01*
X307891Y27537D01*
X307828Y27447D01*
X307757Y27363D01*
X307736Y27318D01*
X307708Y27277D01*
X307669Y27174D01*
X307622Y27075D01*
X307613Y27026D01*
X307595Y26980D01*
X307583Y26870D01*
X307562Y26763D01*
X307565Y26713D01*
X307560Y26664D01*
X307575Y26555D01*
X307582Y26445D01*
X307597Y26398D01*
X307604Y26349D01*
X307656Y26196D01*
X308705Y23665D01*
X308705Y19995D01*
X307300Y16605D01*
X304705Y14010D01*
X301315Y12605D01*
X297645Y12605D01*
X294255Y14010D01*
X291660Y16605D01*
X290255Y19995D01*
X290255Y23665D01*
X291660Y27055D01*
X294255Y29650D01*
X295168Y30029D01*
X295193Y30043D01*
X295221Y30052D01*
X295331Y30122D01*
X295444Y30186D01*
X295465Y30207D01*
X295490Y30222D01*
X295579Y30317D01*
X295672Y30407D01*
X295688Y30433D01*
X295708Y30454D01*
X295771Y30568D01*
X295839Y30679D01*
X295847Y30707D01*
X295862Y30733D01*
X295894Y30858D01*
X295932Y30982D01*
X295934Y31012D01*
X295941Y31041D01*
X295951Y31201D01*
X295951Y57908D01*
X295945Y57957D01*
X295947Y58007D01*
X295925Y58114D01*
X295911Y58223D01*
X295893Y58270D01*
X295883Y58318D01*
X295835Y58417D01*
X295794Y58519D01*
X295765Y58559D01*
X295743Y58604D01*
X295672Y58687D01*
X295608Y58776D01*
X295569Y58808D01*
X295537Y58846D01*
X295447Y58909D01*
X295363Y58979D01*
X295318Y59000D01*
X295277Y59029D01*
X295174Y59068D01*
X295075Y59115D01*
X295026Y59124D01*
X294980Y59142D01*
X294870Y59154D01*
X294763Y59175D01*
X294713Y59172D01*
X294664Y59177D01*
X294555Y59162D01*
X294445Y59155D01*
X294398Y59140D01*
X294349Y59133D01*
X294196Y59081D01*
X291634Y58019D01*
X288726Y58019D01*
X286039Y59132D01*
X284657Y60514D01*
X284548Y60599D01*
X284441Y60687D01*
X284422Y60696D01*
X284406Y60709D01*
X284278Y60764D01*
X284153Y60823D01*
X284133Y60827D01*
X284114Y60835D01*
X283976Y60857D01*
X283840Y60883D01*
X283820Y60882D01*
X283800Y60885D01*
X283661Y60872D01*
X283523Y60863D01*
X283504Y60857D01*
X283484Y60855D01*
X283352Y60808D01*
X283221Y60765D01*
X283203Y60754D01*
X283184Y60747D01*
X283069Y60669D01*
X282952Y60595D01*
X282938Y60580D01*
X282921Y60569D01*
X282829Y60464D01*
X282734Y60363D01*
X282724Y60346D01*
X282711Y60330D01*
X282647Y60206D01*
X282580Y60085D01*
X282575Y60065D01*
X282566Y60047D01*
X282536Y59911D01*
X282501Y59777D01*
X282499Y59749D01*
X282496Y59737D01*
X282497Y59716D01*
X282491Y59616D01*
X282491Y58876D01*
X281378Y56189D01*
X279321Y54132D01*
X276634Y53019D01*
X273726Y53019D01*
X271039Y54132D01*
X268982Y56189D01*
X267869Y58876D01*
X267869Y61784D01*
X268982Y64471D01*
X271039Y66528D01*
X273726Y67641D01*
X276634Y67641D01*
X279321Y66528D01*
X280703Y65146D01*
X280785Y65083D01*
X280842Y65029D01*
X280871Y65013D01*
X280919Y64973D01*
X280938Y64964D01*
X280954Y64951D01*
X281082Y64896D01*
X281088Y64893D01*
X281121Y64875D01*
X281133Y64872D01*
X281207Y64837D01*
X281227Y64833D01*
X281246Y64825D01*
X281384Y64803D01*
X281520Y64777D01*
X281540Y64778D01*
X281560Y64775D01*
X281699Y64788D01*
X281837Y64797D01*
X281856Y64803D01*
X281876Y64805D01*
X282008Y64852D01*
X282139Y64895D01*
X282157Y64906D01*
X282176Y64913D01*
X282291Y64991D01*
X282408Y65065D01*
X282422Y65080D01*
X282439Y65091D01*
X282531Y65196D01*
X282626Y65297D01*
X282636Y65314D01*
X282649Y65330D01*
X282713Y65454D01*
X282780Y65575D01*
X282785Y65595D01*
X282794Y65613D01*
X282803Y65653D01*
X282807Y65662D01*
X282819Y65725D01*
X282824Y65749D01*
X282859Y65883D01*
X282861Y65911D01*
X282864Y65923D01*
X282863Y65944D01*
X282864Y65960D01*
X282867Y65974D01*
X282866Y65989D01*
X282869Y66044D01*
X282869Y66784D01*
X283982Y69471D01*
X286039Y71528D01*
X288726Y72641D01*
X291634Y72641D01*
X294196Y71579D01*
X294244Y71566D01*
X294289Y71545D01*
X294397Y71525D01*
X294503Y71496D01*
X294553Y71495D01*
X294602Y71485D01*
X294711Y71492D01*
X294821Y71490D01*
X294869Y71502D01*
X294919Y71505D01*
X295023Y71539D01*
X295130Y71565D01*
X295174Y71588D01*
X295221Y71603D01*
X295314Y71662D01*
X295411Y71713D01*
X295448Y71747D01*
X295490Y71773D01*
X295565Y71853D01*
X295647Y71927D01*
X295674Y71969D01*
X295708Y72005D01*
X295761Y72101D01*
X295821Y72193D01*
X295838Y72240D01*
X295862Y72283D01*
X295889Y72390D01*
X295925Y72494D01*
X295929Y72543D01*
X295941Y72591D01*
X295951Y72752D01*
X295951Y82908D01*
X295945Y82957D01*
X295947Y83007D01*
X295925Y83114D01*
X295911Y83223D01*
X295893Y83270D01*
X295883Y83318D01*
X295835Y83417D01*
X295794Y83519D01*
X295765Y83559D01*
X295743Y83604D01*
X295672Y83688D01*
X295608Y83776D01*
X295569Y83808D01*
X295537Y83846D01*
X295447Y83909D01*
X295363Y83979D01*
X295318Y84000D01*
X295277Y84029D01*
X295174Y84068D01*
X295075Y84115D01*
X295026Y84124D01*
X294980Y84142D01*
X294870Y84154D01*
X294763Y84175D01*
X294713Y84171D01*
X294664Y84177D01*
X294555Y84162D01*
X294445Y84155D01*
X294398Y84140D01*
X294349Y84133D01*
X294196Y84081D01*
X291634Y83019D01*
X288726Y83019D01*
X286039Y84132D01*
X283982Y86189D01*
X282869Y88876D01*
X282869Y91784D01*
X283982Y94471D01*
X286039Y96528D01*
X288726Y97641D01*
X291634Y97641D01*
X294196Y96579D01*
X294244Y96566D01*
X294289Y96545D01*
X294397Y96525D01*
X294503Y96496D01*
X294553Y96495D01*
X294602Y96485D01*
X294711Y96492D01*
X294821Y96490D01*
X294869Y96502D01*
X294919Y96505D01*
X295023Y96539D01*
X295130Y96565D01*
X295174Y96588D01*
X295221Y96603D01*
X295314Y96662D01*
X295411Y96713D01*
X295448Y96747D01*
X295490Y96773D01*
X295565Y96853D01*
X295647Y96927D01*
X295674Y96969D01*
X295708Y97005D01*
X295761Y97101D01*
X295821Y97193D01*
X295838Y97240D01*
X295862Y97283D01*
X295889Y97390D01*
X295925Y97494D01*
X295929Y97543D01*
X295941Y97591D01*
X295948Y97702D01*
X295949Y97705D01*
X295949Y97709D01*
X295951Y97752D01*
X295951Y102908D01*
X295945Y102957D01*
X295947Y103007D01*
X295929Y103095D01*
X295929Y103100D01*
X295927Y103106D01*
X295925Y103114D01*
X295911Y103223D01*
X295893Y103270D01*
X295883Y103318D01*
X295835Y103417D01*
X295794Y103519D01*
X295765Y103559D01*
X295743Y103604D01*
X295672Y103688D01*
X295608Y103776D01*
X295569Y103808D01*
X295537Y103846D01*
X295447Y103909D01*
X295363Y103979D01*
X295318Y104000D01*
X295277Y104029D01*
X295174Y104068D01*
X295075Y104115D01*
X295026Y104124D01*
X294980Y104142D01*
X294870Y104154D01*
X294763Y104175D01*
X294713Y104171D01*
X294664Y104177D01*
X294555Y104162D01*
X294445Y104155D01*
X294398Y104140D01*
X294349Y104133D01*
X294196Y104081D01*
X291634Y103019D01*
X288726Y103019D01*
X286039Y104132D01*
X283982Y106189D01*
X282869Y108876D01*
X282869Y111784D01*
X283982Y114471D01*
X286039Y116528D01*
X288726Y117641D01*
X291634Y117641D01*
X294196Y116579D01*
X294244Y116566D01*
X294289Y116545D01*
X294397Y116525D01*
X294503Y116496D01*
X294553Y116495D01*
X294602Y116485D01*
X294711Y116492D01*
X294821Y116490D01*
X294869Y116502D01*
X294919Y116505D01*
X295023Y116539D01*
X295130Y116565D01*
X295174Y116588D01*
X295221Y116603D01*
X295314Y116662D01*
X295411Y116713D01*
X295448Y116747D01*
X295490Y116773D01*
X295565Y116853D01*
X295647Y116927D01*
X295674Y116969D01*
X295708Y117005D01*
X295761Y117101D01*
X295821Y117193D01*
X295838Y117240D01*
X295862Y117283D01*
X295889Y117390D01*
X295925Y117494D01*
X295929Y117543D01*
X295941Y117591D01*
X295951Y117752D01*
X295951Y126258D01*
X295945Y126308D01*
X295947Y126357D01*
X295925Y126465D01*
X295911Y126574D01*
X295893Y126620D01*
X295883Y126669D01*
X295835Y126767D01*
X295794Y126870D01*
X295765Y126910D01*
X295743Y126954D01*
X295672Y127038D01*
X295608Y127127D01*
X295569Y127159D01*
X295537Y127196D01*
X295447Y127260D01*
X295363Y127330D01*
X295318Y127351D01*
X295277Y127379D01*
X295174Y127418D01*
X295075Y127465D01*
X295026Y127475D01*
X294980Y127492D01*
X294870Y127504D01*
X294763Y127525D01*
X294713Y127522D01*
X294664Y127527D01*
X294555Y127512D01*
X294445Y127505D01*
X294398Y127490D01*
X294349Y127483D01*
X294196Y127431D01*
X292757Y126835D01*
X291929Y126670D01*
X291929Y134850D01*
X291914Y134968D01*
X291907Y135087D01*
X291894Y135125D01*
X291889Y135165D01*
X291846Y135276D01*
X291830Y135324D01*
X291840Y135342D01*
X291850Y135381D01*
X291867Y135417D01*
X291889Y135534D01*
X291919Y135650D01*
X291923Y135710D01*
X291927Y135730D01*
X291925Y135750D01*
X291929Y135810D01*
X291929Y143990D01*
X292757Y143825D01*
X294196Y143229D01*
X294244Y143216D01*
X294289Y143195D01*
X294397Y143174D01*
X294503Y143145D01*
X294553Y143144D01*
X294602Y143135D01*
X294711Y143142D01*
X294821Y143140D01*
X294869Y143152D01*
X294919Y143155D01*
X295023Y143189D01*
X295130Y143214D01*
X295174Y143237D01*
X295221Y143253D01*
X295314Y143312D01*
X295411Y143363D01*
X295448Y143396D01*
X295490Y143423D01*
X295565Y143503D01*
X295647Y143577D01*
X295674Y143618D01*
X295708Y143655D01*
X295761Y143751D01*
X295821Y143843D01*
X295838Y143890D01*
X295862Y143933D01*
X295889Y144039D01*
X295925Y144143D01*
X295929Y144193D01*
X295941Y144241D01*
X295951Y144402D01*
X295951Y169459D01*
X295948Y169488D01*
X295950Y169518D01*
X295928Y169646D01*
X295911Y169774D01*
X295901Y169802D01*
X295896Y169831D01*
X295842Y169949D01*
X295794Y170070D01*
X295777Y170094D01*
X295765Y170121D01*
X295684Y170222D01*
X295608Y170327D01*
X295585Y170346D01*
X295566Y170369D01*
X295463Y170447D01*
X295363Y170530D01*
X295336Y170543D01*
X295312Y170561D01*
X295168Y170631D01*
X294255Y171010D01*
X291660Y173605D01*
X290255Y176995D01*
X290255Y180665D01*
X291660Y184055D01*
X294255Y186650D01*
X297645Y188055D01*
X301315Y188055D01*
X304705Y186650D01*
X307300Y184055D01*
X308705Y180665D01*
X308705Y176995D01*
X307383Y173804D01*
X307370Y173756D01*
X307349Y173711D01*
X307328Y173603D01*
X307299Y173497D01*
X307298Y173447D01*
X307289Y173398D01*
X307296Y173289D01*
X307294Y173179D01*
X307305Y173131D01*
X307308Y173081D01*
X307342Y172977D01*
X307368Y172870D01*
X307391Y172826D01*
X307407Y172779D01*
X307465Y172686D01*
X307517Y172589D01*
X307550Y172552D01*
X307577Y172510D01*
X307657Y172435D01*
X307731Y172353D01*
X307772Y172326D01*
X307808Y172292D01*
X307904Y172239D01*
X307996Y172179D01*
X308043Y172162D01*
X308087Y172138D01*
X308193Y172111D01*
X308297Y172075D01*
X308347Y172071D01*
X308395Y172059D01*
X308555Y172049D01*
X360060Y172049D01*
X360198Y172066D01*
X360337Y172079D01*
X360356Y172086D01*
X360376Y172089D01*
X360505Y172140D01*
X360636Y172187D01*
X360653Y172198D01*
X360672Y172206D01*
X360784Y172287D01*
X360899Y172365D01*
X360913Y172381D01*
X360929Y172392D01*
X361018Y172500D01*
X361110Y172604D01*
X361119Y172622D01*
X361132Y172637D01*
X361191Y172763D01*
X361254Y172887D01*
X361259Y172907D01*
X361267Y172925D01*
X361293Y173061D01*
X361324Y173197D01*
X361323Y173218D01*
X361327Y173237D01*
X361319Y173376D01*
X361314Y173515D01*
X361309Y173535D01*
X361307Y173555D01*
X361265Y173687D01*
X361226Y173821D01*
X361216Y173838D01*
X361209Y173857D01*
X361135Y173975D01*
X361064Y174095D01*
X361046Y174116D01*
X361039Y174126D01*
X361024Y174140D01*
X360958Y174216D01*
X360804Y174369D01*
X359605Y177264D01*
X359605Y180396D01*
X360804Y183291D01*
X363019Y185506D01*
X365914Y186705D01*
X369046Y186705D01*
X371941Y185506D01*
X374156Y183291D01*
X375355Y180396D01*
X375355Y177264D01*
X374156Y174369D01*
X374002Y174216D01*
X373917Y174106D01*
X373828Y173999D01*
X373820Y173980D01*
X373807Y173964D01*
X373752Y173836D01*
X373693Y173711D01*
X373689Y173691D01*
X373681Y173672D01*
X373659Y173535D01*
X373633Y173398D01*
X373634Y173378D01*
X373631Y173358D01*
X373644Y173220D01*
X373653Y173081D01*
X373659Y173062D01*
X373661Y173042D01*
X373708Y172911D01*
X373751Y172779D01*
X373761Y172761D01*
X373768Y172742D01*
X373846Y172627D01*
X373921Y172510D01*
X373936Y172496D01*
X373947Y172479D01*
X374051Y172387D01*
X374152Y172292D01*
X374170Y172282D01*
X374185Y172269D01*
X374309Y172205D01*
X374431Y172138D01*
X374450Y172133D01*
X374469Y172124D01*
X374605Y172094D01*
X374739Y172059D01*
X374767Y172057D01*
X374779Y172054D01*
X374799Y172055D01*
X374900Y172049D01*
X389600Y172049D01*
X389718Y172064D01*
X389837Y172071D01*
X389875Y172084D01*
X389916Y172089D01*
X390026Y172132D01*
X390139Y172169D01*
X390174Y172191D01*
X390211Y172206D01*
X390307Y172275D01*
X390408Y172339D01*
X390436Y172369D01*
X390469Y172392D01*
X390545Y172484D01*
X390626Y172571D01*
X390646Y172606D01*
X390671Y172637D01*
X390722Y172745D01*
X390780Y172849D01*
X390790Y172889D01*
X390807Y172925D01*
X390829Y173042D01*
X390859Y173157D01*
X390863Y173217D01*
X390867Y173237D01*
X390865Y173258D01*
X390869Y173318D01*
X390869Y194200D01*
X390854Y194318D01*
X390847Y194437D01*
X390834Y194475D01*
X390829Y194516D01*
X390786Y194626D01*
X390749Y194739D01*
X390727Y194774D01*
X390712Y194811D01*
X390643Y194907D01*
X390579Y195008D01*
X390549Y195036D01*
X390526Y195069D01*
X390434Y195145D01*
X390347Y195226D01*
X390312Y195246D01*
X390281Y195271D01*
X390173Y195322D01*
X390069Y195380D01*
X390029Y195390D01*
X389993Y195407D01*
X389876Y195429D01*
X389761Y195459D01*
X389701Y195463D01*
X389681Y195467D01*
X389660Y195465D01*
X389600Y195469D01*
X13300Y195469D01*
X13201Y195457D01*
X13102Y195454D01*
X13005Y195432D01*
X12984Y195429D01*
X12973Y195425D01*
X12945Y195418D01*
X10963Y194840D01*
X10872Y194801D01*
X10779Y194771D01*
X10727Y194738D01*
X10671Y194714D01*
X10593Y194653D01*
X10510Y194601D01*
X10468Y194556D01*
X10420Y194519D01*
X10359Y194441D01*
X10292Y194369D01*
X10262Y194316D01*
X10225Y194267D01*
X10186Y194177D01*
X10138Y194091D01*
X10123Y194031D01*
X10099Y193975D01*
X10084Y193878D01*
X10059Y193783D01*
X10053Y193681D01*
X10049Y193661D01*
X10050Y193649D01*
X10049Y193622D01*
X10049Y167088D01*
X10053Y167051D01*
X10051Y167014D01*
X10073Y166894D01*
X10089Y166772D01*
X10102Y166738D01*
X10109Y166702D01*
X10161Y166590D01*
X10206Y166477D01*
X10227Y166447D01*
X10243Y166413D01*
X10320Y166319D01*
X10392Y166219D01*
X10421Y166196D01*
X10444Y166167D01*
X10543Y166095D01*
X10637Y166016D01*
X10671Y166001D01*
X10701Y165979D01*
X10815Y165933D01*
X10925Y165881D01*
X10961Y165874D01*
X10996Y165860D01*
X11117Y165844D01*
X11237Y165821D01*
X11274Y165823D01*
X11311Y165819D01*
X11433Y165833D01*
X11555Y165841D01*
X11590Y165852D01*
X11627Y165857D01*
X11741Y165901D01*
X11857Y165939D01*
X11889Y165959D01*
X11923Y165972D01*
X12023Y166044D01*
X12092Y166087D01*
X12136Y166097D01*
X12160Y166109D01*
X12185Y166115D01*
X12301Y166180D01*
X12420Y166240D01*
X12440Y166257D01*
X12463Y166270D01*
X12560Y166362D01*
X12660Y166449D01*
X12675Y166471D01*
X12694Y166489D01*
X12764Y166601D01*
X13163Y166807D01*
X13201Y166833D01*
X13242Y166851D01*
X13374Y166944D01*
X13712Y167215D01*
X13723Y167218D01*
X13749Y167219D01*
X13875Y167260D01*
X14004Y167295D01*
X14027Y167308D01*
X14052Y167316D01*
X14164Y167386D01*
X14280Y167452D01*
X14299Y167471D01*
X14321Y167485D01*
X14412Y167580D01*
X14844Y167704D01*
X14886Y167722D01*
X14931Y167732D01*
X15078Y167797D01*
X15462Y167995D01*
X15474Y167996D01*
X15500Y167993D01*
X15632Y168007D01*
X15765Y168016D01*
X15790Y168025D01*
X15816Y168027D01*
X15940Y168074D01*
X16067Y168116D01*
X16089Y168130D01*
X16113Y168140D01*
X16221Y168216D01*
X16669Y168251D01*
X16714Y168261D01*
X16759Y168262D01*
X16917Y168296D01*
X17377Y168428D01*
X17426Y168415D01*
X17575Y168405D01*
X17581Y168405D01*
X17583Y168405D01*
X17587Y168405D01*
X18547Y168405D01*
X18569Y168407D01*
X18648Y168409D01*
X19352Y168465D01*
X19451Y168431D01*
X19500Y168427D01*
X19547Y168415D01*
X19708Y168405D01*
X41612Y168405D01*
X41661Y168411D01*
X41709Y168408D01*
X41818Y168431D01*
X41928Y168445D01*
X41973Y168463D01*
X41980Y168464D01*
X42672Y168409D01*
X42694Y168410D01*
X42773Y168405D01*
X43733Y168405D01*
X43815Y168415D01*
X43897Y168415D01*
X43943Y168427D01*
X44403Y168296D01*
X44449Y168289D01*
X44492Y168274D01*
X44651Y168251D01*
X45083Y168217D01*
X45093Y168212D01*
X45113Y168195D01*
X45233Y168137D01*
X45350Y168075D01*
X45376Y168069D01*
X45400Y168057D01*
X45530Y168031D01*
X45659Y168000D01*
X45686Y168001D01*
X45712Y167995D01*
X45843Y168003D01*
X46242Y167797D01*
X46285Y167781D01*
X46325Y167758D01*
X46476Y167704D01*
X46892Y167585D01*
X46901Y167578D01*
X46918Y167557D01*
X47024Y167477D01*
X47127Y167393D01*
X47150Y167382D01*
X47172Y167366D01*
X47294Y167315D01*
X47415Y167259D01*
X47441Y167254D01*
X47465Y167244D01*
X47596Y167225D01*
X47946Y166944D01*
X47985Y166920D01*
X48019Y166890D01*
X48157Y166807D01*
X48542Y166608D01*
X48549Y166599D01*
X48561Y166576D01*
X48649Y166476D01*
X48733Y166373D01*
X48754Y166358D01*
X48772Y166338D01*
X48882Y166264D01*
X48989Y166185D01*
X49014Y166175D01*
X49036Y166160D01*
X49160Y166116D01*
X49448Y165772D01*
X49481Y165740D01*
X49509Y165704D01*
X49628Y165595D01*
X49965Y165325D01*
X49971Y165315D01*
X49978Y165289D01*
X50045Y165174D01*
X50107Y165057D01*
X50125Y165037D01*
X50138Y165014D01*
X50231Y164920D01*
X50321Y164821D01*
X50343Y164807D01*
X50361Y164788D01*
X50474Y164720D01*
X50688Y164326D01*
X50715Y164288D01*
X50735Y164247D01*
X50830Y164117D01*
X51107Y163785D01*
X51111Y163774D01*
X51113Y163748D01*
X51155Y163622D01*
X51193Y163494D01*
X51207Y163472D01*
X51215Y163447D01*
X51288Y163336D01*
X51356Y163221D01*
X51375Y163203D01*
X51390Y163181D01*
X51487Y163092D01*
X51619Y162663D01*
X51638Y162621D01*
X51649Y162577D01*
X51717Y162431D01*
X51923Y162050D01*
X51924Y162039D01*
X51921Y162013D01*
X51938Y161881D01*
X51950Y161748D01*
X51958Y161724D01*
X51962Y161698D01*
X52011Y161574D01*
X52056Y161449D01*
X52070Y161427D01*
X52080Y161402D01*
X52158Y161296D01*
X52203Y160849D01*
X52213Y160805D01*
X52215Y160759D01*
X52252Y160602D01*
X52380Y160189D01*
X52378Y160177D01*
X52370Y160152D01*
X52361Y160019D01*
X52346Y159888D01*
X52350Y159861D01*
X52348Y159835D01*
X52372Y159704D01*
X52391Y159573D01*
X52401Y159548D01*
X52406Y159522D01*
X52461Y159402D01*
X52417Y158956D01*
X52418Y158910D01*
X52411Y158865D01*
X52417Y158704D01*
X52460Y158274D01*
X52456Y158263D01*
X52443Y158240D01*
X52408Y158111D01*
X52367Y157985D01*
X52366Y157958D01*
X52359Y157933D01*
X52357Y157800D01*
X52349Y157667D01*
X52354Y157641D01*
X52354Y157615D01*
X52384Y157487D01*
X52252Y157058D01*
X52245Y157013D01*
X52229Y156970D01*
X52203Y156811D01*
X52160Y156380D01*
X52154Y156370D01*
X52137Y156350D01*
X52077Y156232D01*
X52012Y156115D01*
X52006Y156090D01*
X51994Y156066D01*
X51965Y155937D01*
X51932Y155808D01*
X51931Y155781D01*
X51926Y155756D01*
X51931Y155624D01*
X51717Y155229D01*
X51700Y155187D01*
X51676Y155148D01*
X51619Y154997D01*
X51492Y154583D01*
X51484Y154575D01*
X51463Y154559D01*
X51381Y154454D01*
X51295Y154353D01*
X51283Y154329D01*
X51267Y154309D01*
X51214Y154187D01*
X51155Y154068D01*
X51150Y154042D01*
X51139Y154017D01*
X51118Y153887D01*
X50830Y153543D01*
X50805Y153504D01*
X50774Y153471D01*
X50688Y153334D01*
X50482Y152954D01*
X50473Y152947D01*
X50449Y152935D01*
X50348Y152849D01*
X50244Y152767D01*
X50228Y152746D01*
X50207Y152729D01*
X50131Y152620D01*
X50050Y152515D01*
X50040Y152491D01*
X50024Y152469D01*
X49978Y152345D01*
X49628Y152065D01*
X49599Y152036D01*
X49578Y152020D01*
X49576Y152018D01*
X49558Y152005D01*
X49448Y151888D01*
X49170Y151556D01*
X49160Y151551D01*
X49134Y151544D01*
X49018Y151480D01*
X48900Y151420D01*
X48880Y151403D01*
X48857Y151390D01*
X48760Y151299D01*
X48660Y151211D01*
X48645Y151189D01*
X48626Y151171D01*
X48556Y151059D01*
X48157Y150853D01*
X48119Y150827D01*
X48078Y150809D01*
X47946Y150716D01*
X47608Y150445D01*
X47597Y150442D01*
X47571Y150441D01*
X47445Y150400D01*
X47316Y150365D01*
X47293Y150352D01*
X47268Y150344D01*
X47156Y150274D01*
X47040Y150208D01*
X47021Y150189D01*
X46999Y150175D01*
X46908Y150080D01*
X46476Y149956D01*
X46434Y149938D01*
X46389Y149928D01*
X46242Y149863D01*
X45858Y149665D01*
X45846Y149664D01*
X45820Y149668D01*
X45688Y149653D01*
X45555Y149644D01*
X45530Y149636D01*
X45504Y149633D01*
X45380Y149586D01*
X45253Y149544D01*
X45231Y149530D01*
X45206Y149520D01*
X45099Y149444D01*
X44651Y149409D01*
X44606Y149399D01*
X44561Y149398D01*
X44403Y149364D01*
X43943Y149232D01*
X43894Y149245D01*
X43745Y149255D01*
X43739Y149255D01*
X43737Y149255D01*
X43733Y149255D01*
X42773Y149255D01*
X42751Y149253D01*
X42672Y149251D01*
X41968Y149195D01*
X41869Y149229D01*
X41820Y149233D01*
X41773Y149245D01*
X41612Y149255D01*
X19708Y149255D01*
X19659Y149249D01*
X19611Y149252D01*
X19502Y149229D01*
X19392Y149215D01*
X19347Y149197D01*
X19340Y149196D01*
X18648Y149251D01*
X18626Y149250D01*
X18547Y149255D01*
X17587Y149255D01*
X17505Y149245D01*
X17423Y149245D01*
X17377Y149233D01*
X16917Y149364D01*
X16871Y149371D01*
X16828Y149386D01*
X16669Y149409D01*
X16237Y149443D01*
X16227Y149448D01*
X16207Y149465D01*
X16087Y149523D01*
X15970Y149585D01*
X15944Y149591D01*
X15920Y149603D01*
X15790Y149629D01*
X15661Y149660D01*
X15634Y149659D01*
X15608Y149665D01*
X15477Y149657D01*
X15078Y149863D01*
X15035Y149879D01*
X14995Y149902D01*
X14844Y149956D01*
X14428Y150075D01*
X14419Y150082D01*
X14402Y150103D01*
X14296Y150183D01*
X14193Y150267D01*
X14170Y150278D01*
X14148Y150294D01*
X14026Y150345D01*
X13905Y150401D01*
X13879Y150406D01*
X13855Y150416D01*
X13724Y150435D01*
X13374Y150716D01*
X13335Y150740D01*
X13301Y150771D01*
X13163Y150853D01*
X12778Y151052D01*
X12771Y151061D01*
X12759Y151084D01*
X12671Y151184D01*
X12587Y151287D01*
X12566Y151302D01*
X12548Y151322D01*
X12438Y151396D01*
X12331Y151475D01*
X12306Y151485D01*
X12284Y151500D01*
X12159Y151544D01*
X12093Y151571D01*
X12059Y151602D01*
X12027Y151620D01*
X11999Y151644D01*
X11888Y151696D01*
X11780Y151754D01*
X11744Y151763D01*
X11711Y151779D01*
X11591Y151802D01*
X11472Y151832D01*
X11435Y151832D01*
X11398Y151839D01*
X11276Y151831D01*
X11154Y151831D01*
X11118Y151821D01*
X11081Y151819D01*
X10965Y151781D01*
X10846Y151750D01*
X10814Y151732D01*
X10779Y151721D01*
X10675Y151656D01*
X10568Y151596D01*
X10541Y151571D01*
X10510Y151551D01*
X10426Y151462D01*
X10337Y151377D01*
X10317Y151346D01*
X10292Y151319D01*
X10233Y151212D01*
X10167Y151108D01*
X10156Y151073D01*
X10138Y151041D01*
X10108Y150922D01*
X10070Y150805D01*
X10068Y150769D01*
X10059Y150733D01*
X10049Y150572D01*
X10049Y50088D01*
X10053Y50051D01*
X10051Y50014D01*
X10073Y49894D01*
X10089Y49772D01*
X10102Y49738D01*
X10109Y49702D01*
X10161Y49590D01*
X10206Y49477D01*
X10227Y49447D01*
X10243Y49413D01*
X10320Y49319D01*
X10392Y49219D01*
X10421Y49196D01*
X10444Y49167D01*
X10543Y49095D01*
X10637Y49016D01*
X10671Y49001D01*
X10701Y48979D01*
X10815Y48933D01*
X10925Y48881D01*
X10961Y48874D01*
X10996Y48860D01*
X11117Y48844D01*
X11237Y48821D01*
X11274Y48823D01*
X11311Y48819D01*
X11433Y48833D01*
X11555Y48841D01*
X11590Y48852D01*
X11627Y48857D01*
X11741Y48901D01*
X11857Y48939D01*
X11889Y48959D01*
X11923Y48972D01*
X12023Y49044D01*
X12092Y49087D01*
X12136Y49097D01*
X12160Y49109D01*
X12185Y49115D01*
X12301Y49180D01*
X12420Y49240D01*
X12440Y49257D01*
X12463Y49270D01*
X12560Y49362D01*
X12660Y49449D01*
X12675Y49471D01*
X12694Y49489D01*
X12764Y49601D01*
X13163Y49807D01*
X13201Y49833D01*
X13242Y49851D01*
X13374Y49944D01*
X13712Y50215D01*
X13723Y50218D01*
X13749Y50219D01*
X13875Y50260D01*
X14004Y50295D01*
X14027Y50308D01*
X14052Y50316D01*
X14164Y50386D01*
X14280Y50452D01*
X14299Y50471D01*
X14321Y50485D01*
X14412Y50580D01*
X14844Y50704D01*
X14886Y50722D01*
X14931Y50732D01*
X15078Y50797D01*
X15462Y50995D01*
X15474Y50996D01*
X15500Y50992D01*
X15632Y51007D01*
X15765Y51016D01*
X15790Y51024D01*
X15816Y51027D01*
X15940Y51074D01*
X16067Y51116D01*
X16089Y51130D01*
X16114Y51140D01*
X16221Y51216D01*
X16669Y51251D01*
X16714Y51261D01*
X16759Y51262D01*
X16917Y51296D01*
X17377Y51428D01*
X17426Y51415D01*
X17575Y51405D01*
X17581Y51405D01*
X17583Y51405D01*
X17587Y51405D01*
X18547Y51405D01*
X18569Y51407D01*
X18648Y51409D01*
X19352Y51465D01*
X19451Y51431D01*
X19500Y51427D01*
X19547Y51415D01*
X19708Y51405D01*
X26567Y51405D01*
X26705Y51422D01*
X26843Y51435D01*
X26862Y51442D01*
X26883Y51445D01*
X27012Y51496D01*
X27143Y51543D01*
X27159Y51554D01*
X27178Y51562D01*
X27291Y51643D01*
X27406Y51721D01*
X27419Y51737D01*
X27436Y51748D01*
X27524Y51856D01*
X27616Y51960D01*
X27625Y51978D01*
X27638Y51993D01*
X27697Y52119D01*
X27761Y52243D01*
X27765Y52263D01*
X27774Y52281D01*
X27800Y52417D01*
X27830Y52553D01*
X27830Y52574D01*
X27834Y52593D01*
X27825Y52732D01*
X27821Y52871D01*
X27815Y52891D01*
X27814Y52911D01*
X27771Y53043D01*
X27732Y53177D01*
X27722Y53194D01*
X27716Y53213D01*
X27642Y53331D01*
X27571Y53451D01*
X27552Y53472D01*
X27546Y53482D01*
X27531Y53496D01*
X27464Y53572D01*
X27036Y54000D01*
X26189Y56044D01*
X26189Y58256D01*
X27036Y60300D01*
X28600Y61864D01*
X30644Y62711D01*
X32856Y62711D01*
X34900Y61864D01*
X36464Y60300D01*
X37311Y58256D01*
X37311Y56044D01*
X36464Y54000D01*
X36036Y53572D01*
X35950Y53462D01*
X35862Y53355D01*
X35853Y53336D01*
X35841Y53320D01*
X35785Y53192D01*
X35726Y53067D01*
X35722Y53047D01*
X35714Y53028D01*
X35692Y52890D01*
X35666Y52754D01*
X35668Y52734D01*
X35664Y52714D01*
X35677Y52575D01*
X35686Y52437D01*
X35692Y52418D01*
X35694Y52398D01*
X35741Y52267D01*
X35784Y52135D01*
X35795Y52117D01*
X35802Y52098D01*
X35880Y51984D01*
X35954Y51866D01*
X35969Y51852D01*
X35980Y51835D01*
X36084Y51743D01*
X36186Y51648D01*
X36204Y51638D01*
X36219Y51625D01*
X36343Y51562D01*
X36464Y51494D01*
X36484Y51489D01*
X36502Y51480D01*
X36638Y51450D01*
X36772Y51415D01*
X36800Y51413D01*
X36812Y51410D01*
X36833Y51411D01*
X36933Y51405D01*
X41612Y51405D01*
X41661Y51411D01*
X41709Y51408D01*
X41818Y51431D01*
X41928Y51445D01*
X41973Y51463D01*
X41980Y51464D01*
X42672Y51409D01*
X42694Y51410D01*
X42773Y51405D01*
X43733Y51405D01*
X43815Y51415D01*
X43897Y51415D01*
X43943Y51427D01*
X44403Y51296D01*
X44449Y51289D01*
X44492Y51274D01*
X44651Y51251D01*
X45083Y51217D01*
X45093Y51212D01*
X45113Y51195D01*
X45233Y51137D01*
X45350Y51075D01*
X45376Y51069D01*
X45400Y51057D01*
X45530Y51031D01*
X45659Y51000D01*
X45686Y51001D01*
X45712Y50995D01*
X45843Y51003D01*
X46242Y50797D01*
X46285Y50781D01*
X46325Y50758D01*
X46476Y50704D01*
X46892Y50585D01*
X46901Y50578D01*
X46918Y50557D01*
X47024Y50477D01*
X47127Y50393D01*
X47150Y50382D01*
X47172Y50366D01*
X47294Y50315D01*
X47415Y50259D01*
X47441Y50254D01*
X47465Y50244D01*
X47596Y50225D01*
X47946Y49944D01*
X47985Y49920D01*
X48019Y49889D01*
X48157Y49807D01*
X48542Y49608D01*
X48549Y49599D01*
X48561Y49576D01*
X48649Y49477D01*
X48733Y49373D01*
X48754Y49358D01*
X48772Y49338D01*
X48882Y49264D01*
X48989Y49185D01*
X49014Y49175D01*
X49036Y49160D01*
X49160Y49116D01*
X49448Y48772D01*
X49481Y48740D01*
X49509Y48704D01*
X49628Y48595D01*
X49965Y48324D01*
X49971Y48315D01*
X49978Y48289D01*
X50045Y48174D01*
X50107Y48057D01*
X50125Y48037D01*
X50138Y48014D01*
X50231Y47920D01*
X50321Y47821D01*
X50343Y47807D01*
X50361Y47788D01*
X50474Y47720D01*
X50688Y47326D01*
X50715Y47288D01*
X50735Y47247D01*
X50830Y47117D01*
X51107Y46785D01*
X51111Y46774D01*
X51113Y46748D01*
X51156Y46622D01*
X51193Y46494D01*
X51207Y46472D01*
X51215Y46447D01*
X51288Y46336D01*
X51356Y46221D01*
X51375Y46203D01*
X51390Y46181D01*
X51487Y46092D01*
X51619Y45663D01*
X51638Y45621D01*
X51649Y45577D01*
X51717Y45431D01*
X51923Y45050D01*
X51924Y45039D01*
X51921Y45013D01*
X51938Y44881D01*
X51950Y44749D01*
X51958Y44724D01*
X51962Y44697D01*
X52011Y44574D01*
X52056Y44449D01*
X52070Y44427D01*
X52080Y44402D01*
X52158Y44296D01*
X52203Y43849D01*
X52213Y43805D01*
X52215Y43759D01*
X52252Y43602D01*
X52380Y43189D01*
X52378Y43177D01*
X52370Y43152D01*
X52361Y43020D01*
X52346Y42887D01*
X52350Y42861D01*
X52348Y42835D01*
X52372Y42704D01*
X52391Y42573D01*
X52401Y42548D01*
X52406Y42522D01*
X52461Y42402D01*
X52417Y41956D01*
X52418Y41910D01*
X52411Y41865D01*
X52417Y41704D01*
X52460Y41273D01*
X52456Y41263D01*
X52443Y41240D01*
X52408Y41111D01*
X52367Y40985D01*
X52366Y40958D01*
X52359Y40933D01*
X52357Y40800D01*
X52349Y40667D01*
X52354Y40641D01*
X52354Y40615D01*
X52384Y40487D01*
X52252Y40058D01*
X52245Y40013D01*
X52229Y39970D01*
X52203Y39811D01*
X52160Y39380D01*
X52154Y39370D01*
X52137Y39350D01*
X52077Y39232D01*
X52012Y39115D01*
X52006Y39090D01*
X51994Y39066D01*
X51965Y38936D01*
X51932Y38808D01*
X51931Y38782D01*
X51926Y38756D01*
X51931Y38624D01*
X51717Y38229D01*
X51700Y38187D01*
X51676Y38148D01*
X51619Y37997D01*
X51492Y37583D01*
X51484Y37575D01*
X51463Y37559D01*
X51381Y37454D01*
X51295Y37353D01*
X51283Y37329D01*
X51267Y37309D01*
X51214Y37187D01*
X51155Y37068D01*
X51150Y37042D01*
X51139Y37017D01*
X51118Y36887D01*
X50830Y36543D01*
X50805Y36504D01*
X50774Y36471D01*
X50688Y36334D01*
X50482Y35954D01*
X50473Y35947D01*
X50449Y35935D01*
X50348Y35849D01*
X50244Y35767D01*
X50228Y35746D01*
X50207Y35729D01*
X50131Y35620D01*
X50050Y35515D01*
X50040Y35491D01*
X50024Y35469D01*
X49978Y35345D01*
X49628Y35065D01*
X49596Y35032D01*
X49559Y35005D01*
X49448Y34888D01*
X49170Y34556D01*
X49160Y34551D01*
X49135Y34545D01*
X49019Y34480D01*
X48900Y34420D01*
X48880Y34403D01*
X48857Y34390D01*
X48760Y34298D01*
X48660Y34211D01*
X48645Y34189D01*
X48626Y34171D01*
X48556Y34059D01*
X48157Y33853D01*
X48119Y33827D01*
X48078Y33809D01*
X47946Y33716D01*
X47608Y33445D01*
X47597Y33442D01*
X47571Y33441D01*
X47445Y33400D01*
X47316Y33365D01*
X47293Y33352D01*
X47268Y33344D01*
X47156Y33274D01*
X47040Y33208D01*
X47021Y33189D01*
X46999Y33175D01*
X46908Y33080D01*
X46476Y32956D01*
X46434Y32938D01*
X46389Y32928D01*
X46242Y32863D01*
X45858Y32665D01*
X45846Y32664D01*
X45820Y32667D01*
X45688Y32653D01*
X45555Y32644D01*
X45530Y32635D01*
X45504Y32633D01*
X45380Y32586D01*
X45253Y32544D01*
X45231Y32530D01*
X45207Y32520D01*
X45099Y32444D01*
X44651Y32409D01*
X44606Y32399D01*
X44561Y32398D01*
X44403Y32364D01*
X43943Y32232D01*
X43894Y32245D01*
X43745Y32255D01*
X43739Y32255D01*
X43737Y32255D01*
X43733Y32255D01*
X42773Y32255D01*
X42751Y32253D01*
X42672Y32251D01*
X41968Y32195D01*
X41869Y32229D01*
X41820Y32233D01*
X41773Y32245D01*
X41612Y32255D01*
X19708Y32255D01*
X19659Y32249D01*
X19611Y32252D01*
X19502Y32229D01*
X19392Y32215D01*
X19347Y32197D01*
X19340Y32196D01*
X18648Y32251D01*
X18626Y32250D01*
X18547Y32255D01*
X17587Y32255D01*
X17505Y32245D01*
X17423Y32245D01*
X17377Y32233D01*
X16917Y32364D01*
X16871Y32371D01*
X16828Y32386D01*
X16669Y32409D01*
X16237Y32443D01*
X16227Y32448D01*
X16207Y32465D01*
X16087Y32523D01*
X15970Y32585D01*
X15944Y32591D01*
X15920Y32603D01*
X15790Y32629D01*
X15661Y32660D01*
X15634Y32659D01*
X15608Y32665D01*
X15477Y32657D01*
X15078Y32863D01*
X15035Y32879D01*
X14995Y32902D01*
X14844Y32956D01*
X14428Y33075D01*
X14419Y33082D01*
X14402Y33103D01*
X14296Y33183D01*
X14193Y33267D01*
X14170Y33278D01*
X14148Y33294D01*
X14026Y33345D01*
X13905Y33401D01*
X13879Y33406D01*
X13855Y33416D01*
X13724Y33435D01*
X13374Y33716D01*
X13335Y33740D01*
X13301Y33770D01*
X13163Y33853D01*
X12778Y34052D01*
X12771Y34061D01*
X12759Y34084D01*
X12671Y34184D01*
X12587Y34287D01*
X12566Y34302D01*
X12548Y34322D01*
X12438Y34396D01*
X12331Y34475D01*
X12306Y34485D01*
X12284Y34500D01*
X12159Y34544D01*
X12093Y34571D01*
X12059Y34602D01*
X12027Y34620D01*
X11999Y34644D01*
X11888Y34696D01*
X11780Y34754D01*
X11744Y34763D01*
X11711Y34779D01*
X11591Y34802D01*
X11472Y34832D01*
X11435Y34832D01*
X11398Y34839D01*
X11276Y34831D01*
X11154Y34831D01*
X11118Y34821D01*
X11081Y34819D01*
X10965Y34781D01*
X10846Y34750D01*
X10814Y34732D01*
X10779Y34721D01*
X10675Y34656D01*
X10568Y34596D01*
X10541Y34571D01*
X10510Y34551D01*
X10426Y34462D01*
X10337Y34377D01*
X10317Y34346D01*
X10292Y34319D01*
X10233Y34212D01*
X10167Y34108D01*
X10156Y34073D01*
X10138Y34041D01*
X10108Y33922D01*
X10070Y33805D01*
X10068Y33769D01*
X10059Y33733D01*
X10049Y33572D01*
X10049Y6400D01*
X10064Y6282D01*
X10071Y6163D01*
X10084Y6125D01*
X10089Y6084D01*
X10132Y5974D01*
X10169Y5861D01*
X10191Y5826D01*
X10206Y5789D01*
X10275Y5693D01*
X10339Y5592D01*
X10369Y5564D01*
X10392Y5531D01*
X10484Y5455D01*
X10571Y5374D01*
X10606Y5354D01*
X10637Y5329D01*
X10745Y5278D01*
X10849Y5220D01*
X10889Y5210D01*
X10925Y5193D01*
X11042Y5171D01*
X11157Y5141D01*
X11217Y5137D01*
X11237Y5133D01*
X11258Y5135D01*
X11318Y5131D01*
X389600Y5131D01*
G37*
%LPC*%
G36*
X273726Y93019D02*
X273726Y93019D01*
X271039Y94132D01*
X268976Y96195D01*
X268967Y96221D01*
X268898Y96331D01*
X268833Y96444D01*
X268813Y96465D01*
X268797Y96490D01*
X268703Y96579D01*
X268612Y96672D01*
X268587Y96688D01*
X268565Y96708D01*
X268452Y96771D01*
X268341Y96839D01*
X268313Y96847D01*
X268287Y96862D01*
X268161Y96894D01*
X268037Y96932D01*
X268008Y96934D01*
X267979Y96941D01*
X267818Y96951D01*
X235437Y96951D01*
X212009Y120380D01*
X211931Y120440D01*
X211859Y120508D01*
X211806Y120537D01*
X211758Y120574D01*
X211667Y120614D01*
X211580Y120662D01*
X211521Y120677D01*
X211466Y120701D01*
X211368Y120716D01*
X211272Y120741D01*
X211172Y120747D01*
X211152Y120751D01*
X211139Y120749D01*
X211111Y120751D01*
X55989Y120751D01*
X55890Y120739D01*
X55791Y120736D01*
X55733Y120719D01*
X55673Y120711D01*
X55581Y120675D01*
X55486Y120647D01*
X55434Y120617D01*
X55377Y120594D01*
X55297Y120536D01*
X55212Y120486D01*
X55137Y120420D01*
X55120Y120408D01*
X55112Y120398D01*
X55091Y120380D01*
X44820Y110109D01*
X44760Y110031D01*
X44692Y109959D01*
X44669Y109917D01*
X44647Y109890D01*
X44641Y109877D01*
X44626Y109858D01*
X44586Y109767D01*
X44538Y109680D01*
X44527Y109636D01*
X44511Y109602D01*
X44508Y109586D01*
X44499Y109566D01*
X44484Y109468D01*
X44459Y109372D01*
X44455Y109309D01*
X44451Y109290D01*
X44452Y109271D01*
X44449Y109252D01*
X44451Y109239D01*
X44449Y109211D01*
X44449Y103461D01*
X44450Y103452D01*
X44449Y103442D01*
X44470Y103292D01*
X44489Y103145D01*
X44492Y103137D01*
X44493Y103127D01*
X44545Y102975D01*
X45361Y101007D01*
X45361Y98993D01*
X44590Y97133D01*
X43167Y95710D01*
X41307Y94939D01*
X39293Y94939D01*
X37433Y95710D01*
X36010Y97133D01*
X35239Y98993D01*
X35239Y101007D01*
X36010Y102867D01*
X37433Y104290D01*
X37568Y104346D01*
X37593Y104361D01*
X37621Y104370D01*
X37731Y104439D01*
X37844Y104503D01*
X37865Y104524D01*
X37890Y104540D01*
X37979Y104634D01*
X38072Y104725D01*
X38088Y104750D01*
X38108Y104771D01*
X38171Y104885D01*
X38239Y104996D01*
X38247Y105024D01*
X38262Y105050D01*
X38294Y105176D01*
X38332Y105300D01*
X38334Y105329D01*
X38341Y105358D01*
X38351Y105519D01*
X38351Y112263D01*
X52937Y126849D01*
X214163Y126849D01*
X237591Y103420D01*
X237669Y103360D01*
X237741Y103292D01*
X237794Y103263D01*
X237842Y103226D01*
X237933Y103186D01*
X238020Y103138D01*
X238079Y103123D01*
X238134Y103099D01*
X238232Y103084D01*
X238328Y103059D01*
X238428Y103053D01*
X238448Y103049D01*
X238461Y103051D01*
X238489Y103049D01*
X267545Y103049D01*
X267574Y103052D01*
X267604Y103050D01*
X267732Y103072D01*
X267861Y103089D01*
X267888Y103099D01*
X267917Y103104D01*
X268036Y103158D01*
X268156Y103206D01*
X268180Y103223D01*
X268207Y103235D01*
X268309Y103316D01*
X268414Y103392D01*
X268432Y103415D01*
X268455Y103434D01*
X268534Y103537D01*
X268616Y103637D01*
X268629Y103664D01*
X268647Y103688D01*
X268718Y103832D01*
X268982Y104471D01*
X271039Y106528D01*
X273726Y107641D01*
X276634Y107641D01*
X279321Y106528D01*
X281378Y104471D01*
X282491Y101784D01*
X282491Y98876D01*
X281378Y96189D01*
X279321Y94132D01*
X276634Y93019D01*
X273726Y93019D01*
G37*
%LPD*%
G36*
X42662Y150783D02*
X42662Y150783D01*
X42664Y150781D01*
X44247Y150907D01*
X44253Y150912D01*
X44257Y150909D01*
X45784Y151345D01*
X45789Y151351D01*
X45794Y151349D01*
X47205Y152078D01*
X47208Y152085D01*
X47213Y152083D01*
X48452Y153077D01*
X48454Y153084D01*
X48459Y153084D01*
X49477Y154303D01*
X49478Y154311D01*
X49483Y154311D01*
X50240Y155708D01*
X50239Y155715D01*
X50244Y155717D01*
X50252Y155742D01*
X50418Y156283D01*
X50615Y156924D01*
X50711Y157235D01*
X50708Y157242D01*
X50713Y157244D01*
X50871Y158825D01*
X50867Y158831D01*
X50871Y158835D01*
X50713Y160416D01*
X50708Y160421D01*
X50711Y160425D01*
X50244Y161943D01*
X50238Y161948D01*
X50240Y161953D01*
X49483Y163349D01*
X49476Y163352D01*
X49477Y163357D01*
X48459Y164576D01*
X48452Y164578D01*
X48452Y164583D01*
X47213Y165577D01*
X47205Y165577D01*
X47205Y165582D01*
X45794Y166311D01*
X45786Y166310D01*
X45784Y166315D01*
X44257Y166751D01*
X44250Y166749D01*
X44247Y166753D01*
X42664Y166879D01*
X42661Y166877D01*
X42660Y166879D01*
X18660Y166879D01*
X18658Y166877D01*
X18656Y166879D01*
X17073Y166753D01*
X17067Y166748D01*
X17063Y166751D01*
X15536Y166315D01*
X15531Y166309D01*
X15527Y166311D01*
X14115Y165582D01*
X14112Y165575D01*
X14107Y165577D01*
X12868Y164583D01*
X12866Y164576D01*
X12861Y164576D01*
X11843Y163357D01*
X11842Y163350D01*
X11837Y163349D01*
X11080Y161953D01*
X11081Y161945D01*
X11076Y161943D01*
X10919Y161432D01*
X10888Y161334D01*
X10722Y160792D01*
X10692Y160693D01*
X10691Y160693D01*
X10609Y160425D01*
X10612Y160418D01*
X10607Y160416D01*
X10449Y158835D01*
X10453Y158829D01*
X10449Y158825D01*
X10607Y157244D01*
X10612Y157239D01*
X10609Y157235D01*
X11076Y155717D01*
X11082Y155712D01*
X11080Y155708D01*
X11837Y154311D01*
X11844Y154308D01*
X11843Y154303D01*
X12861Y153084D01*
X12868Y153083D01*
X12868Y153077D01*
X14107Y152083D01*
X14115Y152083D01*
X14115Y152078D01*
X15527Y151349D01*
X15534Y151350D01*
X15536Y151345D01*
X17063Y150909D01*
X17070Y150911D01*
X17073Y150907D01*
X18656Y150781D01*
X18659Y150783D01*
X18660Y150781D01*
X42660Y150781D01*
X42662Y150783D01*
G37*
G36*
X42662Y33783D02*
X42662Y33783D01*
X42664Y33781D01*
X44247Y33907D01*
X44253Y33912D01*
X44257Y33909D01*
X45784Y34345D01*
X45789Y34351D01*
X45794Y34349D01*
X47205Y35078D01*
X47208Y35085D01*
X47213Y35083D01*
X48452Y36077D01*
X48454Y36084D01*
X48459Y36084D01*
X49477Y37303D01*
X49478Y37311D01*
X49483Y37311D01*
X50240Y38708D01*
X50239Y38715D01*
X50244Y38717D01*
X50711Y40235D01*
X50708Y40242D01*
X50713Y40244D01*
X50871Y41825D01*
X50867Y41831D01*
X50871Y41835D01*
X50713Y43416D01*
X50708Y43421D01*
X50711Y43425D01*
X50244Y44943D01*
X50238Y44948D01*
X50240Y44953D01*
X49483Y46349D01*
X49476Y46352D01*
X49477Y46357D01*
X48459Y47576D01*
X48452Y47578D01*
X48452Y47583D01*
X47213Y48577D01*
X47205Y48577D01*
X47205Y48582D01*
X45794Y49311D01*
X45786Y49310D01*
X45784Y49315D01*
X44257Y49751D01*
X44250Y49749D01*
X44247Y49753D01*
X42664Y49879D01*
X42661Y49877D01*
X42660Y49879D01*
X18660Y49879D01*
X18658Y49877D01*
X18656Y49879D01*
X17073Y49753D01*
X17067Y49748D01*
X17063Y49751D01*
X15536Y49315D01*
X15531Y49309D01*
X15527Y49311D01*
X14115Y48582D01*
X14112Y48575D01*
X14107Y48577D01*
X12868Y47583D01*
X12866Y47576D01*
X12861Y47576D01*
X11843Y46357D01*
X11842Y46350D01*
X11837Y46349D01*
X11080Y44953D01*
X11081Y44945D01*
X11076Y44943D01*
X10609Y43425D01*
X10612Y43418D01*
X10607Y43416D01*
X10449Y41835D01*
X10453Y41829D01*
X10449Y41825D01*
X10607Y40244D01*
X10612Y40239D01*
X10609Y40235D01*
X11076Y38717D01*
X11082Y38712D01*
X11080Y38708D01*
X11837Y37311D01*
X11844Y37308D01*
X11843Y37303D01*
X12861Y36084D01*
X12868Y36083D01*
X12868Y36077D01*
X14107Y35083D01*
X14115Y35083D01*
X14115Y35078D01*
X15527Y34349D01*
X15534Y34350D01*
X15536Y34345D01*
X17063Y33909D01*
X17070Y33911D01*
X17073Y33907D01*
X18656Y33781D01*
X18659Y33783D01*
X18660Y33781D01*
X42660Y33781D01*
X42662Y33783D01*
G37*
%LPC*%
G36*
X287603Y126835D02*
X287603Y126835D01*
X285995Y127501D01*
X284548Y128468D01*
X283318Y129698D01*
X282351Y131145D01*
X281685Y132753D01*
X281527Y133546D01*
X281522Y133560D01*
X281521Y133575D01*
X281472Y133710D01*
X281426Y133848D01*
X281418Y133860D01*
X281413Y133874D01*
X281332Y133993D01*
X281254Y134115D01*
X281243Y134125D01*
X281235Y134137D01*
X281127Y134232D01*
X281021Y134331D01*
X281007Y134338D01*
X280996Y134348D01*
X280868Y134413D01*
X280741Y134482D01*
X280726Y134485D01*
X280713Y134492D01*
X280573Y134524D01*
X280432Y134559D01*
X280417Y134559D01*
X280403Y134562D01*
X280259Y134557D01*
X280114Y134556D01*
X280100Y134553D01*
X280085Y134552D01*
X279947Y134512D01*
X279807Y134475D01*
X279794Y134468D01*
X279779Y134464D01*
X279655Y134390D01*
X279529Y134320D01*
X279518Y134310D01*
X279505Y134302D01*
X279385Y134196D01*
X279321Y134132D01*
X276634Y133019D01*
X273726Y133019D01*
X271039Y134132D01*
X268982Y136189D01*
X267869Y138876D01*
X267869Y141784D01*
X268982Y144471D01*
X271039Y146528D01*
X273726Y147641D01*
X276634Y147641D01*
X279321Y146528D01*
X281378Y144471D01*
X282247Y142373D01*
X282271Y142330D01*
X282288Y142283D01*
X282350Y142192D01*
X282404Y142097D01*
X282439Y142061D01*
X282467Y142020D01*
X282549Y141947D01*
X282626Y141868D01*
X282668Y141842D01*
X282705Y141809D01*
X282803Y141759D01*
X282897Y141702D01*
X282944Y141687D01*
X282989Y141665D01*
X283096Y141641D01*
X283201Y141608D01*
X283250Y141606D01*
X283299Y141595D01*
X283408Y141598D01*
X283518Y141593D01*
X283567Y141603D01*
X283617Y141605D01*
X283722Y141635D01*
X283830Y141658D01*
X283875Y141679D01*
X283922Y141693D01*
X284017Y141749D01*
X284116Y141797D01*
X284153Y141830D01*
X284196Y141855D01*
X284317Y141961D01*
X284548Y142192D01*
X285995Y143159D01*
X287603Y143825D01*
X288431Y143990D01*
X288431Y135810D01*
X288446Y135692D01*
X288453Y135573D01*
X288465Y135535D01*
X288471Y135495D01*
X288514Y135384D01*
X288530Y135336D01*
X288520Y135318D01*
X288510Y135279D01*
X288493Y135243D01*
X288471Y135126D01*
X288441Y135010D01*
X288437Y134950D01*
X288433Y134930D01*
X288435Y134910D01*
X288431Y134850D01*
X288431Y126670D01*
X287603Y126835D01*
G37*
%LPD*%
%LPC*%
G36*
X28960Y114281D02*
X28960Y114281D01*
X25818Y115583D01*
X23413Y117988D01*
X22111Y121130D01*
X22111Y124530D01*
X23413Y127672D01*
X25818Y130077D01*
X28960Y131379D01*
X32360Y131379D01*
X35502Y130077D01*
X37907Y127672D01*
X39209Y124530D01*
X39209Y121130D01*
X37907Y117988D01*
X35502Y115583D01*
X32360Y114281D01*
X28960Y114281D01*
G37*
%LPD*%
%LPC*%
G36*
X28960Y69281D02*
X28960Y69281D01*
X25818Y70583D01*
X23413Y72988D01*
X22111Y76130D01*
X22111Y79530D01*
X23413Y82672D01*
X25818Y85077D01*
X28960Y86379D01*
X32360Y86379D01*
X35502Y85077D01*
X37907Y82672D01*
X39209Y79530D01*
X39209Y76130D01*
X37907Y72988D01*
X35502Y70583D01*
X32360Y69281D01*
X28960Y69281D01*
G37*
%LPD*%
%LPC*%
G36*
X273726Y113019D02*
X273726Y113019D01*
X271039Y114132D01*
X268982Y116189D01*
X267869Y118876D01*
X267869Y121784D01*
X268982Y124471D01*
X271039Y126528D01*
X273726Y127641D01*
X276634Y127641D01*
X279321Y126528D01*
X281378Y124471D01*
X282491Y121784D01*
X282491Y118876D01*
X281378Y116189D01*
X279321Y114132D01*
X276634Y113019D01*
X273726Y113019D01*
G37*
%LPD*%
%LPC*%
G36*
X273726Y73019D02*
X273726Y73019D01*
X271039Y74132D01*
X268982Y76189D01*
X267869Y78876D01*
X267869Y81784D01*
X268982Y84471D01*
X271039Y86528D01*
X273726Y87641D01*
X276634Y87641D01*
X279321Y86528D01*
X281378Y84471D01*
X282491Y81784D01*
X282491Y78876D01*
X281378Y76189D01*
X279321Y74132D01*
X276634Y73019D01*
X273726Y73019D01*
G37*
%LPD*%
%LPC*%
G36*
X189093Y85739D02*
X189093Y85739D01*
X187233Y86510D01*
X185810Y87933D01*
X185039Y89793D01*
X185039Y91807D01*
X185810Y93667D01*
X187233Y95090D01*
X187755Y95306D01*
X187798Y95331D01*
X187845Y95348D01*
X187936Y95409D01*
X188031Y95464D01*
X188067Y95498D01*
X188108Y95526D01*
X188181Y95609D01*
X188260Y95685D01*
X188285Y95727D01*
X188318Y95765D01*
X188368Y95863D01*
X188426Y95956D01*
X188440Y96004D01*
X188463Y96048D01*
X188487Y96155D01*
X188519Y96260D01*
X188522Y96310D01*
X188533Y96358D01*
X188529Y96468D01*
X188535Y96578D01*
X188524Y96627D01*
X188523Y96676D01*
X188492Y96782D01*
X188470Y96889D01*
X188448Y96934D01*
X188435Y96982D01*
X188379Y97076D01*
X188331Y97175D01*
X188298Y97213D01*
X188273Y97256D01*
X188167Y97376D01*
X187210Y98333D01*
X186439Y100193D01*
X186439Y102207D01*
X187210Y104067D01*
X188633Y105490D01*
X190493Y106261D01*
X192507Y106261D01*
X194367Y105490D01*
X195790Y104067D01*
X196561Y102207D01*
X196561Y100193D01*
X195790Y98333D01*
X194367Y96910D01*
X193845Y96694D01*
X193802Y96669D01*
X193755Y96652D01*
X193664Y96591D01*
X193569Y96536D01*
X193533Y96502D01*
X193492Y96474D01*
X193419Y96391D01*
X193340Y96315D01*
X193315Y96273D01*
X193282Y96235D01*
X193232Y96137D01*
X193174Y96044D01*
X193160Y95996D01*
X193137Y95952D01*
X193113Y95845D01*
X193081Y95740D01*
X193078Y95690D01*
X193067Y95642D01*
X193071Y95532D01*
X193065Y95422D01*
X193076Y95373D01*
X193077Y95324D01*
X193108Y95218D01*
X193130Y95111D01*
X193152Y95066D01*
X193165Y95018D01*
X193221Y94924D01*
X193269Y94825D01*
X193302Y94787D01*
X193327Y94744D01*
X193433Y94624D01*
X194390Y93667D01*
X195161Y91807D01*
X195161Y89793D01*
X194390Y87933D01*
X192967Y86510D01*
X191107Y85739D01*
X189093Y85739D01*
G37*
%LPD*%
%LPC*%
G36*
X145993Y90242D02*
X145993Y90242D01*
X144133Y91013D01*
X142710Y92436D01*
X141939Y94296D01*
X141939Y96310D01*
X142710Y98170D01*
X143843Y99302D01*
X143916Y99397D01*
X143994Y99486D01*
X144013Y99522D01*
X144037Y99554D01*
X144085Y99663D01*
X144139Y99769D01*
X144148Y99808D01*
X144164Y99846D01*
X144183Y99963D01*
X144209Y100079D01*
X144207Y100120D01*
X144214Y100160D01*
X144203Y100278D01*
X144199Y100397D01*
X144188Y100436D01*
X144184Y100476D01*
X144144Y100589D01*
X144111Y100703D01*
X144090Y100737D01*
X144076Y100776D01*
X144009Y100874D01*
X143949Y100977D01*
X143909Y101022D01*
X143898Y101039D01*
X143882Y101052D01*
X143843Y101097D01*
X142710Y102230D01*
X141939Y104090D01*
X141939Y106104D01*
X142710Y107964D01*
X144133Y109387D01*
X145993Y110158D01*
X148007Y110158D01*
X149867Y109387D01*
X151290Y107964D01*
X152061Y106104D01*
X152061Y104090D01*
X151290Y102230D01*
X150157Y101097D01*
X150084Y101003D01*
X150006Y100914D01*
X149987Y100878D01*
X149962Y100846D01*
X149915Y100737D01*
X149861Y100631D01*
X149852Y100592D01*
X149836Y100554D01*
X149817Y100437D01*
X149791Y100321D01*
X149793Y100280D01*
X149786Y100240D01*
X149797Y100122D01*
X149801Y100003D01*
X149812Y99964D01*
X149816Y99924D01*
X149856Y99812D01*
X149889Y99697D01*
X149910Y99662D01*
X149924Y99624D01*
X149991Y99526D01*
X150051Y99423D01*
X150091Y99378D01*
X150102Y99361D01*
X150118Y99348D01*
X150157Y99302D01*
X151290Y98170D01*
X152061Y96310D01*
X152061Y94296D01*
X151290Y92436D01*
X149867Y91013D01*
X148007Y90242D01*
X145993Y90242D01*
G37*
%LPD*%
%LPC*%
G36*
X197093Y58939D02*
X197093Y58939D01*
X195233Y59710D01*
X193810Y61133D01*
X193028Y63021D01*
X193013Y63046D01*
X193004Y63074D01*
X192935Y63184D01*
X192870Y63297D01*
X192850Y63318D01*
X192834Y63343D01*
X192740Y63432D01*
X192649Y63525D01*
X192624Y63541D01*
X192602Y63561D01*
X192489Y63624D01*
X192378Y63692D01*
X192350Y63700D01*
X192324Y63715D01*
X192198Y63747D01*
X192074Y63785D01*
X192045Y63787D01*
X192016Y63794D01*
X191855Y63804D01*
X189793Y63804D01*
X187933Y64575D01*
X186510Y65998D01*
X185739Y67858D01*
X185739Y69872D01*
X186510Y71732D01*
X187933Y73155D01*
X189793Y73926D01*
X191807Y73926D01*
X193667Y73155D01*
X195090Y71732D01*
X195872Y69844D01*
X195887Y69819D01*
X195896Y69791D01*
X195965Y69681D01*
X196030Y69568D01*
X196050Y69547D01*
X196066Y69522D01*
X196160Y69433D01*
X196251Y69340D01*
X196276Y69324D01*
X196298Y69304D01*
X196411Y69241D01*
X196522Y69173D01*
X196550Y69165D01*
X196576Y69150D01*
X196702Y69118D01*
X196826Y69080D01*
X196855Y69078D01*
X196884Y69071D01*
X197045Y69061D01*
X199107Y69061D01*
X200967Y68290D01*
X202390Y66867D01*
X203161Y65007D01*
X203161Y62993D01*
X202390Y61133D01*
X200967Y59710D01*
X199107Y58939D01*
X197093Y58939D01*
G37*
%LPD*%
%LPC*%
G36*
X70693Y39239D02*
X70693Y39239D01*
X68833Y40010D01*
X67410Y41433D01*
X66639Y43293D01*
X66639Y45307D01*
X67410Y47167D01*
X68833Y48590D01*
X70693Y49361D01*
X72707Y49361D01*
X74567Y48590D01*
X75990Y47167D01*
X76761Y45307D01*
X76761Y43293D01*
X75990Y41433D01*
X74567Y40010D01*
X72707Y39239D01*
X70693Y39239D01*
G37*
%LPD*%
D10*
X30660Y158830D03*
X30660Y41830D03*
D11*
X290180Y65330D03*
X290180Y90330D03*
X290180Y110330D03*
X290180Y135330D03*
X275180Y140330D03*
X275180Y120330D03*
X275180Y100330D03*
X275180Y80330D03*
X275180Y60330D03*
D12*
X299480Y21830D03*
X299480Y178830D03*
D13*
X367480Y21830D03*
X367480Y178830D03*
D14*
X190800Y68865D03*
X190100Y90800D03*
X147000Y95303D03*
X198100Y64000D03*
X191500Y101200D03*
X147000Y105097D03*
X71700Y44300D03*
D15*
X31750Y57150D03*
D14*
X40300Y100000D03*
D16*
X212900Y123800D02*
X236700Y100000D01*
X212900Y123800D02*
X54200Y123800D01*
X41400Y111000D01*
X41400Y102400D01*
X40300Y100000D01*
X236700Y100000D02*
X274850Y100000D01*
D17*
X275180Y100330D01*
D15*
X164465Y73025D03*
D14*
X204200Y88865D03*
D15*
X40640Y130175D03*
M02*
