G04 EAGLE Gerber RS-274X export*
G75*
%MOMM*%
%FSLAX34Y34*%
%LPD*%
%INSilkscreen Bottom*%
%IPPOS*%
%AMOC8*
5,1,8,0,0,1.08239X$1,22.5*%
G01*
%ADD10R,0.252600X0.031581*%
%ADD11R,0.284200X0.031581*%
%ADD12R,0.252700X0.031575*%
%ADD13R,0.252600X0.031575*%
%ADD14R,0.473700X0.031575*%
%ADD15R,0.315800X0.031575*%
%ADD16R,0.284300X0.031575*%
%ADD17R,0.568400X0.031575*%
%ADD18R,0.284200X0.031575*%
%ADD19R,0.347300X0.031575*%
%ADD20R,0.600000X0.031581*%
%ADD21R,0.315800X0.031581*%
%ADD22R,0.284300X0.031581*%
%ADD23R,0.568400X0.031581*%
%ADD24R,0.347300X0.031581*%
%ADD25R,0.252700X0.031581*%
%ADD26R,0.347400X0.031581*%
%ADD27R,0.663200X0.031581*%
%ADD28R,0.694700X0.031581*%
%ADD29R,0.726300X0.031575*%
%ADD30R,0.315700X0.031575*%
%ADD31R,0.347400X0.031575*%
%ADD32R,0.757900X0.031575*%
%ADD33R,0.347400X0.031569*%
%ADD34R,0.315800X0.031569*%
%ADD35R,0.726300X0.031569*%
%ADD36R,0.252600X0.031569*%
%ADD37R,0.284300X0.031569*%
%ADD38R,0.568400X0.031569*%
%ADD39R,0.821100X0.031569*%
%ADD40R,0.252700X0.031569*%
%ADD41R,0.378900X0.031569*%
%ADD42R,0.378900X0.031575*%
%ADD43R,0.789500X0.031575*%
%ADD44R,0.852700X0.031575*%
%ADD45R,0.378900X0.031581*%
%ADD46R,0.379000X0.031581*%
%ADD47R,0.410500X0.031581*%
%ADD48R,0.410500X0.031575*%
%ADD49R,0.442100X0.031575*%
%ADD50R,0.473700X0.031581*%
%ADD51R,0.442100X0.031581*%
%ADD52R,0.536900X0.031575*%
%ADD53R,0.505200X0.031575*%
%ADD54R,0.536900X0.031581*%
%ADD55R,0.821100X0.031581*%
%ADD56R,0.536800X0.031581*%
%ADD57R,0.505200X0.031581*%
%ADD58R,0.221100X0.031575*%
%ADD59R,0.821100X0.031575*%
%ADD60R,0.536800X0.031575*%
%ADD61R,0.221100X0.031569*%
%ADD62R,0.284200X0.031569*%
%ADD63R,0.600000X0.031569*%
%ADD64R,0.536800X0.031569*%
%ADD65R,0.505200X0.031569*%
%ADD66R,0.631600X0.031575*%
%ADD67R,0.505300X0.031575*%
%ADD68R,0.631600X0.031581*%
%ADD69R,0.505300X0.031581*%
%ADD70R,0.568500X0.031581*%
%ADD71R,0.315700X0.031581*%
%ADD72R,0.663200X0.031575*%
%ADD73R,0.410600X0.031575*%
%ADD74R,0.663200X0.031569*%
%ADD75R,0.631600X0.031569*%
%ADD76R,0.852700X0.031569*%
%ADD77R,0.379000X0.031569*%
%ADD78R,0.726300X0.031581*%
%ADD79R,0.600000X0.031575*%
%ADD80R,0.663100X0.031575*%
%ADD81R,0.189500X0.031581*%
%ADD82R,0.157900X0.031575*%
%ADD83R,0.094800X0.031569*%
%ADD84R,0.126300X0.031569*%
%ADD85R,0.221000X0.031575*%
%ADD86R,0.189500X0.031575*%
%ADD87R,0.221000X0.031581*%
%ADD88R,0.473600X0.031581*%
%ADD89R,0.126300X0.031575*%
%ADD90R,0.157900X0.031569*%
%ADD91R,0.189500X0.031569*%
%ADD92R,0.157900X0.031581*%
%ADD93R,13.357900X0.031581*%
%ADD94R,0.821000X0.031581*%
%ADD95R,13.357900X0.031575*%
%ADD96R,0.821000X0.031575*%
%ADD97R,13.357900X0.031569*%
%ADD98R,0.821000X0.031569*%
%ADD99R,0.126300X0.031581*%
%ADD100R,0.979000X0.031575*%
%ADD101R,1.073700X0.031575*%
%ADD102R,2.936800X0.031575*%
%ADD103R,1.010600X0.031581*%
%ADD104R,1.105300X0.031581*%
%ADD105R,2.936800X0.031581*%
%ADD106R,1.042100X0.031575*%
%ADD107R,1.136800X0.031575*%
%ADD108R,2.905300X0.031575*%
%ADD109R,1.073700X0.031569*%
%ADD110R,1.168400X0.031569*%
%ADD111R,2.936900X0.031569*%
%ADD112R,0.726400X0.031569*%
%ADD113R,1.200000X0.031575*%
%ADD114R,2.936900X0.031575*%
%ADD115R,1.231600X0.031581*%
%ADD116R,2.936900X0.031581*%
%ADD117R,1.136900X0.031575*%
%ADD118R,1.231600X0.031575*%
%ADD119R,1.168400X0.031581*%
%ADD120R,1.263200X0.031581*%
%ADD121R,2.905200X0.031581*%
%ADD122R,1.200000X0.031581*%
%ADD123R,1.231500X0.031575*%
%ADD124R,1.326400X0.031575*%
%ADD125R,1.231500X0.031581*%
%ADD126R,1.326400X0.031581*%
%ADD127R,1.263100X0.031575*%
%ADD128R,1.357900X0.031575*%
%ADD129R,1.294700X0.031569*%
%ADD130R,1.389500X0.031569*%
%ADD131R,1.294700X0.031575*%
%ADD132R,1.389500X0.031575*%
%ADD133R,1.326300X0.031581*%
%ADD134R,1.421100X0.031581*%
%ADD135R,1.357800X0.031581*%
%ADD136R,0.631500X0.031581*%
%ADD137R,1.357800X0.031575*%
%ADD138R,1.484200X0.031575*%
%ADD139R,0.694700X0.031575*%
%ADD140R,1.389400X0.031581*%
%ADD141R,1.515800X0.031581*%
%ADD142R,1.421000X0.031575*%
%ADD143R,1.515800X0.031575*%
%ADD144R,1.421000X0.031581*%
%ADD145R,1.547300X0.031581*%
%ADD146R,2.905300X0.031581*%
%ADD147R,0.221100X0.031581*%
%ADD148R,1.452600X0.031581*%
%ADD149R,3.063100X0.031575*%
%ADD150R,0.189400X0.031575*%
%ADD151R,3.094700X0.031569*%
%ADD152R,2.936800X0.031569*%
%ADD153R,3.094700X0.031575*%
%ADD154R,3.126300X0.031581*%
%ADD155R,3.126300X0.031575*%
%ADD156R,3.189400X0.031581*%
%ADD157R,3.315800X0.031581*%
%ADD158R,2.557900X0.031581*%
%ADD159R,3.284200X0.031581*%
%ADD160R,2.526300X0.031581*%
%ADD161R,3.221000X0.031575*%
%ADD162R,3.284200X0.031575*%
%ADD163R,2.526300X0.031575*%
%ADD164R,3.252600X0.031581*%
%ADD165R,3.252700X0.031581*%
%ADD166R,1.294800X0.031575*%
%ADD167R,3.252600X0.031575*%
%ADD168R,3.221100X0.031575*%
%ADD169R,2.557900X0.031575*%
%ADD170R,3.284200X0.031569*%
%ADD171R,3.347300X0.031581*%
%ADD172R,3.347300X0.031575*%
%ADD173R,1.168500X0.031575*%
%ADD174R,3.378900X0.031581*%
%ADD175R,3.378900X0.031575*%
%ADD176R,3.410500X0.031581*%
%ADD177R,3.442100X0.031575*%
%ADD178R,1.168400X0.031575*%
%ADD179R,3.473700X0.031569*%
%ADD180R,1.200000X0.031569*%
%ADD181R,3.473700X0.031575*%
%ADD182R,3.505200X0.031581*%
%ADD183R,3.505200X0.031575*%
%ADD184R,0.063100X0.031575*%
%ADD185R,3.568400X0.031581*%
%ADD186R,3.600000X0.031581*%
%ADD187R,3.600000X0.031575*%
%ADD188R,3.631600X0.031581*%
%ADD189R,3.631600X0.031575*%
%ADD190R,3.663200X0.031569*%
%ADD191R,0.473600X0.031569*%
%ADD192R,3.694700X0.031575*%
%ADD193R,3.694700X0.031581*%
%ADD194R,3.726300X0.031581*%
%ADD195R,2.968400X0.031581*%
%ADD196R,3.726300X0.031575*%
%ADD197R,3.757900X0.031581*%
%ADD198R,3.757900X0.031575*%
%ADD199R,3.789500X0.031581*%
%ADD200R,3.821000X0.031581*%
%ADD201R,3.821000X0.031575*%
%ADD202R,3.852600X0.031569*%
%ADD203R,3.852600X0.031575*%
%ADD204R,2.652600X0.031581*%
%ADD205R,1.263200X0.031575*%
%ADD206R,1.010500X0.031575*%
%ADD207R,1.610500X0.031575*%
%ADD208R,4.326300X0.031575*%
%ADD209R,1.010500X0.031581*%
%ADD210R,1.578900X0.031581*%
%ADD211R,4.294700X0.031581*%
%ADD212R,1.042100X0.031581*%
%ADD213R,4.263100X0.031575*%
%ADD214R,1.484200X0.031581*%
%ADD215R,1.452600X0.031575*%
%ADD216R,1.042100X0.031569*%
%ADD217R,1.421000X0.031569*%
%ADD218R,2.968400X0.031575*%
%ADD219R,1.357900X0.031581*%
%ADD220R,1.294800X0.031581*%
%ADD221R,1.168500X0.031581*%
%ADD222R,0.726400X0.031581*%
%ADD223R,1.010500X0.031569*%
%ADD224R,1.136900X0.031569*%
%ADD225R,1.105300X0.031575*%
%ADD226R,0.631500X0.031569*%
%ADD227R,1.010600X0.031575*%
%ADD228R,1.010600X0.031569*%
%ADD229R,1.168500X0.031569*%
%ADD230R,1.957900X0.031575*%
%ADD231R,1.926300X0.031581*%
%ADD232R,1.926300X0.031575*%
%ADD233R,1.894800X0.031581*%
%ADD234R,1.863200X0.031581*%
%ADD235R,2.968500X0.031575*%
%ADD236R,1.136800X0.031581*%
%ADD237R,2.968400X0.031569*%
%ADD238R,0.221000X0.031569*%
%ADD239C,0.406400*%


D10*
X196292Y68500D03*
D11*
X113082Y68500D03*
D12*
X210819Y68816D03*
D13*
X205134Y68816D03*
D14*
X196135Y68816D03*
D13*
X189345Y68816D03*
D15*
X184608Y68816D03*
D13*
X179871Y68816D03*
D16*
X174661Y68816D03*
D13*
X169134Y68816D03*
D17*
X159976Y68816D03*
X153029Y68816D03*
X146397Y68816D03*
D18*
X141187Y68816D03*
D19*
X135503Y68816D03*
D13*
X129976Y68816D03*
X124608Y68816D03*
D15*
X119871Y68816D03*
D14*
X113082Y68816D03*
D12*
X105661Y68816D03*
D18*
X99187Y68816D03*
X94450Y68816D03*
X90345Y68816D03*
D19*
X84661Y68816D03*
D11*
X210976Y69132D03*
X204976Y69132D03*
D20*
X196134Y69132D03*
D10*
X189345Y69132D03*
D21*
X184924Y69132D03*
D10*
X179871Y69132D03*
D22*
X174661Y69132D03*
D10*
X169134Y69132D03*
D23*
X159976Y69132D03*
X153029Y69132D03*
X146397Y69132D03*
D10*
X141029Y69132D03*
D24*
X135819Y69132D03*
D10*
X129976Y69132D03*
X124608Y69132D03*
D21*
X119871Y69132D03*
D20*
X113082Y69132D03*
D25*
X105661Y69132D03*
D21*
X99345Y69132D03*
D11*
X94450Y69132D03*
D10*
X90187Y69132D03*
D26*
X84976Y69132D03*
D21*
X210818Y69447D03*
X205134Y69447D03*
D27*
X196134Y69447D03*
D10*
X189345Y69447D03*
D21*
X184924Y69447D03*
D10*
X179871Y69447D03*
D22*
X174661Y69447D03*
D10*
X169134Y69447D03*
D23*
X159976Y69447D03*
X153029Y69447D03*
X146397Y69447D03*
D10*
X141029Y69447D03*
D21*
X135976Y69447D03*
D10*
X129976Y69447D03*
X124608Y69447D03*
D21*
X120187Y69447D03*
D28*
X113240Y69447D03*
D25*
X105661Y69447D03*
D21*
X99345Y69447D03*
D11*
X94450Y69447D03*
D10*
X90187Y69447D03*
D21*
X85134Y69447D03*
D15*
X210818Y69763D03*
X205134Y69763D03*
D29*
X196135Y69763D03*
D13*
X189345Y69763D03*
D30*
X185240Y69763D03*
D13*
X179871Y69763D03*
D16*
X174661Y69763D03*
D13*
X169134Y69763D03*
D17*
X159976Y69763D03*
X153029Y69763D03*
X146397Y69763D03*
D13*
X141029Y69763D03*
D31*
X136134Y69763D03*
D13*
X129976Y69763D03*
X124608Y69763D03*
D15*
X120503Y69763D03*
D32*
X113240Y69763D03*
D12*
X105661Y69763D03*
D19*
X99503Y69763D03*
D13*
X94608Y69763D03*
X90187Y69763D03*
D31*
X85292Y69763D03*
D33*
X210976Y70079D03*
D34*
X205134Y70079D03*
D35*
X196135Y70079D03*
D36*
X189345Y70079D03*
D34*
X185555Y70079D03*
D36*
X179871Y70079D03*
D37*
X174661Y70079D03*
D36*
X169134Y70079D03*
D38*
X159976Y70079D03*
X153029Y70079D03*
X146397Y70079D03*
D36*
X141029Y70079D03*
D33*
X136450Y70079D03*
D36*
X129976Y70079D03*
X124608Y70079D03*
D34*
X120503Y70079D03*
D39*
X113240Y70079D03*
D40*
X105661Y70079D03*
D41*
X99661Y70079D03*
D36*
X94608Y70079D03*
X90187Y70079D03*
D33*
X85608Y70079D03*
D42*
X210819Y70395D03*
D31*
X204976Y70395D03*
D43*
X196135Y70395D03*
D13*
X189345Y70395D03*
D15*
X185555Y70395D03*
D13*
X179871Y70395D03*
D16*
X174661Y70395D03*
D13*
X169134Y70395D03*
D17*
X159976Y70395D03*
X153029Y70395D03*
X146397Y70395D03*
D13*
X141029Y70395D03*
D15*
X136608Y70395D03*
D13*
X129976Y70395D03*
X124608Y70395D03*
D15*
X120818Y70395D03*
D44*
X113082Y70395D03*
D12*
X105661Y70395D03*
D42*
X99661Y70395D03*
D13*
X94608Y70395D03*
X90187Y70395D03*
D15*
X85766Y70395D03*
D45*
X210819Y70711D03*
D46*
X205134Y70711D03*
D21*
X198503Y70711D03*
X193766Y70711D03*
D10*
X189345Y70711D03*
D21*
X185871Y70711D03*
D10*
X179871Y70711D03*
D22*
X174661Y70711D03*
D10*
X169134Y70711D03*
D23*
X159976Y70711D03*
X153029Y70711D03*
X146397Y70711D03*
D10*
X141029Y70711D03*
D21*
X136924Y70711D03*
D10*
X129976Y70711D03*
X124608Y70711D03*
D21*
X121134Y70711D03*
D26*
X115924Y70711D03*
D24*
X110240Y70711D03*
D25*
X105661Y70711D03*
D47*
X99819Y70711D03*
D10*
X94608Y70711D03*
X90187Y70711D03*
D21*
X86082Y70711D03*
D48*
X210977Y71026D03*
X204977Y71026D03*
D16*
X198661Y71026D03*
D18*
X193608Y71026D03*
D13*
X189345Y71026D03*
D15*
X186187Y71026D03*
D13*
X179871Y71026D03*
D16*
X174661Y71026D03*
D13*
X169134Y71026D03*
X161555Y71026D03*
D18*
X154450Y71026D03*
D13*
X147976Y71026D03*
X141029Y71026D03*
D30*
X137240Y71026D03*
D13*
X129976Y71026D03*
X124608Y71026D03*
D31*
X121292Y71026D03*
D16*
X116240Y71026D03*
D15*
X110082Y71026D03*
D12*
X105661Y71026D03*
D49*
X99977Y71026D03*
D18*
X94450Y71026D03*
D13*
X90187Y71026D03*
D15*
X86397Y71026D03*
D47*
X210977Y71342D03*
X204977Y71342D03*
D22*
X198661Y71342D03*
D10*
X193450Y71342D03*
D20*
X187608Y71342D03*
D10*
X179871Y71342D03*
D22*
X174661Y71342D03*
D10*
X169134Y71342D03*
X161555Y71342D03*
D11*
X154450Y71342D03*
D10*
X147976Y71342D03*
X141029Y71342D03*
D24*
X137398Y71342D03*
D10*
X129976Y71342D03*
X124608Y71342D03*
D21*
X121450Y71342D03*
D11*
X116555Y71342D03*
D21*
X109766Y71342D03*
D25*
X105661Y71342D03*
D50*
X100135Y71342D03*
D11*
X94450Y71342D03*
D10*
X90187Y71342D03*
D26*
X86555Y71342D03*
D51*
X210819Y71658D03*
X205135Y71658D03*
D25*
X198819Y71658D03*
D11*
X193292Y71658D03*
D23*
X187766Y71658D03*
D10*
X179871Y71658D03*
D22*
X174661Y71658D03*
D10*
X169134Y71658D03*
X161555Y71658D03*
D11*
X154450Y71658D03*
D10*
X147976Y71658D03*
X141029Y71658D03*
D21*
X137555Y71658D03*
D10*
X129976Y71658D03*
D23*
X123029Y71658D03*
D11*
X116555Y71658D03*
X109608Y71658D03*
D25*
X105661Y71658D03*
D50*
X100135Y71658D03*
D11*
X94450Y71658D03*
D10*
X90187Y71658D03*
D21*
X86713Y71658D03*
D14*
X210977Y71974D03*
X204977Y71974D03*
D12*
X198819Y71974D03*
D18*
X193292Y71974D03*
D52*
X187924Y71974D03*
D13*
X179871Y71974D03*
D16*
X174661Y71974D03*
D13*
X169134Y71974D03*
X161555Y71974D03*
D18*
X154450Y71974D03*
D13*
X147976Y71974D03*
X141029Y71974D03*
D15*
X137871Y71974D03*
D13*
X129976Y71974D03*
D17*
X123029Y71974D03*
D13*
X116713Y71974D03*
D18*
X109608Y71974D03*
D12*
X105661Y71974D03*
D53*
X100292Y71974D03*
D18*
X94450Y71974D03*
D13*
X90187Y71974D03*
D15*
X87029Y71974D03*
D50*
X210977Y72290D03*
X204977Y72290D03*
D25*
X198819Y72290D03*
D11*
X193292Y72290D03*
D54*
X187924Y72290D03*
D10*
X179871Y72290D03*
D55*
X171977Y72290D03*
D56*
X160134Y72290D03*
D11*
X154450Y72290D03*
D57*
X146713Y72290D03*
D23*
X139450Y72290D03*
D10*
X129976Y72290D03*
D56*
X123187Y72290D03*
D10*
X116713Y72290D03*
X109450Y72290D03*
D25*
X105661Y72290D03*
D56*
X100450Y72290D03*
D11*
X94450Y72290D03*
D23*
X88608Y72290D03*
D12*
X212082Y72605D03*
D58*
X209398Y72605D03*
X206556Y72605D03*
D13*
X203871Y72605D03*
D12*
X198819Y72605D03*
D18*
X193292Y72605D03*
D17*
X187766Y72605D03*
D13*
X179871Y72605D03*
D59*
X171977Y72605D03*
D60*
X160134Y72605D03*
D18*
X154450Y72605D03*
D53*
X146713Y72605D03*
D60*
X139608Y72605D03*
D13*
X129976Y72605D03*
D17*
X123029Y72605D03*
D18*
X116871Y72605D03*
D13*
X109450Y72605D03*
D12*
X105661Y72605D03*
D18*
X102029Y72605D03*
D13*
X99029Y72605D03*
D18*
X94450Y72605D03*
D60*
X88766Y72605D03*
D37*
X212240Y72921D03*
D61*
X209398Y72921D03*
X206556Y72921D03*
D62*
X203713Y72921D03*
D40*
X198819Y72921D03*
D62*
X193292Y72921D03*
D63*
X187608Y72921D03*
D36*
X179871Y72921D03*
D39*
X171977Y72921D03*
D64*
X160134Y72921D03*
D62*
X154450Y72921D03*
D65*
X146713Y72921D03*
D64*
X139608Y72921D03*
D36*
X129976Y72921D03*
D63*
X122871Y72921D03*
D62*
X116871Y72921D03*
X109292Y72921D03*
D40*
X105661Y72921D03*
D62*
X102029Y72921D03*
D36*
X99029Y72921D03*
D62*
X94450Y72921D03*
D64*
X88766Y72921D03*
D12*
X212398Y73237D03*
D58*
X209398Y73237D03*
X206556Y73237D03*
D13*
X203555Y73237D03*
D12*
X198819Y73237D03*
D18*
X193292Y73237D03*
D66*
X187450Y73237D03*
D13*
X179871Y73237D03*
D59*
X171977Y73237D03*
D60*
X160134Y73237D03*
D18*
X154450Y73237D03*
D53*
X146713Y73237D03*
D67*
X139766Y73237D03*
D13*
X129976Y73237D03*
D66*
X122713Y73237D03*
D18*
X116871Y73237D03*
X109292Y73237D03*
D12*
X105661Y73237D03*
D18*
X102345Y73237D03*
D13*
X99029Y73237D03*
D18*
X94450Y73237D03*
D67*
X88924Y73237D03*
D25*
X212398Y73553D03*
D51*
X207977Y73553D03*
D10*
X203555Y73553D03*
D25*
X198819Y73553D03*
D11*
X193292Y73553D03*
D68*
X187450Y73553D03*
D10*
X179871Y73553D03*
D55*
X171977Y73553D03*
D56*
X160134Y73553D03*
D11*
X154450Y73553D03*
D57*
X146713Y73553D03*
D69*
X139766Y73553D03*
D10*
X129976Y73553D03*
D68*
X122713Y73553D03*
D11*
X116871Y73553D03*
X109292Y73553D03*
D25*
X105661Y73553D03*
D22*
X102661Y73553D03*
D10*
X99029Y73553D03*
D11*
X94450Y73553D03*
D69*
X88924Y73553D03*
D11*
X212555Y73868D03*
D51*
X207977Y73868D03*
D11*
X203397Y73868D03*
D25*
X198819Y73868D03*
D11*
X193292Y73868D03*
D10*
X189345Y73868D03*
D21*
X185555Y73868D03*
D10*
X179871Y73868D03*
D55*
X171977Y73868D03*
D56*
X160134Y73868D03*
D11*
X154450Y73868D03*
D57*
X146713Y73868D03*
D56*
X139608Y73868D03*
D10*
X129976Y73868D03*
X124608Y73868D03*
D22*
X120661Y73868D03*
D11*
X116871Y73868D03*
D10*
X109450Y73868D03*
D70*
X104082Y73868D03*
D10*
X99029Y73868D03*
D11*
X94450Y73868D03*
D56*
X88766Y73868D03*
D13*
X212713Y74184D03*
D49*
X207977Y74184D03*
D12*
X203240Y74184D03*
X198819Y74184D03*
D18*
X193292Y74184D03*
D13*
X189345Y74184D03*
D18*
X185397Y74184D03*
D13*
X179871Y74184D03*
D59*
X171977Y74184D03*
D60*
X160134Y74184D03*
D18*
X154450Y74184D03*
D53*
X146713Y74184D03*
D17*
X139450Y74184D03*
D13*
X129976Y74184D03*
X124608Y74184D03*
D12*
X120503Y74184D03*
D13*
X116713Y74184D03*
X109450Y74184D03*
D52*
X104240Y74184D03*
D13*
X99029Y74184D03*
D18*
X94450Y74184D03*
D17*
X88608Y74184D03*
D10*
X212713Y74500D03*
D47*
X207819Y74500D03*
D25*
X203240Y74500D03*
X198819Y74500D03*
D11*
X193292Y74500D03*
D10*
X189345Y74500D03*
D25*
X185240Y74500D03*
D10*
X179871Y74500D03*
D22*
X174661Y74500D03*
D10*
X169134Y74500D03*
X161555Y74500D03*
D11*
X154450Y74500D03*
D10*
X147976Y74500D03*
X141029Y74500D03*
D21*
X137871Y74500D03*
D10*
X129976Y74500D03*
X124608Y74500D03*
D25*
X120503Y74500D03*
D11*
X116555Y74500D03*
X109608Y74500D03*
D69*
X104398Y74500D03*
D10*
X99029Y74500D03*
D11*
X94450Y74500D03*
D10*
X90187Y74500D03*
D21*
X87029Y74500D03*
D18*
X212871Y74816D03*
D42*
X207977Y74816D03*
D18*
X203082Y74816D03*
D12*
X198819Y74816D03*
D18*
X193292Y74816D03*
D13*
X189345Y74816D03*
D12*
X185240Y74816D03*
D13*
X179871Y74816D03*
D16*
X174661Y74816D03*
D13*
X169134Y74816D03*
X161555Y74816D03*
D18*
X154450Y74816D03*
D13*
X147976Y74816D03*
X141029Y74816D03*
D18*
X137713Y74816D03*
D13*
X129976Y74816D03*
X124608Y74816D03*
D12*
X120503Y74816D03*
D18*
X116555Y74816D03*
X109608Y74816D03*
D14*
X104556Y74816D03*
D13*
X99029Y74816D03*
D18*
X94450Y74816D03*
D13*
X90187Y74816D03*
D18*
X86871Y74816D03*
D10*
X213029Y75132D03*
D45*
X207977Y75132D03*
D10*
X202924Y75132D03*
D25*
X198819Y75132D03*
D11*
X193292Y75132D03*
D10*
X189345Y75132D03*
D25*
X185240Y75132D03*
D10*
X179871Y75132D03*
D22*
X174661Y75132D03*
D10*
X169134Y75132D03*
X161555Y75132D03*
D11*
X154450Y75132D03*
D10*
X147976Y75132D03*
X141029Y75132D03*
D21*
X137555Y75132D03*
D10*
X129976Y75132D03*
X124608Y75132D03*
D25*
X120503Y75132D03*
D22*
X116240Y75132D03*
D21*
X109766Y75132D03*
D51*
X104714Y75132D03*
D10*
X99029Y75132D03*
D11*
X94450Y75132D03*
D10*
X90187Y75132D03*
D21*
X86713Y75132D03*
D10*
X213029Y75447D03*
D45*
X207977Y75447D03*
D10*
X202924Y75447D03*
D25*
X198819Y75447D03*
D11*
X193292Y75447D03*
D10*
X189345Y75447D03*
D11*
X185397Y75447D03*
D10*
X179871Y75447D03*
D22*
X174661Y75447D03*
D10*
X169134Y75447D03*
X161555Y75447D03*
D11*
X154450Y75447D03*
D10*
X147976Y75447D03*
X141029Y75447D03*
D71*
X137240Y75447D03*
D10*
X129976Y75447D03*
X124608Y75447D03*
D22*
X120661Y75447D03*
D21*
X116082Y75447D03*
X110082Y75447D03*
D51*
X104714Y75447D03*
D10*
X99029Y75447D03*
D11*
X94450Y75447D03*
D10*
X90187Y75447D03*
D21*
X86397Y75447D03*
D13*
X213345Y75763D03*
D15*
X207976Y75763D03*
D18*
X202766Y75763D03*
D12*
X198819Y75763D03*
D18*
X193292Y75763D03*
D72*
X187292Y75763D03*
D66*
X179871Y75763D03*
D16*
X174661Y75763D03*
D13*
X169134Y75763D03*
D17*
X159976Y75763D03*
D18*
X154450Y75763D03*
D60*
X146555Y75763D03*
D13*
X141029Y75763D03*
D15*
X136924Y75763D03*
D66*
X129976Y75763D03*
D72*
X122555Y75763D03*
D31*
X115608Y75763D03*
D48*
X110556Y75763D03*
D73*
X104871Y75763D03*
D13*
X99029Y75763D03*
D18*
X94450Y75763D03*
D13*
X90187Y75763D03*
D15*
X86082Y75763D03*
D36*
X213345Y76079D03*
D34*
X207976Y76079D03*
D36*
X202608Y76079D03*
D40*
X198819Y76079D03*
D62*
X193292Y76079D03*
D74*
X187292Y76079D03*
D75*
X179871Y76079D03*
D37*
X174661Y76079D03*
D36*
X169134Y76079D03*
D38*
X159976Y76079D03*
D62*
X154450Y76079D03*
D64*
X146555Y76079D03*
D36*
X141029Y76079D03*
D33*
X136766Y76079D03*
D75*
X129976Y76079D03*
D74*
X122555Y76079D03*
D76*
X113082Y76079D03*
D77*
X105029Y76079D03*
D36*
X99029Y76079D03*
D62*
X94450Y76079D03*
D36*
X90187Y76079D03*
D34*
X85766Y76079D03*
D18*
X213503Y76395D03*
D15*
X207976Y76395D03*
D13*
X202608Y76395D03*
D12*
X198819Y76395D03*
D18*
X193292Y76395D03*
D66*
X187450Y76395D03*
X179871Y76395D03*
D16*
X174661Y76395D03*
D13*
X169134Y76395D03*
D17*
X159976Y76395D03*
D18*
X154450Y76395D03*
D60*
X146555Y76395D03*
D13*
X141029Y76395D03*
D15*
X136608Y76395D03*
D66*
X129976Y76395D03*
X122713Y76395D03*
D43*
X113082Y76395D03*
D31*
X105187Y76395D03*
D13*
X99029Y76395D03*
D18*
X94450Y76395D03*
D13*
X90187Y76395D03*
D15*
X85766Y76395D03*
D25*
X213661Y76711D03*
D10*
X207976Y76711D03*
D11*
X202450Y76711D03*
D25*
X198819Y76711D03*
D11*
X193292Y76711D03*
D68*
X187450Y76711D03*
X179871Y76711D03*
D22*
X174661Y76711D03*
D10*
X169134Y76711D03*
D23*
X159976Y76711D03*
D11*
X154450Y76711D03*
D56*
X146555Y76711D03*
D10*
X141029Y76711D03*
D21*
X136292Y76711D03*
D68*
X129976Y76711D03*
X122713Y76711D03*
D78*
X113082Y76711D03*
D26*
X105187Y76711D03*
D10*
X99029Y76711D03*
D11*
X94450Y76711D03*
D10*
X90187Y76711D03*
D21*
X85450Y76711D03*
D12*
X213661Y77026D03*
D13*
X207976Y77026D03*
X202292Y77026D03*
D12*
X198819Y77026D03*
D18*
X193292Y77026D03*
D79*
X187608Y77026D03*
D66*
X179871Y77026D03*
D16*
X174661Y77026D03*
D13*
X169134Y77026D03*
D17*
X159976Y77026D03*
D18*
X154450Y77026D03*
D60*
X146555Y77026D03*
D13*
X141029Y77026D03*
D15*
X135976Y77026D03*
D66*
X129976Y77026D03*
D79*
X122871Y77026D03*
D80*
X113082Y77026D03*
D15*
X105345Y77026D03*
D13*
X99029Y77026D03*
D18*
X94450Y77026D03*
D13*
X90187Y77026D03*
D15*
X85134Y77026D03*
D11*
X213818Y77342D03*
D10*
X207976Y77342D03*
X202292Y77342D03*
D25*
X198819Y77342D03*
D11*
X193292Y77342D03*
D54*
X187924Y77342D03*
D68*
X179871Y77342D03*
D22*
X174661Y77342D03*
D10*
X169134Y77342D03*
D23*
X159976Y77342D03*
D11*
X154450Y77342D03*
D56*
X146555Y77342D03*
D10*
X141029Y77342D03*
D24*
X135819Y77342D03*
D68*
X129976Y77342D03*
D23*
X123029Y77342D03*
D54*
X113082Y77342D03*
D11*
X105503Y77342D03*
D10*
X99029Y77342D03*
D11*
X94450Y77342D03*
D10*
X90187Y77342D03*
D26*
X84976Y77342D03*
D10*
X213976Y77658D03*
D81*
X207977Y77658D03*
D11*
X202134Y77658D03*
D25*
X198819Y77658D03*
D11*
X193292Y77658D03*
D50*
X188240Y77658D03*
D68*
X179871Y77658D03*
D22*
X174661Y77658D03*
D11*
X168976Y77658D03*
D23*
X159976Y77658D03*
D11*
X154450Y77658D03*
D56*
X146555Y77658D03*
D10*
X141029Y77658D03*
D24*
X135503Y77658D03*
D68*
X129976Y77658D03*
D50*
X123503Y77658D03*
D47*
X113082Y77658D03*
D25*
X105661Y77658D03*
D10*
X99029Y77658D03*
D11*
X94450Y77658D03*
D10*
X90187Y77658D03*
D24*
X84661Y77658D03*
D82*
X113082Y77974D03*
D83*
X197713Y78921D03*
D84*
X194398Y78921D03*
D85*
X197713Y79237D03*
D86*
X194398Y79237D03*
D87*
X197713Y79553D03*
D25*
X194398Y79553D03*
D26*
X94450Y79553D03*
D87*
X197713Y79868D03*
D25*
X194398Y79868D03*
D88*
X94450Y79868D03*
D85*
X197713Y80184D03*
D12*
X194398Y80184D03*
D79*
X94450Y80184D03*
D87*
X197713Y80500D03*
D81*
X194398Y80500D03*
D27*
X94450Y80500D03*
D82*
X197714Y80816D03*
D89*
X194398Y80816D03*
D16*
X96661Y80816D03*
X92240Y80816D03*
D87*
X97292Y81132D03*
X91608Y81132D03*
X97608Y81447D03*
X91292Y81447D03*
D86*
X98082Y81763D03*
X91135Y81763D03*
D90*
X98240Y82079D03*
D91*
X90819Y82079D03*
D86*
X98398Y82395D03*
D82*
X90661Y82395D03*
D92*
X98556Y82711D03*
X90345Y82711D03*
D82*
X98556Y83026D03*
X90345Y83026D03*
D92*
X98872Y83342D03*
X90345Y83342D03*
D93*
X164872Y83658D03*
D94*
X86713Y83658D03*
D95*
X164872Y83974D03*
D96*
X86713Y83974D03*
D93*
X164872Y84290D03*
D94*
X86713Y84290D03*
D95*
X164872Y84605D03*
D96*
X86713Y84605D03*
D97*
X164872Y84921D03*
D98*
X86713Y84921D03*
D82*
X98872Y85237D03*
D89*
X90187Y85237D03*
D99*
X98714Y85553D03*
D92*
X90345Y85553D03*
X98556Y85868D03*
X90345Y85868D03*
D82*
X98556Y86184D03*
D86*
X90503Y86184D03*
D92*
X98240Y86500D03*
X90661Y86500D03*
D100*
X210029Y86816D03*
D101*
X194082Y86816D03*
D102*
X170871Y86816D03*
D86*
X98082Y86816D03*
X90819Y86816D03*
D103*
X209871Y87132D03*
D104*
X193924Y87132D03*
D105*
X170871Y87132D03*
D81*
X97766Y87132D03*
X91135Y87132D03*
D103*
X209871Y87447D03*
D104*
X193924Y87447D03*
D105*
X170555Y87447D03*
D87*
X97608Y87447D03*
X91608Y87447D03*
D106*
X209714Y87763D03*
D107*
X193766Y87763D03*
D108*
X170398Y87763D03*
D13*
X97134Y87763D03*
D18*
X91924Y87763D03*
D109*
X209556Y88079D03*
D110*
X193924Y88079D03*
D111*
X170240Y88079D03*
D112*
X94450Y88079D03*
D101*
X209556Y88395D03*
D113*
X193766Y88395D03*
D114*
X169924Y88395D03*
D66*
X94608Y88395D03*
D104*
X209398Y88711D03*
D115*
X193608Y88711D03*
D116*
X169924Y88711D03*
D56*
X94450Y88711D03*
D117*
X209240Y89026D03*
D118*
X193608Y89026D03*
D102*
X169608Y89026D03*
D73*
X94450Y89026D03*
D119*
X209397Y89342D03*
D120*
X193450Y89342D03*
D121*
X169450Y89342D03*
D87*
X94450Y89342D03*
D122*
X209239Y89658D03*
D120*
X193450Y89658D03*
D105*
X169292Y89658D03*
D123*
X209082Y89974D03*
D124*
X193450Y89974D03*
D114*
X168977Y89974D03*
D125*
X209082Y90290D03*
D126*
X193450Y90290D03*
D116*
X168977Y90290D03*
D127*
X208924Y90605D03*
D128*
X193293Y90605D03*
D114*
X168661Y90605D03*
D129*
X208766Y90921D03*
D130*
X193135Y90921D03*
D111*
X168661Y90921D03*
D91*
X111661Y90921D03*
D131*
X208766Y91237D03*
D132*
X193135Y91237D03*
D102*
X168345Y91237D03*
D48*
X111503Y91237D03*
D133*
X208608Y91553D03*
D134*
X192977Y91553D03*
D105*
X168029Y91553D03*
D54*
X111503Y91553D03*
D135*
X208450Y91868D03*
D134*
X192977Y91868D03*
D105*
X168029Y91868D03*
D136*
X111661Y91868D03*
D137*
X208450Y92184D03*
D138*
X192976Y92184D03*
D102*
X167713Y92184D03*
D139*
X111661Y92184D03*
D140*
X208292Y92500D03*
D141*
X192818Y92500D03*
D105*
X167713Y92500D03*
D10*
X114187Y92500D03*
X109134Y92500D03*
D142*
X208134Y92816D03*
D143*
X192818Y92816D03*
D114*
X167398Y92816D03*
D58*
X114661Y92816D03*
X108661Y92816D03*
D144*
X208134Y93132D03*
D145*
X192661Y93132D03*
D146*
X167240Y93132D03*
D147*
X114977Y93132D03*
X108345Y93132D03*
D148*
X207976Y93447D03*
D145*
X192661Y93447D03*
D116*
X167082Y93447D03*
D81*
X115135Y93447D03*
X108187Y93447D03*
D149*
X199924Y93763D03*
D102*
X166766Y93763D03*
D150*
X115450Y93763D03*
X107871Y93763D03*
D151*
X199766Y94079D03*
D152*
X166766Y94079D03*
D90*
X115608Y94079D03*
X107714Y94079D03*
D153*
X199766Y94395D03*
D102*
X166450Y94395D03*
D82*
X115608Y94395D03*
X107398Y94395D03*
D154*
X199608Y94711D03*
D105*
X166450Y94711D03*
D92*
X115924Y94711D03*
X107398Y94711D03*
D155*
X199608Y95026D03*
D102*
X166134Y95026D03*
D82*
X115924Y95026D03*
X107398Y95026D03*
D126*
X225029Y95342D03*
D156*
X199608Y95342D03*
D116*
X165819Y95342D03*
D157*
X131713Y95342D03*
D158*
X95398Y95342D03*
D126*
X225029Y95658D03*
D156*
X199608Y95658D03*
D116*
X165819Y95658D03*
D159*
X131555Y95658D03*
D160*
X95240Y95658D03*
D124*
X225029Y95974D03*
D161*
X199450Y95974D03*
D114*
X165503Y95974D03*
D162*
X131555Y95974D03*
D163*
X95240Y95974D03*
D126*
X225029Y96290D03*
D164*
X199292Y96290D03*
D116*
X165503Y96290D03*
D165*
X131398Y96290D03*
D160*
X95240Y96290D03*
D166*
X225187Y96605D03*
D167*
X199292Y96605D03*
D113*
X173871Y96605D03*
D168*
X131240Y96605D03*
D169*
X95398Y96605D03*
D170*
X199134Y96921D03*
D110*
X173713Y96921D03*
D90*
X115924Y96921D03*
X107398Y96921D03*
D162*
X199134Y97237D03*
D113*
X173555Y97237D03*
D82*
X115924Y97237D03*
X107398Y97237D03*
D157*
X198976Y97553D03*
D119*
X173397Y97553D03*
D92*
X115608Y97553D03*
D81*
X107556Y97553D03*
D171*
X198819Y97868D03*
D122*
X173239Y97868D03*
D92*
X115608Y97868D03*
X107714Y97868D03*
D172*
X198819Y98184D03*
D173*
X173082Y98184D03*
D82*
X115293Y98184D03*
D150*
X107871Y98184D03*
D174*
X198661Y98500D03*
D119*
X172766Y98500D03*
D81*
X115135Y98500D03*
X108187Y98500D03*
D175*
X198661Y98816D03*
D113*
X172608Y98816D03*
D86*
X114819Y98816D03*
D58*
X108345Y98816D03*
D176*
X198503Y99132D03*
D119*
X172450Y99132D03*
D25*
X114503Y99132D03*
X108819Y99132D03*
D176*
X198503Y99447D03*
D122*
X172292Y99447D03*
D11*
X114029Y99447D03*
X109292Y99447D03*
D177*
X198345Y99763D03*
D178*
X172134Y99763D03*
D139*
X111661Y99763D03*
D179*
X198187Y100079D03*
D180*
X171976Y100079D03*
D63*
X111503Y100079D03*
D181*
X198187Y100395D03*
D173*
X171819Y100395D03*
D67*
X111661Y100395D03*
D182*
X198029Y100711D03*
D119*
X171503Y100711D03*
D45*
X111661Y100711D03*
D183*
X198029Y101026D03*
D113*
X171345Y101026D03*
D184*
X111661Y101026D03*
D185*
X198029Y101342D03*
D119*
X171187Y101342D03*
D186*
X197871Y101658D03*
D122*
X171029Y101658D03*
D187*
X197871Y101974D03*
D178*
X170871Y101974D03*
D188*
X197713Y102290D03*
D119*
X170555Y102290D03*
D189*
X197713Y102605D03*
D113*
X170397Y102605D03*
D18*
X94450Y102605D03*
D190*
X197555Y102921D03*
D111*
X161398Y102921D03*
D191*
X94450Y102921D03*
D192*
X197398Y103237D03*
D114*
X161398Y103237D03*
D79*
X94450Y103237D03*
D193*
X197398Y103553D03*
D116*
X161082Y103553D03*
D27*
X94450Y103553D03*
D194*
X197240Y103868D03*
D195*
X160924Y103868D03*
D26*
X96345Y103868D03*
X92555Y103868D03*
D196*
X197240Y104184D03*
D102*
X160766Y104184D03*
D13*
X97134Y104184D03*
X91766Y104184D03*
D197*
X197082Y104500D03*
D105*
X160450Y104500D03*
D87*
X97608Y104500D03*
X91292Y104500D03*
D198*
X197082Y104816D03*
D102*
X160450Y104816D03*
D58*
X97924Y104816D03*
D86*
X91135Y104816D03*
D199*
X196924Y105132D03*
D105*
X160134Y105132D03*
D81*
X98082Y105132D03*
X90819Y105132D03*
D200*
X196766Y105447D03*
D105*
X160134Y105447D03*
D81*
X98398Y105447D03*
D92*
X90661Y105447D03*
D201*
X196766Y105763D03*
D114*
X159819Y105763D03*
D82*
X98556Y105763D03*
D86*
X90503Y105763D03*
D202*
X196608Y106079D03*
D111*
X159503Y106079D03*
D90*
X98556Y106079D03*
X90345Y106079D03*
D203*
X196608Y106395D03*
D114*
X159503Y106395D03*
D82*
X98872Y106395D03*
X90345Y106395D03*
D204*
X202608Y106711D03*
D122*
X183029Y106711D03*
D105*
X159187Y106711D03*
D92*
X98872Y106711D03*
X90029Y106711D03*
D205*
X225345Y107026D03*
D206*
X210819Y107026D03*
D207*
X197398Y107026D03*
D113*
X182713Y107026D03*
D102*
X159187Y107026D03*
D208*
X119714Y107026D03*
D96*
X86713Y107026D03*
D120*
X225345Y107342D03*
D209*
X210819Y107342D03*
D210*
X197240Y107342D03*
D119*
X182555Y107342D03*
D105*
X158871Y107342D03*
D211*
X119556Y107342D03*
D94*
X86713Y107342D03*
D120*
X225345Y107658D03*
D212*
X210977Y107658D03*
D145*
X197082Y107658D03*
D122*
X182397Y107658D03*
D195*
X158713Y107658D03*
D211*
X119556Y107658D03*
D94*
X86713Y107658D03*
D205*
X225345Y107974D03*
D106*
X210977Y107974D03*
D138*
X197082Y107974D03*
D173*
X182240Y107974D03*
D102*
X158555Y107974D03*
D213*
X119398Y107974D03*
D96*
X86713Y107974D03*
D212*
X210977Y108290D03*
D214*
X197082Y108290D03*
D122*
X182082Y108290D03*
D116*
X158240Y108290D03*
D92*
X98872Y108290D03*
X90029Y108290D03*
D106*
X210977Y108605D03*
D215*
X196924Y108605D03*
D113*
X181766Y108605D03*
D114*
X158240Y108605D03*
D89*
X98714Y108605D03*
D82*
X90345Y108605D03*
D216*
X210977Y108921D03*
D217*
X196766Y108921D03*
D110*
X181608Y108921D03*
D111*
X157924Y108921D03*
D90*
X98556Y108921D03*
X90345Y108921D03*
D206*
X211135Y109237D03*
D142*
X196766Y109237D03*
D113*
X181450Y109237D03*
D218*
X157766Y109237D03*
D82*
X98556Y109237D03*
D86*
X90503Y109237D03*
D209*
X211135Y109553D03*
D219*
X196766Y109553D03*
D119*
X181292Y109553D03*
D105*
X157608Y109553D03*
D92*
X98240Y109553D03*
X90661Y109553D03*
D209*
X211135Y109868D03*
D133*
X196608Y109868D03*
D122*
X181134Y109868D03*
D105*
X157292Y109868D03*
D81*
X98082Y109868D03*
X90819Y109868D03*
D206*
X211135Y110184D03*
D166*
X196450Y110184D03*
D178*
X180976Y110184D03*
D102*
X157292Y110184D03*
D86*
X97766Y110184D03*
X91135Y110184D03*
D209*
X211135Y110500D03*
D220*
X196450Y110500D03*
D221*
X180661Y110500D03*
D116*
X156977Y110500D03*
D87*
X97608Y110500D03*
X91292Y110500D03*
D206*
X211135Y110816D03*
D205*
X196292Y110816D03*
D113*
X180503Y110816D03*
D114*
X156977Y110816D03*
D13*
X97134Y110816D03*
X91766Y110816D03*
D209*
X211135Y111132D03*
D115*
X196134Y111132D03*
D119*
X180345Y111132D03*
D116*
X156661Y111132D03*
D222*
X94450Y111132D03*
D209*
X211135Y111447D03*
D119*
X196134Y111447D03*
D122*
X180187Y111447D03*
D195*
X156503Y111447D03*
D27*
X94450Y111447D03*
D206*
X211135Y111763D03*
D178*
X196134Y111763D03*
X180029Y111763D03*
D102*
X156345Y111763D03*
D17*
X94608Y111763D03*
D223*
X211135Y112079D03*
D224*
X195977Y112079D03*
D110*
X179713Y112079D03*
D152*
X156029Y112079D03*
D191*
X94450Y112079D03*
D206*
X211135Y112395D03*
D225*
X195819Y112395D03*
D113*
X179555Y112395D03*
D102*
X156029Y112395D03*
D18*
X94450Y112395D03*
D209*
X211135Y112711D03*
D104*
X195819Y112711D03*
D119*
X179397Y112711D03*
D105*
X155713Y112711D03*
D206*
X211135Y113026D03*
D113*
X179239Y113026D03*
X164397Y113026D03*
D209*
X211135Y113342D03*
D221*
X179082Y113342D03*
D122*
X164082Y113342D03*
D212*
X211293Y113658D03*
D119*
X178766Y113658D03*
X163924Y113658D03*
D106*
X211293Y113974D03*
D113*
X178608Y113974D03*
X163766Y113974D03*
D89*
X111661Y113974D03*
D212*
X211293Y114290D03*
D119*
X178450Y114290D03*
D122*
X163450Y114290D03*
D45*
X111661Y114290D03*
D106*
X211293Y114605D03*
D113*
X178292Y114605D03*
X163450Y114605D03*
D67*
X111661Y114605D03*
D216*
X211293Y114921D03*
D110*
X178134Y114921D03*
D180*
X163134Y114921D03*
D226*
X111661Y114921D03*
D106*
X211293Y115237D03*
D173*
X177819Y115237D03*
D118*
X162976Y115237D03*
D139*
X111661Y115237D03*
D212*
X211293Y115553D03*
D221*
X177819Y115553D03*
D122*
X162818Y115553D03*
D11*
X114029Y115553D03*
X109292Y115553D03*
D103*
X211450Y115868D03*
D119*
X177503Y115868D03*
D122*
X162503Y115868D03*
D25*
X114503Y115868D03*
D147*
X108661Y115868D03*
D227*
X211450Y116184D03*
D113*
X177345Y116184D03*
X162503Y116184D03*
D86*
X114819Y116184D03*
D58*
X108345Y116184D03*
D103*
X211450Y116500D03*
D119*
X177187Y116500D03*
D122*
X162187Y116500D03*
D81*
X115135Y116500D03*
X108187Y116500D03*
D227*
X211450Y116816D03*
D178*
X176871Y116816D03*
D118*
X162029Y116816D03*
D82*
X115293Y116816D03*
D150*
X107871Y116816D03*
D103*
X211450Y117132D03*
D119*
X176871Y117132D03*
D122*
X161871Y117132D03*
D92*
X115608Y117132D03*
X107714Y117132D03*
D103*
X211450Y117447D03*
D119*
X176555Y117447D03*
D122*
X161555Y117447D03*
D92*
X115608Y117447D03*
D81*
X107556Y117447D03*
D227*
X211450Y117763D03*
D113*
X176397Y117763D03*
D218*
X152713Y117763D03*
D82*
X115924Y117763D03*
X107398Y117763D03*
D228*
X211450Y118079D03*
D229*
X176240Y118079D03*
D152*
X152555Y118079D03*
D90*
X115924Y118079D03*
X107398Y118079D03*
D113*
X225661Y118395D03*
D227*
X211450Y118395D03*
D178*
X175924Y118395D03*
D218*
X152397Y118395D03*
D230*
X124924Y118395D03*
D169*
X95398Y118395D03*
D122*
X225661Y118711D03*
D103*
X211450Y118711D03*
D119*
X175924Y118711D03*
D116*
X152240Y118711D03*
D231*
X124766Y118711D03*
D160*
X95240Y118711D03*
D113*
X225661Y119026D03*
D227*
X211450Y119026D03*
D178*
X175608Y119026D03*
D114*
X151924Y119026D03*
D232*
X124766Y119026D03*
D163*
X95240Y119026D03*
D122*
X225661Y119342D03*
D103*
X211450Y119342D03*
D122*
X175450Y119342D03*
D195*
X151766Y119342D03*
D233*
X124608Y119342D03*
D160*
X95240Y119342D03*
D122*
X225661Y119658D03*
D212*
X211608Y119658D03*
D119*
X175292Y119658D03*
D105*
X151608Y119658D03*
D234*
X124450Y119658D03*
D158*
X95398Y119658D03*
D106*
X211608Y119974D03*
D178*
X174976Y119974D03*
D218*
X151450Y119974D03*
D82*
X115924Y119974D03*
X107398Y119974D03*
D212*
X211608Y120290D03*
D119*
X174976Y120290D03*
D105*
X151292Y120290D03*
D92*
X115924Y120290D03*
X107398Y120290D03*
D106*
X211608Y120605D03*
D173*
X174661Y120605D03*
D218*
X151134Y120605D03*
D82*
X115608Y120605D03*
X107398Y120605D03*
D216*
X211608Y120921D03*
D229*
X174661Y120921D03*
D111*
X150977Y120921D03*
D90*
X115608Y120921D03*
X107714Y120921D03*
D106*
X211608Y121237D03*
D178*
X174345Y121237D03*
D114*
X150661Y121237D03*
D150*
X115450Y121237D03*
X107871Y121237D03*
D212*
X211608Y121553D03*
D119*
X174029Y121553D03*
D195*
X150503Y121553D03*
D81*
X115135Y121553D03*
X108187Y121553D03*
D212*
X211608Y121868D03*
D119*
X174029Y121868D03*
D105*
X150345Y121868D03*
D81*
X114819Y121868D03*
D147*
X108345Y121868D03*
D106*
X211608Y122184D03*
D178*
X173713Y122184D03*
D218*
X150187Y122184D03*
D58*
X114661Y122184D03*
X108661Y122184D03*
D209*
X211766Y122500D03*
D119*
X173713Y122500D03*
D105*
X150029Y122500D03*
D11*
X114029Y122500D03*
D10*
X109134Y122500D03*
D206*
X211766Y122816D03*
D178*
X173397Y122816D03*
D102*
X149713Y122816D03*
D139*
X111661Y122816D03*
D209*
X211766Y123132D03*
D221*
X173082Y123132D03*
D195*
X149555Y123132D03*
D136*
X111661Y123132D03*
D209*
X211766Y123447D03*
D221*
X173082Y123447D03*
D116*
X149398Y123447D03*
D69*
X111661Y123447D03*
D206*
X211766Y123763D03*
D178*
X172766Y123763D03*
D235*
X149240Y123763D03*
D42*
X111661Y123763D03*
D223*
X211766Y124079D03*
D110*
X172766Y124079D03*
D111*
X149082Y124079D03*
D91*
X111661Y124079D03*
D206*
X211766Y124395D03*
D178*
X172450Y124395D03*
D218*
X148924Y124395D03*
D209*
X211766Y124711D03*
D119*
X172134Y124711D03*
D195*
X148608Y124711D03*
D206*
X211766Y125026D03*
D178*
X172134Y125026D03*
D102*
X148450Y125026D03*
D209*
X211766Y125342D03*
D221*
X171819Y125342D03*
D195*
X148292Y125342D03*
D26*
X94450Y125342D03*
D212*
X211924Y125658D03*
D221*
X171819Y125658D03*
D105*
X148134Y125658D03*
D88*
X94450Y125658D03*
D106*
X211924Y125974D03*
D178*
X171503Y125974D03*
D218*
X147976Y125974D03*
D79*
X94450Y125974D03*
D212*
X211924Y126290D03*
D236*
X171345Y126290D03*
D116*
X147819Y126290D03*
D27*
X94450Y126290D03*
D106*
X211924Y126605D03*
D178*
X171187Y126605D03*
D114*
X147503Y126605D03*
D16*
X96661Y126605D03*
X92240Y126605D03*
D216*
X211924Y126921D03*
D110*
X170871Y126921D03*
D237*
X147345Y126921D03*
D238*
X97292Y126921D03*
X91608Y126921D03*
D106*
X211924Y127237D03*
D178*
X170871Y127237D03*
D102*
X147187Y127237D03*
D85*
X97608Y127237D03*
X91292Y127237D03*
D212*
X211924Y127553D03*
D119*
X170555Y127553D03*
D195*
X147029Y127553D03*
D81*
X98082Y127553D03*
X91135Y127553D03*
D92*
X98240Y127868D03*
D81*
X90819Y127868D03*
D86*
X98398Y128184D03*
D82*
X90661Y128184D03*
D92*
X98556Y128500D03*
X90345Y128500D03*
D82*
X98556Y128816D03*
X90345Y128816D03*
D92*
X98872Y129132D03*
X90345Y129132D03*
D93*
X164872Y129447D03*
D94*
X86713Y129447D03*
D95*
X164872Y129763D03*
D96*
X86713Y129763D03*
D97*
X164872Y130079D03*
D98*
X86713Y130079D03*
D95*
X164872Y130395D03*
D96*
X86713Y130395D03*
D93*
X164872Y130711D03*
D94*
X86713Y130711D03*
D82*
X98872Y131026D03*
D89*
X90187Y131026D03*
D99*
X98714Y131342D03*
D92*
X90345Y131342D03*
X98556Y131658D03*
X90345Y131658D03*
D82*
X98556Y131974D03*
D86*
X90503Y131974D03*
D92*
X98240Y132290D03*
X90661Y132290D03*
D86*
X98082Y132605D03*
X90819Y132605D03*
D91*
X97766Y132921D03*
X91135Y132921D03*
D85*
X97608Y133237D03*
X91608Y133237D03*
D10*
X97134Y133553D03*
D11*
X91924Y133553D03*
D222*
X94450Y133868D03*
D66*
X94608Y134184D03*
D56*
X94450Y134500D03*
D73*
X94450Y134816D03*
D87*
X94450Y135132D03*
D239*
X255550Y177525D02*
X255550Y190225D01*
X249200Y183875D02*
X261900Y183875D01*
X255550Y22225D02*
X255550Y9525D01*
X249200Y15875D02*
X261900Y15875D01*
X26550Y22225D02*
X26550Y9525D01*
X20200Y15875D02*
X32900Y15875D01*
M02*
